<svg xmlns="http://www.w3.org/2000/svg" xmlns:xlink="http://www.w3.org/1999/xlink" width="952" zoomAndPan="magnify" viewBox="0 0 714 173.249993" height="231" preserveAspectRatio="xMidYMid meet" version="1.2"><defs><clipPath id="50b3880ff4"><path d="M 1.539062 65 L 712.460938 65 L 712.460938 136 L 1.539062 136 Z M 1.539062 65 "/></clipPath></defs><g id="8e292851b4"><g style="fill:#396c84;fill-opacity:1;"><g transform="translate(57.369922, 78.530037)"><path style="stroke:none" d="M 6.375 10.96875 L 6.375 -32.625 C 6.375 -33.289062 6.265625 -33.71875 6.046875 -33.90625 C 5.835938 -34.09375 5.398438 -34.1875 4.734375 -34.1875 L 2.15625 -34.1875 L 2.15625 -43.015625 L 12.6875 -43.015625 C 14.457031 -43.015625 15.695312 -42.65625 16.40625 -41.9375 C 17.125 -41.21875 17.484375 -40 17.484375 -38.28125 L 17.484375 10.96875 Z M 6.375 10.96875 "/></g></g><g style="fill:#396c84;fill-opacity:1;"><g transform="translate(78.805111, 78.530037)"><path style="stroke:none" d="M 27.03125 0 L 16.984375 0 L 12.765625 -15.046875 C 12.328125 -14.859375 12.035156 -14.644531 11.890625 -14.40625 C 11.753906 -14.164062 11.660156 -13.859375 11.609375 -13.484375 L 10.609375 0 L 0.078125 0 L 2.078125 -16.421875 C 2.265625 -17.941406 2.671875 -19.109375 3.296875 -19.921875 C 3.921875 -20.734375 4.878906 -21.40625 6.171875 -21.9375 L 10.6875 -23.796875 C 11.445312 -24.128906 12.015625 -24.570312 12.390625 -25.125 C 12.773438 -25.675781 12.96875 -26.476562 12.96875 -27.53125 L 12.96875 -32.265625 C 12.96875 -33.078125 12.847656 -33.597656 12.609375 -33.828125 C 12.378906 -34.066406 11.859375 -34.1875 11.046875 -34.1875 L 5.875 -34.1875 L 5.875 -43.015625 L 17.34375 -43.015625 C 19.445312 -43.015625 20.988281 -42.472656 21.96875 -41.390625 C 22.945312 -40.316406 23.4375 -38.585938 23.4375 -36.203125 L 23.4375 -22.71875 C 23.4375 -21.625 23.289062 -20.738281 23 -20.0625 C 22.71875 -19.394531 22.316406 -18.875 21.796875 -18.5 Z M 27.03125 0 "/></g></g><g style="fill:#396c84;fill-opacity:1;"><g transform="translate(106.764065, 78.530037)"><path style="stroke:none" d="M 34.484375 -6.09375 C 34.578125 -3.988281 34.132812 -2.445312 33.15625 -1.46875 C 32.175781 -0.488281 30.5625 0 28.3125 0 L 17.78125 0 L 17.78125 -8.8125 L 21.359375 -8.8125 C 22.128906 -8.8125 22.609375 -8.96875 22.796875 -9.28125 C 22.984375 -9.59375 23.054688 -10.109375 23.015625 -10.828125 L 21.9375 -30.6875 C 21.882812 -32.070312 21.703125 -33.050781 21.390625 -33.625 C 21.085938 -34.195312 20.53125 -34.484375 19.71875 -34.484375 L 19.421875 -34.484375 C 18.804688 -34.484375 18.363281 -34.300781 18.09375 -33.9375 C 17.832031 -33.582031 17.628906 -32.851562 17.484375 -31.75 L 13.265625 0 L 1.9375 0 L 5.953125 -27.59375 C 6.378906 -30.601562 7.210938 -32.800781 8.453125 -34.1875 L 3.15625 -34.1875 L 3.15625 -43.015625 L 23.578125 -43.015625 C 26.304688 -43.015625 28.503906 -42.269531 30.171875 -40.78125 C 31.847656 -39.300781 32.78125 -36.507812 32.96875 -32.40625 Z M 34.484375 -6.09375 "/></g></g><g style="fill:#396c84;fill-opacity:1;"><g transform="translate(143.827593, 78.530037)"><path style="stroke:none" d=""/></g></g><g style="fill:#396c84;fill-opacity:1;"><g transform="translate(158.523966, 78.530037)"><path style="stroke:none" d="M 13.6875 0 L 13.6875 -31.609375 C 13.6875 -33.328125 12.828125 -34.1875 11.109375 -34.1875 L 1 -34.1875 L 1 -43.015625 L 17.5625 -43.015625 C 20.238281 -43.015625 22.113281 -42.460938 23.1875 -41.359375 C 24.257812 -40.265625 24.796875 -38.398438 24.796875 -35.765625 L 24.796875 0 Z M 13.6875 0 "/></g></g><g style="fill:#396c84;fill-opacity:1;"><g transform="translate(187.271506, 78.530037)"><path style="stroke:none" d="M 6.3125 -18.203125 L 6.3125 -32.625 C 6.3125 -33.289062 6.203125 -33.71875 5.984375 -33.90625 C 5.765625 -34.09375 5.320312 -34.1875 4.65625 -34.1875 L 1.9375 -34.1875 L 1.9375 -43.015625 L 11.75 -43.015625 C 13.8125 -43.015625 15.257812 -42.59375 16.09375 -41.75 C 16.925781 -40.914062 17.34375 -39.472656 17.34375 -37.421875 L 17.34375 -18.203125 Z M 6.3125 -18.203125 "/></g></g><g style="fill:#396c84;fill-opacity:1;"><g transform="translate(208.133186, 78.530037)"><path style="stroke:none" d="M 33.546875 -43.015625 C 35.648438 -43.015625 37.0625 -42.296875 37.78125 -40.859375 C 38.5 -39.429688 38.617188 -37.664062 38.140625 -35.5625 L 30.828125 0 L 19.578125 0 L 25.875 -32.46875 C 26.019531 -33.28125 26.046875 -33.816406 25.953125 -34.078125 C 25.859375 -34.347656 25.40625 -34.484375 24.59375 -34.484375 L 18.921875 -34.484375 C 18.347656 -34.484375 17.894531 -34.410156 17.5625 -34.265625 C 17.226562 -34.117188 17.0625 -33.570312 17.0625 -32.625 L 17.0625 1.71875 C 17.0625 2.289062 17.347656 2.578125 17.921875 2.578125 L 19.640625 2.578125 L 19.640625 10.96875 L 9.890625 10.96875 C 7.265625 10.96875 5.953125 9.65625 5.953125 7.03125 L 5.953125 -31.25 C 5.953125 -32.6875 6.210938 -33.664062 6.734375 -34.1875 L 2.578125 -34.1875 L 2.578125 -43.015625 Z M 33.546875 -43.015625 "/></g></g><g style="fill:#396c84;fill-opacity:1;"><g transform="translate(248.566135, 78.530037)"><path style="stroke:none" d=""/></g></g><g style="fill:#396c84;fill-opacity:1;"><g transform="translate(263.262507, 78.530037)"><path style="stroke:none" d="M 6.375 10.96875 L 6.375 -32.625 C 6.375 -33.289062 6.265625 -33.71875 6.046875 -33.90625 C 5.835938 -34.09375 5.398438 -34.1875 4.734375 -34.1875 L 2.15625 -34.1875 L 2.15625 -43.015625 L 12.6875 -43.015625 C 14.457031 -43.015625 15.695312 -42.65625 16.40625 -41.9375 C 17.125 -41.21875 17.484375 -40 17.484375 -38.28125 L 17.484375 10.96875 Z M 6.375 10.96875 "/></g></g><g style="fill:#396c84;fill-opacity:1;"><g transform="translate(284.697697, 78.530037)"><path style="stroke:none" d="M 6.375 0 L 6.375 -32.625 C 6.375 -33.289062 6.265625 -33.71875 6.046875 -33.90625 C 5.835938 -34.09375 5.398438 -34.1875 4.734375 -34.1875 L 2.15625 -34.1875 L 2.15625 -43.015625 L 12.6875 -43.015625 C 14.457031 -43.015625 15.695312 -42.65625 16.40625 -41.9375 C 17.125 -41.21875 17.484375 -40 17.484375 -38.28125 L 17.484375 0 Z M 6.375 0 "/></g></g><g style="fill:#396c84;fill-opacity:1;"><g transform="translate(306.132886, 78.530037)"><path style="stroke:none" d="M 0.21875 0 L 0.21875 -8.8125 L 6.171875 -8.8125 C 7.171875 -8.8125 7.835938 -8.976562 8.171875 -9.3125 C 8.503906 -9.65625 8.671875 -10.347656 8.671875 -11.390625 L 8.671875 -32.046875 C 8.671875 -32.898438 8.523438 -33.46875 8.234375 -33.75 C 7.953125 -34.039062 7.40625 -34.1875 6.59375 -34.1875 L 4.09375 -34.1875 L 4.09375 -43.015625 L 13.1875 -43.015625 C 15.582031 -43.015625 17.28125 -42.472656 18.28125 -41.390625 C 19.28125 -40.316406 19.78125 -38.515625 19.78125 -35.984375 L 19.78125 -7.171875 C 19.78125 -4.535156 19.265625 -2.679688 18.234375 -1.609375 C 17.210938 -0.535156 15.484375 0 13.046875 0 Z M 0.21875 0 "/></g></g><g style="fill:#396c84;fill-opacity:1;"><g transform="translate(329.503705, 78.530037)"><path style="stroke:none" d="M 1.296875 0 L 1.296875 -8.8125 L 12.328125 -8.8125 C 13.191406 -8.8125 13.773438 -8.953125 14.078125 -9.234375 C 14.390625 -9.523438 14.546875 -10.078125 14.546875 -10.890625 L 14.546875 -32.046875 C 14.546875 -32.898438 14.390625 -33.46875 14.078125 -33.75 C 13.773438 -34.039062 13.191406 -34.1875 12.328125 -34.1875 L 2.078125 -34.1875 L 2.078125 -43.015625 L 18.859375 -43.015625 C 21.335938 -43.015625 23.09375 -42.5 24.125 -41.46875 C 25.15625 -40.445312 25.671875 -38.691406 25.671875 -36.203125 L 25.671875 -6.734375 C 25.671875 -4.296875 25.15625 -2.5625 24.125 -1.53125 C 23.09375 -0.507812 21.335938 0 18.859375 0 Z M 1.296875 0 "/></g></g><g style="fill:#396c84;fill-opacity:1;"><g transform="translate(358.753058, 78.530037)"><path style="stroke:none" d="M 28.25 -43.015625 C 30.925781 -43.015625 32.820312 -42.453125 33.9375 -41.328125 C 35.0625 -40.203125 35.625 -38.28125 35.625 -35.5625 L 35.625 0 L 24.515625 0 L 24.515625 -31.75 C 24.515625 -32.707031 24.347656 -33.398438 24.015625 -33.828125 C 23.679688 -34.265625 23.0625 -34.484375 22.15625 -34.484375 L 20.21875 -34.484375 C 18.59375 -34.484375 17.46875 -33.976562 16.84375 -32.96875 C 16.226562 -31.96875 16.207031 -29.867188 16.78125 -26.671875 L 19.359375 -11.609375 C 20.078125 -7.691406 19.859375 -4.773438 18.703125 -2.859375 C 17.554688 -0.953125 15.238281 0 11.75 0 L 2.21875 0 L 2.21875 -8.8125 L 6.453125 -8.8125 C 7.117188 -8.8125 7.628906 -9.003906 7.984375 -9.390625 C 8.347656 -9.773438 8.457031 -10.492188 8.3125 -11.546875 L 5.953125 -25.234375 C 5.472656 -27.910156 5.398438 -29.925781 5.734375 -31.28125 C 6.066406 -32.644531 6.5 -33.613281 7.03125 -34.1875 L 2.359375 -34.1875 L 2.359375 -43.015625 Z M 28.25 -43.015625 "/></g></g><g style="fill:#396c84;fill-opacity:1;"><g transform="translate(398.397444, 78.530037)"><path style="stroke:none" d="M 11.46875 0 C 8.695312 0 6.832031 -0.867188 5.875 -2.609375 C 4.914062 -4.359375 4.960938 -6.859375 6.015625 -10.109375 L 13.046875 -31.90625 C 13.523438 -33.425781 13 -34.1875 11.46875 -34.1875 L 3.078125 -34.1875 C 2.316406 -34.1875 1.78125 -34.34375 1.46875 -34.65625 C 1.15625 -34.96875 1 -35.53125 1 -36.34375 L 1 -48.75 L 11.46875 -48.75 L 11.46875 -43.015625 L 19.140625 -43.015625 C 21.867188 -43.015625 23.769531 -42.117188 24.84375 -40.328125 C 25.914062 -38.535156 25.972656 -36.15625 25.015625 -33.1875 L 17.421875 -10.6875 C 17.234375 -10.15625 17.195312 -9.707031 17.3125 -9.34375 C 17.425781 -8.988281 17.796875 -8.8125 18.421875 -8.8125 L 21.578125 -8.8125 L 21.578125 0 Z M 11.46875 0 "/></g></g><g style="fill:#396c84;fill-opacity:1;"><g transform="translate(426.069626, 78.530037)"><path style="stroke:none" d=""/></g></g><g style="fill:#396c84;fill-opacity:1;"><g transform="translate(440.765999, 78.530037)"><path style="stroke:none" d="M 28.25 -43.015625 C 30.925781 -43.015625 32.820312 -42.453125 33.9375 -41.328125 C 35.0625 -40.203125 35.625 -38.28125 35.625 -35.5625 L 35.625 0 L 24.515625 0 L 24.515625 -31.75 C 24.515625 -32.707031 24.347656 -33.398438 24.015625 -33.828125 C 23.679688 -34.265625 23.0625 -34.484375 22.15625 -34.484375 L 20.21875 -34.484375 C 18.59375 -34.484375 17.46875 -33.976562 16.84375 -32.96875 C 16.226562 -31.96875 16.207031 -29.867188 16.78125 -26.671875 L 19.359375 -11.609375 C 20.078125 -7.691406 19.859375 -4.773438 18.703125 -2.859375 C 17.554688 -0.953125 15.238281 0 11.75 0 L 2.21875 0 L 2.21875 -8.8125 L 6.453125 -8.8125 C 7.117188 -8.8125 7.628906 -9.003906 7.984375 -9.390625 C 8.347656 -9.773438 8.457031 -10.492188 8.3125 -11.546875 L 5.953125 -25.234375 C 5.472656 -27.910156 5.398438 -29.925781 5.734375 -31.28125 C 6.066406 -32.644531 6.5 -33.613281 7.03125 -34.1875 L 2.359375 -34.1875 L 2.359375 -43.015625 Z M 28.25 -43.015625 "/></g></g><g style="fill:#396c84;fill-opacity:1;"><g transform="translate(480.410339, 78.530037)"><path style="stroke:none" d="M 6.375 0 L 6.375 -32.625 C 6.375 -33.289062 6.265625 -33.71875 6.046875 -33.90625 C 5.835938 -34.09375 5.398438 -34.1875 4.734375 -34.1875 L 2.15625 -34.1875 L 2.15625 -43.015625 L 12.6875 -43.015625 C 14.457031 -43.015625 15.695312 -42.65625 16.40625 -41.9375 C 17.125 -41.21875 17.484375 -40 17.484375 -38.28125 L 17.484375 0 Z M 6.375 0 "/></g></g><g style="fill:#396c84;fill-opacity:1;"><g transform="translate(501.845529, 78.530037)"><path style="stroke:none" d="M 14.34375 -22.515625 C 13.71875 -22.273438 13.359375 -21.9375 13.265625 -21.5 C 13.171875 -21.070312 13.242188 -20.378906 13.484375 -19.421875 L 16.703125 -9.03125 C 17.515625 -6.445312 17.679688 -4.296875 17.203125 -2.578125 C 16.722656 -0.859375 15.265625 0 12.828125 0 L 2.4375 0 L 2.4375 -8.8125 L 4.734375 -8.8125 C 5.347656 -8.8125 5.609375 -9.078125 5.515625 -9.609375 L 3.65625 -18.5625 C 3.175781 -20.8125 3.140625 -22.648438 3.546875 -24.078125 C 3.953125 -25.515625 4.644531 -26.710938 5.625 -27.671875 C 6.601562 -28.628906 7.664062 -29.414062 8.8125 -30.03125 L 9.890625 -30.609375 L 2.515625 -43.015625 L 13.828125 -43.015625 L 23.875 -24.953125 C 24.257812 -25.191406 24.519531 -25.488281 24.65625 -25.84375 C 24.800781 -26.195312 24.875 -26.78125 24.875 -27.59375 L 24.875 -43.015625 L 35.484375 -43.015625 L 35.484375 -26.734375 C 35.484375 -24.535156 35.039062 -22.679688 34.15625 -21.171875 C 33.269531 -19.671875 31.726562 -18.253906 29.53125 -16.921875 L 28.53125 -16.265625 L 36.921875 0 L 25.734375 0 L 14.40625 -22.515625 Z M 14.34375 -22.515625 "/></g></g><g style="fill:#396c84;fill-opacity:1;"><g transform="translate(540.271176, 78.530037)"><path style="stroke:none" d="M 34.484375 -6.09375 C 34.578125 -3.988281 34.132812 -2.445312 33.15625 -1.46875 C 32.175781 -0.488281 30.5625 0 28.3125 0 L 17.78125 0 L 17.78125 -8.8125 L 21.359375 -8.8125 C 22.128906 -8.8125 22.609375 -8.96875 22.796875 -9.28125 C 22.984375 -9.59375 23.054688 -10.109375 23.015625 -10.828125 L 21.9375 -30.6875 C 21.882812 -32.070312 21.703125 -33.050781 21.390625 -33.625 C 21.085938 -34.195312 20.53125 -34.484375 19.71875 -34.484375 L 19.421875 -34.484375 C 18.804688 -34.484375 18.363281 -34.300781 18.09375 -33.9375 C 17.832031 -33.582031 17.628906 -32.851562 17.484375 -31.75 L 13.265625 0 L 1.9375 0 L 5.953125 -27.59375 C 6.378906 -30.601562 7.210938 -32.800781 8.453125 -34.1875 L 3.15625 -34.1875 L 3.15625 -43.015625 L 23.578125 -43.015625 C 26.304688 -43.015625 28.503906 -42.269531 30.171875 -40.78125 C 31.847656 -39.300781 32.78125 -36.507812 32.96875 -32.40625 Z M 34.484375 -6.09375 "/></g></g><g style="fill:#396c84;fill-opacity:1;"><g transform="translate(577.334739, 78.530037)"><path style="stroke:none" d="M 27.03125 0 L 16.984375 0 L 12.765625 -15.046875 C 12.328125 -14.859375 12.035156 -14.644531 11.890625 -14.40625 C 11.753906 -14.164062 11.660156 -13.859375 11.609375 -13.484375 L 10.609375 0 L 0.078125 0 L 2.078125 -16.421875 C 2.265625 -17.941406 2.671875 -19.109375 3.296875 -19.921875 C 3.921875 -20.734375 4.878906 -21.40625 6.171875 -21.9375 L 10.6875 -23.796875 C 11.445312 -24.128906 12.015625 -24.570312 12.390625 -25.125 C 12.773438 -25.675781 12.96875 -26.476562 12.96875 -27.53125 L 12.96875 -32.265625 C 12.96875 -33.078125 12.847656 -33.597656 12.609375 -33.828125 C 12.378906 -34.066406 11.859375 -34.1875 11.046875 -34.1875 L 5.875 -34.1875 L 5.875 -43.015625 L 17.34375 -43.015625 C 19.445312 -43.015625 20.988281 -42.472656 21.96875 -41.390625 C 22.945312 -40.316406 23.4375 -38.585938 23.4375 -36.203125 L 23.4375 -22.71875 C 23.4375 -21.625 23.289062 -20.738281 23 -20.0625 C 22.71875 -19.394531 22.316406 -18.875 21.796875 -18.5 Z M 27.03125 0 "/></g></g><g style="fill:#396c84;fill-opacity:1;"><g transform="translate(605.293658, 78.530037)"><path style="stroke:none" d="M 6.375 0 L 6.375 -32.625 C 6.375 -33.289062 6.265625 -33.71875 6.046875 -33.90625 C 5.835938 -34.09375 5.398438 -34.1875 4.734375 -34.1875 L 2.15625 -34.1875 L 2.15625 -43.015625 L 12.6875 -43.015625 C 14.457031 -43.015625 15.695312 -42.65625 16.40625 -41.9375 C 17.125 -41.21875 17.484375 -40 17.484375 -38.28125 L 17.484375 0 Z M 6.375 0 "/></g></g><g style="fill:#396c84;fill-opacity:1;"><g transform="translate(626.728848, 78.530037)"><path style="stroke:none" d="M 1 -43.015625 L 27.390625 -43.015625 L 27.390625 -34.1875 L 25.953125 -34.1875 C 24.472656 -34.1875 23.734375 -33.207031 23.734375 -31.25 L 23.734375 0 L 13.265625 0 L 13.265625 -29.609375 C 13.265625 -31.617188 13.570312 -33.144531 14.1875 -34.1875 L 1 -34.1875 Z M 1 -43.015625 "/></g></g><g clip-rule="nonzero" clip-path="url(#50b3880ff4)"><path style="fill:none;stroke-width:8;stroke-linecap:round;stroke-linejoin:miter;stroke:#396c84;stroke-opacity:1;stroke-miterlimit:4;" d="M 3.998304 3.997838 L 878.233156 4.000438 " transform="matrix(0.746765,0.00194591,-0.00194591,0.746765,24.334488,96.764588)"/></g><g style="fill:#396c84;fill-opacity:1;"><g transform="translate(240.51256, 156.197119)"><path style="stroke:none" d="M 1.8125 -11.25 L 1.8125 -16.625 L 7.203125 -16.625 L 7.203125 -11.25 Z M 1.8125 0 L 1.8125 -5.390625 L 7.203125 -5.390625 L 7.203125 0 Z M 1.8125 0 "/></g></g><g style="fill:#396c84;fill-opacity:1;"><g transform="translate(249.52731, 156.197119)"><path style="stroke:none" d="M 6.375 -10 C 6.09375 -9.894531 5.929688 -9.742188 5.890625 -9.546875 C 5.847656 -9.359375 5.878906 -9.054688 5.984375 -8.640625 L 7.421875 -4.015625 C 7.785156 -2.867188 7.859375 -1.910156 7.640625 -1.140625 C 7.429688 -0.378906 6.785156 0 5.703125 0 L 1.078125 0 L 1.078125 -3.921875 L 2.109375 -3.921875 C 2.378906 -3.921875 2.492188 -4.035156 2.453125 -4.265625 L 1.625 -8.25 C 1.414062 -9.25 1.398438 -10.066406 1.578125 -10.703125 C 1.753906 -11.335938 2.0625 -11.867188 2.5 -12.296875 C 2.9375 -12.722656 3.410156 -13.070312 3.921875 -13.34375 L 4.390625 -13.609375 L 1.109375 -19.109375 L 6.15625 -19.109375 L 10.609375 -11.09375 C 10.773438 -11.195312 10.890625 -11.328125 10.953125 -11.484375 C 11.023438 -11.640625 11.0625 -11.898438 11.0625 -12.265625 L 11.0625 -19.109375 L 15.765625 -19.109375 L 15.765625 -11.890625 C 15.765625 -10.910156 15.566406 -10.082031 15.171875 -9.40625 C 14.785156 -8.738281 14.101562 -8.109375 13.125 -7.515625 L 12.6875 -7.234375 L 16.40625 0 L 11.4375 0 L 6.40625 -10 Z M 6.375 -10 "/></g></g><g style="fill:#396c84;fill-opacity:1;"><g transform="translate(266.601177, 156.197119)"><path style="stroke:none" d="M 12.203125 -3.921875 L 13.15625 -3.921875 L 13.15625 0 L 0.578125 0 L 0.578125 -3.921875 L 6.78125 -3.921875 C 6.71875 -4.046875 6.664062 -4.195312 6.625 -4.375 C 6.582031 -4.5625 6.5625 -4.757812 6.5625 -4.96875 L 6.5625 -14.234375 C 6.5625 -14.617188 6.5 -14.875 6.375 -15 C 6.25 -15.132812 5.992188 -15.203125 5.609375 -15.203125 L 0.921875 -15.203125 L 0.921875 -19.109375 L 8.4375 -19.109375 C 9.5625 -19.109375 10.351562 -18.859375 10.8125 -18.359375 C 11.269531 -17.867188 11.5 -17.015625 11.5 -15.796875 L 11.5 -4.71875 C 11.5 -4.1875 11.734375 -3.921875 12.203125 -3.921875 Z M 12.203125 -3.921875 "/></g></g><g style="fill:#396c84;fill-opacity:1;"><g transform="translate(280.04367, 156.197119)"><path style="stroke:none" d="M 10 0 L 10 -14.234375 C 10 -14.617188 9.929688 -14.875 9.796875 -15 C 9.660156 -15.132812 9.398438 -15.203125 9.015625 -15.203125 L 1.65625 -15.203125 L 1.65625 -19.109375 L 12.046875 -19.109375 C 13.109375 -19.109375 13.851562 -18.859375 14.28125 -18.359375 C 14.71875 -17.867188 14.9375 -17.015625 14.9375 -15.796875 L 14.9375 0 Z M 3.28125 0 C 2.195312 0 1.65625 -0.550781 1.65625 -1.65625 L 1.65625 -11.921875 L 6.59375 -11.921875 L 6.59375 -4.53125 C 6.59375 -4.125 6.753906 -3.921875 7.078125 -3.921875 L 7.484375 -3.921875 L 7.484375 0 Z M 3.28125 0 "/></g></g><g style="fill:#396c84;fill-opacity:1;"><g transform="translate(296.735289, 156.197119)"><path style="stroke:none" d=""/></g></g><g style="fill:#396c84;fill-opacity:1;"><g transform="translate(303.265411, 156.197119)"><path style="stroke:none" d="M 2.828125 4.875 L 2.828125 -14.5 C 2.828125 -14.789062 2.78125 -14.976562 2.6875 -15.0625 C 2.59375 -15.15625 2.398438 -15.203125 2.109375 -15.203125 L 0.953125 -15.203125 L 0.953125 -19.109375 L 5.640625 -19.109375 C 6.421875 -19.109375 6.972656 -18.945312 7.296875 -18.625 C 7.617188 -18.3125 7.78125 -17.773438 7.78125 -17.015625 L 7.78125 4.875 Z M 2.828125 4.875 "/></g></g><g style="fill:#396c84;fill-opacity:1;"><g transform="translate(312.789826, 156.197119)"><path style="stroke:none" d="M 2.828125 0 L 2.828125 -14.5 C 2.828125 -14.789062 2.78125 -14.976562 2.6875 -15.0625 C 2.59375 -15.15625 2.398438 -15.203125 2.109375 -15.203125 L 0.953125 -15.203125 L 0.953125 -19.109375 L 5.640625 -19.109375 C 6.421875 -19.109375 6.972656 -18.945312 7.296875 -18.625 C 7.617188 -18.3125 7.78125 -17.773438 7.78125 -17.015625 L 7.78125 0 Z M 2.828125 0 "/></g></g><g style="fill:#396c84;fill-opacity:1;"><g transform="translate(322.314241, 156.197119)"><path style="stroke:none" d="M 9.234375 -0.1875 C 8.535156 0.0390625 7.832031 0.195312 7.125 0.28125 C 6.425781 0.375 5.78125 0.34375 5.1875 0.1875 C 4.59375 0.0390625 4.097656 -0.253906 3.703125 -0.703125 C 3.316406 -1.148438 3.09375 -1.796875 3.03125 -2.640625 L 2.203125 -14.5 C 2.179688 -14.789062 2.132812 -14.976562 2.0625 -15.0625 C 2 -15.15625 1.832031 -15.203125 1.5625 -15.203125 L 0.703125 -15.203125 L 0.703125 -19.109375 L 4.78125 -19.109375 C 5.476562 -19.109375 5.976562 -18.953125 6.28125 -18.640625 C 6.59375 -18.335938 6.769531 -17.847656 6.8125 -17.171875 L 7.609375 -5.03125 C 7.648438 -4.601562 7.796875 -4.335938 8.046875 -4.234375 C 8.304688 -4.128906 8.628906 -4.140625 9.015625 -4.265625 L 10.640625 -4.8125 C 11.191406 -5 11.507812 -5.378906 11.59375 -5.953125 C 11.675781 -6.523438 11.785156 -7.269531 11.921875 -8.1875 L 12.71875 -14.5 C 12.757812 -14.851562 12.71875 -15.109375 12.59375 -15.265625 C 12.476562 -15.429688 12.316406 -15.523438 12.109375 -15.546875 C 11.804688 -15.585938 11.597656 -15.53125 11.484375 -15.375 C 11.367188 -15.21875 11.300781 -14.976562 11.28125 -14.65625 L 11.015625 -11.25 L 8 -11.3125 L 8.15625 -15.859375 C 8.195312 -17.035156 8.585938 -17.929688 9.328125 -18.546875 C 10.078125 -19.160156 11.160156 -19.46875 12.578125 -19.46875 C 13.472656 -19.46875 14.300781 -19.300781 15.0625 -18.96875 C 15.832031 -18.644531 16.429688 -18.140625 16.859375 -17.453125 C 17.296875 -16.773438 17.453125 -15.882812 17.328125 -14.78125 L 16.3125 -5.703125 C 16.207031 -4.597656 15.890625 -3.695312 15.359375 -3 C 14.828125 -2.3125 13.976562 -1.769531 12.8125 -1.375 Z M 9.234375 -0.1875 "/></g></g><g style="fill:#396c84;fill-opacity:1;"><g transform="translate(340.75785, 156.197119)"><path style="stroke:none" d="M 6.078125 0 L 6.078125 -14.046875 C 6.078125 -14.816406 5.695312 -15.203125 4.9375 -15.203125 L 0.453125 -15.203125 L 0.453125 -19.109375 L 7.8125 -19.109375 C 9 -19.109375 9.828125 -18.863281 10.296875 -18.375 C 10.773438 -17.894531 11.015625 -17.066406 11.015625 -15.890625 L 11.015625 0 Z M 6.078125 0 "/></g></g><g style="fill:#396c84;fill-opacity:1;"><g transform="translate(353.531402, 156.197119)"><path style="stroke:none" d="M 12.71875 -19.109375 C 13.84375 -19.109375 14.722656 -18.953125 15.359375 -18.640625 C 15.992188 -18.335938 16.429688 -17.789062 16.671875 -17 C 16.921875 -16.21875 16.992188 -15.109375 16.890625 -13.671875 L 16.3125 -5.09375 C 16.269531 -4.375 16.15625 -3.71875 15.96875 -3.125 C 15.789062 -2.53125 15.472656 -2.023438 15.015625 -1.609375 C 14.566406 -1.191406 13.894531 -0.910156 13 -0.765625 L 7.234375 0.1875 C 5.910156 0.425781 4.992188 0.335938 4.484375 -0.078125 C 3.984375 -0.492188 3.6875 -1.203125 3.59375 -2.203125 L 2.765625 -13.03125 C 2.722656 -13.519531 2.757812 -13.945312 2.875 -14.3125 C 3 -14.6875 3.164062 -15.003906 3.375 -15.265625 C 2.78125 -15.347656 2.203125 -15.539062 1.640625 -15.84375 C 1.078125 -16.15625 0.613281 -16.617188 0.25 -17.234375 L 2.828125 -20.203125 C 3.128906 -19.734375 3.429688 -19.429688 3.734375 -19.296875 C 4.046875 -19.171875 4.445312 -19.109375 4.9375 -19.109375 Z M 12.140625 -12.328125 C 12.179688 -13.179688 12.1875 -13.820312 12.15625 -14.25 C 12.125 -14.6875 11.992188 -14.976562 11.765625 -15.125 C 11.546875 -15.28125 11.160156 -15.347656 10.609375 -15.328125 L 8.125 -15.265625 C 7.613281 -15.128906 7.390625 -14.703125 7.453125 -13.984375 L 8.1875 -4.9375 C 8.226562 -4.53125 8.335938 -4.265625 8.515625 -4.140625 C 8.703125 -4.015625 8.960938 -3.972656 9.296875 -4.015625 L 10.703125 -4.296875 C 11.085938 -4.359375 11.359375 -4.515625 11.515625 -4.765625 C 11.671875 -5.023438 11.757812 -5.429688 11.78125 -5.984375 Z M 12.140625 -12.328125 "/></g></g><g style="fill:#396c84;fill-opacity:1;"><g transform="translate(371.656459, 156.197119)"><path style="stroke:none" d="M 5.09375 0 C 3.863281 0 3.035156 -0.382812 2.609375 -1.15625 C 2.179688 -1.9375 2.203125 -3.046875 2.671875 -4.484375 L 5.796875 -14.171875 C 6.003906 -14.859375 5.769531 -15.203125 5.09375 -15.203125 L 1.375 -15.203125 C 1.03125 -15.203125 0.789062 -15.269531 0.65625 -15.40625 C 0.519531 -15.539062 0.453125 -15.789062 0.453125 -16.15625 L 0.453125 -21.671875 L 5.09375 -21.671875 L 5.09375 -19.109375 L 8.5 -19.109375 C 9.71875 -19.109375 10.5625 -18.707031 11.03125 -17.90625 C 11.507812 -17.113281 11.539062 -16.0625 11.125 -14.75 L 7.734375 -4.75 C 7.648438 -4.507812 7.632812 -4.3125 7.6875 -4.15625 C 7.75 -4 7.914062 -3.921875 8.1875 -3.921875 L 9.59375 -3.921875 L 9.59375 0 Z M 5.09375 0 "/></g></g><g style="fill:#396c84;fill-opacity:1;"><g transform="translate(383.952194, 156.197119)"><path style="stroke:none" d=""/></g></g><g style="fill:#396c84;fill-opacity:1;"><g transform="translate(390.482316, 156.197119)"><path style="stroke:none" d="M 13.25 -19.109375 C 14.1875 -19.109375 14.851562 -18.90625 15.25 -18.5 C 15.65625 -18.101562 15.859375 -17.425781 15.859375 -16.46875 L 15.859375 -1.171875 C 15.859375 -0.753906 15.769531 -0.453125 15.59375 -0.265625 C 15.414062 -0.0859375 15.113281 0 14.6875 0 L 3.625 0 C 3.207031 0 2.90625 -0.0859375 2.71875 -0.265625 C 2.539062 -0.453125 2.453125 -0.753906 2.453125 -1.171875 L 2.453125 -13.15625 C 2.453125 -14.113281 2.613281 -14.796875 2.9375 -15.203125 L 1.140625 -15.203125 L 1.140625 -19.109375 Z M 11.0625 -4.171875 L 11.0625 -14.234375 C 11.0625 -14.660156 10.992188 -14.945312 10.859375 -15.09375 C 10.734375 -15.25 10.476562 -15.328125 10.09375 -15.328125 L 8.1875 -15.328125 C 7.800781 -15.328125 7.550781 -15.226562 7.4375 -15.03125 C 7.320312 -14.84375 7.265625 -14.523438 7.265625 -14.078125 L 7.265625 -4.171875 C 7.265625 -4.023438 7.289062 -3.925781 7.34375 -3.875 C 7.394531 -3.820312 7.492188 -3.796875 7.640625 -3.796875 L 10.671875 -3.796875 C 10.835938 -3.796875 10.941406 -3.820312 10.984375 -3.875 C 11.035156 -3.925781 11.0625 -4.023438 11.0625 -4.171875 Z M 11.0625 -4.171875 "/></g></g><g style="fill:#396c84;fill-opacity:1;"><g transform="translate(408.097708, 156.197119)"><path style="stroke:none" d="M 6.375 -10 C 6.09375 -9.894531 5.929688 -9.742188 5.890625 -9.546875 C 5.847656 -9.359375 5.878906 -9.054688 5.984375 -8.640625 L 7.421875 -4.015625 C 7.785156 -2.867188 7.859375 -1.910156 7.640625 -1.140625 C 7.429688 -0.378906 6.785156 0 5.703125 0 L 1.078125 0 L 1.078125 -3.921875 L 2.109375 -3.921875 C 2.378906 -3.921875 2.492188 -4.035156 2.453125 -4.265625 L 1.625 -8.25 C 1.414062 -9.25 1.398438 -10.066406 1.578125 -10.703125 C 1.753906 -11.335938 2.0625 -11.867188 2.5 -12.296875 C 2.9375 -12.722656 3.410156 -13.070312 3.921875 -13.34375 L 4.390625 -13.609375 L 1.109375 -19.109375 L 6.15625 -19.109375 L 10.609375 -11.09375 C 10.773438 -11.195312 10.890625 -11.328125 10.953125 -11.484375 C 11.023438 -11.640625 11.0625 -11.898438 11.0625 -12.265625 L 11.0625 -19.109375 L 15.765625 -19.109375 L 15.765625 -11.890625 C 15.765625 -10.910156 15.566406 -10.082031 15.171875 -9.40625 C 14.785156 -8.738281 14.101562 -8.109375 13.125 -7.515625 L 12.6875 -7.234375 L 16.40625 0 L 11.4375 0 L 6.40625 -10 Z M 6.375 -10 "/></g></g><g style="fill:#396c84;fill-opacity:1;"><g transform="translate(425.171575, 156.197119)"><path style="stroke:none" d="M 12.546875 -19.109375 C 13.742188 -19.109375 14.585938 -18.859375 15.078125 -18.359375 C 15.578125 -17.867188 15.828125 -17.015625 15.828125 -15.796875 L 15.828125 0 L 10.890625 0 L 10.890625 -14.109375 C 10.890625 -14.535156 10.816406 -14.84375 10.671875 -15.03125 C 10.523438 -15.226562 10.25 -15.328125 9.84375 -15.328125 L 8.984375 -15.328125 C 8.265625 -15.328125 7.765625 -15.101562 7.484375 -14.65625 C 7.210938 -14.207031 7.203125 -13.273438 7.453125 -11.859375 L 8.609375 -5.15625 C 8.921875 -3.414062 8.820312 -2.117188 8.3125 -1.265625 C 7.800781 -0.421875 6.769531 0 5.21875 0 L 0.984375 0 L 0.984375 -3.921875 L 2.875 -3.921875 C 3.164062 -3.921875 3.390625 -4.003906 3.546875 -4.171875 C 3.710938 -4.335938 3.765625 -4.65625 3.703125 -5.125 L 2.640625 -11.21875 C 2.429688 -12.40625 2.398438 -13.300781 2.546875 -13.90625 C 2.691406 -14.507812 2.882812 -14.941406 3.125 -15.203125 L 1.046875 -15.203125 L 1.046875 -19.109375 Z M 12.546875 -19.109375 "/></g></g><g style="fill:#396c84;fill-opacity:1;"><g transform="translate(442.786966, 156.197119)"><path style="stroke:none" d="M 10 0 L 10 -14.234375 C 10 -14.617188 9.929688 -14.875 9.796875 -15 C 9.660156 -15.132812 9.398438 -15.203125 9.015625 -15.203125 L 1.65625 -15.203125 L 1.65625 -19.109375 L 12.046875 -19.109375 C 13.109375 -19.109375 13.851562 -18.859375 14.28125 -18.359375 C 14.71875 -17.867188 14.9375 -17.015625 14.9375 -15.796875 L 14.9375 0 Z M 3.28125 0 C 2.195312 0 1.65625 -0.550781 1.65625 -1.65625 L 1.65625 -11.921875 L 6.59375 -11.921875 L 6.59375 -4.53125 C 6.59375 -4.125 6.753906 -3.921875 7.078125 -3.921875 L 7.484375 -3.921875 L 7.484375 0 Z M 3.28125 0 "/></g></g><g style="fill:#396c84;fill-opacity:1;"><g transform="translate(459.478585, 156.197119)"><path style="stroke:none" d="M 12.203125 -3.921875 L 13.15625 -3.921875 L 13.15625 0 L 0.578125 0 L 0.578125 -3.921875 L 6.78125 -3.921875 C 6.71875 -4.046875 6.664062 -4.195312 6.625 -4.375 C 6.582031 -4.5625 6.5625 -4.757812 6.5625 -4.96875 L 6.5625 -14.234375 C 6.5625 -14.617188 6.5 -14.875 6.375 -15 C 6.25 -15.132812 5.992188 -15.203125 5.609375 -15.203125 L 0.921875 -15.203125 L 0.921875 -19.109375 L 8.4375 -19.109375 C 9.5625 -19.109375 10.351562 -18.859375 10.8125 -18.359375 C 11.269531 -17.867188 11.5 -17.015625 11.5 -15.796875 L 11.5 -4.71875 C 11.5 -4.1875 11.734375 -3.921875 12.203125 -3.921875 Z M 12.203125 -3.921875 "/></g></g></g></svg>