<svg xmlns="http://www.w3.org/2000/svg" xmlns:xlink="http://www.w3.org/1999/xlink" width="1267" zoomAndPan="magnify" viewBox="0 0 950.25 117.749996" height="157" preserveAspectRatio="xMidYMid meet" version="1.2"><defs/><g id="d28c119541"><g style="fill:#396c84;fill-opacity:1;"><g transform="translate(210.677246, 78.702895)"><path style="stroke:none" d="M 6.390625 10.984375 L 6.390625 -32.6875 C 6.390625 -33.351562 6.28125 -33.78125 6.0625 -33.96875 C 5.851562 -34.164062 5.410156 -34.265625 4.734375 -34.265625 L 2.15625 -34.265625 L 2.15625 -43.109375 L 12.71875 -43.109375 C 14.488281 -43.109375 15.734375 -42.75 16.453125 -42.03125 C 17.171875 -41.3125 17.53125 -40.085938 17.53125 -38.359375 L 17.53125 10.984375 Z M 6.390625 10.984375 "/></g></g><g style="fill:#396c84;fill-opacity:1;"><g transform="translate(232.159619, 78.702895)"><path style="stroke:none" d="M 27.078125 0 L 17.03125 0 L 12.78125 -15.09375 C 12.351562 -14.894531 12.066406 -14.675781 11.921875 -14.4375 C 11.773438 -14.195312 11.679688 -13.882812 11.640625 -13.5 L 10.640625 0 L 0.078125 0 L 2.078125 -16.453125 C 2.273438 -17.984375 2.679688 -19.15625 3.296875 -19.96875 C 3.921875 -20.78125 4.878906 -21.453125 6.171875 -21.984375 L 10.703125 -23.859375 C 11.472656 -24.191406 12.046875 -24.628906 12.421875 -25.171875 C 12.804688 -25.722656 13 -26.53125 13 -27.59375 L 13 -32.328125 C 13 -33.140625 12.878906 -33.664062 12.640625 -33.90625 C 12.398438 -34.144531 11.875 -34.265625 11.0625 -34.265625 L 5.890625 -34.265625 L 5.890625 -43.109375 L 17.390625 -43.109375 C 19.492188 -43.109375 21.035156 -42.566406 22.015625 -41.484375 C 23.003906 -40.410156 23.5 -38.675781 23.5 -36.28125 L 23.5 -22.78125 C 23.5 -21.675781 23.351562 -20.785156 23.0625 -20.109375 C 22.769531 -19.441406 22.363281 -18.914062 21.84375 -18.53125 Z M 27.078125 0 "/></g></g><g style="fill:#396c84;fill-opacity:1;"><g transform="translate(260.180115, 78.702895)"><path style="stroke:none" d="M 34.5625 -6.109375 C 34.65625 -4.003906 34.207031 -2.457031 33.21875 -1.46875 C 32.238281 -0.488281 30.625 0 28.375 0 L 17.8125 0 L 17.8125 -8.84375 L 21.40625 -8.84375 C 22.175781 -8.84375 22.65625 -8.992188 22.84375 -9.296875 C 23.039062 -9.609375 23.113281 -10.125 23.0625 -10.84375 L 21.984375 -30.75 C 21.929688 -32.132812 21.75 -33.113281 21.4375 -33.6875 C 21.132812 -34.269531 20.570312 -34.5625 19.75 -34.5625 L 19.46875 -34.5625 C 18.84375 -34.5625 18.398438 -34.378906 18.140625 -34.015625 C 17.878906 -33.660156 17.675781 -32.929688 17.53125 -31.828125 L 13.296875 0 L 1.9375 0 L 5.96875 -27.65625 C 6.394531 -30.675781 7.234375 -32.878906 8.484375 -34.265625 L 3.15625 -34.265625 L 3.15625 -43.109375 L 23.640625 -43.109375 C 26.367188 -43.109375 28.570312 -42.363281 30.25 -40.875 C 31.925781 -39.394531 32.859375 -36.59375 33.046875 -32.46875 Z M 34.5625 -6.109375 "/></g></g><g style="fill:#396c84;fill-opacity:1;"><g transform="translate(297.325228, 78.702895)"><path style="stroke:none" d=""/></g></g><g style="fill:#396c84;fill-opacity:1;"><g transform="translate(312.05395, 78.702895)"><path style="stroke:none" d="M 13.71875 0 L 13.71875 -31.6875 C 13.71875 -33.40625 12.859375 -34.265625 11.140625 -34.265625 L 1 -34.265625 L 1 -43.109375 L 17.609375 -43.109375 C 20.285156 -43.109375 22.160156 -42.554688 23.234375 -41.453125 C 24.316406 -40.347656 24.859375 -38.476562 24.859375 -35.84375 L 24.859375 0 Z M 13.71875 0 "/></g></g><g style="fill:#396c84;fill-opacity:1;"><g transform="translate(340.864769, 78.702895)"><path style="stroke:none" d="M 6.328125 -18.25 L 6.328125 -32.6875 C 6.328125 -33.351562 6.21875 -33.78125 6 -33.96875 C 5.78125 -34.164062 5.335938 -34.265625 4.671875 -34.265625 L 1.9375 -34.265625 L 1.9375 -43.109375 L 11.78125 -43.109375 C 13.84375 -43.109375 15.289062 -42.6875 16.125 -41.84375 C 16.96875 -41.007812 17.390625 -39.5625 17.390625 -37.5 L 17.390625 -18.25 Z M 6.328125 -18.25 "/></g></g><g style="fill:#396c84;fill-opacity:1;"><g transform="translate(361.772369, 78.702895)"><path style="stroke:none" d="M 33.625 -43.109375 C 35.726562 -43.109375 37.140625 -42.390625 37.859375 -40.953125 C 38.578125 -39.515625 38.695312 -37.742188 38.21875 -35.640625 L 30.890625 0 L 19.609375 0 L 25.9375 -32.546875 C 26.082031 -33.359375 26.101562 -33.894531 26 -34.15625 C 25.90625 -34.425781 25.453125 -34.5625 24.640625 -34.5625 L 18.96875 -34.5625 C 18.394531 -34.5625 17.9375 -34.488281 17.59375 -34.34375 C 17.257812 -34.195312 17.09375 -33.644531 17.09375 -32.6875 L 17.09375 1.71875 C 17.09375 2.300781 17.382812 2.59375 17.96875 2.59375 L 19.6875 2.59375 L 19.6875 10.984375 L 9.921875 10.984375 C 7.285156 10.984375 5.96875 9.671875 5.96875 7.046875 L 5.96875 -31.328125 C 5.96875 -32.765625 6.226562 -33.742188 6.75 -34.265625 L 2.59375 -34.265625 L 2.59375 -43.109375 Z M 33.625 -43.109375 "/></g></g><g style="fill:#396c84;fill-opacity:1;"><g transform="translate(402.294318, 78.702895)"><path style="stroke:none" d=""/></g></g><g style="fill:#396c84;fill-opacity:1;"><g transform="translate(417.023041, 78.702895)"><path style="stroke:none" d="M 4.09375 -25.359375 L 4.09375 -37.5 L 16.234375 -37.5 L 16.234375 -25.359375 Z M 4.09375 0 L 4.09375 -12.140625 L 16.234375 -12.140625 L 16.234375 0 Z M 4.09375 0 "/></g></g><g style="fill:#396c84;fill-opacity:1;"><g transform="translate(437.363905, 78.702895)"><path style="stroke:none" d="M 23.28125 -29.59375 C 25.382812 -27.96875 27.203125 -25.828125 28.734375 -23.171875 C 30.265625 -20.515625 31.03125 -16.882812 31.03125 -12.28125 C 31.03125 -7.78125 29.832031 -4.507812 27.4375 -2.46875 C 25.050781 -0.4375 21.222656 0.578125 15.953125 0.578125 C 10.867188 0.578125 7.15625 -0.546875 4.8125 -2.796875 C 2.46875 -5.046875 1.316406 -8.640625 1.359375 -13.578125 L 12.359375 -13.578125 C 12.359375 -11.515625 12.65625 -10.003906 13.25 -9.046875 C 13.851562 -8.085938 14.753906 -7.609375 15.953125 -7.609375 C 17.335938 -7.609375 18.34375 -7.976562 18.96875 -8.71875 C 19.59375 -9.46875 19.90625 -10.65625 19.90625 -12.28125 C 19.90625 -15.632812 19.554688 -18.171875 18.859375 -19.890625 C 18.160156 -21.617188 17.191406 -23.007812 15.953125 -24.0625 L 11.640625 -21.125 L 6.25 -27.875 C 8.40625 -29.550781 10.140625 -30.914062 11.453125 -31.96875 C 12.773438 -33.019531 13.742188 -33.90625 14.359375 -34.625 C 14.984375 -35.34375 15.347656 -36.039062 15.453125 -36.71875 C 15.585938 -37.53125 15.203125 -37.9375 14.296875 -37.9375 L 1.515625 -37.9375 L 1.515625 -46.765625 L 26.796875 -46.765625 C 28.179688 -46.765625 29.140625 -46.488281 29.671875 -45.9375 C 30.203125 -45.394531 30.46875 -44.453125 30.46875 -43.109375 C 30.46875 -40.421875 29.9375 -38.054688 28.875 -36.015625 C 27.820312 -33.984375 25.957031 -31.84375 23.28125 -29.59375 Z M 23.28125 -29.59375 "/></g></g><g style="fill:#396c84;fill-opacity:1;"><g transform="translate(470.130273, 78.702895)"><path style="stroke:none" d=""/></g></g><g style="fill:#396c84;fill-opacity:1;"><g transform="translate(484.858995, 78.702895)"><path style="stroke:none" d="M 2.734375 -33.328125 L 4.09375 -48.859375 L 13.65625 -48.859375 L 10.28125 -33.328125 Z M 2.734375 -33.328125 "/></g></g><g style="fill:#396c84;fill-opacity:1;"><g transform="translate(499.731413, 78.702895)"><path style="stroke:none" d="M 28.671875 -43.109375 C 31.203125 -43.109375 33.1875 -42.757812 34.625 -42.0625 C 36.0625 -41.363281 37.054688 -40.128906 37.609375 -38.359375 C 38.160156 -36.585938 38.316406 -34.078125 38.078125 -30.828125 L 36.78125 -11.5 C 36.6875 -9.863281 36.4375 -8.375 36.03125 -7.03125 C 35.625 -5.695312 34.90625 -4.5625 33.875 -3.625 C 32.84375 -2.695312 31.320312 -2.0625 29.3125 -1.71875 L 16.3125 0.4375 C 13.34375 0.957031 11.28125 0.753906 10.125 -0.171875 C 8.976562 -1.109375 8.3125 -2.703125 8.125 -4.953125 L 6.25 -29.390625 C 6.15625 -30.484375 6.238281 -31.445312 6.5 -32.28125 C 6.757812 -33.125 7.128906 -33.832031 7.609375 -34.40625 C 6.273438 -34.601562 4.972656 -35.046875 3.703125 -35.734375 C 2.429688 -36.429688 1.390625 -37.476562 0.578125 -38.875 L 6.390625 -45.546875 C 7.066406 -44.492188 7.75 -43.820312 8.4375 -43.53125 C 9.132812 -43.25 10.035156 -43.109375 11.140625 -43.109375 Z M 27.375 -27.796875 C 27.46875 -29.710938 27.476562 -31.160156 27.40625 -32.140625 C 27.332031 -33.128906 27.046875 -33.789062 26.546875 -34.125 C 26.046875 -34.457031 25.171875 -34.601562 23.921875 -34.5625 L 18.3125 -34.40625 C 17.164062 -34.125 16.664062 -33.171875 16.8125 -31.546875 L 18.46875 -11.140625 C 18.5625 -10.222656 18.8125 -9.617188 19.21875 -9.328125 C 19.625 -9.046875 20.210938 -8.953125 20.984375 -9.046875 L 24.140625 -9.703125 C 25.003906 -9.847656 25.613281 -10.207031 25.96875 -10.78125 C 26.332031 -11.351562 26.535156 -12.257812 26.578125 -13.5 Z M 27.375 -27.796875 "/></g></g><g style="fill:#396c84;fill-opacity:1;"><g transform="translate(540.612597, 78.702895)"><path style="stroke:none" d="M 34.5625 -6.109375 C 34.65625 -4.003906 34.207031 -2.457031 33.21875 -1.46875 C 32.238281 -0.488281 30.625 0 28.375 0 L 17.8125 0 L 17.8125 -8.84375 L 21.40625 -8.84375 C 22.175781 -8.84375 22.65625 -8.992188 22.84375 -9.296875 C 23.039062 -9.609375 23.113281 -10.125 23.0625 -10.84375 L 21.984375 -30.75 C 21.929688 -32.132812 21.75 -33.113281 21.4375 -33.6875 C 21.132812 -34.269531 20.570312 -34.5625 19.75 -34.5625 L 19.46875 -34.5625 C 18.84375 -34.5625 18.398438 -34.378906 18.140625 -34.015625 C 17.878906 -33.660156 17.675781 -32.929688 17.53125 -31.828125 L 13.296875 0 L 1.9375 0 L 5.96875 -27.65625 C 6.394531 -30.675781 7.234375 -32.878906 8.484375 -34.265625 L 3.15625 -34.265625 L 3.15625 -43.109375 L 23.640625 -43.109375 C 26.367188 -43.109375 28.570312 -42.363281 30.25 -40.875 C 31.925781 -39.394531 32.859375 -36.59375 33.046875 -32.46875 Z M 34.5625 -6.109375 "/></g></g><g style="fill:#396c84;fill-opacity:1;"><g transform="translate(577.757709, 78.702895)"><path style="stroke:none" d=""/></g></g><g style="fill:#396c84;fill-opacity:1;"><g transform="translate(592.486432, 78.702895)"><path style="stroke:none" d="M 11.5 0 C 8.71875 0 6.847656 -0.875 5.890625 -2.625 C 4.929688 -4.375 4.976562 -6.875 6.03125 -10.125 L 13.078125 -31.96875 C 13.554688 -33.5 13.03125 -34.265625 11.5 -34.265625 L 3.09375 -34.265625 C 2.320312 -34.265625 1.78125 -34.421875 1.46875 -34.734375 C 1.15625 -35.046875 1 -35.609375 1 -36.421875 L 1 -48.859375 L 11.5 -48.859375 L 11.5 -43.109375 L 19.1875 -43.109375 C 21.914062 -43.109375 23.816406 -42.207031 24.890625 -40.40625 C 25.972656 -38.613281 26.035156 -36.234375 25.078125 -33.265625 L 17.453125 -10.703125 C 17.265625 -10.179688 17.226562 -9.738281 17.34375 -9.375 C 17.46875 -9.019531 17.84375 -8.84375 18.46875 -8.84375 L 21.625 -8.84375 L 21.625 0 Z M 11.5 0 "/></g></g><g style="fill:#396c84;fill-opacity:1;"><g transform="translate(620.219536, 78.702895)"><path style="stroke:none" d="M 6.390625 0 L 6.390625 -32.6875 C 6.390625 -33.351562 6.28125 -33.78125 6.0625 -33.96875 C 5.851562 -34.164062 5.410156 -34.265625 4.734375 -34.265625 L 2.15625 -34.265625 L 2.15625 -43.109375 L 12.71875 -43.109375 C 14.488281 -43.109375 15.734375 -42.75 16.453125 -42.03125 C 17.171875 -41.3125 17.53125 -40.085938 17.53125 -38.359375 L 17.53125 0 Z M 6.390625 0 "/></g></g><g style="fill:#396c84;fill-opacity:1;"><g transform="translate(641.701909, 78.702895)"><path style="stroke:none" d="M 27.078125 0 L 17.03125 0 L 12.78125 -15.09375 C 12.351562 -14.894531 12.066406 -14.675781 11.921875 -14.4375 C 11.773438 -14.195312 11.679688 -13.882812 11.640625 -13.5 L 10.640625 0 L 0.078125 0 L 2.078125 -16.453125 C 2.273438 -17.984375 2.679688 -19.15625 3.296875 -19.96875 C 3.921875 -20.78125 4.878906 -21.453125 6.171875 -21.984375 L 10.703125 -23.859375 C 11.472656 -24.191406 12.046875 -24.628906 12.421875 -25.171875 C 12.804688 -25.722656 13 -26.53125 13 -27.59375 L 13 -32.328125 C 13 -33.140625 12.878906 -33.664062 12.640625 -33.90625 C 12.398438 -34.144531 11.875 -34.265625 11.0625 -34.265625 L 5.890625 -34.265625 L 5.890625 -43.109375 L 17.390625 -43.109375 C 19.492188 -43.109375 21.035156 -42.566406 22.015625 -41.484375 C 23.003906 -40.410156 23.5 -38.675781 23.5 -36.28125 L 23.5 -22.78125 C 23.5 -21.675781 23.351562 -20.785156 23.0625 -20.109375 C 22.769531 -19.441406 22.363281 -18.914062 21.84375 -18.53125 Z M 27.078125 0 "/></g></g><g style="fill:#396c84;fill-opacity:1;"><g transform="translate(669.722394, 78.702895)"><path style="stroke:none" d="M 13.71875 0 L 13.71875 -31.6875 C 13.71875 -33.40625 12.859375 -34.265625 11.140625 -34.265625 L 1 -34.265625 L 1 -43.109375 L 17.609375 -43.109375 C 20.285156 -43.109375 22.160156 -42.554688 23.234375 -41.453125 C 24.316406 -40.347656 24.859375 -38.476562 24.859375 -35.84375 L 24.859375 0 Z M 13.71875 0 "/></g><g transform="translate(698.533222, 78.702895)"><path style="stroke:none" d="M 28.3125 -43.109375 C 30.988281 -43.109375 32.890625 -42.546875 34.015625 -41.421875 C 35.140625 -40.296875 35.703125 -38.367188 35.703125 -35.640625 L 35.703125 0 L 24.578125 0 L 24.578125 -31.828125 C 24.578125 -32.785156 24.40625 -33.476562 24.0625 -33.90625 C 23.726562 -34.34375 23.109375 -34.5625 22.203125 -34.5625 L 20.265625 -34.5625 C 18.628906 -34.5625 17.5 -34.054688 16.875 -33.046875 C 16.257812 -32.046875 16.238281 -29.9375 16.8125 -26.71875 L 19.390625 -11.640625 C 20.109375 -7.710938 19.894531 -4.789062 18.75 -2.875 C 17.601562 -0.957031 15.28125 0 11.78125 0 L 2.234375 0 L 2.234375 -8.84375 L 6.46875 -8.84375 C 7.132812 -8.84375 7.644531 -9.03125 8 -9.40625 C 8.363281 -9.789062 8.472656 -10.507812 8.328125 -11.5625 L 5.96875 -25.28125 C 5.488281 -27.96875 5.414062 -29.992188 5.75 -31.359375 C 6.082031 -32.722656 6.515625 -33.691406 7.046875 -34.265625 L 2.375 -34.265625 L 2.375 -43.109375 Z M 28.3125 -43.109375 "/></g></g><path style="fill:none;stroke-width:8;stroke-linecap:round;stroke-linejoin:miter;stroke:#396c84;stroke-opacity:1;stroke-miterlimit:4;" d="M 4.00098 4.001472 L 1216.966751 4.001472 " transform="matrix(0.748411,0,0,0.748411,15.540779,98.341192)"/></g></svg>