<svg xmlns="http://www.w3.org/2000/svg" xmlns:xlink="http://www.w3.org/1999/xlink" width="1188" zoomAndPan="magnify" viewBox="0 0 890.88 224.249992" height="299" preserveAspectRatio="xMidYMid meet" version="1.2"><defs><clipPath id="0cdd12cc96"><path d="M 29.808594 3.460938 L 570.824219 3.460938 L 570.824219 113.765625 L 29.808594 113.765625 Z M 29.808594 3.460938 "/></clipPath><clipPath id="09a732aea9"><path d="M 277.371094 3.460938 L 818.386719 3.460938 L 818.386719 113.765625 L 277.371094 113.765625 Z M 277.371094 3.460938 "/></clipPath></defs><g id="d38c63fda7"><g style="fill:#396c84;fill-opacity:1;"><g transform="translate(213.913694, 188.171707)"><path style="stroke:none" d="M 25.921875 -39.46875 C 28.378906 -39.46875 30.117188 -38.953125 31.140625 -37.921875 C 32.171875 -36.890625 32.6875 -35.125 32.6875 -32.625 L 32.6875 0 L 22.5 0 L 22.5 -29.140625 C 22.5 -30.015625 22.34375 -30.648438 22.03125 -31.046875 C 21.726562 -31.441406 21.160156 -31.640625 20.328125 -31.640625 L 18.546875 -31.640625 C 17.054688 -31.640625 16.023438 -31.175781 15.453125 -30.25 C 14.890625 -29.332031 14.867188 -27.40625 15.390625 -24.46875 L 17.765625 -10.65625 C 18.421875 -7.0625 18.222656 -4.382812 17.171875 -2.625 C 16.117188 -0.875 13.988281 0 10.78125 0 L 2.046875 0 L 2.046875 -8.09375 L 5.921875 -8.09375 C 6.535156 -8.09375 7.003906 -8.265625 7.328125 -8.609375 C 7.660156 -8.960938 7.757812 -9.625 7.625 -10.59375 L 5.453125 -23.15625 C 5.015625 -25.613281 4.945312 -27.46875 5.25 -28.71875 C 5.5625 -29.96875 5.960938 -30.851562 6.453125 -31.375 L 2.171875 -31.375 L 2.171875 -39.46875 Z M 25.921875 -39.46875 "/></g></g><g style="fill:#396c84;fill-opacity:1;"><g transform="translate(250.290055, 188.171707)"><path style="stroke:none" d="M 10.53125 0 C 7.976562 0 6.265625 -0.796875 5.390625 -2.390625 C 4.515625 -3.992188 4.5625 -6.289062 5.53125 -9.28125 L 11.96875 -29.265625 C 12.40625 -30.671875 11.925781 -31.375 10.53125 -31.375 L 2.828125 -31.375 C 2.128906 -31.375 1.632812 -31.515625 1.34375 -31.796875 C 1.0625 -32.085938 0.921875 -32.601562 0.921875 -33.34375 L 0.921875 -44.734375 L 10.53125 -44.734375 L 10.53125 -39.46875 L 17.5625 -39.46875 C 20.0625 -39.46875 21.800781 -38.644531 22.78125 -37 C 23.769531 -35.351562 23.828125 -33.171875 22.953125 -30.453125 L 15.984375 -9.796875 C 15.804688 -9.316406 15.769531 -8.910156 15.875 -8.578125 C 15.988281 -8.253906 16.332031 -8.09375 16.90625 -8.09375 L 19.796875 -8.09375 L 19.796875 0 Z M 10.53125 0 "/></g></g><g style="fill:#396c84;fill-opacity:1;"><g transform="translate(275.681146, 188.171707)"><path style="stroke:none" d="M 0.921875 -39.46875 L 25.125 -39.46875 L 25.125 -31.375 L 23.8125 -31.375 C 22.457031 -31.375 21.78125 -30.476562 21.78125 -28.6875 L 21.78125 0 L 12.171875 0 L 12.171875 -27.171875 C 12.171875 -29.015625 12.457031 -30.414062 13.03125 -31.375 L 0.921875 -31.375 Z M 0.921875 -39.46875 "/></g></g><g style="fill:#396c84;fill-opacity:1;"><g transform="translate(302.585179, 188.171707)"><path style="stroke:none" d="M 20.65625 0 L 20.65625 -29.40625 C 20.65625 -30.195312 20.507812 -30.722656 20.21875 -30.984375 C 19.9375 -31.242188 19.398438 -31.375 18.609375 -31.375 L 3.421875 -31.375 L 3.421875 -39.46875 L 24.859375 -39.46875 C 27.054688 -39.46875 28.601562 -38.953125 29.5 -37.921875 C 30.394531 -36.890625 30.84375 -35.125 30.84375 -32.625 L 30.84375 0 Z M 6.78125 0 C 4.539062 0 3.421875 -1.140625 3.421875 -3.421875 L 3.421875 -24.609375 L 13.609375 -24.609375 L 13.609375 -9.34375 C 13.609375 -8.507812 13.941406 -8.09375 14.609375 -8.09375 L 15.453125 -8.09375 L 15.453125 0 Z M 6.78125 0 "/></g></g><g style="fill:#396c84;fill-opacity:1;"><g transform="translate(337.053919, 188.171707)"><path style="stroke:none" d=""/></g></g><g style="fill:#396c84;fill-opacity:1;"><g transform="translate(350.538825, 188.171707)"><path style="stroke:none" d="M 10.53125 0 C 7.976562 0 6.265625 -0.796875 5.390625 -2.390625 C 4.515625 -3.992188 4.5625 -6.289062 5.53125 -9.28125 L 11.96875 -29.265625 C 12.40625 -30.671875 11.925781 -31.375 10.53125 -31.375 L 2.828125 -31.375 C 2.128906 -31.375 1.632812 -31.515625 1.34375 -31.796875 C 1.0625 -32.085938 0.921875 -32.601562 0.921875 -33.34375 L 0.921875 -44.734375 L 10.53125 -44.734375 L 10.53125 -39.46875 L 17.5625 -39.46875 C 20.0625 -39.46875 21.800781 -38.644531 22.78125 -37 C 23.769531 -35.351562 23.828125 -33.171875 22.953125 -30.453125 L 15.984375 -9.796875 C 15.804688 -9.316406 15.769531 -8.910156 15.875 -8.578125 C 15.988281 -8.253906 16.332031 -8.09375 16.90625 -8.09375 L 19.796875 -8.09375 L 19.796875 0 Z M 10.53125 0 "/></g></g><g style="fill:#396c84;fill-opacity:1;"><g transform="translate(375.929916, 188.171707)"><path style="stroke:none" d="M 20.1875 -39.46875 L 30.390625 -39.46875 L 30.390625 -19.796875 C 30.390625 -16.898438 30.0625 -14.519531 29.40625 -12.65625 C 28.75 -10.800781 27.796875 -9.269531 26.546875 -8.0625 C 25.296875 -6.851562 23.78125 -5.820312 22 -4.96875 C 20.226562 -4.113281 18.242188 -3.25 16.046875 -2.375 L 4.40625 2.234375 L 1.578125 -5.453125 L 8.28125 -8.03125 C 6.613281 -9.601562 5.648438 -11.726562 5.390625 -14.40625 L 2.703125 -39.46875 L 12.890625 -39.46875 L 15.859375 -13.21875 C 15.941406 -12.425781 16.113281 -11.910156 16.375 -11.671875 C 16.644531 -11.429688 17 -11.378906 17.4375 -11.515625 L 17.765625 -11.640625 C 18.503906 -11.992188 19.09375 -12.5 19.53125 -13.15625 C 19.96875 -13.8125 20.1875 -14.796875 20.1875 -16.109375 Z M 20.1875 -39.46875 "/></g></g><g style="fill:#396c84;fill-opacity:1;"><g transform="translate(409.543518, 188.171707)"><path style="stroke:none" d=""/></g></g><g style="fill:#396c84;fill-opacity:1;"><g transform="translate(423.028424, 188.171707)"><path style="stroke:none" d="M 20.65625 0 L 20.65625 -29.40625 C 20.65625 -30.195312 20.507812 -30.722656 20.21875 -30.984375 C 19.9375 -31.242188 19.398438 -31.375 18.609375 -31.375 L 3.421875 -31.375 L 3.421875 -39.46875 L 24.859375 -39.46875 C 27.054688 -39.46875 28.601562 -38.953125 29.5 -37.921875 C 30.394531 -36.890625 30.84375 -35.125 30.84375 -32.625 L 30.84375 0 Z M 6.78125 0 C 4.539062 0 3.421875 -1.140625 3.421875 -3.421875 L 3.421875 -24.609375 L 13.609375 -24.609375 L 13.609375 -9.34375 C 13.609375 -8.507812 13.941406 -8.09375 14.609375 -8.09375 L 15.453125 -8.09375 L 15.453125 0 Z M 6.78125 0 "/></g></g><g style="fill:#396c84;fill-opacity:1;"><g transform="translate(457.497163, 188.171707)"><path style="stroke:none" d="M 0.203125 0 L 0.203125 -8.09375 L 5.65625 -8.09375 C 6.570312 -8.09375 7.179688 -8.242188 7.484375 -8.546875 C 7.796875 -8.859375 7.953125 -9.492188 7.953125 -10.453125 L 7.953125 -29.40625 C 7.953125 -30.195312 7.820312 -30.722656 7.5625 -30.984375 C 7.300781 -31.242188 6.796875 -31.375 6.046875 -31.375 L 3.75 -31.375 L 3.75 -39.46875 L 12.109375 -39.46875 C 14.296875 -39.46875 15.847656 -38.972656 16.765625 -37.984375 C 17.691406 -37.003906 18.15625 -35.347656 18.15625 -33.015625 L 18.15625 -6.578125 C 18.15625 -4.160156 17.679688 -2.457031 16.734375 -1.46875 C 15.796875 -0.488281 14.207031 0 11.96875 0 Z M 0.203125 0 "/></g></g><g style="fill:#396c84;fill-opacity:1;"><g transform="translate(478.941456, 188.171707)"><path style="stroke:none" d="M 24.796875 0 L 15.59375 0 L 11.703125 -13.8125 C 11.304688 -13.632812 11.039062 -13.4375 10.90625 -13.21875 C 10.78125 -13 10.695312 -12.710938 10.65625 -12.359375 L 9.734375 0 L 0.0625 0 L 1.90625 -15.0625 C 2.082031 -16.46875 2.453125 -17.539062 3.015625 -18.28125 C 3.585938 -19.03125 4.46875 -19.644531 5.65625 -20.125 L 9.796875 -21.84375 C 10.503906 -22.144531 11.03125 -22.546875 11.375 -23.046875 C 11.726562 -23.554688 11.90625 -24.296875 11.90625 -25.265625 L 11.90625 -29.609375 C 11.90625 -30.347656 11.796875 -30.828125 11.578125 -31.046875 C 11.359375 -31.265625 10.875 -31.375 10.125 -31.375 L 5.390625 -31.375 L 5.390625 -39.46875 L 15.921875 -39.46875 C 17.847656 -39.46875 19.257812 -38.972656 20.15625 -37.984375 C 21.0625 -37.003906 21.515625 -35.414062 21.515625 -33.21875 L 21.515625 -20.859375 C 21.515625 -19.847656 21.378906 -19.035156 21.109375 -18.421875 C 20.847656 -17.804688 20.476562 -17.320312 20 -16.96875 Z M 24.796875 0 "/></g></g><g style="fill:#396c84;fill-opacity:1;"><g transform="translate(504.595682, 188.171707)"><path style="stroke:none" d="M 20.65625 0 L 20.65625 -29.40625 C 20.65625 -30.195312 20.507812 -30.722656 20.21875 -30.984375 C 19.9375 -31.242188 19.398438 -31.375 18.609375 -31.375 L 3.421875 -31.375 L 3.421875 -39.46875 L 24.859375 -39.46875 C 27.054688 -39.46875 28.601562 -38.953125 29.5 -37.921875 C 30.394531 -36.890625 30.84375 -35.125 30.84375 -32.625 L 30.84375 0 Z M 6.78125 0 C 4.539062 0 3.421875 -1.140625 3.421875 -3.421875 L 3.421875 -24.609375 L 13.609375 -24.609375 L 13.609375 -9.34375 C 13.609375 -8.507812 13.941406 -8.09375 14.609375 -8.09375 L 15.453125 -8.09375 L 15.453125 0 Z M 6.78125 0 "/></g><g transform="translate(539.064399, 188.171707)"><path style="stroke:none" d=""/></g></g><g style="fill:#396c84;fill-opacity:1;"><g transform="translate(552.549328, 188.171707)"><path style="stroke:none" d="M 5.859375 10.0625 L 5.859375 -29.9375 C 5.859375 -30.539062 5.757812 -30.929688 5.5625 -31.109375 C 5.363281 -31.285156 4.957031 -31.375 4.34375 -31.375 L 1.96875 -31.375 L 1.96875 -39.46875 L 11.640625 -39.46875 C 13.265625 -39.46875 14.40625 -39.140625 15.0625 -38.484375 C 15.71875 -37.828125 16.046875 -36.707031 16.046875 -35.125 L 16.046875 10.0625 Z M 5.859375 10.0625 "/></g></g><g style="fill:#396c84;fill-opacity:1;"><g transform="translate(572.217555, 188.171707)"><path style="stroke:none" d="M 5.859375 0 L 5.859375 -29.9375 C 5.859375 -30.539062 5.757812 -30.929688 5.5625 -31.109375 C 5.363281 -31.285156 4.957031 -31.375 4.34375 -31.375 L 1.96875 -31.375 L 1.96875 -39.46875 L 11.640625 -39.46875 C 13.265625 -39.46875 14.40625 -39.140625 15.0625 -38.484375 C 15.71875 -37.828125 16.046875 -36.707031 16.046875 -35.125 L 16.046875 0 Z M 5.859375 0 "/></g></g><g style="fill:#396c84;fill-opacity:1;"><g transform="translate(591.885782, 188.171707)"><path style="stroke:none" d="M 0.203125 0 L 0.203125 -8.09375 L 5.65625 -8.09375 C 6.570312 -8.09375 7.179688 -8.242188 7.484375 -8.546875 C 7.796875 -8.859375 7.953125 -9.492188 7.953125 -10.453125 L 7.953125 -29.40625 C 7.953125 -30.195312 7.820312 -30.722656 7.5625 -30.984375 C 7.300781 -31.242188 6.796875 -31.375 6.046875 -31.375 L 3.75 -31.375 L 3.75 -39.46875 L 12.109375 -39.46875 C 14.296875 -39.46875 15.847656 -38.972656 16.765625 -37.984375 C 17.691406 -37.003906 18.15625 -35.347656 18.15625 -33.015625 L 18.15625 -6.578125 C 18.15625 -4.160156 17.679688 -2.457031 16.734375 -1.46875 C 15.796875 -0.488281 14.207031 0 11.96875 0 Z M 0.203125 0 "/></g></g><g style="fill:#396c84;fill-opacity:1;"><g transform="translate(613.330052, 188.171707)"><path style="stroke:none" d="M 1.1875 0 L 1.1875 -8.09375 L 11.3125 -8.09375 C 12.101562 -8.09375 12.640625 -8.222656 12.921875 -8.484375 C 13.210938 -8.742188 13.359375 -9.25 13.359375 -10 L 13.359375 -29.40625 C 13.359375 -30.195312 13.210938 -30.722656 12.921875 -30.984375 C 12.640625 -31.242188 12.101562 -31.375 11.3125 -31.375 L 1.90625 -31.375 L 1.90625 -39.46875 L 17.296875 -39.46875 C 19.578125 -39.46875 21.1875 -38.992188 22.125 -38.046875 C 23.070312 -37.109375 23.546875 -35.5 23.546875 -33.21875 L 23.546875 -6.1875 C 23.546875 -3.945312 23.070312 -2.351562 22.125 -1.40625 C 21.1875 -0.46875 19.578125 0 17.296875 0 Z M 1.1875 0 "/></g></g><g style="fill:#396c84;fill-opacity:1;"><g transform="translate(640.168329, 188.171707)"><path style="stroke:none" d="M 25.921875 -39.46875 C 28.378906 -39.46875 30.117188 -38.953125 31.140625 -37.921875 C 32.171875 -36.890625 32.6875 -35.125 32.6875 -32.625 L 32.6875 0 L 22.5 0 L 22.5 -29.140625 C 22.5 -30.015625 22.34375 -30.648438 22.03125 -31.046875 C 21.726562 -31.441406 21.160156 -31.640625 20.328125 -31.640625 L 18.546875 -31.640625 C 17.054688 -31.640625 16.023438 -31.175781 15.453125 -30.25 C 14.890625 -29.332031 14.867188 -27.40625 15.390625 -24.46875 L 17.765625 -10.65625 C 18.421875 -7.0625 18.222656 -4.382812 17.171875 -2.625 C 16.117188 -0.875 13.988281 0 10.78125 0 L 2.046875 0 L 2.046875 -8.09375 L 5.921875 -8.09375 C 6.535156 -8.09375 7.003906 -8.265625 7.328125 -8.609375 C 7.660156 -8.960938 7.757812 -9.625 7.625 -10.59375 L 5.453125 -23.15625 C 5.015625 -25.613281 4.945312 -27.46875 5.25 -28.71875 C 5.5625 -29.96875 5.960938 -30.851562 6.453125 -31.375 L 2.171875 -31.375 L 2.171875 -39.46875 Z M 25.921875 -39.46875 "/></g></g><g clip-rule="nonzero" clip-path="url(#0cdd12cc96)"><path style=" stroke:none;fill-rule:nonzero;fill:#e0f5ff;fill-opacity:1;" d="M 570.652344 24.835938 L 558.480469 101.464844 C 557.433594 108.042969 551.730469 112.859375 545.070312 112.789062 L 503.117188 112.320312 L 449.558594 111.742188 L 288.914062 109.984375 L 235.367188 109.40625 L 187.925781 108.828125 L 134.441406 108.238281 L 31.636719 113.765625 C 30.5625 113.8125 29.703125 112.878906 29.820312 111.804688 L 30.316406 107.246094 L 31.746094 94.445312 C 31.769531 94.195312 31.851562 93.960938 31.96875 93.746094 L 35.25 88.136719 C 35.511719 87.675781 35.558594 87.121094 35.378906 86.625 L 33.398438 81.261719 C 33.300781 81.003906 33.265625 80.730469 33.300781 80.460938 L 33.988281 74.285156 L 35.453125 61.089844 L 36.183594 54.488281 L 36.917969 47.902344 L 38.382812 34.71875 L 39.113281 28.117188 L 39.8125 21.910156 C 39.832031 21.660156 39.914062 21.414062 40.046875 21.199219 L 44.570312 13.546875 C 44.984375 12.863281 44.875 11.976562 44.308594 11.410156 C 43.957031 11.042969 43.804688 10.605469 43.804688 10.179688 C 43.804688 9.257812 44.523438 8.375 45.597656 8.386719 L 48.738281 8.988281 L 212.691406 3.460938 L 256.082031 4.121094 L 320.148438 4.808594 L 376.234375 5.433594 L 436.308594 6.082031 L 496.371094 6.730469 L 557.953125 9.3125 C 565.976562 9.648438 571.910156 16.90625 570.652344 24.835938 "/></g><g clip-rule="nonzero" clip-path="url(#09a732aea9)"><path style=" stroke:none;fill-rule:nonzero;fill:#e0f5ff;fill-opacity:1;" d="M 818.214844 24.835938 L 806.042969 101.464844 C 805 108.042969 799.292969 112.859375 792.632812 112.789062 L 750.679688 112.320312 L 697.121094 111.742188 L 536.476562 109.984375 L 482.929688 109.40625 L 435.492188 108.828125 L 382.003906 108.238281 L 279.199219 113.765625 C 278.128906 113.8125 277.265625 112.878906 277.382812 111.804688 L 277.878906 107.246094 L 279.308594 94.445312 C 279.332031 94.195312 279.414062 93.960938 279.53125 93.746094 L 282.816406 88.136719 C 283.074219 87.675781 283.121094 87.121094 282.945312 86.625 L 280.960938 81.261719 C 280.867188 81.003906 280.828125 80.730469 280.867188 80.460938 L 281.550781 74.285156 L 283.015625 61.089844 L 283.75 54.488281 L 284.480469 47.902344 L 285.945312 34.71875 L 286.675781 28.117188 L 287.375 21.910156 C 287.394531 21.660156 287.476562 21.414062 287.609375 21.199219 L 292.132812 13.546875 C 292.546875 12.863281 292.441406 11.976562 291.871094 11.410156 C 291.519531 11.042969 291.367188 10.605469 291.367188 10.179688 C 291.367188 9.257812 292.085938 8.375 293.160156 8.386719 L 296.300781 8.988281 L 460.253906 3.460938 L 503.644531 4.121094 L 567.710938 4.808594 L 623.796875 5.433594 L 683.871094 6.082031 L 743.933594 6.730469 L 805.515625 9.3125 C 813.539062 9.648438 819.476562 16.90625 818.214844 24.835938 "/></g><g style="fill:#396c84;fill-opacity:1;"><g transform="translate(97.946686, 100.111325)"><path style="stroke:none" d="M 25.359375 0 L 25.359375 -12.078125 C 25.359375 -12.878906 25.21875 -13.613281 24.9375 -14.28125 C 24.664062 -14.945312 24.101562 -15.492188 23.25 -15.921875 L 5.578125 -25 C 4.671875 -25.476562 4 -26.160156 3.5625 -27.046875 C 3.132812 -27.929688 2.921875 -28.925781 2.921875 -30.03125 L 2.921875 -59.5 L 17.125 -59.5 L 17.125 -33.59375 C 17.125 -32.800781 17.257812 -32.128906 17.53125 -31.578125 C 17.800781 -31.035156 18.335938 -30.550781 19.140625 -30.125 L 25.359375 -27.09375 L 25.359375 -59.5 L 39.546875 -59.5 L 39.546875 0 Z M 25.359375 0 "/></g></g><g style="fill:#396c84;fill-opacity:1;"><g transform="translate(142.164955, 100.111325)"><path style="stroke:none" d=""/></g></g><g style="fill:#396c84;fill-opacity:1;"><g transform="translate(160.93176, 100.111325)"><path style="stroke:none" d="M 42.84375 -54.921875 C 45.53125 -54.921875 47.332031 -54.003906 48.25 -52.171875 C 49.164062 -50.347656 49.316406 -48.09375 48.703125 -45.40625 L 39.359375 0 L 25 0 L 33.046875 -41.46875 C 33.234375 -42.507812 33.265625 -43.195312 33.140625 -43.53125 C 33.015625 -43.863281 32.4375 -44.03125 31.40625 -44.03125 L 24.171875 -44.03125 C 23.429688 -44.03125 22.847656 -43.9375 22.421875 -43.75 C 21.992188 -43.570312 21.78125 -42.875 21.78125 -41.65625 L 21.78125 2.203125 C 21.78125 2.929688 22.148438 3.296875 22.890625 3.296875 L 25.078125 3.296875 L 25.078125 14 L 12.640625 14 C 9.273438 14 7.59375 12.320312 7.59375 8.96875 L 7.59375 -39.921875 C 7.59375 -41.742188 7.929688 -42.992188 8.609375 -43.671875 L 3.296875 -43.671875 L 3.296875 -54.921875 Z M 42.84375 -54.921875 "/></g></g><g style="fill:#396c84;fill-opacity:1;"><g transform="translate(212.563351, 100.111325)"><path style="stroke:none" d="M 17.484375 0 L 17.484375 -40.375 C 17.484375 -42.570312 16.382812 -43.671875 14.1875 -43.671875 L 1.28125 -43.671875 L 1.28125 -54.921875 L 22.421875 -54.921875 C 25.847656 -54.921875 28.242188 -54.21875 29.609375 -52.8125 C 30.984375 -51.414062 31.671875 -49.039062 31.671875 -45.6875 L 31.671875 0 Z M 17.484375 0 "/></g></g><g style="fill:#396c84;fill-opacity:1;"><g transform="translate(249.273052, 100.111325)"><path style="stroke:none" d="M 4.21875 0 L 4.21875 -11.265625 L 25.71875 -11.265625 C 27.914062 -11.265625 29.015625 -12.332031 29.015625 -14.46875 L 29.015625 -41.109375 C 29.015625 -42.265625 28.90625 -43.039062 28.6875 -43.4375 C 28.476562 -43.832031 27.734375 -44.03125 26.453125 -44.03125 L 22.15625 -44.03125 C 20.9375 -44.03125 20.128906 -43.832031 19.734375 -43.4375 C 19.335938 -43.039062 19.078125 -42.265625 18.953125 -41.109375 L 17.9375 -33.046875 C 17.882812 -32.191406 17.976562 -31.597656 18.21875 -31.265625 C 18.457031 -30.929688 19.003906 -30.765625 19.859375 -30.765625 L 23.25 -30.765625 L 23.25 -19.78125 L 10.34375 -19.78125 C 7.59375 -19.78125 5.65625 -20.40625 4.53125 -21.65625 C 3.40625 -22.90625 2.992188 -24.875 3.296875 -27.5625 L 5.578125 -47.0625 C 5.890625 -49.800781 6.726562 -51.796875 8.09375 -53.046875 C 9.46875 -54.296875 11.5 -54.921875 14.1875 -54.921875 L 34.0625 -54.921875 C 37.414062 -54.921875 39.773438 -54.234375 41.140625 -52.859375 C 42.515625 -51.492188 43.203125 -49.101562 43.203125 -45.6875 L 43.203125 -9.15625 C 43.203125 -5.800781 42.515625 -3.4375 41.140625 -2.0625 C 39.773438 -0.6875 37.414062 0 34.0625 0 Z M 4.21875 0 "/></g></g><g style="fill:#396c84;fill-opacity:1;"><g transform="translate(297.151282, 100.111325)"><path style="stroke:none" d=""/></g></g><g style="fill:#396c84;fill-opacity:1;"><g transform="translate(315.918087, 100.111325)"><path style="stroke:none" d="M 36.0625 -54.921875 C 39.488281 -54.921875 41.914062 -54.203125 43.34375 -52.765625 C 44.78125 -51.335938 45.5 -48.882812 45.5 -45.40625 L 45.5 0 L 31.3125 0 L 31.3125 -40.5625 C 31.3125 -41.78125 31.097656 -42.660156 30.671875 -43.203125 C 30.242188 -43.753906 29.445312 -44.03125 28.28125 -44.03125 L 25.8125 -44.03125 C 23.738281 -44.03125 22.304688 -43.390625 21.515625 -42.109375 C 20.722656 -40.828125 20.691406 -38.144531 21.421875 -34.0625 L 24.71875 -14.828125 C 25.632812 -9.828125 25.359375 -6.101562 23.890625 -3.65625 C 22.429688 -1.21875 19.472656 0 15.015625 0 L 2.84375 0 L 2.84375 -11.265625 L 8.234375 -11.265625 C 9.085938 -11.265625 9.742188 -11.503906 10.203125 -11.984375 C 10.660156 -12.472656 10.800781 -13.390625 10.625 -14.734375 L 7.59375 -32.21875 C 6.988281 -35.632812 6.898438 -38.210938 7.328125 -39.953125 C 7.753906 -41.691406 8.300781 -42.929688 8.96875 -43.671875 L 3.015625 -43.671875 L 3.015625 -54.921875 Z M 36.0625 -54.921875 "/></g></g><g style="fill:#396c84;fill-opacity:1;"><g transform="translate(366.542695, 100.111325)"><path style="stroke:none" d="M 18.3125 -28.75 C 17.519531 -28.4375 17.0625 -28.003906 16.9375 -27.453125 C 16.8125 -26.910156 16.898438 -26.03125 17.203125 -24.8125 L 21.328125 -11.53125 C 22.367188 -8.238281 22.582031 -5.492188 21.96875 -3.296875 C 21.363281 -1.097656 19.503906 0 16.390625 0 L 3.109375 0 L 3.109375 -11.265625 L 6.046875 -11.265625 C 6.835938 -11.265625 7.171875 -11.597656 7.046875 -12.265625 L 4.671875 -23.703125 C 4.054688 -26.578125 4.007812 -28.925781 4.53125 -30.75 C 5.050781 -32.582031 5.9375 -34.109375 7.1875 -35.328125 C 8.4375 -36.554688 9.796875 -37.566406 11.265625 -38.359375 L 12.640625 -39.09375 L 3.203125 -54.921875 L 17.671875 -54.921875 L 30.484375 -31.859375 C 30.972656 -32.160156 31.304688 -32.539062 31.484375 -33 C 31.671875 -33.457031 31.765625 -34.207031 31.765625 -35.25 L 31.765625 -54.921875 L 45.3125 -54.921875 L 45.3125 -34.140625 C 45.3125 -31.335938 44.742188 -28.972656 43.609375 -27.046875 C 42.484375 -25.128906 40.519531 -23.316406 37.71875 -21.609375 L 36.4375 -20.78125 L 47.140625 0 L 32.859375 0 L 18.40625 -28.75 Z M 18.3125 -28.75 "/></g></g><g style="fill:#396c84;fill-opacity:1;"><g transform="translate(415.611004, 100.111325)"><path style="stroke:none" d=""/></g></g><g style="fill:#396c84;fill-opacity:1;"><g transform="translate(434.37781, 100.111325)"><path style="stroke:none" d="M 14.640625 0 C 11.109375 0 8.726562 -1.113281 7.5 -3.34375 C 6.28125 -5.570312 6.34375 -8.757812 7.6875 -12.90625 L 16.65625 -40.734375 C 17.269531 -42.691406 16.597656 -43.671875 14.640625 -43.671875 L 3.9375 -43.671875 C 2.957031 -43.671875 2.269531 -43.867188 1.875 -44.265625 C 1.476562 -44.660156 1.28125 -45.378906 1.28125 -46.421875 L 1.28125 -62.25 L 14.640625 -62.25 L 14.640625 -54.921875 L 24.4375 -54.921875 C 27.914062 -54.921875 30.34375 -53.773438 31.71875 -51.484375 C 33.09375 -49.203125 33.171875 -46.171875 31.953125 -42.390625 L 22.25 -13.640625 C 22 -12.972656 21.953125 -12.410156 22.109375 -11.953125 C 22.265625 -11.492188 22.738281 -11.265625 23.53125 -11.265625 L 27.5625 -11.265625 L 27.5625 0 Z M 14.640625 0 "/></g></g><g style="fill:#396c84;fill-opacity:1;"><g transform="translate(469.714322, 100.111325)"><path style="stroke:none" d="M 8.0625 -23.25 L 8.0625 -41.65625 C 8.0625 -42.507812 7.921875 -43.054688 7.640625 -43.296875 C 7.367188 -43.546875 6.804688 -43.671875 5.953125 -43.671875 L 2.46875 -43.671875 L 2.46875 -54.921875 L 15.015625 -54.921875 C 17.640625 -54.921875 19.484375 -54.382812 20.546875 -53.3125 C 21.617188 -52.25 22.15625 -50.40625 22.15625 -47.78125 L 22.15625 -23.25 Z M 8.0625 -23.25 "/></g></g><g style="fill:#396c84;fill-opacity:1;"><g transform="translate(496.354044, 100.111325)"><path style="stroke:none" d="M 51.171875 -54.921875 L 51.171875 -43.671875 L 45.953125 -43.671875 C 46.628906 -42.503906 46.96875 -40.304688 46.96875 -37.078125 L 46.96875 0 L 32.78125 0 L 32.78125 -39.546875 C 32.78125 -41.316406 32.640625 -42.445312 32.359375 -42.9375 C 32.085938 -43.425781 31.523438 -43.671875 30.671875 -43.671875 L 23.703125 -43.671875 C 22.910156 -43.671875 22.378906 -43.425781 22.109375 -42.9375 C 21.835938 -42.445312 21.703125 -41.316406 21.703125 -39.546875 L 21.703125 0 L 7.5 0 L 7.5 -37.078125 C 7.5 -40.304688 7.835938 -42.503906 8.515625 -43.671875 L 3.296875 -43.671875 L 3.296875 -54.921875 Z M 51.171875 -54.921875 "/></g></g><g style="fill:#396c84;fill-opacity:1;"><g transform="translate(550.823533, 100.111325)"><path style="stroke:none" d="M 36.0625 -54.921875 C 39.488281 -54.921875 41.914062 -54.203125 43.34375 -52.765625 C 44.78125 -51.335938 45.5 -48.882812 45.5 -45.40625 L 45.5 0 L 31.3125 0 L 31.3125 -40.5625 C 31.3125 -41.78125 31.097656 -42.660156 30.671875 -43.203125 C 30.242188 -43.753906 29.445312 -44.03125 28.28125 -44.03125 L 25.8125 -44.03125 C 23.738281 -44.03125 22.304688 -43.390625 21.515625 -42.109375 C 20.722656 -40.828125 20.691406 -38.144531 21.421875 -34.0625 L 24.71875 -14.828125 C 25.632812 -9.828125 25.359375 -6.101562 23.890625 -3.65625 C 22.429688 -1.21875 19.472656 0 15.015625 0 L 2.84375 0 L 2.84375 -11.265625 L 8.234375 -11.265625 C 9.085938 -11.265625 9.742188 -11.503906 10.203125 -11.984375 C 10.660156 -12.472656 10.800781 -13.390625 10.625 -14.734375 L 7.59375 -32.21875 C 6.988281 -35.632812 6.898438 -38.210938 7.328125 -39.953125 C 7.753906 -41.691406 8.300781 -42.929688 8.96875 -43.671875 L 3.015625 -43.671875 L 3.015625 -54.921875 Z M 36.0625 -54.921875 "/></g></g><g style="fill:#396c84;fill-opacity:1;"><g transform="translate(601.448105, 100.111325)"><path style="stroke:none" d="M 0.28125 0 L 0.28125 -11.265625 L 7.875 -11.265625 C 9.15625 -11.265625 10.007812 -11.476562 10.4375 -11.90625 C 10.863281 -12.332031 11.078125 -13.21875 11.078125 -14.5625 L 11.078125 -40.921875 C 11.078125 -42.015625 10.894531 -42.742188 10.53125 -43.109375 C 10.164062 -43.484375 9.460938 -43.671875 8.421875 -43.671875 L 5.21875 -43.671875 L 5.21875 -54.921875 L 16.84375 -54.921875 C 19.894531 -54.921875 22.0625 -54.234375 23.34375 -52.859375 C 24.625 -51.492188 25.265625 -49.191406 25.265625 -45.953125 L 25.265625 -9.15625 C 25.265625 -5.800781 24.609375 -3.4375 23.296875 -2.0625 C 21.984375 -0.6875 19.769531 0 16.65625 0 Z M 0.28125 0 "/></g></g><g style="fill:#396c84;fill-opacity:1;"><g transform="translate(631.291931, 100.111325)"><path style="stroke:none" d=""/></g></g><g style="fill:#396c84;fill-opacity:1;"><g transform="translate(650.058712, 100.111325)"><path style="stroke:none" d="M 8.140625 0 L 8.140625 -41.65625 C 8.140625 -42.507812 8.003906 -43.054688 7.734375 -43.296875 C 7.460938 -43.546875 6.898438 -43.671875 6.046875 -43.671875 L 2.75 -43.671875 L 2.75 -54.921875 L 16.203125 -54.921875 C 18.460938 -54.921875 20.050781 -54.460938 20.96875 -53.546875 C 21.882812 -52.640625 22.34375 -51.085938 22.34375 -48.890625 L 22.34375 0 Z M 8.140625 0 "/></g></g><g style="fill:#396c84;fill-opacity:1;"><g transform="translate(677.430777, 100.111325)"><path style="stroke:none" d="M 18.3125 -28.75 C 17.519531 -28.4375 17.0625 -28.003906 16.9375 -27.453125 C 16.8125 -26.910156 16.898438 -26.03125 17.203125 -24.8125 L 21.328125 -11.53125 C 22.367188 -8.238281 22.582031 -5.492188 21.96875 -3.296875 C 21.363281 -1.097656 19.503906 0 16.390625 0 L 3.109375 0 L 3.109375 -11.265625 L 6.046875 -11.265625 C 6.835938 -11.265625 7.171875 -11.597656 7.046875 -12.265625 L 4.671875 -23.703125 C 4.054688 -26.578125 4.007812 -28.925781 4.53125 -30.75 C 5.050781 -32.582031 5.9375 -34.109375 7.1875 -35.328125 C 8.4375 -36.554688 9.796875 -37.566406 11.265625 -38.359375 L 12.640625 -39.09375 L 3.203125 -54.921875 L 17.671875 -54.921875 L 30.484375 -31.859375 C 30.972656 -32.160156 31.304688 -32.539062 31.484375 -33 C 31.671875 -33.457031 31.765625 -34.207031 31.765625 -35.25 L 31.765625 -54.921875 L 45.3125 -54.921875 L 45.3125 -34.140625 C 45.3125 -31.335938 44.742188 -28.972656 43.609375 -27.046875 C 42.484375 -25.128906 40.519531 -23.316406 37.71875 -21.609375 L 36.4375 -20.78125 L 47.140625 0 L 32.859375 0 L 18.40625 -28.75 Z M 18.3125 -28.75 "/></g></g><g style="fill:#396c84;fill-opacity:1;"><g transform="translate(726.499086, 100.111325)"><path style="stroke:none" d="M 8.140625 0 L 8.140625 -41.65625 C 8.140625 -42.507812 8.003906 -43.054688 7.734375 -43.296875 C 7.460938 -43.546875 6.898438 -43.671875 6.046875 -43.671875 L 2.75 -43.671875 L 2.75 -54.921875 L 16.203125 -54.921875 C 18.460938 -54.921875 20.050781 -54.460938 20.96875 -53.546875 C 21.882812 -52.640625 22.34375 -51.085938 22.34375 -48.890625 L 22.34375 0 Z M 8.140625 0 "/></g></g><g style="fill:#396c84;fill-opacity:1;"><g transform="translate(753.871198, 100.111325)"><path style="stroke:none" d="M 35.0625 -11.265625 L 37.8125 -11.265625 L 37.8125 0 L 1.640625 0 L 1.640625 -11.265625 L 19.5 -11.265625 C 19.3125 -11.628906 19.15625 -12.066406 19.03125 -12.578125 C 18.914062 -13.097656 18.859375 -13.664062 18.859375 -14.28125 L 18.859375 -40.921875 C 18.859375 -42.015625 18.675781 -42.742188 18.3125 -43.109375 C 17.945312 -43.484375 17.210938 -43.671875 16.109375 -43.671875 L 2.65625 -43.671875 L 2.65625 -54.921875 L 24.265625 -54.921875 C 27.492188 -54.921875 29.765625 -54.203125 31.078125 -52.765625 C 32.390625 -51.335938 33.046875 -48.882812 33.046875 -45.40625 L 33.046875 -13.546875 C 33.046875 -12.023438 33.71875 -11.265625 35.0625 -11.265625 Z M 35.0625 -11.265625 "/></g></g></g></svg>