<svg xmlns="http://www.w3.org/2000/svg" xmlns:xlink="http://www.w3.org/1999/xlink" width="314" zoomAndPan="magnify" viewBox="0 0 235.5 62.249996" height="83" preserveAspectRatio="xMidYMid meet" version="1.2"><defs><clipPath id="cd09622986"><path d="M 130.941406 27.851562 L 134.644531 27.851562 L 134.644531 38.636719 L 130.941406 38.636719 Z M 130.941406 27.851562 "/></clipPath></defs><g id="c36fad26ee"><g clip-rule="nonzero" clip-path="url(#cd09622986)"><path style=" stroke:none;fill-rule:nonzero;fill:#43b0f1;fill-opacity:1;" d="M 130.941406 27.851562 L 134.644531 27.851562 L 134.644531 38.632812 L 130.941406 38.632812 Z M 130.941406 27.851562 "/></g><g style="fill:#303144;fill-opacity:1;"><g transform="translate(12.749387, 40.915372)"><path style="stroke:none" d="M 6 0 C 4.550781 0 3.578125 -0.453125 3.078125 -1.359375 C 2.578125 -2.273438 2.601562 -3.585938 3.15625 -5.296875 L 6.828125 -16.703125 C 7.078125 -17.503906 6.800781 -17.90625 6 -17.90625 L 1.609375 -17.90625 C 1.210938 -17.90625 0.929688 -17.984375 0.765625 -18.140625 C 0.609375 -18.304688 0.53125 -18.601562 0.53125 -19.03125 L 0.53125 -25.53125 L 6 -25.53125 L 6 -22.53125 L 10.03125 -22.53125 C 11.457031 -22.53125 12.453125 -22.0625 13.015625 -21.125 C 13.578125 -20.1875 13.609375 -18.941406 13.109375 -17.390625 L 9.125 -5.59375 C 9.019531 -5.320312 9 -5.09375 9.0625 -4.90625 C 9.125 -4.71875 9.320312 -4.625 9.65625 -4.625 L 11.296875 -4.625 L 11.296875 0 Z M 6 0 "/></g></g><g style="fill:#303144;fill-opacity:1;"><g transform="translate(27.243431, 40.915372)"><path style="stroke:none" d="M 3.296875 -9.53125 L 3.296875 -17.078125 C 3.296875 -17.429688 3.238281 -17.65625 3.125 -17.75 C 3.019531 -17.851562 2.789062 -17.90625 2.4375 -17.90625 L 1.015625 -17.90625 L 1.015625 -22.53125 L 6.15625 -22.53125 C 7.226562 -22.53125 7.984375 -22.3125 8.421875 -21.875 C 8.867188 -21.4375 9.09375 -20.675781 9.09375 -19.59375 L 9.09375 -9.53125 Z M 3.296875 -9.53125 "/></g></g><g style="fill:#303144;fill-opacity:1;"><g transform="translate(38.170294, 40.915372)"><path style="stroke:none" d="M 14.375 -4.625 L 15.5 -4.625 L 15.5 0 L 0.671875 0 L 0.671875 -4.625 L 8 -4.625 C 7.925781 -4.769531 7.863281 -4.945312 7.8125 -5.15625 C 7.757812 -5.375 7.734375 -5.609375 7.734375 -5.859375 L 7.734375 -16.78125 C 7.734375 -17.226562 7.65625 -17.523438 7.5 -17.671875 C 7.351562 -17.828125 7.054688 -17.90625 6.609375 -17.90625 L 1.09375 -17.90625 L 1.09375 -22.53125 L 9.953125 -22.53125 C 11.273438 -22.53125 12.203125 -22.234375 12.734375 -21.640625 C 13.273438 -21.054688 13.546875 -20.050781 13.546875 -18.625 L 13.546875 -5.5625 C 13.546875 -4.9375 13.820312 -4.625 14.375 -4.625 Z M 14.375 -4.625 "/></g></g><g style="fill:#303144;fill-opacity:1;"><g transform="translate(54.016119, 40.915372)"><path style="stroke:none" d="M 17.578125 -22.53125 C 18.671875 -22.53125 19.40625 -22.15625 19.78125 -21.40625 C 20.15625 -20.65625 20.21875 -19.726562 19.96875 -18.625 L 16.140625 0 L 10.25 0 L 13.546875 -17.015625 C 13.628906 -17.429688 13.644531 -17.707031 13.59375 -17.84375 C 13.539062 -17.988281 13.300781 -18.0625 12.875 -18.0625 L 9.90625 -18.0625 C 9.613281 -18.0625 9.378906 -18.019531 9.203125 -17.9375 C 9.023438 -17.863281 8.9375 -17.578125 8.9375 -17.078125 L 8.9375 0.90625 C 8.9375 1.207031 9.085938 1.359375 9.390625 1.359375 L 10.28125 1.359375 L 10.28125 5.75 L 5.1875 5.75 C 3.800781 5.75 3.109375 5.054688 3.109375 3.671875 L 3.109375 -16.375 C 3.109375 -17.125 3.25 -17.632812 3.53125 -17.90625 L 1.359375 -17.90625 L 1.359375 -22.53125 Z M 17.578125 -22.53125 "/></g></g><g style="fill:#303144;fill-opacity:1;"><g transform="translate(75.193949, 40.915372)"><path style="stroke:none" d="M 18.0625 -3.1875 C 18.113281 -2.09375 17.878906 -1.285156 17.359375 -0.765625 C 16.847656 -0.253906 16.003906 0 14.828125 0 L 9.3125 0 L 9.3125 -4.625 L 11.1875 -4.625 C 11.59375 -4.625 11.84375 -4.703125 11.9375 -4.859375 C 12.039062 -5.023438 12.078125 -5.296875 12.046875 -5.671875 L 11.484375 -16.0625 C 11.460938 -16.789062 11.367188 -17.304688 11.203125 -17.609375 C 11.046875 -17.910156 10.753906 -18.0625 10.328125 -18.0625 L 10.171875 -18.0625 C 9.847656 -18.0625 9.617188 -17.96875 9.484375 -17.78125 C 9.347656 -17.59375 9.238281 -17.210938 9.15625 -16.640625 L 6.953125 0 L 1.015625 0 L 3.109375 -14.453125 C 3.335938 -16.035156 3.78125 -17.1875 4.4375 -17.90625 L 1.65625 -17.90625 L 1.65625 -22.53125 L 12.359375 -22.53125 C 13.785156 -22.53125 14.9375 -22.140625 15.8125 -21.359375 C 16.6875 -20.585938 17.171875 -19.125 17.265625 -16.96875 Z M 18.0625 -3.1875 "/></g></g><g style="fill:#303144;fill-opacity:1;"><g transform="translate(94.606957, 40.915372)"><path style="stroke:none" d=""/></g></g><g style="fill:#303144;fill-opacity:1;"><g transform="translate(102.30457, 40.915372)"><path style="stroke:none" d="M 6.953125 5.75 L 6.953125 -16.78125 C 6.953125 -17.226562 6.875 -17.523438 6.71875 -17.671875 C 6.570312 -17.828125 6.269531 -17.90625 5.8125 -17.90625 L 0.53125 -17.90625 L 0.53125 -22.53125 L 9.234375 -22.53125 C 10.515625 -22.53125 11.421875 -22.234375 11.953125 -21.640625 C 12.492188 -21.054688 12.765625 -20.050781 12.765625 -18.625 L 12.765625 5.75 Z M 6.953125 5.75 "/></g></g><g style="fill:#303144;fill-opacity:1;"><g transform="translate(117.174106, 40.915372)"><path style="stroke:none" d="M 1.734375 0 L 1.734375 -4.625 L 10.546875 -4.625 C 11.453125 -4.625 11.90625 -5.0625 11.90625 -5.9375 L 11.90625 -16.859375 C 11.90625 -17.335938 11.859375 -17.65625 11.765625 -17.8125 C 11.679688 -17.976562 11.375 -18.0625 10.84375 -18.0625 L 9.09375 -18.0625 C 8.582031 -18.0625 8.242188 -17.976562 8.078125 -17.8125 C 7.921875 -17.65625 7.816406 -17.335938 7.765625 -16.859375 L 7.359375 -13.546875 C 7.335938 -13.203125 7.375 -12.957031 7.46875 -12.8125 C 7.570312 -12.675781 7.796875 -12.609375 8.140625 -12.609375 L 9.53125 -12.609375 L 9.53125 -8.109375 L 4.25 -8.109375 C 3.113281 -8.109375 2.3125 -8.363281 1.84375 -8.875 C 1.382812 -9.394531 1.222656 -10.203125 1.359375 -11.296875 L 2.296875 -19.296875 C 2.421875 -20.421875 2.765625 -21.238281 3.328125 -21.75 C 3.890625 -22.269531 4.71875 -22.53125 5.8125 -22.53125 L 13.96875 -22.53125 C 15.34375 -22.53125 16.3125 -22.25 16.875 -21.6875 C 17.4375 -21.125 17.71875 -20.140625 17.71875 -18.734375 L 17.71875 -3.75 C 17.71875 -2.375 17.4375 -1.40625 16.875 -0.84375 C 16.3125 -0.28125 15.34375 0 13.96875 0 Z M 1.734375 0 "/></g></g><g style="fill:#303144;fill-opacity:1;"><g transform="translate(136.812409, 40.915372)"><path style="stroke:none" d="M 16.96875 -22.53125 L 22.609375 -22.53125 L 21.515625 -8 C 21.316406 -5.113281 20.570312 -3.054688 19.28125 -1.828125 C 17.988281 -0.609375 15.96875 0 13.21875 0 L 5.703125 0 C 4.734375 0 4.023438 -0.25 3.578125 -0.75 C 3.140625 -1.25 2.859375 -1.953125 2.734375 -2.859375 L 2.109375 -7.65625 C 1.898438 -8.882812 2.234375 -9.820312 3.109375 -10.46875 L 1.28125 -22.53125 L 6.953125 -22.53125 L 8.484375 -12.359375 L 8.515625 -12.359375 C 8.867188 -12.484375 9.085938 -12.617188 9.171875 -12.765625 C 9.265625 -12.910156 9.3125 -13.1875 9.3125 -13.59375 L 9.3125 -22.53125 L 14.90625 -22.53125 L 14.90625 -12.46875 C 14.90625 -11.363281 14.726562 -10.566406 14.375 -10.078125 C 14.03125 -9.585938 13.46875 -9.207031 12.6875 -8.9375 L 8.640625 -7.546875 C 8.210938 -7.367188 7.953125 -7.210938 7.859375 -7.078125 C 7.773438 -6.941406 7.757812 -6.671875 7.8125 -6.265625 L 7.953125 -5.296875 C 8.003906 -4.972656 8.125 -4.765625 8.3125 -4.671875 C 8.5 -4.585938 8.78125 -4.546875 9.15625 -4.546875 L 11.671875 -4.546875 C 12.722656 -4.546875 13.539062 -4.640625 14.125 -4.828125 C 14.71875 -5.015625 15.144531 -5.382812 15.40625 -5.9375 C 15.675781 -6.488281 15.847656 -7.285156 15.921875 -8.328125 Z M 16.96875 -22.53125 "/></g></g><g style="fill:#303144;fill-opacity:1;"><g transform="translate(160.731339, 40.915372)"><path style="stroke:none" d="M 18.0625 -3.1875 C 18.113281 -2.09375 17.878906 -1.285156 17.359375 -0.765625 C 16.847656 -0.253906 16.003906 0 14.828125 0 L 9.3125 0 L 9.3125 -4.625 L 11.1875 -4.625 C 11.59375 -4.625 11.84375 -4.703125 11.9375 -4.859375 C 12.039062 -5.023438 12.078125 -5.296875 12.046875 -5.671875 L 11.484375 -16.0625 C 11.460938 -16.789062 11.367188 -17.304688 11.203125 -17.609375 C 11.046875 -17.910156 10.753906 -18.0625 10.328125 -18.0625 L 10.171875 -18.0625 C 9.847656 -18.0625 9.617188 -17.96875 9.484375 -17.78125 C 9.347656 -17.59375 9.238281 -17.210938 9.15625 -16.640625 L 6.953125 0 L 1.015625 0 L 3.109375 -14.453125 C 3.335938 -16.035156 3.78125 -17.1875 4.4375 -17.90625 L 1.65625 -17.90625 L 1.65625 -22.53125 L 12.359375 -22.53125 C 13.785156 -22.53125 14.9375 -22.140625 15.8125 -21.359375 C 16.6875 -20.585938 17.171875 -19.125 17.265625 -16.96875 Z M 18.0625 -3.1875 "/></g></g><g style="fill:#303144;fill-opacity:1;"><g transform="translate(180.144347, 40.915372)"><path style="stroke:none" d=""/></g></g><g style="fill:#303144;fill-opacity:1;"><g transform="translate(187.84197, 40.915372)"><path style="stroke:none" d="M 6 0 C 4.550781 0 3.578125 -0.453125 3.078125 -1.359375 C 2.578125 -2.273438 2.601562 -3.585938 3.15625 -5.296875 L 6.828125 -16.703125 C 7.078125 -17.503906 6.800781 -17.90625 6 -17.90625 L 1.609375 -17.90625 C 1.210938 -17.90625 0.929688 -17.984375 0.765625 -18.140625 C 0.609375 -18.304688 0.53125 -18.601562 0.53125 -19.03125 L 0.53125 -25.53125 L 6 -25.53125 L 6 -22.53125 L 10.03125 -22.53125 C 11.457031 -22.53125 12.453125 -22.0625 13.015625 -21.125 C 13.578125 -20.1875 13.609375 -18.941406 13.109375 -17.390625 L 9.125 -5.59375 C 9.019531 -5.320312 9 -5.09375 9.0625 -4.90625 C 9.125 -4.71875 9.320312 -4.625 9.65625 -4.625 L 11.296875 -4.625 L 11.296875 0 Z M 6 0 "/></g></g><g style="fill:#303144;fill-opacity:1;"><g transform="translate(202.335994, 40.915372)"><path style="stroke:none" d="M 11.53125 -22.53125 L 17.34375 -22.53125 L 17.34375 -11.296875 C 17.34375 -9.648438 17.15625 -8.289062 16.78125 -7.21875 C 16.40625 -6.15625 15.859375 -5.28125 15.140625 -4.59375 C 14.429688 -3.90625 13.566406 -3.316406 12.546875 -2.828125 C 11.535156 -2.347656 10.40625 -1.859375 9.15625 -1.359375 L 2.515625 1.28125 L 0.90625 -3.109375 L 4.734375 -4.578125 C 3.773438 -5.484375 3.222656 -6.695312 3.078125 -8.21875 L 1.546875 -22.53125 L 7.359375 -22.53125 L 9.046875 -7.546875 C 9.097656 -7.097656 9.195312 -6.800781 9.34375 -6.65625 C 9.5 -6.519531 9.703125 -6.492188 9.953125 -6.578125 L 10.140625 -6.640625 C 10.566406 -6.847656 10.90625 -7.140625 11.15625 -7.515625 C 11.40625 -7.890625 11.53125 -8.453125 11.53125 -9.203125 Z M 11.53125 -22.53125 "/></g></g></g></svg>