<svg xmlns="http://www.w3.org/2000/svg" xmlns:xlink="http://www.w3.org/1999/xlink" width="1188" zoomAndPan="magnify" viewBox="0 0 890.88 323.249999" height="431" preserveAspectRatio="xMidYMid meet" version="1.2"><defs><clipPath id="cdf29b8cff"><path d="M 29.382812 3.464844 L 570.953125 3.464844 L 570.953125 113.882812 L 29.382812 113.882812 Z M 29.382812 3.464844 "/></clipPath><clipPath id="7f91b0f6ee"><path d="M 277.199219 3.464844 L 818.769531 3.464844 L 818.769531 113.882812 L 277.199219 113.882812 Z M 277.199219 3.464844 "/></clipPath></defs><g id="69e64f7d49"><g style="fill:#396c84;fill-opacity:1;"><g transform="translate(162.549617, 186.927355)"><path style="stroke:none" d="M 5.703125 -16.46875 L 5.703125 -29.515625 C 5.703125 -30.117188 5.601562 -30.503906 5.40625 -30.671875 C 5.21875 -30.847656 4.820312 -30.9375 4.21875 -30.9375 L 1.75 -30.9375 L 1.75 -38.921875 L 10.640625 -38.921875 C 12.492188 -38.921875 13.800781 -38.539062 14.5625 -37.78125 C 15.320312 -37.019531 15.703125 -35.710938 15.703125 -33.859375 L 15.703125 -16.46875 Z M 5.703125 -16.46875 "/></g></g><g style="fill:#396c84;fill-opacity:1;"><g transform="translate(181.418583, 186.927355)"><path style="stroke:none" d="M 0.90625 -38.921875 L 24.78125 -38.921875 L 24.78125 -30.9375 L 23.484375 -30.9375 C 22.140625 -30.9375 21.46875 -30.050781 21.46875 -28.28125 L 21.46875 0 L 12 0 L 12 -26.78125 C 12 -28.601562 12.28125 -29.988281 12.84375 -30.9375 L 0.90625 -30.9375 Z M 0.90625 -38.921875 "/></g></g><g style="fill:#396c84;fill-opacity:1;"><g transform="translate(207.938883, 186.927355)"><path style="stroke:none" d="M 5.703125 -16.46875 L 5.703125 -29.515625 C 5.703125 -30.117188 5.601562 -30.503906 5.40625 -30.671875 C 5.21875 -30.847656 4.820312 -30.9375 4.21875 -30.9375 L 1.75 -30.9375 L 1.75 -38.921875 L 10.640625 -38.921875 C 12.492188 -38.921875 13.800781 -38.539062 14.5625 -37.78125 C 15.320312 -37.019531 15.703125 -35.710938 15.703125 -33.859375 L 15.703125 -16.46875 Z M 5.703125 -16.46875 "/></g></g><g style="fill:#396c84;fill-opacity:1;"><g transform="translate(226.807849, 186.927355)"><path style="stroke:none" d="M 26.921875 -15.109375 L 28.671875 -6.8125 C 29.097656 -4.820312 28.878906 -3.1875 28.015625 -1.90625 C 27.148438 -0.632812 25.640625 0 23.484375 0 L 1.484375 0 L 1.484375 -7.984375 L 16.546875 -7.984375 C 17.148438 -7.984375 17.566406 -8.144531 17.796875 -8.46875 C 18.035156 -8.789062 18.050781 -9.492188 17.84375 -10.578125 L 17.375 -12.515625 C 17.25 -13.253906 17 -13.828125 16.625 -14.234375 C 16.257812 -14.648438 15.753906 -15.007812 15.109375 -15.3125 L 8.359375 -18.546875 C 7.585938 -18.890625 6.992188 -19.289062 6.578125 -19.75 C 6.171875 -20.207031 5.859375 -20.890625 5.640625 -21.796875 L 1.421875 -38.921875 L 11.609375 -38.921875 L 15.109375 -24.71875 L 18.609375 -38.921875 L 28.921875 -38.921875 L 23.734375 -18.9375 C 24.554688 -18.550781 25.25 -18.066406 25.8125 -17.484375 C 26.375 -16.898438 26.742188 -16.109375 26.921875 -15.109375 Z M 26.921875 -15.109375 "/></g></g><g style="fill:#396c84;fill-opacity:1;"><g transform="translate(258.450643, 186.927355)"><path style="stroke:none" d=""/></g></g><g style="fill:#396c84;fill-opacity:1;"><g transform="translate(271.743208, 186.927355)"><path style="stroke:none" d="M 12 9.921875 L 12 -28.984375 C 12 -29.765625 11.867188 -30.285156 11.609375 -30.546875 C 11.347656 -30.804688 10.828125 -30.9375 10.046875 -30.9375 L 0.90625 -30.9375 L 0.90625 -38.921875 L 15.953125 -38.921875 C 18.160156 -38.921875 19.726562 -38.410156 20.65625 -37.390625 C 21.582031 -36.378906 22.046875 -34.640625 22.046875 -32.171875 L 22.046875 9.921875 Z M 12 9.921875 "/></g></g><g style="fill:#396c84;fill-opacity:1;"><g transform="translate(297.420558, 186.927355)"><path style="stroke:none" d="M 2.984375 0 L 2.984375 -7.984375 L 18.21875 -7.984375 C 19.78125 -7.984375 20.5625 -8.738281 20.5625 -10.25 L 20.5625 -29.125 C 20.5625 -29.945312 20.484375 -30.5 20.328125 -30.78125 C 20.179688 -31.0625 19.65625 -31.203125 18.75 -31.203125 L 15.703125 -31.203125 C 14.835938 -31.203125 14.265625 -31.0625 13.984375 -30.78125 C 13.703125 -30.5 13.515625 -29.945312 13.421875 -29.125 L 12.71875 -23.421875 C 12.664062 -22.804688 12.726562 -22.378906 12.90625 -22.140625 C 13.082031 -21.910156 13.472656 -21.796875 14.078125 -21.796875 L 16.46875 -21.796875 L 16.46875 -14.015625 L 7.328125 -14.015625 C 5.378906 -14.015625 4.003906 -14.457031 3.203125 -15.34375 C 2.410156 -16.226562 2.117188 -17.617188 2.328125 -19.515625 L 3.953125 -33.34375 C 4.171875 -35.28125 4.765625 -36.691406 5.734375 -37.578125 C 6.710938 -38.472656 8.148438 -38.921875 10.046875 -38.921875 L 24.125 -38.921875 C 26.5 -38.921875 28.171875 -38.429688 29.140625 -37.453125 C 30.117188 -36.484375 30.609375 -34.785156 30.609375 -32.359375 L 30.609375 -6.484375 C 30.609375 -4.109375 30.117188 -2.429688 29.140625 -1.453125 C 28.171875 -0.484375 26.5 0 24.125 0 Z M 2.984375 0 "/></g></g><g style="fill:#396c84;fill-opacity:1;"><g transform="translate(331.332818, 186.927355)"><path style="stroke:none" d="M 29.3125 -38.921875 L 39.046875 -38.921875 L 37.171875 -13.8125 C 36.816406 -8.84375 35.523438 -5.296875 33.296875 -3.171875 C 31.078125 -1.054688 27.585938 0 22.828125 0 L 9.859375 0 C 8.171875 0 6.945312 -0.429688 6.1875 -1.296875 C 5.4375 -2.160156 4.953125 -3.367188 4.734375 -4.921875 L 3.625 -13.234375 C 3.28125 -15.347656 3.867188 -16.96875 5.390625 -18.09375 L 2.203125 -38.921875 L 12 -38.921875 L 14.65625 -21.34375 L 14.71875 -21.34375 C 15.320312 -21.550781 15.695312 -21.785156 15.84375 -22.046875 C 16 -22.304688 16.078125 -22.785156 16.078125 -23.484375 L 16.078125 -38.921875 L 25.75 -38.921875 L 25.75 -21.53125 C 25.75 -19.625 25.445312 -18.25 24.84375 -17.40625 C 24.238281 -16.570312 23.265625 -15.914062 21.921875 -15.4375 L 14.921875 -13.03125 C 14.179688 -12.726562 13.734375 -12.457031 13.578125 -12.21875 C 13.429688 -11.988281 13.398438 -11.523438 13.484375 -10.828125 L 13.75 -9.140625 C 13.832031 -8.578125 14.035156 -8.21875 14.359375 -8.0625 C 14.691406 -7.914062 15.179688 -7.84375 15.828125 -7.84375 L 20.171875 -7.84375 C 21.984375 -7.84375 23.394531 -8.003906 24.40625 -8.328125 C 25.425781 -8.660156 26.164062 -9.300781 26.625 -10.25 C 27.082031 -11.195312 27.375 -12.582031 27.5 -14.40625 Z M 29.3125 -38.921875 "/></g></g><g style="fill:#396c84;fill-opacity:1;"><g transform="translate(372.637049, 186.927355)"><path style="stroke:none" d="M 31.203125 -5.515625 C 31.285156 -3.609375 30.882812 -2.210938 30 -1.328125 C 29.113281 -0.441406 27.65625 0 25.625 0 L 16.078125 0 L 16.078125 -7.984375 L 19.328125 -7.984375 C 20.015625 -7.984375 20.445312 -8.125 20.625 -8.40625 C 20.800781 -8.6875 20.863281 -9.148438 20.8125 -9.796875 L 19.84375 -27.765625 C 19.800781 -29.015625 19.640625 -29.898438 19.359375 -30.421875 C 19.078125 -30.941406 18.570312 -31.203125 17.84375 -31.203125 L 17.578125 -31.203125 C 17.015625 -31.203125 16.613281 -31.035156 16.375 -30.703125 C 16.132812 -30.378906 15.953125 -29.722656 15.828125 -28.734375 L 12 0 L 1.75 0 L 5.390625 -24.96875 C 5.773438 -27.695312 6.53125 -29.6875 7.65625 -30.9375 L 2.859375 -30.9375 L 2.859375 -38.921875 L 21.34375 -38.921875 C 23.800781 -38.921875 25.785156 -38.25 27.296875 -36.90625 C 28.816406 -35.5625 29.660156 -33.03125 29.828125 -29.3125 Z M 31.203125 -5.515625 "/></g></g><g style="fill:#396c84;fill-opacity:1;"><g transform="translate(406.160266, 186.927355)"><path style="stroke:none" d="M 5.765625 0 L 5.765625 -29.515625 C 5.765625 -30.117188 5.664062 -30.503906 5.46875 -30.671875 C 5.28125 -30.847656 4.882812 -30.9375 4.28125 -30.9375 L 1.953125 -30.9375 L 1.953125 -38.921875 L 11.484375 -38.921875 C 13.078125 -38.921875 14.195312 -38.59375 14.84375 -37.9375 C 15.5 -37.289062 15.828125 -36.191406 15.828125 -34.640625 L 15.828125 0 Z M 5.765625 0 "/></g></g><g style="fill:#396c84;fill-opacity:1;"><g transform="translate(425.547968, 186.927355)"><path style="stroke:none" d=""/></g></g><g style="fill:#396c84;fill-opacity:1;"><g transform="translate(438.840521, 186.927355)"><path style="stroke:none" d="M 10.375 0 C 7.863281 0 6.175781 -0.785156 5.3125 -2.359375 C 4.445312 -3.941406 4.492188 -6.203125 5.453125 -9.140625 L 11.796875 -28.859375 C 12.234375 -30.242188 11.757812 -30.9375 10.375 -30.9375 L 2.78125 -30.9375 C 2.09375 -30.9375 1.609375 -31.078125 1.328125 -31.359375 C 1.046875 -31.640625 0.90625 -32.148438 0.90625 -32.890625 L 0.90625 -44.109375 L 10.375 -44.109375 L 10.375 -38.921875 L 17.3125 -38.921875 C 19.78125 -38.921875 21.5 -38.109375 22.46875 -36.484375 C 23.445312 -34.859375 23.503906 -32.707031 22.640625 -30.03125 L 15.765625 -9.65625 C 15.585938 -9.1875 15.550781 -8.789062 15.65625 -8.46875 C 15.769531 -8.144531 16.109375 -7.984375 16.671875 -7.984375 L 19.515625 -7.984375 L 19.515625 0 Z M 10.375 0 "/></g></g><g style="fill:#396c84;fill-opacity:1;"><g transform="translate(463.869453, 186.927355)"><path style="stroke:none" d="M 5.703125 -16.46875 L 5.703125 -29.515625 C 5.703125 -30.117188 5.601562 -30.503906 5.40625 -30.671875 C 5.21875 -30.847656 4.820312 -30.9375 4.21875 -30.9375 L 1.75 -30.9375 L 1.75 -38.921875 L 10.640625 -38.921875 C 12.492188 -38.921875 13.800781 -38.539062 14.5625 -37.78125 C 15.320312 -37.019531 15.703125 -35.710938 15.703125 -33.859375 L 15.703125 -16.46875 Z M 5.703125 -16.46875 "/></g></g><g style="fill:#396c84;fill-opacity:1;"><g transform="translate(482.738431, 186.927355)"><path style="stroke:none" d="M 24.84375 -7.984375 L 26.78125 -7.984375 L 26.78125 0 L 1.171875 0 L 1.171875 -7.984375 L 13.8125 -7.984375 C 13.6875 -8.234375 13.578125 -8.539062 13.484375 -8.90625 C 13.398438 -9.28125 13.359375 -9.6875 13.359375 -10.125 L 13.359375 -28.984375 C 13.359375 -29.765625 13.226562 -30.285156 12.96875 -30.546875 C 12.707031 -30.804688 12.191406 -30.9375 11.421875 -30.9375 L 1.875 -30.9375 L 1.875 -38.921875 L 17.1875 -38.921875 C 19.476562 -38.921875 21.085938 -38.410156 22.015625 -37.390625 C 22.953125 -36.378906 23.421875 -34.640625 23.421875 -32.171875 L 23.421875 -9.59375 C 23.421875 -8.519531 23.894531 -7.984375 24.84375 -7.984375 Z M 24.84375 -7.984375 "/></g></g><g style="fill:#396c84;fill-opacity:1;"><g transform="translate(510.101669, 186.927355)"><path style="stroke:none" d="M 30.359375 -38.921875 C 32.253906 -38.921875 33.523438 -38.269531 34.171875 -36.96875 C 34.828125 -35.675781 34.9375 -34.078125 34.5 -32.171875 L 27.890625 0 L 17.703125 0 L 23.421875 -29.375 C 23.546875 -30.113281 23.5625 -30.601562 23.46875 -30.84375 C 23.382812 -31.082031 22.976562 -31.203125 22.25 -31.203125 L 17.125 -31.203125 C 16.601562 -31.203125 16.191406 -31.132812 15.890625 -31 C 15.585938 -30.875 15.4375 -30.378906 15.4375 -29.515625 L 15.4375 1.5625 C 15.4375 2.070312 15.695312 2.328125 16.21875 2.328125 L 17.765625 2.328125 L 17.765625 9.921875 L 8.953125 9.921875 C 6.578125 9.921875 5.390625 8.734375 5.390625 6.359375 L 5.390625 -28.28125 C 5.390625 -29.570312 5.625 -30.457031 6.09375 -30.9375 L 2.328125 -30.9375 L 2.328125 -38.921875 Z M 30.359375 -38.921875 "/></g></g><g style="fill:#396c84;fill-opacity:1;"><g transform="translate(546.672448, 186.927355)"><path style="stroke:none" d="M 31.203125 -5.515625 C 31.285156 -3.609375 30.882812 -2.210938 30 -1.328125 C 29.113281 -0.441406 27.65625 0 25.625 0 L 16.078125 0 L 16.078125 -7.984375 L 19.328125 -7.984375 C 20.015625 -7.984375 20.445312 -8.125 20.625 -8.40625 C 20.800781 -8.6875 20.863281 -9.148438 20.8125 -9.796875 L 19.84375 -27.765625 C 19.800781 -29.015625 19.640625 -29.898438 19.359375 -30.421875 C 19.078125 -30.941406 18.570312 -31.203125 17.84375 -31.203125 L 17.578125 -31.203125 C 17.015625 -31.203125 16.613281 -31.035156 16.375 -30.703125 C 16.132812 -30.378906 15.953125 -29.722656 15.828125 -28.734375 L 12 0 L 1.75 0 L 5.390625 -24.96875 C 5.773438 -27.695312 6.53125 -29.6875 7.65625 -30.9375 L 2.859375 -30.9375 L 2.859375 -38.921875 L 21.34375 -38.921875 C 23.800781 -38.921875 25.785156 -38.25 27.296875 -36.90625 C 28.816406 -35.5625 29.660156 -33.03125 29.828125 -29.3125 Z M 31.203125 -5.515625 "/></g></g><g style="fill:#396c84;fill-opacity:1;"><g transform="translate(580.195665, 186.927355)"><path style="stroke:none" d=""/></g></g><g style="fill:#396c84;fill-opacity:1;"><g transform="translate(593.488218, 186.927355)"><path style="stroke:none" d="M 12 9.921875 L 12 -28.984375 C 12 -29.765625 11.867188 -30.285156 11.609375 -30.546875 C 11.347656 -30.804688 10.828125 -30.9375 10.046875 -30.9375 L 0.90625 -30.9375 L 0.90625 -38.921875 L 15.953125 -38.921875 C 18.160156 -38.921875 19.726562 -38.410156 20.65625 -37.390625 C 21.582031 -36.378906 22.046875 -34.640625 22.046875 -32.171875 L 22.046875 9.921875 Z M 12 9.921875 "/></g></g><g style="fill:#396c84;fill-opacity:1;"><g transform="translate(619.165579, 186.927355)"><path style="stroke:none" d="M 2.984375 0 L 2.984375 -7.984375 L 18.21875 -7.984375 C 19.78125 -7.984375 20.5625 -8.738281 20.5625 -10.25 L 20.5625 -29.125 C 20.5625 -29.945312 20.484375 -30.5 20.328125 -30.78125 C 20.179688 -31.0625 19.65625 -31.203125 18.75 -31.203125 L 15.703125 -31.203125 C 14.835938 -31.203125 14.265625 -31.0625 13.984375 -30.78125 C 13.703125 -30.5 13.515625 -29.945312 13.421875 -29.125 L 12.71875 -23.421875 C 12.664062 -22.804688 12.726562 -22.378906 12.90625 -22.140625 C 13.082031 -21.910156 13.472656 -21.796875 14.078125 -21.796875 L 16.46875 -21.796875 L 16.46875 -14.015625 L 7.328125 -14.015625 C 5.378906 -14.015625 4.003906 -14.457031 3.203125 -15.34375 C 2.410156 -16.226562 2.117188 -17.617188 2.328125 -19.515625 L 3.953125 -33.34375 C 4.171875 -35.28125 4.765625 -36.691406 5.734375 -37.578125 C 6.710938 -38.472656 8.148438 -38.921875 10.046875 -38.921875 L 24.125 -38.921875 C 26.5 -38.921875 28.171875 -38.429688 29.140625 -37.453125 C 30.117188 -36.484375 30.609375 -34.785156 30.609375 -32.359375 L 30.609375 -6.484375 C 30.609375 -4.109375 30.117188 -2.429688 29.140625 -1.453125 C 28.171875 -0.484375 26.5 0 24.125 0 Z M 2.984375 0 "/></g></g><g style="fill:#396c84;fill-opacity:1;"><g transform="translate(653.077861, 186.927355)"><path style="stroke:none" d="M 29.3125 -38.921875 L 39.046875 -38.921875 L 37.171875 -13.8125 C 36.816406 -8.84375 35.523438 -5.296875 33.296875 -3.171875 C 31.078125 -1.054688 27.585938 0 22.828125 0 L 9.859375 0 C 8.171875 0 6.945312 -0.429688 6.1875 -1.296875 C 5.4375 -2.160156 4.953125 -3.367188 4.734375 -4.921875 L 3.625 -13.234375 C 3.28125 -15.347656 3.867188 -16.96875 5.390625 -18.09375 L 2.203125 -38.921875 L 12 -38.921875 L 14.65625 -21.34375 L 14.71875 -21.34375 C 15.320312 -21.550781 15.695312 -21.785156 15.84375 -22.046875 C 16 -22.304688 16.078125 -22.785156 16.078125 -23.484375 L 16.078125 -38.921875 L 25.75 -38.921875 L 25.75 -21.53125 C 25.75 -19.625 25.445312 -18.25 24.84375 -17.40625 C 24.238281 -16.570312 23.265625 -15.914062 21.921875 -15.4375 L 14.921875 -13.03125 C 14.179688 -12.726562 13.734375 -12.457031 13.578125 -12.21875 C 13.429688 -11.988281 13.398438 -11.523438 13.484375 -10.828125 L 13.75 -9.140625 C 13.832031 -8.578125 14.035156 -8.21875 14.359375 -8.0625 C 14.691406 -7.914062 15.179688 -7.84375 15.828125 -7.84375 L 20.171875 -7.84375 C 21.984375 -7.84375 23.394531 -8.003906 24.40625 -8.328125 C 25.425781 -8.660156 26.164062 -9.300781 26.625 -10.25 C 27.082031 -11.195312 27.375 -12.582031 27.5 -14.40625 Z M 29.3125 -38.921875 "/></g></g><g style="fill:#396c84;fill-opacity:1;"><g transform="translate(694.382081, 186.927355)"><path style="stroke:none" d="M 31.203125 -5.515625 C 31.285156 -3.609375 30.882812 -2.210938 30 -1.328125 C 29.113281 -0.441406 27.65625 0 25.625 0 L 16.078125 0 L 16.078125 -7.984375 L 19.328125 -7.984375 C 20.015625 -7.984375 20.445312 -8.125 20.625 -8.40625 C 20.800781 -8.6875 20.863281 -9.148438 20.8125 -9.796875 L 19.84375 -27.765625 C 19.800781 -29.015625 19.640625 -29.898438 19.359375 -30.421875 C 19.078125 -30.941406 18.570312 -31.203125 17.84375 -31.203125 L 17.578125 -31.203125 C 17.015625 -31.203125 16.613281 -31.035156 16.375 -30.703125 C 16.132812 -30.378906 15.953125 -29.722656 15.828125 -28.734375 L 12 0 L 1.75 0 L 5.390625 -24.96875 C 5.773438 -27.695312 6.53125 -29.6875 7.65625 -30.9375 L 2.859375 -30.9375 L 2.859375 -38.921875 L 21.34375 -38.921875 C 23.800781 -38.921875 25.785156 -38.25 27.296875 -36.90625 C 28.816406 -35.5625 29.660156 -33.03125 29.828125 -29.3125 Z M 31.203125 -5.515625 "/></g></g><g clip-rule="nonzero" clip-path="url(#cdf29b8cff)"><path style=" stroke:none;fill-rule:nonzero;fill:#e0f5ff;fill-opacity:1;" d="M 570.78125 24.859375 L 558.597656 101.570312 C 557.550781 108.152344 551.835938 112.972656 545.171875 112.902344 L 503.175781 112.4375 L 449.5625 111.859375 L 288.753906 110.097656 L 235.152344 109.515625 L 187.664062 108.9375 L 134.121094 108.347656 L 31.214844 113.882812 C 30.140625 113.925781 29.277344 112.992188 29.394531 111.917969 L 29.890625 107.355469 L 31.320312 94.542969 C 31.347656 94.292969 31.429688 94.054688 31.546875 93.84375 L 34.832031 88.226562 C 35.09375 87.765625 35.140625 87.210938 34.960938 86.714844 L 32.976562 81.347656 C 32.882812 81.085938 32.84375 80.816406 32.882812 80.542969 L 33.566406 74.359375 L 35.03125 61.152344 L 35.765625 54.546875 L 36.5 47.949219 L 37.964844 34.757812 L 38.699219 28.148438 L 39.394531 21.929688 C 39.417969 21.683594 39.5 21.433594 39.632812 21.222656 L 44.160156 13.558594 C 44.574219 12.875 44.46875 11.988281 43.898438 11.421875 C 43.546875 11.054688 43.390625 10.617188 43.390625 10.191406 C 43.390625 9.269531 44.113281 8.382812 45.1875 8.394531 L 48.332031 8.996094 L 212.453125 3.464844 L 255.886719 4.125 L 320.019531 4.8125 L 376.164062 5.4375 L 436.300781 6.089844 L 496.425781 6.738281 L 558.066406 9.324219 C 566.097656 9.660156 572.039062 16.921875 570.78125 24.859375 "/></g><g clip-rule="nonzero" clip-path="url(#7f91b0f6ee)"><path style=" stroke:none;fill-rule:nonzero;fill:#e0f5ff;fill-opacity:1;" d="M 818.597656 24.859375 L 806.414062 101.570312 C 805.367188 108.152344 799.652344 112.972656 792.988281 112.902344 L 750.992188 112.4375 L 697.378906 111.859375 L 536.566406 110.097656 L 482.96875 109.515625 L 435.480469 108.9375 L 381.9375 108.347656 L 279.03125 113.882812 C 277.957031 113.925781 277.09375 112.992188 277.210938 111.917969 L 277.707031 107.355469 L 279.136719 94.542969 C 279.164062 94.292969 279.246094 94.054688 279.363281 93.84375 L 282.648438 88.226562 C 282.910156 87.765625 282.957031 87.210938 282.777344 86.714844 L 280.792969 81.347656 C 280.695312 81.085938 280.660156 80.816406 280.695312 80.542969 L 281.382812 74.359375 L 282.847656 61.152344 L 283.582031 54.546875 L 284.316406 47.949219 L 285.78125 34.757812 L 286.511719 28.148438 L 287.210938 21.929688 C 287.234375 21.683594 287.316406 21.433594 287.449219 21.222656 L 291.976562 13.558594 C 292.390625 12.875 292.28125 11.988281 291.714844 11.421875 C 291.363281 11.054688 291.207031 10.617188 291.207031 10.191406 C 291.207031 9.269531 291.929688 8.382812 293.003906 8.394531 L 296.148438 8.996094 L 460.269531 3.464844 L 503.703125 4.125 L 567.835938 4.8125 L 623.980469 5.4375 L 684.117188 6.089844 L 744.242188 6.738281 L 805.882812 9.324219 C 813.914062 9.660156 819.855469 16.921875 818.597656 24.859375 "/></g><g style="fill:#396c84;fill-opacity:1;"><g transform="translate(98.506853, 100.213645)"><path style="stroke:none" d="M 7.328125 0 C 3.972656 0 2.296875 -1.707031 2.296875 -5.125 L 2.296875 -15.21875 C 2.296875 -16.613281 2.597656 -17.738281 3.203125 -18.59375 C 3.816406 -19.457031 4.613281 -20.285156 5.59375 -21.078125 L 16.671875 -30.0625 C 19.484375 -32.320312 21.679688 -34.503906 23.265625 -36.609375 C 24.859375 -38.710938 25.65625 -40.894531 25.65625 -43.15625 C 25.65625 -45.414062 25.257812 -47.050781 24.46875 -48.0625 C 23.675781 -49.070312 22.453125 -49.578125 20.796875 -49.578125 C 19.148438 -49.578125 17.957031 -48.90625 17.21875 -47.5625 C 16.488281 -46.21875 16.125 -43.925781 16.125 -40.6875 L 2.109375 -40.6875 C 2.109375 -47.71875 3.648438 -52.742188 6.734375 -55.765625 C 9.816406 -58.785156 14.71875 -60.296875 21.4375 -60.296875 C 27.789062 -60.296875 32.40625 -59.039062 35.28125 -56.53125 C 38.15625 -54.03125 39.59375 -50.03125 39.59375 -44.53125 C 39.59375 -39.894531 38.675781 -36.015625 36.84375 -32.890625 C 35.007812 -29.773438 32.535156 -27.03125 29.421875 -24.65625 L 18.328125 -16.125 C 17.535156 -15.570312 17.140625 -14.8125 17.140625 -13.84375 L 17.140625 -12.375 C 17.140625 -11.632812 17.628906 -11.265625 18.609375 -11.265625 L 24.1875 -11.265625 C 25.039062 -11.265625 25.46875 -11.695312 25.46875 -12.5625 L 25.46875 -15.859375 L 39.03125 -15.859375 L 39.03125 -4.03125 C 39.03125 -1.34375 37.75 0 35.1875 0 Z M 7.328125 0 "/></g></g><g style="fill:#396c84;fill-opacity:1;"><g transform="translate(140.939729, 100.213645)"><path style="stroke:none" d=""/></g></g><g style="fill:#396c84;fill-opacity:1;"><g transform="translate(159.725714, 100.213645)"><path style="stroke:none" d="M 42.890625 -54.984375 C 45.578125 -54.984375 47.378906 -54.066406 48.296875 -52.234375 C 49.210938 -50.398438 49.363281 -48.140625 48.75 -45.453125 L 39.40625 0 L 25.015625 0 L 33.078125 -41.515625 C 33.265625 -42.554688 33.296875 -43.242188 33.171875 -43.578125 C 33.046875 -43.910156 32.46875 -44.078125 31.4375 -44.078125 L 24.1875 -44.078125 C 23.457031 -44.078125 22.878906 -43.984375 22.453125 -43.796875 C 22.023438 -43.617188 21.8125 -42.921875 21.8125 -41.703125 L 21.8125 2.203125 C 21.8125 2.929688 22.175781 3.296875 22.90625 3.296875 L 25.109375 3.296875 L 25.109375 14.015625 L 12.640625 14.015625 C 9.285156 14.015625 7.609375 12.335938 7.609375 8.984375 L 7.609375 -39.953125 C 7.609375 -41.785156 7.941406 -43.039062 8.609375 -43.71875 L 3.296875 -43.71875 L 3.296875 -54.984375 Z M 42.890625 -54.984375 "/></g></g><g style="fill:#396c84;fill-opacity:1;"><g transform="translate(211.410069, 100.213645)"><path style="stroke:none" d="M 17.5 0 L 17.5 -40.40625 C 17.5 -42.613281 16.398438 -43.71875 14.203125 -43.71875 L 1.28125 -43.71875 L 1.28125 -54.984375 L 22.453125 -54.984375 C 25.867188 -54.984375 28.265625 -54.28125 29.640625 -52.875 C 31.015625 -51.46875 31.703125 -49.085938 31.703125 -45.734375 L 31.703125 0 Z M 17.5 0 "/></g></g><g style="fill:#396c84;fill-opacity:1;"><g transform="translate(248.157286, 100.213645)"><path style="stroke:none" d="M 4.21875 0 L 4.21875 -11.265625 L 25.75 -11.265625 C 27.945312 -11.265625 29.046875 -12.335938 29.046875 -14.484375 L 29.046875 -41.140625 C 29.046875 -42.304688 28.9375 -43.085938 28.71875 -43.484375 C 28.507812 -43.878906 27.765625 -44.078125 26.484375 -44.078125 L 22.171875 -44.078125 C 20.953125 -44.078125 20.144531 -43.878906 19.75 -43.484375 C 19.351562 -43.085938 19.09375 -42.304688 18.96875 -41.140625 L 17.96875 -33.078125 C 17.90625 -32.222656 17.992188 -31.628906 18.234375 -31.296875 C 18.484375 -30.960938 19.035156 -30.796875 19.890625 -30.796875 L 23.28125 -30.796875 L 23.28125 -19.796875 L 10.359375 -19.796875 C 7.609375 -19.796875 5.664062 -20.421875 4.53125 -21.671875 C 3.40625 -22.921875 2.992188 -24.890625 3.296875 -27.578125 L 5.59375 -47.109375 C 5.894531 -49.859375 6.734375 -51.859375 8.109375 -53.109375 C 9.484375 -54.359375 11.515625 -54.984375 14.203125 -54.984375 L 34.09375 -54.984375 C 37.445312 -54.984375 39.8125 -54.296875 41.1875 -52.921875 C 42.5625 -51.546875 43.25 -49.148438 43.25 -45.734375 L 43.25 -9.171875 C 43.25 -5.804688 42.5625 -3.4375 41.1875 -2.0625 C 39.8125 -0.6875 37.445312 0 34.09375 0 Z M 4.21875 0 "/></g></g><g style="fill:#396c84;fill-opacity:1;"><g transform="translate(296.084446, 100.213645)"><path style="stroke:none" d=""/></g></g><g style="fill:#396c84;fill-opacity:1;"><g transform="translate(314.87043, 100.213645)"><path style="stroke:none" d="M 36.109375 -54.984375 C 39.523438 -54.984375 41.953125 -54.265625 43.390625 -52.828125 C 44.828125 -51.390625 45.546875 -48.929688 45.546875 -45.453125 L 45.546875 0 L 31.34375 0 L 31.34375 -40.59375 C 31.34375 -41.8125 31.128906 -42.695312 30.703125 -43.25 C 30.273438 -43.800781 29.476562 -44.078125 28.3125 -44.078125 L 25.84375 -44.078125 C 23.769531 -44.078125 22.332031 -43.4375 21.53125 -42.15625 C 20.738281 -40.875 20.707031 -38.1875 21.4375 -34.09375 L 24.75 -14.84375 C 25.664062 -9.832031 25.390625 -6.101562 23.921875 -3.65625 C 22.453125 -1.21875 19.488281 0 15.03125 0 L 2.84375 0 L 2.84375 -11.265625 L 8.25 -11.265625 C 9.101562 -11.265625 9.757812 -11.507812 10.21875 -12 C 10.675781 -12.488281 10.8125 -13.40625 10.625 -14.75 L 7.609375 -32.25 C 6.992188 -35.675781 6.898438 -38.257812 7.328125 -40 C 7.753906 -41.738281 8.304688 -42.976562 8.984375 -43.71875 L 3.03125 -43.71875 L 3.03125 -54.984375 Z M 36.109375 -54.984375 "/></g></g><g style="fill:#396c84;fill-opacity:1;"><g transform="translate(365.546775, 100.213645)"><path style="stroke:none" d="M 18.328125 -28.78125 C 17.535156 -28.46875 17.078125 -28.035156 16.953125 -27.484375 C 16.828125 -26.941406 16.921875 -26.054688 17.234375 -24.828125 L 21.359375 -11.546875 C 22.390625 -8.242188 22.597656 -5.492188 21.984375 -3.296875 C 21.378906 -1.097656 19.519531 0 16.40625 0 L 3.109375 0 L 3.109375 -11.265625 L 6.046875 -11.265625 C 6.835938 -11.265625 7.175781 -11.601562 7.0625 -12.28125 L 4.671875 -23.734375 C 4.054688 -26.609375 4.007812 -28.960938 4.53125 -30.796875 C 5.050781 -32.628906 5.9375 -34.15625 7.1875 -35.375 C 8.445312 -36.59375 9.804688 -37.597656 11.265625 -38.390625 L 12.640625 -39.125 L 3.203125 -54.984375 L 17.6875 -54.984375 L 30.515625 -31.890625 C 31.003906 -32.191406 31.335938 -32.570312 31.515625 -33.03125 C 31.703125 -33.488281 31.796875 -34.238281 31.796875 -35.28125 L 31.796875 -54.984375 L 45.359375 -54.984375 L 45.359375 -34.1875 C 45.359375 -31.375 44.789062 -29.003906 43.65625 -27.078125 C 42.53125 -25.148438 40.5625 -23.332031 37.75 -21.625 L 36.46875 -20.796875 L 47.1875 0 L 32.90625 0 L 18.421875 -28.78125 Z M 18.328125 -28.78125 "/></g></g><g style="fill:#396c84;fill-opacity:1;"><g transform="translate(414.66523, 100.213645)"><path style="stroke:none" d=""/></g></g><g style="fill:#396c84;fill-opacity:1;"><g transform="translate(433.451214, 100.213645)"><path style="stroke:none" d="M 14.65625 0 C 11.113281 0 8.734375 -1.113281 7.515625 -3.34375 C 6.296875 -5.570312 6.359375 -8.765625 7.703125 -12.921875 L 16.671875 -40.78125 C 17.285156 -42.738281 16.613281 -43.71875 14.65625 -43.71875 L 3.9375 -43.71875 C 2.957031 -43.71875 2.269531 -43.914062 1.875 -44.3125 C 1.476562 -44.707031 1.28125 -45.425781 1.28125 -46.46875 L 1.28125 -62.3125 L 14.65625 -62.3125 L 14.65625 -54.984375 L 24.46875 -54.984375 C 27.945312 -54.984375 30.375 -53.835938 31.75 -51.546875 C 33.125 -49.253906 33.203125 -46.210938 31.984375 -42.421875 L 22.265625 -13.65625 C 22.023438 -12.976562 21.976562 -12.410156 22.125 -11.953125 C 22.28125 -11.492188 22.753906 -11.265625 23.546875 -11.265625 L 27.578125 -11.265625 L 27.578125 0 Z M 14.65625 0 "/></g></g><g style="fill:#396c84;fill-opacity:1;"><g transform="translate(468.823839, 100.213645)"><path style="stroke:none" d="M 8.0625 -23.28125 L 8.0625 -41.703125 C 8.0625 -42.554688 7.921875 -43.101562 7.640625 -43.34375 C 7.367188 -43.59375 6.804688 -43.71875 5.953125 -43.71875 L 2.46875 -43.71875 L 2.46875 -54.984375 L 15.03125 -54.984375 C 17.65625 -54.984375 19.5 -54.445312 20.5625 -53.375 C 21.632812 -52.3125 22.171875 -50.46875 22.171875 -47.84375 L 22.171875 -23.28125 Z M 8.0625 -23.28125 "/></g></g><g style="fill:#396c84;fill-opacity:1;"><g transform="translate(495.490785, 100.213645)"><path style="stroke:none" d="M 51.234375 -54.984375 L 51.234375 -43.71875 L 46 -43.71875 C 46.675781 -42.550781 47.015625 -40.347656 47.015625 -37.109375 L 47.015625 0 L 32.8125 0 L 32.8125 -39.59375 C 32.8125 -41.363281 32.671875 -42.492188 32.390625 -42.984375 C 32.117188 -43.472656 31.554688 -43.71875 30.703125 -43.71875 L 23.734375 -43.71875 C 22.941406 -43.71875 22.40625 -43.472656 22.125 -42.984375 C 21.851562 -42.492188 21.71875 -41.363281 21.71875 -39.59375 L 21.71875 0 L 7.515625 0 L 7.515625 -37.109375 C 7.515625 -40.347656 7.847656 -42.550781 8.515625 -43.71875 L 3.296875 -43.71875 L 3.296875 -54.984375 Z M 51.234375 -54.984375 "/></g></g><g style="fill:#396c84;fill-opacity:1;"><g transform="translate(550.01594, 100.213645)"><path style="stroke:none" d="M 36.109375 -54.984375 C 39.523438 -54.984375 41.953125 -54.265625 43.390625 -52.828125 C 44.828125 -51.390625 45.546875 -48.929688 45.546875 -45.453125 L 45.546875 0 L 31.34375 0 L 31.34375 -40.59375 C 31.34375 -41.8125 31.128906 -42.695312 30.703125 -43.25 C 30.273438 -43.800781 29.476562 -44.078125 28.3125 -44.078125 L 25.84375 -44.078125 C 23.769531 -44.078125 22.332031 -43.4375 21.53125 -42.15625 C 20.738281 -40.875 20.707031 -38.1875 21.4375 -34.09375 L 24.75 -14.84375 C 25.664062 -9.832031 25.390625 -6.101562 23.921875 -3.65625 C 22.453125 -1.21875 19.488281 0 15.03125 0 L 2.84375 0 L 2.84375 -11.265625 L 8.25 -11.265625 C 9.101562 -11.265625 9.757812 -11.507812 10.21875 -12 C 10.675781 -12.488281 10.8125 -13.40625 10.625 -14.75 L 7.609375 -32.25 C 6.992188 -35.675781 6.898438 -38.257812 7.328125 -40 C 7.753906 -41.738281 8.304688 -42.976562 8.984375 -43.71875 L 3.03125 -43.71875 L 3.03125 -54.984375 Z M 36.109375 -54.984375 "/></g></g><g style="fill:#396c84;fill-opacity:1;"><g transform="translate(600.692248, 100.213645)"><path style="stroke:none" d="M 0.28125 0 L 0.28125 -11.265625 L 7.875 -11.265625 C 9.164062 -11.265625 10.023438 -11.476562 10.453125 -11.90625 C 10.878906 -12.34375 11.09375 -13.234375 11.09375 -14.578125 L 11.09375 -40.96875 C 11.09375 -42.0625 10.90625 -42.789062 10.53125 -43.15625 C 10.164062 -43.53125 9.46875 -43.71875 8.4375 -43.71875 L 5.21875 -43.71875 L 5.21875 -54.984375 L 16.859375 -54.984375 C 19.910156 -54.984375 22.078125 -54.296875 23.359375 -52.921875 C 24.648438 -51.546875 25.296875 -49.238281 25.296875 -46 L 25.296875 -9.171875 C 25.296875 -5.804688 24.640625 -3.4375 23.328125 -2.0625 C 22.015625 -0.6875 19.796875 0 16.671875 0 Z M 0.28125 0 "/></g></g><g style="fill:#396c84;fill-opacity:1;"><g transform="translate(630.566573, 100.213645)"><path style="stroke:none" d=""/></g></g><g style="fill:#396c84;fill-opacity:1;"><g transform="translate(649.352533, 100.213645)"><path style="stroke:none" d="M 8.15625 0 L 8.15625 -41.703125 C 8.15625 -42.554688 8.015625 -43.101562 7.734375 -43.34375 C 7.460938 -43.59375 6.898438 -43.71875 6.046875 -43.71875 L 2.75 -43.71875 L 2.75 -54.984375 L 16.21875 -54.984375 C 18.476562 -54.984375 20.066406 -54.523438 20.984375 -53.609375 C 21.898438 -52.691406 22.359375 -51.132812 22.359375 -48.9375 L 22.359375 0 Z M 8.15625 0 "/></g></g><g style="fill:#396c84;fill-opacity:1;"><g transform="translate(676.752571, 100.213645)"><path style="stroke:none" d="M 18.328125 -28.78125 C 17.535156 -28.46875 17.078125 -28.035156 16.953125 -27.484375 C 16.828125 -26.941406 16.921875 -26.054688 17.234375 -24.828125 L 21.359375 -11.546875 C 22.390625 -8.242188 22.597656 -5.492188 21.984375 -3.296875 C 21.378906 -1.097656 19.519531 0 16.40625 0 L 3.109375 0 L 3.109375 -11.265625 L 6.046875 -11.265625 C 6.835938 -11.265625 7.175781 -11.601562 7.0625 -12.28125 L 4.671875 -23.734375 C 4.054688 -26.609375 4.007812 -28.960938 4.53125 -30.796875 C 5.050781 -32.628906 5.9375 -34.15625 7.1875 -35.375 C 8.445312 -36.59375 9.804688 -37.597656 11.265625 -38.390625 L 12.640625 -39.125 L 3.203125 -54.984375 L 17.6875 -54.984375 L 30.515625 -31.890625 C 31.003906 -32.191406 31.335938 -32.570312 31.515625 -33.03125 C 31.703125 -33.488281 31.796875 -34.238281 31.796875 -35.28125 L 31.796875 -54.984375 L 45.359375 -54.984375 L 45.359375 -34.1875 C 45.359375 -31.375 44.789062 -29.003906 43.65625 -27.078125 C 42.53125 -25.148438 40.5625 -23.332031 37.75 -21.625 L 36.46875 -20.796875 L 47.1875 0 L 32.90625 0 L 18.421875 -28.78125 Z M 18.328125 -28.78125 "/></g></g><g style="fill:#396c84;fill-opacity:1;"><g transform="translate(725.871026, 100.213645)"><path style="stroke:none" d="M 8.15625 0 L 8.15625 -41.703125 C 8.15625 -42.554688 8.015625 -43.101562 7.734375 -43.34375 C 7.460938 -43.59375 6.898438 -43.71875 6.046875 -43.71875 L 2.75 -43.71875 L 2.75 -54.984375 L 16.21875 -54.984375 C 18.476562 -54.984375 20.066406 -54.523438 20.984375 -53.609375 C 21.898438 -52.691406 22.359375 -51.132812 22.359375 -48.9375 L 22.359375 0 Z M 8.15625 0 "/></g></g><g style="fill:#396c84;fill-opacity:1;"><g transform="translate(753.271111, 100.213645)"><path style="stroke:none" d="M 35.09375 -11.265625 L 37.84375 -11.265625 L 37.84375 0 L 1.65625 0 L 1.65625 -11.265625 L 19.515625 -11.265625 C 19.335938 -11.640625 19.1875 -12.082031 19.0625 -12.59375 C 18.9375 -13.113281 18.875 -13.679688 18.875 -14.296875 L 18.875 -40.96875 C 18.875 -42.0625 18.691406 -42.789062 18.328125 -43.15625 C 17.960938 -43.53125 17.226562 -43.71875 16.125 -43.71875 L 2.65625 -43.71875 L 2.65625 -54.984375 L 24.28125 -54.984375 C 27.519531 -54.984375 29.796875 -54.265625 31.109375 -52.828125 C 32.421875 -51.390625 33.078125 -48.929688 33.078125 -45.453125 L 33.078125 -13.5625 C 33.078125 -12.03125 33.75 -11.265625 35.09375 -11.265625 Z M 35.09375 -11.265625 "/></g></g></g></svg>