<svg xmlns="http://www.w3.org/2000/svg" xmlns:xlink="http://www.w3.org/1999/xlink" width="1468" zoomAndPan="magnify" viewBox="0 0 1101 117.749996" height="157" preserveAspectRatio="xMidYMid meet" version="1.2"><defs/><g id="d8e3222249"><path style="fill:none;stroke-width:8;stroke-linecap:round;stroke-linejoin:miter;stroke:#396c84;stroke-opacity:1;stroke-miterlimit:4;" d="M 4.00115 4.001509 L 920.912581 4.001509 " transform="matrix(0.748411,0,0,0.748411,193.30237,95.704445)"/><g style="fill:#396c84;fill-opacity:1;"><g transform="translate(316.245948, 78.702895)"><path style="stroke:none" d="M 22.0625 -43.109375 L 33.1875 -43.109375 L 33.1875 -21.625 C 33.1875 -18.46875 32.828125 -15.867188 32.109375 -13.828125 C 31.390625 -11.796875 30.347656 -10.117188 28.984375 -8.796875 C 27.617188 -7.484375 25.96875 -6.359375 24.03125 -5.421875 C 22.09375 -4.484375 19.925781 -3.539062 17.53125 -2.59375 L 4.8125 2.4375 L 1.71875 -5.96875 L 9.046875 -8.765625 C 7.234375 -10.484375 6.179688 -12.804688 5.890625 -15.734375 L 2.953125 -43.109375 L 14.078125 -43.109375 L 17.3125 -14.4375 C 17.40625 -13.570312 17.59375 -13.007812 17.875 -12.75 C 18.164062 -12.488281 18.550781 -12.429688 19.03125 -12.578125 L 19.390625 -12.71875 C 20.210938 -13.101562 20.863281 -13.65625 21.34375 -14.375 C 21.820312 -15.09375 22.0625 -16.171875 22.0625 -17.609375 Z M 22.0625 -43.109375 "/></g></g><g style="fill:#396c84;fill-opacity:1;"><g transform="translate(352.959984, 78.702895)"><path style="stroke:none" d="M 1 -43.109375 L 27.4375 -43.109375 L 27.4375 -34.265625 L 26 -34.265625 C 24.519531 -34.265625 23.78125 -33.285156 23.78125 -31.328125 L 23.78125 0 L 13.296875 0 L 13.296875 -29.671875 C 13.296875 -31.679688 13.601562 -33.210938 14.21875 -34.265625 L 1 -34.265625 Z M 1 -43.109375 "/></g></g><g style="fill:#396c84;fill-opacity:1;"><g transform="translate(382.345574, 78.702895)"><path style="stroke:none" d="M 6.328125 -18.25 L 6.328125 -32.6875 C 6.328125 -33.351562 6.21875 -33.78125 6 -33.96875 C 5.78125 -34.164062 5.335938 -34.265625 4.671875 -34.265625 L 1.9375 -34.265625 L 1.9375 -43.109375 L 11.78125 -43.109375 C 13.84375 -43.109375 15.289062 -42.6875 16.125 -41.84375 C 16.96875 -41.007812 17.390625 -39.5625 17.390625 -37.5 L 17.390625 -18.25 Z M 6.328125 -18.25 "/></g></g><g style="fill:#396c84;fill-opacity:1;"><g transform="translate(403.253175, 78.702895)"><path style="stroke:none" d="M 22.5625 0 L 22.5625 -32.109375 C 22.5625 -32.972656 22.40625 -33.546875 22.09375 -33.828125 C 21.78125 -34.117188 21.191406 -34.265625 20.328125 -34.265625 L 3.734375 -34.265625 L 3.734375 -43.109375 L 27.15625 -43.109375 C 29.550781 -43.109375 31.238281 -42.546875 32.21875 -41.421875 C 33.195312 -40.296875 33.6875 -38.367188 33.6875 -35.640625 L 33.6875 0 Z M 7.40625 0 C 4.957031 0 3.734375 -1.242188 3.734375 -3.734375 L 3.734375 -26.875 L 14.875 -26.875 L 14.875 -10.203125 C 14.875 -9.296875 15.234375 -8.84375 15.953125 -8.84375 L 16.890625 -8.84375 L 16.890625 0 Z M 7.40625 0 "/></g></g><g style="fill:#396c84;fill-opacity:1;"><g transform="translate(440.901217, 78.702895)"><path style="stroke:none" d=""/></g></g><g style="fill:#396c84;fill-opacity:1;"><g transform="translate(455.629939, 78.702895)"><path style="stroke:none" d="M 28.3125 -43.109375 C 30.988281 -43.109375 32.890625 -42.546875 34.015625 -41.421875 C 35.140625 -40.296875 35.703125 -38.367188 35.703125 -35.640625 L 35.703125 0 L 24.578125 0 L 24.578125 -31.828125 C 24.578125 -32.785156 24.40625 -33.476562 24.0625 -33.90625 C 23.726562 -34.34375 23.109375 -34.5625 22.203125 -34.5625 L 20.265625 -34.5625 C 18.628906 -34.5625 17.5 -34.054688 16.875 -33.046875 C 16.257812 -32.046875 16.238281 -29.9375 16.8125 -26.71875 L 19.390625 -11.640625 C 20.109375 -7.710938 19.894531 -4.789062 18.75 -2.875 C 17.601562 -0.957031 15.28125 0 11.78125 0 L 2.234375 0 L 2.234375 -8.84375 L 6.46875 -8.84375 C 7.132812 -8.84375 7.644531 -9.03125 8 -9.40625 C 8.363281 -9.789062 8.472656 -10.507812 8.328125 -11.5625 L 5.96875 -25.28125 C 5.488281 -27.96875 5.414062 -29.992188 5.75 -31.359375 C 6.082031 -32.722656 6.515625 -33.691406 7.046875 -34.265625 L 2.375 -34.265625 L 2.375 -43.109375 Z M 28.3125 -43.109375 "/></g></g><g style="fill:#396c84;fill-opacity:1;"><g transform="translate(495.361567, 78.702895)"><path style="stroke:none" d="M 0.21875 0 L 0.21875 -8.84375 L 6.171875 -8.84375 C 7.179688 -8.84375 7.851562 -9.007812 8.1875 -9.34375 C 8.519531 -9.675781 8.6875 -10.367188 8.6875 -11.421875 L 8.6875 -32.109375 C 8.6875 -32.972656 8.539062 -33.546875 8.25 -33.828125 C 7.96875 -34.117188 7.421875 -34.265625 6.609375 -34.265625 L 4.09375 -34.265625 L 4.09375 -43.109375 L 13.21875 -43.109375 C 15.613281 -43.109375 17.3125 -42.566406 18.3125 -41.484375 C 19.320312 -40.410156 19.828125 -38.601562 19.828125 -36.0625 L 19.828125 -7.1875 C 19.828125 -4.550781 19.3125 -2.691406 18.28125 -1.609375 C 17.25 -0.535156 15.515625 0 13.078125 0 Z M 0.21875 0 "/></g></g><g style="fill:#396c84;fill-opacity:1;"><g transform="translate(518.78384, 78.702895)"><path style="stroke:none" d="M 27.515625 -8.84375 L 29.671875 -8.84375 L 29.671875 0 L 1.296875 0 L 1.296875 -8.84375 L 15.296875 -8.84375 C 15.160156 -9.125 15.039062 -9.46875 14.9375 -9.875 C 14.84375 -10.28125 14.796875 -10.722656 14.796875 -11.203125 L 14.796875 -32.109375 C 14.796875 -32.972656 14.648438 -33.546875 14.359375 -33.828125 C 14.078125 -34.117188 13.503906 -34.265625 12.640625 -34.265625 L 2.078125 -34.265625 L 2.078125 -43.109375 L 19.03125 -43.109375 C 21.570312 -43.109375 23.359375 -42.546875 24.390625 -41.421875 C 25.421875 -40.296875 25.9375 -38.367188 25.9375 -35.640625 L 25.9375 -10.640625 C 25.9375 -9.441406 26.460938 -8.84375 27.515625 -8.84375 Z M 27.515625 -8.84375 "/></g></g><g style="fill:#396c84;fill-opacity:1;"><g transform="translate(549.103437, 78.702895)"><path style="stroke:none" d="M 22.5625 0 L 22.5625 -32.109375 C 22.5625 -32.972656 22.40625 -33.546875 22.09375 -33.828125 C 21.78125 -34.117188 21.191406 -34.265625 20.328125 -34.265625 L 3.734375 -34.265625 L 3.734375 -43.109375 L 27.15625 -43.109375 C 29.550781 -43.109375 31.238281 -42.546875 32.21875 -41.421875 C 33.195312 -40.296875 33.6875 -38.367188 33.6875 -35.640625 L 33.6875 0 Z M 7.40625 0 C 4.957031 0 3.734375 -1.242188 3.734375 -3.734375 L 3.734375 -26.875 L 14.875 -26.875 L 14.875 -10.203125 C 14.875 -9.296875 15.234375 -8.84375 15.953125 -8.84375 L 16.890625 -8.84375 L 16.890625 0 Z M 7.40625 0 "/></g></g><g style="fill:#396c84;fill-opacity:1;"><g transform="translate(586.751468, 78.702895)"><path style="stroke:none" d="M 11.5 0 C 8.71875 0 6.847656 -0.875 5.890625 -2.625 C 4.929688 -4.375 4.976562 -6.875 6.03125 -10.125 L 13.078125 -31.96875 C 13.554688 -33.5 13.03125 -34.265625 11.5 -34.265625 L 3.09375 -34.265625 C 2.320312 -34.265625 1.78125 -34.421875 1.46875 -34.734375 C 1.15625 -35.046875 1 -35.609375 1 -36.421875 L 1 -48.859375 L 11.5 -48.859375 L 11.5 -43.109375 L 19.1875 -43.109375 C 21.914062 -43.109375 23.816406 -42.207031 24.890625 -40.40625 C 25.972656 -38.613281 26.035156 -36.234375 25.078125 -33.265625 L 17.453125 -10.703125 C 17.265625 -10.179688 17.226562 -9.738281 17.34375 -9.375 C 17.46875 -9.019531 17.84375 -8.84375 18.46875 -8.84375 L 21.625 -8.84375 L 21.625 0 Z M 11.5 0 "/></g><g transform="translate(614.484585, 78.702895)"><path style="stroke:none" d=""/></g></g><g style="fill:#396c84;fill-opacity:1;"><g transform="translate(629.213306, 78.702895)"><path style="stroke:none" d="M 22.5625 0 L 22.5625 -32.109375 C 22.5625 -32.972656 22.40625 -33.546875 22.09375 -33.828125 C 21.78125 -34.117188 21.191406 -34.265625 20.328125 -34.265625 L 3.734375 -34.265625 L 3.734375 -43.109375 L 27.15625 -43.109375 C 29.550781 -43.109375 31.238281 -42.546875 32.21875 -41.421875 C 33.195312 -40.296875 33.6875 -38.367188 33.6875 -35.640625 L 33.6875 0 Z M 7.40625 0 C 4.957031 0 3.734375 -1.242188 3.734375 -3.734375 L 3.734375 -26.875 L 14.875 -26.875 L 14.875 -10.203125 C 14.875 -9.296875 15.234375 -8.84375 15.953125 -8.84375 L 16.890625 -8.84375 L 16.890625 0 Z M 7.40625 0 "/></g></g><g style="fill:#396c84;fill-opacity:1;"><g transform="translate(666.861361, 78.702895)"><path style="stroke:none" d="M 0.21875 0 L 0.21875 -8.84375 L 6.171875 -8.84375 C 7.179688 -8.84375 7.851562 -9.007812 8.1875 -9.34375 C 8.519531 -9.675781 8.6875 -10.367188 8.6875 -11.421875 L 8.6875 -32.109375 C 8.6875 -32.972656 8.539062 -33.546875 8.25 -33.828125 C 7.96875 -34.117188 7.421875 -34.265625 6.609375 -34.265625 L 4.09375 -34.265625 L 4.09375 -43.109375 L 13.21875 -43.109375 C 15.613281 -43.109375 17.3125 -42.566406 18.3125 -41.484375 C 19.320312 -40.410156 19.828125 -38.601562 19.828125 -36.0625 L 19.828125 -7.1875 C 19.828125 -4.550781 19.3125 -2.691406 18.28125 -1.609375 C 17.25 -0.535156 15.515625 0 13.078125 0 Z M 0.21875 0 "/></g></g><g style="fill:#396c84;fill-opacity:1;"><g transform="translate(690.283599, 78.702895)"><path style="stroke:none" d="M 6.328125 -18.25 L 6.328125 -32.6875 C 6.328125 -33.351562 6.21875 -33.78125 6 -33.96875 C 5.78125 -34.164062 5.335938 -34.265625 4.671875 -34.265625 L 1.9375 -34.265625 L 1.9375 -43.109375 L 11.78125 -43.109375 C 13.84375 -43.109375 15.289062 -42.6875 16.125 -41.84375 C 16.96875 -41.007812 17.390625 -39.5625 17.390625 -37.5 L 17.390625 -18.25 Z M 6.328125 -18.25 "/></g></g><g style="fill:#396c84;fill-opacity:1;"><g transform="translate(711.191234, 78.702895)"><path style="stroke:none" d="M 40.15625 -43.109375 L 40.15625 -34.265625 L 36.0625 -34.265625 C 36.59375 -33.359375 36.859375 -31.632812 36.859375 -29.09375 L 36.859375 0 L 25.71875 0 L 25.71875 -31.03125 C 25.71875 -32.425781 25.609375 -33.3125 25.390625 -33.6875 C 25.179688 -34.070312 24.738281 -34.265625 24.0625 -34.265625 L 18.609375 -34.265625 C 17.984375 -34.265625 17.5625 -34.070312 17.34375 -33.6875 C 17.132812 -33.3125 17.03125 -32.425781 17.03125 -31.03125 L 17.03125 0 L 5.890625 0 L 5.890625 -29.09375 C 5.890625 -31.632812 6.15625 -33.359375 6.6875 -34.265625 L 2.59375 -34.265625 L 2.59375 -43.109375 Z M 40.15625 -43.109375 "/></g></g><g style="fill:#396c84;fill-opacity:1;"><g transform="translate(753.940419, 78.702895)"><path style="stroke:none" d="M 27.515625 -8.84375 L 29.671875 -8.84375 L 29.671875 0 L 1.296875 0 L 1.296875 -8.84375 L 15.296875 -8.84375 C 15.160156 -9.125 15.039062 -9.46875 14.9375 -9.875 C 14.84375 -10.28125 14.796875 -10.722656 14.796875 -11.203125 L 14.796875 -32.109375 C 14.796875 -32.972656 14.648438 -33.546875 14.359375 -33.828125 C 14.078125 -34.117188 13.503906 -34.265625 12.640625 -34.265625 L 2.078125 -34.265625 L 2.078125 -43.109375 L 19.03125 -43.109375 C 21.570312 -43.109375 23.359375 -42.546875 24.390625 -41.421875 C 25.421875 -40.296875 25.9375 -38.367188 25.9375 -35.640625 L 25.9375 -10.640625 C 25.9375 -9.441406 26.460938 -8.84375 27.515625 -8.84375 Z M 27.515625 -8.84375 "/></g></g></g></svg>