<svg xmlns="http://www.w3.org/2000/svg" xmlns:xlink="http://www.w3.org/1999/xlink" width="1188" zoomAndPan="magnify" viewBox="0 0 890.88 224.249992" height="299" preserveAspectRatio="xMidYMid meet" version="1.2"><defs><clipPath id="f80ce95fbb"><path d="M 29.808594 3.460938 L 570.824219 3.460938 L 570.824219 113.765625 L 29.808594 113.765625 Z M 29.808594 3.460938 "/></clipPath><clipPath id="e58ce91e5a"><path d="M 277.371094 3.460938 L 818.386719 3.460938 L 818.386719 113.765625 L 277.371094 113.765625 Z M 277.371094 3.460938 "/></clipPath></defs><g id="b340037115"><g style="fill:#396c84;fill-opacity:1;"><g transform="translate(375.502158, 188.171707)"><path style="stroke:none" d="M 27.359375 -39.46875 C 29.296875 -39.46875 30.679688 -39.050781 31.515625 -38.21875 C 32.347656 -37.382812 32.765625 -35.984375 32.765625 -34.015625 L 32.765625 -2.4375 C 32.765625 -1.5625 32.578125 -0.9375 32.203125 -0.5625 C 31.828125 -0.1875 31.203125 0 30.328125 0 L 7.5 0 C 6.625 0 6 -0.1875 5.625 -0.5625 C 5.25 -0.9375 5.0625 -1.5625 5.0625 -2.4375 L 5.0625 -27.171875 C 5.0625 -29.140625 5.390625 -30.539062 6.046875 -31.375 L 2.375 -31.375 L 2.375 -39.46875 Z M 22.828125 -8.625 L 22.828125 -29.40625 C 22.828125 -30.28125 22.691406 -30.867188 22.421875 -31.171875 C 22.160156 -31.484375 21.640625 -31.640625 20.859375 -31.640625 L 16.90625 -31.640625 C 16.113281 -31.640625 15.597656 -31.441406 15.359375 -31.046875 C 15.117188 -30.648438 15 -29.992188 15 -29.078125 L 15 -8.625 C 15 -8.3125 15.050781 -8.097656 15.15625 -7.984375 C 15.269531 -7.878906 15.476562 -7.828125 15.78125 -7.828125 L 22.03125 -7.828125 C 22.382812 -7.828125 22.601562 -7.878906 22.6875 -7.984375 C 22.78125 -8.097656 22.828125 -8.3125 22.828125 -8.625 Z M 22.828125 -8.625 "/></g></g><g style="fill:#396c84;fill-opacity:1;"><g transform="translate(411.878519, 188.171707)"><path style="stroke:none" d="M 5.859375 0 L 5.859375 -29.9375 C 5.859375 -30.539062 5.757812 -30.929688 5.5625 -31.109375 C 5.363281 -31.285156 4.957031 -31.375 4.34375 -31.375 L 1.96875 -31.375 L 1.96875 -39.46875 L 11.640625 -39.46875 C 13.265625 -39.46875 14.40625 -39.140625 15.0625 -38.484375 C 15.71875 -37.828125 16.046875 -36.707031 16.046875 -35.125 L 16.046875 0 Z M 5.859375 0 "/></g></g><g style="fill:#396c84;fill-opacity:1;"><g transform="translate(431.546746, 188.171707)"><path style="stroke:none" d="M 1.1875 0 L 1.1875 -8.09375 L 11.3125 -8.09375 C 12.101562 -8.09375 12.640625 -8.222656 12.921875 -8.484375 C 13.210938 -8.742188 13.359375 -9.25 13.359375 -10 L 13.359375 -29.40625 C 13.359375 -30.195312 13.210938 -30.722656 12.921875 -30.984375 C 12.640625 -31.242188 12.101562 -31.375 11.3125 -31.375 L 1.90625 -31.375 L 1.90625 -39.46875 L 17.296875 -39.46875 C 19.578125 -39.46875 21.1875 -38.992188 22.125 -38.046875 C 23.070312 -37.109375 23.546875 -35.5 23.546875 -33.21875 L 23.546875 -6.1875 C 23.546875 -3.945312 23.070312 -2.351562 22.125 -1.40625 C 21.1875 -0.46875 19.578125 0 17.296875 0 Z M 1.1875 0 "/></g></g><g style="fill:#396c84;fill-opacity:1;"><g transform="translate(458.385, 188.171707)"><path style="stroke:none" d="M 5.78125 -16.703125 L 5.78125 -29.9375 C 5.78125 -30.539062 5.679688 -30.929688 5.484375 -31.109375 C 5.296875 -31.285156 4.894531 -31.375 4.28125 -31.375 L 1.78125 -31.375 L 1.78125 -39.46875 L 10.78125 -39.46875 C 12.664062 -39.46875 13.992188 -39.082031 14.765625 -38.3125 C 15.535156 -37.550781 15.921875 -36.226562 15.921875 -34.34375 L 15.921875 -16.703125 Z M 5.78125 -16.703125 "/></g></g><g style="fill:#396c84;fill-opacity:1;"><g transform="translate(477.526992, 188.171707)"><path style="stroke:none" d="M 26.25 -39.46875 C 28.570312 -39.46875 30.390625 -39.148438 31.703125 -38.515625 C 33.023438 -37.878906 33.9375 -36.75 34.4375 -35.125 C 34.9375 -33.5 35.078125 -31.195312 34.859375 -28.21875 L 33.6875 -10.53125 C 33.59375 -9.03125 33.359375 -7.664062 32.984375 -6.4375 C 32.617188 -5.21875 31.960938 -4.179688 31.015625 -3.328125 C 30.078125 -2.472656 28.6875 -1.890625 26.84375 -1.578125 L 14.9375 0.390625 C 12.21875 0.878906 10.332031 0.695312 9.28125 -0.15625 C 8.226562 -1.019531 7.613281 -2.476562 7.4375 -4.53125 L 5.71875 -26.90625 C 5.632812 -27.914062 5.710938 -28.800781 5.953125 -29.5625 C 6.191406 -30.332031 6.53125 -30.984375 6.96875 -31.515625 C 5.738281 -31.679688 4.539062 -32.082031 3.375 -32.71875 C 2.21875 -33.363281 1.269531 -34.320312 0.53125 -35.59375 L 5.859375 -41.703125 C 6.472656 -40.742188 7.097656 -40.128906 7.734375 -39.859375 C 8.367188 -39.597656 9.191406 -39.46875 10.203125 -39.46875 Z M 25.0625 -25.453125 C 25.144531 -27.210938 25.15625 -28.539062 25.09375 -29.4375 C 25.03125 -30.332031 24.765625 -30.929688 24.296875 -31.234375 C 23.835938 -31.546875 23.039062 -31.679688 21.90625 -31.640625 L 16.78125 -31.515625 C 15.726562 -31.242188 15.265625 -30.363281 15.390625 -28.875 L 16.90625 -10.203125 C 16.988281 -9.367188 17.21875 -8.816406 17.59375 -8.546875 C 17.96875 -8.285156 18.503906 -8.195312 19.203125 -8.28125 L 22.109375 -8.875 C 22.890625 -9.007812 23.441406 -9.335938 23.765625 -9.859375 C 24.097656 -10.390625 24.289062 -11.222656 24.34375 -12.359375 Z M 25.0625 -25.453125 "/></g></g><g clip-rule="nonzero" clip-path="url(#f80ce95fbb)"><path style=" stroke:none;fill-rule:nonzero;fill:#e0f5ff;fill-opacity:1;" d="M 570.652344 24.835938 L 558.480469 101.464844 C 557.433594 108.042969 551.730469 112.859375 545.070312 112.789062 L 503.117188 112.320312 L 449.558594 111.742188 L 288.914062 109.984375 L 235.367188 109.40625 L 187.925781 108.828125 L 134.441406 108.238281 L 31.636719 113.765625 C 30.5625 113.8125 29.703125 112.878906 29.820312 111.804688 L 30.316406 107.246094 L 31.746094 94.445312 C 31.769531 94.195312 31.851562 93.960938 31.96875 93.746094 L 35.25 88.136719 C 35.511719 87.675781 35.558594 87.121094 35.378906 86.625 L 33.398438 81.261719 C 33.300781 81.003906 33.265625 80.730469 33.300781 80.460938 L 33.988281 74.285156 L 35.453125 61.089844 L 36.183594 54.488281 L 36.917969 47.902344 L 38.382812 34.71875 L 39.113281 28.117188 L 39.8125 21.910156 C 39.832031 21.660156 39.914062 21.414062 40.046875 21.199219 L 44.570312 13.546875 C 44.984375 12.863281 44.875 11.976562 44.308594 11.410156 C 43.957031 11.042969 43.804688 10.605469 43.804688 10.179688 C 43.804688 9.257812 44.523438 8.375 45.597656 8.386719 L 48.738281 8.988281 L 212.691406 3.460938 L 256.082031 4.121094 L 320.148438 4.808594 L 376.234375 5.433594 L 436.308594 6.082031 L 496.371094 6.730469 L 557.953125 9.3125 C 565.976562 9.648438 571.910156 16.90625 570.652344 24.835938 "/></g><g clip-rule="nonzero" clip-path="url(#e58ce91e5a)"><path style=" stroke:none;fill-rule:nonzero;fill:#e0f5ff;fill-opacity:1;" d="M 818.214844 24.835938 L 806.042969 101.464844 C 805 108.042969 799.292969 112.859375 792.632812 112.789062 L 750.679688 112.320312 L 697.121094 111.742188 L 536.476562 109.984375 L 482.929688 109.40625 L 435.492188 108.828125 L 382.003906 108.238281 L 279.199219 113.765625 C 278.128906 113.8125 277.265625 112.878906 277.382812 111.804688 L 277.878906 107.246094 L 279.308594 94.445312 C 279.332031 94.195312 279.414062 93.960938 279.53125 93.746094 L 282.816406 88.136719 C 283.074219 87.675781 283.121094 87.121094 282.945312 86.625 L 280.960938 81.261719 C 280.867188 81.003906 280.828125 80.730469 280.867188 80.460938 L 281.550781 74.285156 L 283.015625 61.089844 L 283.75 54.488281 L 284.480469 47.902344 L 285.945312 34.71875 L 286.675781 28.117188 L 287.375 21.910156 C 287.394531 21.660156 287.476562 21.414062 287.609375 21.199219 L 292.132812 13.546875 C 292.546875 12.863281 292.441406 11.976562 291.871094 11.410156 C 291.519531 11.042969 291.367188 10.605469 291.367188 10.179688 C 291.367188 9.257812 292.085938 8.375 293.160156 8.386719 L 296.300781 8.988281 L 460.253906 3.460938 L 503.644531 4.121094 L 567.710938 4.808594 L 623.796875 5.433594 L 683.871094 6.082031 L 743.933594 6.730469 L 805.515625 9.3125 C 813.539062 9.648438 819.476562 16.90625 818.214844 24.835938 "/></g><g style="fill:#396c84;fill-opacity:1;"><g transform="translate(96.715353, 100.111325)"><path style="stroke:none" d="M 25.359375 -39.09375 C 31.703125 -39.09375 36.304688 -37.535156 39.171875 -34.421875 C 42.046875 -31.304688 43.484375 -25.9375 43.484375 -18.3125 C 43.484375 -13.675781 42.828125 -9.953125 41.515625 -7.140625 C 40.203125 -4.328125 38.109375 -2.3125 35.234375 -1.09375 C 32.367188 0.125 28.523438 0.734375 23.703125 0.734375 C 18.890625 0.734375 15.015625 0.125 12.078125 -1.09375 C 9.148438 -2.3125 7.03125 -4.328125 5.71875 -7.140625 C 4.40625 -9.953125 3.75 -13.675781 3.75 -18.3125 L 3.75 -44.03125 C 3.75 -47.875 4.691406 -50.96875 6.578125 -53.3125 C 8.472656 -55.664062 10.945312 -57.390625 14 -58.484375 C 17.050781 -59.585938 20.285156 -60.140625 23.703125 -60.140625 C 27.179688 -60.140625 30.414062 -59.601562 33.40625 -58.53125 C 36.40625 -57.46875 38.832031 -55.742188 40.6875 -53.359375 C 42.550781 -50.984375 43.484375 -47.875 43.484375 -44.03125 L 29.296875 -44.03125 C 29.296875 -46.101562 28.851562 -47.582031 27.96875 -48.46875 C 27.082031 -49.351562 25.660156 -49.796875 23.703125 -49.796875 C 21.753906 -49.796875 20.304688 -49.351562 19.359375 -48.46875 C 18.410156 -47.582031 17.9375 -46.101562 17.9375 -44.03125 L 17.9375 -37.8125 C 18.851562 -38.238281 19.90625 -38.554688 21.09375 -38.765625 C 22.289062 -38.984375 23.710938 -39.09375 25.359375 -39.09375 Z M 23.703125 -9.609375 C 25.472656 -9.609375 26.707031 -10.28125 27.40625 -11.625 C 28.113281 -12.96875 28.46875 -15.472656 28.46875 -19.140625 C 28.46875 -22.859375 28.113281 -25.40625 27.40625 -26.78125 C 26.707031 -28.15625 25.472656 -28.84375 23.703125 -28.84375 C 21.816406 -28.84375 20.519531 -28.15625 19.8125 -26.78125 C 19.113281 -25.40625 18.765625 -22.859375 18.765625 -19.140625 C 18.765625 -15.472656 19.113281 -12.96875 19.8125 -11.625 C 20.519531 -10.28125 21.816406 -9.609375 23.703125 -9.609375 Z M 23.703125 -9.609375 "/></g></g><g style="fill:#396c84;fill-opacity:1;"><g transform="translate(143.40848, 100.111325)"><path style="stroke:none" d=""/></g></g><g style="fill:#396c84;fill-opacity:1;"><g transform="translate(162.175285, 100.111325)"><path style="stroke:none" d="M 42.84375 -54.921875 C 45.53125 -54.921875 47.332031 -54.003906 48.25 -52.171875 C 49.164062 -50.347656 49.316406 -48.09375 48.703125 -45.40625 L 39.359375 0 L 25 0 L 33.046875 -41.46875 C 33.234375 -42.507812 33.265625 -43.195312 33.140625 -43.53125 C 33.015625 -43.863281 32.4375 -44.03125 31.40625 -44.03125 L 24.171875 -44.03125 C 23.429688 -44.03125 22.847656 -43.9375 22.421875 -43.75 C 21.992188 -43.570312 21.78125 -42.875 21.78125 -41.65625 L 21.78125 2.203125 C 21.78125 2.929688 22.148438 3.296875 22.890625 3.296875 L 25.078125 3.296875 L 25.078125 14 L 12.640625 14 C 9.273438 14 7.59375 12.320312 7.59375 8.96875 L 7.59375 -39.921875 C 7.59375 -41.742188 7.929688 -42.992188 8.609375 -43.671875 L 3.296875 -43.671875 L 3.296875 -54.921875 Z M 42.84375 -54.921875 "/></g></g><g style="fill:#396c84;fill-opacity:1;"><g transform="translate(213.806875, 100.111325)"><path style="stroke:none" d="M 17.484375 0 L 17.484375 -40.375 C 17.484375 -42.570312 16.382812 -43.671875 14.1875 -43.671875 L 1.28125 -43.671875 L 1.28125 -54.921875 L 22.421875 -54.921875 C 25.847656 -54.921875 28.242188 -54.21875 29.609375 -52.8125 C 30.984375 -51.414062 31.671875 -49.039062 31.671875 -45.6875 L 31.671875 0 Z M 17.484375 0 "/></g></g><g style="fill:#396c84;fill-opacity:1;"><g transform="translate(250.516576, 100.111325)"><path style="stroke:none" d="M 4.21875 0 L 4.21875 -11.265625 L 25.71875 -11.265625 C 27.914062 -11.265625 29.015625 -12.332031 29.015625 -14.46875 L 29.015625 -41.109375 C 29.015625 -42.265625 28.90625 -43.039062 28.6875 -43.4375 C 28.476562 -43.832031 27.734375 -44.03125 26.453125 -44.03125 L 22.15625 -44.03125 C 20.9375 -44.03125 20.128906 -43.832031 19.734375 -43.4375 C 19.335938 -43.039062 19.078125 -42.265625 18.953125 -41.109375 L 17.9375 -33.046875 C 17.882812 -32.191406 17.976562 -31.597656 18.21875 -31.265625 C 18.457031 -30.929688 19.003906 -30.765625 19.859375 -30.765625 L 23.25 -30.765625 L 23.25 -19.78125 L 10.34375 -19.78125 C 7.59375 -19.78125 5.65625 -20.40625 4.53125 -21.65625 C 3.40625 -22.90625 2.992188 -24.875 3.296875 -27.5625 L 5.578125 -47.0625 C 5.890625 -49.800781 6.726562 -51.796875 8.09375 -53.046875 C 9.46875 -54.296875 11.5 -54.921875 14.1875 -54.921875 L 34.0625 -54.921875 C 37.414062 -54.921875 39.773438 -54.234375 41.140625 -52.859375 C 42.515625 -51.492188 43.203125 -49.101562 43.203125 -45.6875 L 43.203125 -9.15625 C 43.203125 -5.800781 42.515625 -3.4375 41.140625 -2.0625 C 39.773438 -0.6875 37.414062 0 34.0625 0 Z M 4.21875 0 "/></g></g><g style="fill:#396c84;fill-opacity:1;"><g transform="translate(298.394806, 100.111325)"><path style="stroke:none" d=""/></g></g><g style="fill:#396c84;fill-opacity:1;"><g transform="translate(317.161611, 100.111325)"><path style="stroke:none" d="M 36.0625 -54.921875 C 39.488281 -54.921875 41.914062 -54.203125 43.34375 -52.765625 C 44.78125 -51.335938 45.5 -48.882812 45.5 -45.40625 L 45.5 0 L 31.3125 0 L 31.3125 -40.5625 C 31.3125 -41.78125 31.097656 -42.660156 30.671875 -43.203125 C 30.242188 -43.753906 29.445312 -44.03125 28.28125 -44.03125 L 25.8125 -44.03125 C 23.738281 -44.03125 22.304688 -43.390625 21.515625 -42.109375 C 20.722656 -40.828125 20.691406 -38.144531 21.421875 -34.0625 L 24.71875 -14.828125 C 25.632812 -9.828125 25.359375 -6.101562 23.890625 -3.65625 C 22.429688 -1.21875 19.472656 0 15.015625 0 L 2.84375 0 L 2.84375 -11.265625 L 8.234375 -11.265625 C 9.085938 -11.265625 9.742188 -11.503906 10.203125 -11.984375 C 10.660156 -12.472656 10.800781 -13.390625 10.625 -14.734375 L 7.59375 -32.21875 C 6.988281 -35.632812 6.898438 -38.210938 7.328125 -39.953125 C 7.753906 -41.691406 8.300781 -42.929688 8.96875 -43.671875 L 3.015625 -43.671875 L 3.015625 -54.921875 Z M 36.0625 -54.921875 "/></g></g><g style="fill:#396c84;fill-opacity:1;"><g transform="translate(367.78622, 100.111325)"><path style="stroke:none" d="M 18.3125 -28.75 C 17.519531 -28.4375 17.0625 -28.003906 16.9375 -27.453125 C 16.8125 -26.910156 16.898438 -26.03125 17.203125 -24.8125 L 21.328125 -11.53125 C 22.367188 -8.238281 22.582031 -5.492188 21.96875 -3.296875 C 21.363281 -1.097656 19.503906 0 16.390625 0 L 3.109375 0 L 3.109375 -11.265625 L 6.046875 -11.265625 C 6.835938 -11.265625 7.171875 -11.597656 7.046875 -12.265625 L 4.671875 -23.703125 C 4.054688 -26.578125 4.007812 -28.925781 4.53125 -30.75 C 5.050781 -32.582031 5.9375 -34.109375 7.1875 -35.328125 C 8.4375 -36.554688 9.796875 -37.566406 11.265625 -38.359375 L 12.640625 -39.09375 L 3.203125 -54.921875 L 17.671875 -54.921875 L 30.484375 -31.859375 C 30.972656 -32.160156 31.304688 -32.539062 31.484375 -33 C 31.671875 -33.457031 31.765625 -34.207031 31.765625 -35.25 L 31.765625 -54.921875 L 45.3125 -54.921875 L 45.3125 -34.140625 C 45.3125 -31.335938 44.742188 -28.972656 43.609375 -27.046875 C 42.484375 -25.128906 40.519531 -23.316406 37.71875 -21.609375 L 36.4375 -20.78125 L 47.140625 0 L 32.859375 0 L 18.40625 -28.75 Z M 18.3125 -28.75 "/></g></g><g style="fill:#396c84;fill-opacity:1;"><g transform="translate(416.854529, 100.111325)"><path style="stroke:none" d=""/></g></g><g style="fill:#396c84;fill-opacity:1;"><g transform="translate(435.621334, 100.111325)"><path style="stroke:none" d="M 14.640625 0 C 11.109375 0 8.726562 -1.113281 7.5 -3.34375 C 6.28125 -5.570312 6.34375 -8.757812 7.6875 -12.90625 L 16.65625 -40.734375 C 17.269531 -42.691406 16.597656 -43.671875 14.640625 -43.671875 L 3.9375 -43.671875 C 2.957031 -43.671875 2.269531 -43.867188 1.875 -44.265625 C 1.476562 -44.660156 1.28125 -45.378906 1.28125 -46.421875 L 1.28125 -62.25 L 14.640625 -62.25 L 14.640625 -54.921875 L 24.4375 -54.921875 C 27.914062 -54.921875 30.34375 -53.773438 31.71875 -51.484375 C 33.09375 -49.203125 33.171875 -46.171875 31.953125 -42.390625 L 22.25 -13.640625 C 22 -12.972656 21.953125 -12.410156 22.109375 -11.953125 C 22.265625 -11.492188 22.738281 -11.265625 23.53125 -11.265625 L 27.5625 -11.265625 L 27.5625 0 Z M 14.640625 0 "/></g></g><g style="fill:#396c84;fill-opacity:1;"><g transform="translate(470.957847, 100.111325)"><path style="stroke:none" d="M 8.0625 -23.25 L 8.0625 -41.65625 C 8.0625 -42.507812 7.921875 -43.054688 7.640625 -43.296875 C 7.367188 -43.546875 6.804688 -43.671875 5.953125 -43.671875 L 2.46875 -43.671875 L 2.46875 -54.921875 L 15.015625 -54.921875 C 17.640625 -54.921875 19.484375 -54.382812 20.546875 -53.3125 C 21.617188 -52.25 22.15625 -50.40625 22.15625 -47.78125 L 22.15625 -23.25 Z M 8.0625 -23.25 "/></g></g><g style="fill:#396c84;fill-opacity:1;"><g transform="translate(497.597569, 100.111325)"><path style="stroke:none" d="M 51.171875 -54.921875 L 51.171875 -43.671875 L 45.953125 -43.671875 C 46.628906 -42.503906 46.96875 -40.304688 46.96875 -37.078125 L 46.96875 0 L 32.78125 0 L 32.78125 -39.546875 C 32.78125 -41.316406 32.640625 -42.445312 32.359375 -42.9375 C 32.085938 -43.425781 31.523438 -43.671875 30.671875 -43.671875 L 23.703125 -43.671875 C 22.910156 -43.671875 22.378906 -43.425781 22.109375 -42.9375 C 21.835938 -42.445312 21.703125 -41.316406 21.703125 -39.546875 L 21.703125 0 L 7.5 0 L 7.5 -37.078125 C 7.5 -40.304688 7.835938 -42.503906 8.515625 -43.671875 L 3.296875 -43.671875 L 3.296875 -54.921875 Z M 51.171875 -54.921875 "/></g></g><g style="fill:#396c84;fill-opacity:1;"><g transform="translate(552.067057, 100.111325)"><path style="stroke:none" d="M 36.0625 -54.921875 C 39.488281 -54.921875 41.914062 -54.203125 43.34375 -52.765625 C 44.78125 -51.335938 45.5 -48.882812 45.5 -45.40625 L 45.5 0 L 31.3125 0 L 31.3125 -40.5625 C 31.3125 -41.78125 31.097656 -42.660156 30.671875 -43.203125 C 30.242188 -43.753906 29.445312 -44.03125 28.28125 -44.03125 L 25.8125 -44.03125 C 23.738281 -44.03125 22.304688 -43.390625 21.515625 -42.109375 C 20.722656 -40.828125 20.691406 -38.144531 21.421875 -34.0625 L 24.71875 -14.828125 C 25.632812 -9.828125 25.359375 -6.101562 23.890625 -3.65625 C 22.429688 -1.21875 19.472656 0 15.015625 0 L 2.84375 0 L 2.84375 -11.265625 L 8.234375 -11.265625 C 9.085938 -11.265625 9.742188 -11.503906 10.203125 -11.984375 C 10.660156 -12.472656 10.800781 -13.390625 10.625 -14.734375 L 7.59375 -32.21875 C 6.988281 -35.632812 6.898438 -38.210938 7.328125 -39.953125 C 7.753906 -41.691406 8.300781 -42.929688 8.96875 -43.671875 L 3.015625 -43.671875 L 3.015625 -54.921875 Z M 36.0625 -54.921875 "/></g></g><g style="fill:#396c84;fill-opacity:1;"><g transform="translate(602.691629, 100.111325)"><path style="stroke:none" d="M 0.28125 0 L 0.28125 -11.265625 L 7.875 -11.265625 C 9.15625 -11.265625 10.007812 -11.476562 10.4375 -11.90625 C 10.863281 -12.332031 11.078125 -13.21875 11.078125 -14.5625 L 11.078125 -40.921875 C 11.078125 -42.015625 10.894531 -42.742188 10.53125 -43.109375 C 10.164062 -43.484375 9.460938 -43.671875 8.421875 -43.671875 L 5.21875 -43.671875 L 5.21875 -54.921875 L 16.84375 -54.921875 C 19.894531 -54.921875 22.0625 -54.234375 23.34375 -52.859375 C 24.625 -51.492188 25.265625 -49.191406 25.265625 -45.953125 L 25.265625 -9.15625 C 25.265625 -5.800781 24.609375 -3.4375 23.296875 -2.0625 C 21.984375 -0.6875 19.769531 0 16.65625 0 Z M 0.28125 0 "/></g></g><g style="fill:#396c84;fill-opacity:1;"><g transform="translate(632.535455, 100.111325)"><path style="stroke:none" d=""/></g></g><g style="fill:#396c84;fill-opacity:1;"><g transform="translate(651.302237, 100.111325)"><path style="stroke:none" d="M 8.140625 0 L 8.140625 -41.65625 C 8.140625 -42.507812 8.003906 -43.054688 7.734375 -43.296875 C 7.460938 -43.546875 6.898438 -43.671875 6.046875 -43.671875 L 2.75 -43.671875 L 2.75 -54.921875 L 16.203125 -54.921875 C 18.460938 -54.921875 20.050781 -54.460938 20.96875 -53.546875 C 21.882812 -52.640625 22.34375 -51.085938 22.34375 -48.890625 L 22.34375 0 Z M 8.140625 0 "/></g></g><g style="fill:#396c84;fill-opacity:1;"><g transform="translate(678.674301, 100.111325)"><path style="stroke:none" d="M 18.3125 -28.75 C 17.519531 -28.4375 17.0625 -28.003906 16.9375 -27.453125 C 16.8125 -26.910156 16.898438 -26.03125 17.203125 -24.8125 L 21.328125 -11.53125 C 22.367188 -8.238281 22.582031 -5.492188 21.96875 -3.296875 C 21.363281 -1.097656 19.503906 0 16.390625 0 L 3.109375 0 L 3.109375 -11.265625 L 6.046875 -11.265625 C 6.835938 -11.265625 7.171875 -11.597656 7.046875 -12.265625 L 4.671875 -23.703125 C 4.054688 -26.578125 4.007812 -28.925781 4.53125 -30.75 C 5.050781 -32.582031 5.9375 -34.109375 7.1875 -35.328125 C 8.4375 -36.554688 9.796875 -37.566406 11.265625 -38.359375 L 12.640625 -39.09375 L 3.203125 -54.921875 L 17.671875 -54.921875 L 30.484375 -31.859375 C 30.972656 -32.160156 31.304688 -32.539062 31.484375 -33 C 31.671875 -33.457031 31.765625 -34.207031 31.765625 -35.25 L 31.765625 -54.921875 L 45.3125 -54.921875 L 45.3125 -34.140625 C 45.3125 -31.335938 44.742188 -28.972656 43.609375 -27.046875 C 42.484375 -25.128906 40.519531 -23.316406 37.71875 -21.609375 L 36.4375 -20.78125 L 47.140625 0 L 32.859375 0 L 18.40625 -28.75 Z M 18.3125 -28.75 "/></g></g><g style="fill:#396c84;fill-opacity:1;"><g transform="translate(727.74261, 100.111325)"><path style="stroke:none" d="M 8.140625 0 L 8.140625 -41.65625 C 8.140625 -42.507812 8.003906 -43.054688 7.734375 -43.296875 C 7.460938 -43.546875 6.898438 -43.671875 6.046875 -43.671875 L 2.75 -43.671875 L 2.75 -54.921875 L 16.203125 -54.921875 C 18.460938 -54.921875 20.050781 -54.460938 20.96875 -53.546875 C 21.882812 -52.640625 22.34375 -51.085938 22.34375 -48.890625 L 22.34375 0 Z M 8.140625 0 "/></g></g><g style="fill:#396c84;fill-opacity:1;"><g transform="translate(755.114722, 100.111325)"><path style="stroke:none" d="M 35.0625 -11.265625 L 37.8125 -11.265625 L 37.8125 0 L 1.640625 0 L 1.640625 -11.265625 L 19.5 -11.265625 C 19.3125 -11.628906 19.15625 -12.066406 19.03125 -12.578125 C 18.914062 -13.097656 18.859375 -13.664062 18.859375 -14.28125 L 18.859375 -40.921875 C 18.859375 -42.015625 18.675781 -42.742188 18.3125 -43.109375 C 17.945312 -43.484375 17.210938 -43.671875 16.109375 -43.671875 L 2.65625 -43.671875 L 2.65625 -54.921875 L 24.265625 -54.921875 C 27.492188 -54.921875 29.765625 -54.203125 31.078125 -52.765625 C 32.390625 -51.335938 33.046875 -48.882812 33.046875 -45.40625 L 33.046875 -13.546875 C 33.046875 -12.023438 33.71875 -11.265625 35.0625 -11.265625 Z M 35.0625 -11.265625 "/></g></g></g></svg>