<svg xmlns="http://www.w3.org/2000/svg" xmlns:xlink="http://www.w3.org/1999/xlink" width="952" zoomAndPan="magnify" viewBox="0 0 714 116.999995" height="156" preserveAspectRatio="xMidYMid meet" version="1.2"><defs/><g id="762c7c5e15"><g style="fill:#396c84;fill-opacity:1;"><g transform="translate(48.877511, 78.869992)"><path style="stroke:none" d="M 40.25 -43.203125 L 40.25 -34.34375 L 36.140625 -34.34375 C 36.671875 -33.425781 36.9375 -31.695312 36.9375 -29.15625 L 36.9375 0 L 25.78125 0 L 25.78125 -31.109375 C 25.78125 -32.492188 25.671875 -33.378906 25.453125 -33.765625 C 25.234375 -34.148438 24.789062 -34.34375 24.125 -34.34375 L 18.640625 -34.34375 C 18.023438 -34.34375 17.609375 -34.148438 17.390625 -33.765625 C 17.171875 -33.378906 17.0625 -32.492188 17.0625 -31.109375 L 17.0625 0 L 5.90625 0 L 5.90625 -29.15625 C 5.90625 -31.695312 6.171875 -33.425781 6.703125 -34.34375 L 2.59375 -34.34375 L 2.59375 -43.203125 Z M 40.25 -43.203125 "/></g></g><g style="fill:#396c84;fill-opacity:1;"><g transform="translate(91.717493, 78.869992)"><path style="stroke:none" d="M 28.375 -43.203125 C 31.0625 -43.203125 32.96875 -42.632812 34.09375 -41.5 C 35.21875 -40.375 35.78125 -38.445312 35.78125 -35.71875 L 35.78125 0 L 24.625 0 L 24.625 -31.890625 C 24.625 -32.859375 24.453125 -33.554688 24.109375 -33.984375 C 23.773438 -34.410156 23.15625 -34.625 22.25 -34.625 L 20.296875 -34.625 C 18.671875 -34.625 17.546875 -34.117188 16.921875 -33.109375 C 16.296875 -32.109375 16.269531 -30 16.84375 -26.78125 L 19.4375 -11.65625 C 20.15625 -7.726562 19.9375 -4.800781 18.78125 -2.875 C 17.632812 -0.957031 15.3125 0 11.8125 0 L 2.234375 0 L 2.234375 -8.859375 L 6.484375 -8.859375 C 7.148438 -8.859375 7.660156 -9.050781 8.015625 -9.4375 C 8.378906 -9.820312 8.492188 -10.539062 8.359375 -11.59375 L 5.96875 -25.34375 C 5.488281 -28.03125 5.414062 -30.054688 5.75 -31.421875 C 6.09375 -32.796875 6.53125 -33.769531 7.0625 -34.34375 L 2.375 -34.34375 L 2.375 -43.203125 Z M 28.375 -43.203125 "/></g></g><g style="fill:#396c84;fill-opacity:1;"><g transform="translate(131.533476, 78.869992)"><path style="stroke:none" d="M 3.3125 0 L 3.3125 -8.859375 L 20.234375 -8.859375 C 21.960938 -8.859375 22.828125 -9.695312 22.828125 -11.375 L 22.828125 -32.328125 C 22.828125 -33.242188 22.738281 -33.851562 22.5625 -34.15625 C 22.394531 -34.46875 21.8125 -34.625 20.8125 -34.625 L 17.421875 -34.625 C 16.460938 -34.625 15.828125 -34.46875 15.515625 -34.15625 C 15.203125 -33.851562 15 -33.242188 14.90625 -32.328125 L 14.109375 -25.984375 C 14.066406 -25.316406 14.140625 -24.847656 14.328125 -24.578125 C 14.515625 -24.316406 14.945312 -24.1875 15.625 -24.1875 L 18.28125 -24.1875 L 18.28125 -15.546875 L 8.140625 -15.546875 C 5.972656 -15.546875 4.445312 -16.035156 3.5625 -17.015625 C 2.675781 -18.003906 2.351562 -19.554688 2.59375 -21.671875 L 4.390625 -37.015625 C 4.628906 -39.171875 5.285156 -40.738281 6.359375 -41.71875 C 7.441406 -42.707031 9.039062 -43.203125 11.15625 -43.203125 L 26.78125 -43.203125 C 29.425781 -43.203125 31.285156 -42.660156 32.359375 -41.578125 C 33.441406 -40.492188 33.984375 -38.609375 33.984375 -35.921875 L 33.984375 -7.203125 C 33.984375 -4.554688 33.441406 -2.691406 32.359375 -1.609375 C 31.285156 -0.535156 29.425781 0 26.78125 0 Z M 3.3125 0 "/></g></g><g style="fill:#396c84;fill-opacity:1;"><g transform="translate(169.189455, 78.869992)"><path style="stroke:none" d=""/></g></g><g style="fill:#396c84;fill-opacity:1;"><g transform="translate(183.949449, 78.869992)"><path style="stroke:none" d="M 11.515625 0 C 8.734375 0 6.863281 -0.875 5.90625 -2.625 C 4.945312 -4.375 4.992188 -6.882812 6.046875 -10.15625 L 13.109375 -32.046875 C 13.585938 -33.578125 13.054688 -34.34375 11.515625 -34.34375 L 3.09375 -34.34375 C 2.320312 -34.34375 1.78125 -34.5 1.46875 -34.8125 C 1.164062 -35.125 1.015625 -35.6875 1.015625 -36.5 L 1.015625 -48.953125 L 11.515625 -48.953125 L 11.515625 -43.203125 L 19.21875 -43.203125 C 21.957031 -43.203125 23.863281 -42.300781 24.9375 -40.5 C 26.019531 -38.695312 26.082031 -36.3125 25.125 -33.34375 L 17.5 -10.734375 C 17.300781 -10.203125 17.257812 -9.753906 17.375 -9.390625 C 17.5 -9.035156 17.875 -8.859375 18.5 -8.859375 L 21.671875 -8.859375 L 21.671875 0 Z M 11.515625 0 "/></g></g><g style="fill:#396c84;fill-opacity:1;"><g transform="translate(211.741434, 78.869992)"><path style="stroke:none" d="M 1.015625 -43.203125 L 27.5 -43.203125 L 27.5 -34.34375 L 26.0625 -34.34375 C 24.570312 -34.34375 23.828125 -33.359375 23.828125 -31.390625 L 23.828125 0 L 13.3125 0 L 13.3125 -29.734375 C 13.3125 -31.753906 13.625 -33.289062 14.25 -34.34375 L 1.015625 -34.34375 Z M 1.015625 -43.203125 "/></g></g><g style="fill:#396c84;fill-opacity:1;"><g transform="translate(241.189415, 78.869992)"><path style="stroke:none" d="M 6.40625 0 L 6.40625 -32.765625 C 6.40625 -33.429688 6.296875 -33.859375 6.078125 -34.046875 C 5.867188 -34.242188 5.425781 -34.34375 4.75 -34.34375 L 2.15625 -34.34375 L 2.15625 -43.203125 L 12.75 -43.203125 C 14.519531 -43.203125 15.765625 -42.84375 16.484375 -42.125 C 17.203125 -41.40625 17.5625 -40.179688 17.5625 -38.453125 L 17.5625 0 Z M 6.40625 0 "/></g></g><g style="fill:#396c84;fill-opacity:1;"><g transform="translate(262.717397, 78.869992)"><path style="stroke:none" d="M 27.140625 0 L 17.0625 0 L 12.8125 -15.125 C 12.382812 -14.925781 12.097656 -14.707031 11.953125 -14.46875 C 11.804688 -14.226562 11.707031 -13.914062 11.65625 -13.53125 L 10.65625 0 L 0.078125 0 L 2.09375 -16.484375 C 2.28125 -18.023438 2.6875 -19.203125 3.3125 -20.015625 C 3.9375 -20.828125 4.894531 -21.5 6.1875 -22.03125 L 10.734375 -23.90625 C 11.492188 -24.238281 12.066406 -24.679688 12.453125 -25.234375 C 12.835938 -25.785156 13.03125 -26.585938 13.03125 -27.640625 L 13.03125 -32.40625 C 13.03125 -33.21875 12.910156 -33.742188 12.671875 -33.984375 C 12.429688 -34.222656 11.90625 -34.34375 11.09375 -34.34375 L 5.90625 -34.34375 L 5.90625 -43.203125 L 17.421875 -43.203125 C 19.535156 -43.203125 21.082031 -42.660156 22.0625 -41.578125 C 23.050781 -40.492188 23.546875 -38.753906 23.546875 -36.359375 L 23.546875 -22.828125 C 23.546875 -21.722656 23.398438 -20.832031 23.109375 -20.15625 C 22.828125 -19.488281 22.421875 -18.960938 21.890625 -18.578125 Z M 27.140625 0 "/></g></g><g style="fill:#396c84;fill-opacity:1;"><g transform="translate(290.797396, 78.869992)"><path style="stroke:none" d=""/></g></g><g style="fill:#396c84;fill-opacity:1;"><g transform="translate(305.55739, 78.869992)"><path style="stroke:none" d="M 27.578125 -8.859375 L 29.734375 -8.859375 L 29.734375 0 L 1.296875 0 L 1.296875 -8.859375 L 15.34375 -8.859375 C 15.195312 -9.140625 15.070312 -9.484375 14.96875 -9.890625 C 14.875 -10.304688 14.828125 -10.753906 14.828125 -11.234375 L 14.828125 -32.1875 C 14.828125 -33.050781 14.679688 -33.625 14.390625 -33.90625 C 14.109375 -34.195312 13.535156 -34.34375 12.671875 -34.34375 L 2.09375 -34.34375 L 2.09375 -43.203125 L 19.078125 -43.203125 C 21.617188 -43.203125 23.40625 -42.632812 24.4375 -41.5 C 25.46875 -40.375 25.984375 -38.445312 25.984375 -35.71875 L 25.984375 -10.65625 C 25.984375 -9.457031 26.515625 -8.859375 27.578125 -8.859375 Z M 27.578125 -8.859375 "/></g></g><g style="fill:#396c84;fill-opacity:1;"><g transform="translate(335.941359, 78.869992)"><path style="stroke:none" d="M 6.40625 0 L 6.40625 -32.765625 C 6.40625 -33.429688 6.296875 -33.859375 6.078125 -34.046875 C 5.867188 -34.242188 5.425781 -34.34375 4.75 -34.34375 L 2.15625 -34.34375 L 2.15625 -43.203125 L 12.75 -43.203125 C 14.519531 -43.203125 15.765625 -42.84375 16.484375 -42.125 C 17.203125 -41.40625 17.5625 -40.179688 17.5625 -38.453125 L 17.5625 0 Z M 6.40625 0 "/></g></g><g style="fill:#396c84;fill-opacity:1;"><g transform="translate(357.469342, 78.869992)"><path style="stroke:none" d="M 32.546875 -43.203125 L 43.34375 -43.203125 L 41.25 -15.34375 C 40.875 -9.820312 39.445312 -5.882812 36.96875 -3.53125 C 34.5 -1.175781 30.625 0 25.34375 0 L 10.9375 0 C 9.070312 0 7.71875 -0.476562 6.875 -1.4375 C 6.03125 -2.394531 5.488281 -3.738281 5.25 -5.46875 L 4.03125 -14.6875 C 3.644531 -17.039062 4.289062 -18.84375 5.96875 -20.09375 L 2.453125 -43.203125 L 13.3125 -43.203125 L 16.265625 -23.6875 L 16.34375 -23.6875 C 17.019531 -23.925781 17.441406 -24.1875 17.609375 -24.46875 C 17.773438 -24.757812 17.859375 -25.289062 17.859375 -26.0625 L 17.859375 -43.203125 L 28.578125 -43.203125 L 28.578125 -23.90625 C 28.578125 -21.789062 28.238281 -20.265625 27.5625 -19.328125 C 26.894531 -18.390625 25.820312 -17.660156 24.34375 -17.140625 L 16.5625 -14.46875 C 15.75 -14.132812 15.253906 -13.832031 15.078125 -13.5625 C 14.910156 -13.300781 14.875 -12.789062 14.96875 -12.03125 L 15.265625 -10.15625 C 15.359375 -9.53125 15.582031 -9.132812 15.9375 -8.96875 C 16.300781 -8.800781 16.84375 -8.71875 17.5625 -8.71875 L 22.390625 -8.71875 C 24.410156 -8.71875 25.984375 -8.894531 27.109375 -9.25 C 28.234375 -9.613281 29.046875 -10.320312 29.546875 -11.375 C 30.054688 -12.425781 30.382812 -13.960938 30.53125 -15.984375 Z M 32.546875 -43.203125 "/></g></g><g style="fill:#396c84;fill-opacity:1;"><g transform="translate(403.333321, 78.869992)"><path style="stroke:none" d="M 6.34375 -18.28125 L 6.34375 -32.765625 C 6.34375 -33.429688 6.234375 -33.859375 6.015625 -34.046875 C 5.796875 -34.242188 5.351562 -34.34375 4.6875 -34.34375 L 1.9375 -34.34375 L 1.9375 -43.203125 L 11.8125 -43.203125 C 13.875 -43.203125 15.320312 -42.78125 16.15625 -41.9375 C 17 -41.101562 17.421875 -39.648438 17.421875 -37.578125 L 17.421875 -18.28125 Z M 6.34375 -18.28125 "/></g></g><g style="fill:#396c84;fill-opacity:1;"><g transform="translate(424.2853, 78.869992)"><path style="stroke:none" d="M 40.25 -43.203125 L 40.25 -34.34375 L 36.140625 -34.34375 C 36.671875 -33.425781 36.9375 -31.695312 36.9375 -29.15625 L 36.9375 0 L 25.78125 0 L 25.78125 -31.109375 C 25.78125 -32.492188 25.671875 -33.378906 25.453125 -33.765625 C 25.234375 -34.148438 24.789062 -34.34375 24.125 -34.34375 L 18.640625 -34.34375 C 18.023438 -34.34375 17.609375 -34.148438 17.390625 -33.765625 C 17.171875 -33.378906 17.0625 -32.492188 17.0625 -31.109375 L 17.0625 0 L 5.90625 0 L 5.90625 -29.15625 C 5.90625 -31.695312 6.171875 -33.425781 6.703125 -34.34375 L 2.59375 -34.34375 L 2.59375 -43.203125 Z M 40.25 -43.203125 "/></g></g><g style="fill:#396c84;fill-opacity:1;"><g transform="translate(467.125293, 78.869992)"><path style="stroke:none" d="M 11.515625 0 C 8.734375 0 6.863281 -0.875 5.90625 -2.625 C 4.945312 -4.375 4.992188 -6.882812 6.046875 -10.15625 L 13.109375 -32.046875 C 13.585938 -33.578125 13.054688 -34.34375 11.515625 -34.34375 L 3.09375 -34.34375 C 2.320312 -34.34375 1.78125 -34.5 1.46875 -34.8125 C 1.164062 -35.125 1.015625 -35.6875 1.015625 -36.5 L 1.015625 -48.953125 L 11.515625 -48.953125 L 11.515625 -43.203125 L 19.21875 -43.203125 C 21.957031 -43.203125 23.863281 -42.300781 24.9375 -40.5 C 26.019531 -38.695312 26.082031 -36.3125 25.125 -33.34375 L 17.5 -10.734375 C 17.300781 -10.203125 17.257812 -9.753906 17.375 -9.390625 C 17.5 -9.035156 17.875 -8.859375 18.5 -8.859375 L 21.671875 -8.859375 L 21.671875 0 Z M 11.515625 0 "/></g></g><g style="fill:#396c84;fill-opacity:1;"><g transform="translate(494.917267, 78.869992)"><path style="stroke:none" d=""/></g></g><g style="fill:#396c84;fill-opacity:1;"><g transform="translate(509.677261, 78.869992)"><path style="stroke:none" d="M 14.40625 -22.609375 C 13.78125 -22.367188 13.414062 -22.03125 13.3125 -21.59375 C 13.21875 -21.164062 13.289062 -20.472656 13.53125 -19.515625 L 16.78125 -9.078125 C 17.59375 -6.484375 17.757812 -4.320312 17.28125 -2.59375 C 16.800781 -0.863281 15.335938 0 12.890625 0 L 2.453125 0 L 2.453125 -8.859375 L 4.75 -8.859375 C 5.375 -8.859375 5.640625 -9.117188 5.546875 -9.640625 L 3.671875 -18.640625 C 3.191406 -20.898438 3.15625 -22.75 3.5625 -24.1875 C 3.96875 -25.632812 4.660156 -26.835938 5.640625 -27.796875 C 6.628906 -28.753906 7.703125 -29.546875 8.859375 -30.171875 L 9.9375 -30.75 L 2.515625 -43.203125 L 13.890625 -43.203125 L 23.96875 -25.0625 C 24.351562 -25.300781 24.617188 -25.597656 24.765625 -25.953125 C 24.910156 -26.316406 24.984375 -26.90625 24.984375 -27.71875 L 24.984375 -43.203125 L 35.640625 -43.203125 L 35.640625 -26.859375 C 35.640625 -24.648438 35.191406 -22.789062 34.296875 -21.28125 C 33.410156 -19.769531 31.863281 -18.335938 29.65625 -16.984375 L 28.65625 -16.34375 L 37.078125 0 L 25.84375 0 L 14.46875 -22.609375 Z M 14.40625 -22.609375 "/></g></g><g style="fill:#396c84;fill-opacity:1;"><g transform="translate(548.269253, 78.869992)"><path style="stroke:none" d="M 34.625 -6.125 C 34.726562 -4.007812 34.285156 -2.457031 33.296875 -1.46875 C 32.316406 -0.488281 30.695312 0 28.4375 0 L 17.859375 0 L 17.859375 -8.859375 L 21.453125 -8.859375 C 22.222656 -8.859375 22.703125 -9.015625 22.890625 -9.328125 C 23.085938 -9.640625 23.160156 -10.15625 23.109375 -10.875 L 22.03125 -30.8125 C 21.976562 -32.207031 21.796875 -33.191406 21.484375 -33.765625 C 21.179688 -34.335938 20.617188 -34.625 19.796875 -34.625 L 19.515625 -34.625 C 18.890625 -34.625 18.441406 -34.441406 18.171875 -34.078125 C 17.910156 -33.722656 17.707031 -32.992188 17.5625 -31.890625 L 13.3125 0 L 1.9375 0 L 5.96875 -27.71875 C 6.40625 -30.738281 7.25 -32.945312 8.5 -34.34375 L 3.171875 -34.34375 L 3.171875 -43.203125 L 23.6875 -43.203125 C 26.425781 -43.203125 28.632812 -42.457031 30.3125 -40.96875 C 31.988281 -39.476562 32.925781 -36.671875 33.125 -32.546875 Z M 34.625 -6.125 "/></g></g><g style="fill:#396c84;fill-opacity:1;"><g transform="translate(585.493218, 78.869992)"><path style="stroke:none" d="M 27.140625 0 L 17.0625 0 L 12.8125 -15.125 C 12.382812 -14.925781 12.097656 -14.707031 11.953125 -14.46875 C 11.804688 -14.226562 11.707031 -13.914062 11.65625 -13.53125 L 10.65625 0 L 0.078125 0 L 2.09375 -16.484375 C 2.28125 -18.023438 2.6875 -19.203125 3.3125 -20.015625 C 3.9375 -20.828125 4.894531 -21.5 6.1875 -22.03125 L 10.734375 -23.90625 C 11.492188 -24.238281 12.066406 -24.679688 12.453125 -25.234375 C 12.835938 -25.785156 13.03125 -26.585938 13.03125 -27.640625 L 13.03125 -32.40625 C 13.03125 -33.21875 12.910156 -33.742188 12.671875 -33.984375 C 12.429688 -34.222656 11.90625 -34.34375 11.09375 -34.34375 L 5.90625 -34.34375 L 5.90625 -43.203125 L 17.421875 -43.203125 C 19.535156 -43.203125 21.082031 -42.660156 22.0625 -41.578125 C 23.050781 -40.492188 23.546875 -38.753906 23.546875 -36.359375 L 23.546875 -22.828125 C 23.546875 -21.722656 23.398438 -20.832031 23.109375 -20.15625 C 22.828125 -19.488281 22.421875 -18.960938 21.890625 -18.578125 Z M 27.140625 0 "/></g></g><g style="fill:#396c84;fill-opacity:1;"><g transform="translate(613.573217, 78.869992)"><path style="stroke:none" d="M 6.40625 0 L 6.40625 -32.765625 C 6.40625 -33.429688 6.296875 -33.859375 6.078125 -34.046875 C 5.867188 -34.242188 5.425781 -34.34375 4.75 -34.34375 L 2.15625 -34.34375 L 2.15625 -43.203125 L 12.75 -43.203125 C 14.519531 -43.203125 15.765625 -42.84375 16.484375 -42.125 C 17.203125 -41.40625 17.5625 -40.179688 17.5625 -38.453125 L 17.5625 0 Z M 6.40625 0 "/></g></g><g style="fill:#396c84;fill-opacity:1;"><g transform="translate(635.1012, 78.869992)"><path style="stroke:none" d="M 1.015625 -43.203125 L 27.5 -43.203125 L 27.5 -34.34375 L 26.0625 -34.34375 C 24.570312 -34.34375 23.828125 -33.359375 23.828125 -31.390625 L 23.828125 0 L 13.3125 0 L 13.3125 -29.734375 C 13.3125 -31.753906 13.625 -33.289062 14.25 -34.34375 L 1.015625 -34.34375 Z M 1.015625 -43.203125 "/></g></g><path style="fill:none;stroke-width:8;stroke-linecap:round;stroke-linejoin:miter;stroke:#396c84;stroke-opacity:1;stroke-miterlimit:4;" d="M 3.998569 4.000179 L 833.040306 4.000179 " transform="matrix(0.75,0,0,0.75,42.833104,97.18346)"/></g></svg>