<svg xmlns="http://www.w3.org/2000/svg" xmlns:xlink="http://www.w3.org/1999/xlink" width="1188" zoomAndPan="magnify" viewBox="0 0 890.88 231" height="308" preserveAspectRatio="xMidYMid meet" version="1.2"><defs><clipPath id="a325456565"><path d="M 28.472656 3.488281 L 571.226562 3.488281 L 571.226562 114.144531 L 28.472656 114.144531 Z M 28.472656 3.488281 "/></clipPath><clipPath id="2414de16c7"><path d="M 276.832031 3.488281 L 819.585938 3.488281 L 819.585938 114.144531 L 276.832031 114.144531 Z M 276.832031 3.488281 "/></clipPath></defs><g id="fe6bae209d"><g style="fill:#396c84;fill-opacity:1;"><g transform="translate(151.714073, 192.990623)"><path style="stroke:none" d="M 22.296875 0 L 22.296875 -31.734375 C 22.296875 -32.585938 22.140625 -33.15625 21.828125 -33.4375 C 21.523438 -33.71875 20.945312 -33.859375 20.09375 -33.859375 L 3.6875 -33.859375 L 3.6875 -42.59375 L 26.84375 -42.59375 C 29.207031 -42.59375 30.875 -42.035156 31.84375 -40.921875 C 32.8125 -39.816406 33.296875 -37.914062 33.296875 -35.21875 L 33.296875 0 Z M 7.3125 0 C 4.894531 0 3.6875 -1.226562 3.6875 -3.6875 L 3.6875 -26.546875 L 14.703125 -26.546875 L 14.703125 -10.078125 C 14.703125 -9.179688 15.054688 -8.734375 15.765625 -8.734375 L 16.6875 -8.734375 L 16.6875 0 Z M 7.3125 0 "/></g></g><g style="fill:#396c84;fill-opacity:1;"><g transform="translate(188.908963, 192.990623)"><path style="stroke:none" d="M 0.21875 0 L 0.21875 -8.734375 L 6.109375 -8.734375 C 7.097656 -8.734375 7.757812 -8.898438 8.09375 -9.234375 C 8.425781 -9.566406 8.59375 -10.25 8.59375 -11.28125 L 8.59375 -31.734375 C 8.59375 -32.585938 8.445312 -33.15625 8.15625 -33.4375 C 7.875 -33.71875 7.332031 -33.859375 6.53125 -33.859375 L 4.046875 -33.859375 L 4.046875 -42.59375 L 13.0625 -42.59375 C 15.425781 -42.59375 17.101562 -42.0625 18.09375 -41 C 19.09375 -39.9375 19.59375 -38.148438 19.59375 -35.640625 L 19.59375 -7.09375 C 19.59375 -4.488281 19.082031 -2.65625 18.0625 -1.59375 C 17.050781 -0.53125 15.335938 0 12.921875 0 Z M 0.21875 0 "/></g></g><g style="fill:#396c84;fill-opacity:1;"><g transform="translate(212.049289, 192.990623)"><path style="stroke:none" d="M 27.1875 -8.734375 L 29.328125 -8.734375 L 29.328125 0 L 1.28125 0 L 1.28125 -8.734375 L 15.125 -8.734375 C 14.976562 -9.015625 14.859375 -9.351562 14.765625 -9.75 C 14.671875 -10.15625 14.625 -10.597656 14.625 -11.078125 L 14.625 -31.734375 C 14.625 -32.585938 14.484375 -33.15625 14.203125 -33.4375 C 13.921875 -33.71875 13.351562 -33.859375 12.5 -33.859375 L 2.0625 -33.859375 L 2.0625 -42.59375 L 18.8125 -42.59375 C 21.320312 -42.59375 23.082031 -42.035156 24.09375 -40.921875 C 25.113281 -39.816406 25.625 -37.914062 25.625 -35.21875 L 25.625 -10.515625 C 25.625 -9.328125 26.144531 -8.734375 27.1875 -8.734375 Z M 27.1875 -8.734375 "/></g></g><g style="fill:#396c84;fill-opacity:1;"><g transform="translate(242.003951, 192.990623)"><path style="stroke:none" d="M 34.15625 -6.03125 C 34.25 -3.945312 33.804688 -2.421875 32.828125 -1.453125 C 31.859375 -0.484375 30.265625 0 28.046875 0 L 17.609375 0 L 17.609375 -8.734375 L 21.15625 -8.734375 C 21.914062 -8.734375 22.390625 -8.882812 22.578125 -9.1875 C 22.765625 -9.5 22.835938 -10.007812 22.796875 -10.71875 L 21.71875 -30.390625 C 21.675781 -31.765625 21.5 -32.734375 21.1875 -33.296875 C 20.882812 -33.867188 20.332031 -34.15625 19.53125 -34.15625 L 19.234375 -34.15625 C 18.617188 -34.15625 18.179688 -33.976562 17.921875 -33.625 C 17.660156 -33.269531 17.460938 -32.546875 17.328125 -31.453125 L 13.140625 0 L 1.921875 0 L 5.890625 -27.328125 C 6.316406 -30.316406 7.144531 -32.492188 8.375 -33.859375 L 3.125 -33.859375 L 3.125 -42.59375 L 23.359375 -42.59375 C 26.054688 -42.59375 28.234375 -41.859375 29.890625 -40.390625 C 31.546875 -38.929688 32.46875 -36.164062 32.65625 -32.09375 Z M 34.15625 -6.03125 "/></g></g><g style="fill:#396c84;fill-opacity:1;"><g transform="translate(278.70196, 192.990623)"><path style="stroke:none" d="M 27.1875 -8.734375 L 29.328125 -8.734375 L 29.328125 0 L 1.28125 0 L 1.28125 -8.734375 L 15.125 -8.734375 C 14.976562 -9.015625 14.859375 -9.351562 14.765625 -9.75 C 14.671875 -10.15625 14.625 -10.597656 14.625 -11.078125 L 14.625 -31.734375 C 14.625 -32.585938 14.484375 -33.15625 14.203125 -33.4375 C 13.921875 -33.71875 13.351562 -33.859375 12.5 -33.859375 L 2.0625 -33.859375 L 2.0625 -42.59375 L 18.8125 -42.59375 C 21.320312 -42.59375 23.082031 -42.035156 24.09375 -40.921875 C 25.113281 -39.816406 25.625 -37.914062 25.625 -35.21875 L 25.625 -10.515625 C 25.625 -9.328125 26.144531 -8.734375 27.1875 -8.734375 Z M 27.1875 -8.734375 "/></g></g><g style="fill:#396c84;fill-opacity:1;"><g transform="translate(308.656622, 192.990623)"><path style="stroke:none" d=""/></g></g><g style="fill:#396c84;fill-opacity:1;"><g transform="translate(323.208056, 192.990623)"><path style="stroke:none" d="M 29.53125 -42.59375 C 31.613281 -42.59375 33.101562 -42.144531 34 -41.25 C 34.90625 -40.351562 35.359375 -38.835938 35.359375 -36.703125 L 35.359375 -2.625 C 35.359375 -1.675781 35.15625 -1 34.75 -0.59375 C 34.351562 -0.195312 33.679688 0 32.734375 0 L 8.09375 0 C 7.144531 0 6.46875 -0.195312 6.0625 -0.59375 C 5.664062 -1 5.46875 -1.675781 5.46875 -2.625 L 5.46875 -29.328125 C 5.46875 -31.453125 5.820312 -32.960938 6.53125 -33.859375 L 2.5625 -33.859375 L 2.5625 -42.59375 Z M 24.640625 -9.296875 L 24.640625 -31.734375 C 24.640625 -32.679688 24.492188 -33.320312 24.203125 -33.65625 C 23.921875 -33.988281 23.351562 -34.15625 22.5 -34.15625 L 18.25 -34.15625 C 17.394531 -34.15625 16.835938 -33.941406 16.578125 -33.515625 C 16.316406 -33.085938 16.1875 -32.375 16.1875 -31.375 L 16.1875 -9.296875 C 16.1875 -8.960938 16.242188 -8.738281 16.359375 -8.625 C 16.484375 -8.507812 16.710938 -8.453125 17.046875 -8.453125 L 23.78125 -8.453125 C 24.164062 -8.453125 24.40625 -8.507812 24.5 -8.625 C 24.59375 -8.738281 24.640625 -8.960938 24.640625 -9.296875 Z M 24.640625 -9.296875 "/></g></g><g style="fill:#396c84;fill-opacity:1;"><g transform="translate(362.461449, 192.990623)"><path style="stroke:none" d="M 6.25 -18.03125 L 6.25 -32.3125 C 6.25 -32.96875 6.140625 -33.390625 5.921875 -33.578125 C 5.710938 -33.765625 5.273438 -33.859375 4.609375 -33.859375 L 1.921875 -33.859375 L 1.921875 -42.59375 L 11.640625 -42.59375 C 13.679688 -42.59375 15.113281 -42.175781 15.9375 -41.34375 C 16.769531 -40.519531 17.1875 -39.09375 17.1875 -37.0625 L 17.1875 -18.03125 Z M 6.25 -18.03125 "/></g></g><g style="fill:#396c84;fill-opacity:1;"><g transform="translate(383.11738, 192.990623)"><path style="stroke:none" d="M 6.25 -18.03125 L 6.25 -32.3125 C 6.25 -32.96875 6.140625 -33.390625 5.921875 -33.578125 C 5.710938 -33.765625 5.273438 -33.859375 4.609375 -33.859375 L 1.921875 -33.859375 L 1.921875 -42.59375 L 11.640625 -42.59375 C 13.679688 -42.59375 15.113281 -42.175781 15.9375 -41.34375 C 16.769531 -40.519531 17.1875 -39.09375 17.1875 -37.0625 L 17.1875 -18.03125 Z M 6.25 -18.03125 "/></g></g><g style="fill:#396c84;fill-opacity:1;"><g transform="translate(403.773311, 192.990623)"><path style="stroke:none" d="M 0.21875 0 L 0.21875 -8.734375 L 6.109375 -8.734375 C 7.097656 -8.734375 7.757812 -8.898438 8.09375 -9.234375 C 8.425781 -9.566406 8.59375 -10.25 8.59375 -11.28125 L 8.59375 -31.734375 C 8.59375 -32.585938 8.445312 -33.15625 8.15625 -33.4375 C 7.875 -33.71875 7.332031 -33.859375 6.53125 -33.859375 L 4.046875 -33.859375 L 4.046875 -42.59375 L 13.0625 -42.59375 C 15.425781 -42.59375 17.101562 -42.0625 18.09375 -41 C 19.09375 -39.9375 19.59375 -38.148438 19.59375 -35.640625 L 19.59375 -7.09375 C 19.59375 -4.488281 19.082031 -2.65625 18.0625 -1.59375 C 17.050781 -0.53125 15.335938 0 12.921875 0 Z M 0.21875 0 "/></g></g><g style="fill:#396c84;fill-opacity:1;"><g transform="translate(426.913648, 192.990623)"><path style="stroke:none" d="M 6.3125 0 L 6.3125 -32.3125 C 6.3125 -32.96875 6.207031 -33.390625 6 -33.578125 C 5.789062 -33.765625 5.351562 -33.859375 4.6875 -33.859375 L 2.125 -33.859375 L 2.125 -42.59375 L 12.5625 -42.59375 C 14.3125 -42.59375 15.539062 -42.238281 16.25 -41.53125 C 16.96875 -40.820312 17.328125 -39.613281 17.328125 -37.90625 L 17.328125 0 Z M 6.3125 0 "/></g></g><g style="fill:#396c84;fill-opacity:1;"><g transform="translate(448.137451, 192.990623)"><path style="stroke:none" d="M 29.46875 -16.546875 L 31.375 -7.453125 C 31.851562 -5.273438 31.617188 -3.488281 30.671875 -2.09375 C 29.722656 -0.695312 28.066406 0 25.703125 0 L 1.640625 0 L 1.640625 -8.734375 L 18.109375 -8.734375 C 18.765625 -8.734375 19.222656 -8.910156 19.484375 -9.265625 C 19.742188 -9.617188 19.757812 -10.390625 19.53125 -11.578125 L 19.03125 -13.703125 C 18.882812 -14.503906 18.609375 -15.128906 18.203125 -15.578125 C 17.804688 -16.035156 17.253906 -16.425781 16.546875 -16.75 L 9.15625 -20.3125 C 8.300781 -20.6875 7.648438 -21.117188 7.203125 -21.609375 C 6.753906 -22.109375 6.410156 -22.859375 6.171875 -23.859375 L 1.5625 -42.59375 L 12.703125 -42.59375 L 16.546875 -27.046875 L 20.375 -42.59375 L 31.671875 -42.59375 L 25.984375 -20.734375 C 26.878906 -20.304688 27.632812 -19.769531 28.25 -19.125 C 28.875 -18.488281 29.28125 -17.628906 29.46875 -16.546875 Z M 29.46875 -16.546875 "/></g></g><g style="fill:#396c84;fill-opacity:1;"><g transform="translate(482.776979, 192.990623)"><path style="stroke:none" d="M 6.25 -18.03125 L 6.25 -32.3125 C 6.25 -32.96875 6.140625 -33.390625 5.921875 -33.578125 C 5.710938 -33.765625 5.273438 -33.859375 4.609375 -33.859375 L 1.921875 -33.859375 L 1.921875 -42.59375 L 11.640625 -42.59375 C 13.679688 -42.59375 15.113281 -42.175781 15.9375 -41.34375 C 16.769531 -40.519531 17.1875 -39.09375 17.1875 -37.0625 L 17.1875 -18.03125 Z M 6.25 -18.03125 "/></g></g><g style="fill:#396c84;fill-opacity:1;"><g transform="translate(503.43291, 192.990623)"><path style="stroke:none" d="M 39.6875 -42.59375 L 39.6875 -33.859375 L 35.640625 -33.859375 C 36.160156 -32.960938 36.421875 -31.257812 36.421875 -28.75 L 36.421875 0 L 25.421875 0 L 25.421875 -30.671875 C 25.421875 -32.046875 25.3125 -32.921875 25.09375 -33.296875 C 24.882812 -33.671875 24.445312 -33.859375 23.78125 -33.859375 L 18.390625 -33.859375 C 17.773438 -33.859375 17.359375 -33.671875 17.140625 -33.296875 C 16.929688 -32.921875 16.828125 -32.046875 16.828125 -30.671875 L 16.828125 0 L 5.828125 0 L 5.828125 -28.75 C 5.828125 -31.257812 6.085938 -32.960938 6.609375 -33.859375 L 2.5625 -33.859375 L 2.5625 -42.59375 Z M 39.6875 -42.59375 "/></g></g><g style="fill:#396c84;fill-opacity:1;"><g transform="translate(545.667568, 192.990623)"><path style="stroke:none" d=""/></g></g><g style="fill:#396c84;fill-opacity:1;"><g transform="translate(560.218967, 192.990623)"><path style="stroke:none" d="M 29.53125 -42.59375 C 31.613281 -42.59375 33.101562 -42.144531 34 -41.25 C 34.90625 -40.351562 35.359375 -38.835938 35.359375 -36.703125 L 35.359375 -2.625 C 35.359375 -1.675781 35.15625 -1 34.75 -0.59375 C 34.351562 -0.195312 33.679688 0 32.734375 0 L 8.09375 0 C 7.144531 0 6.46875 -0.195312 6.0625 -0.59375 C 5.664062 -1 5.46875 -1.675781 5.46875 -2.625 L 5.46875 -29.328125 C 5.46875 -31.453125 5.820312 -32.960938 6.53125 -33.859375 L 2.5625 -33.859375 L 2.5625 -42.59375 Z M 24.640625 -9.296875 L 24.640625 -31.734375 C 24.640625 -32.679688 24.492188 -33.320312 24.203125 -33.65625 C 23.921875 -33.988281 23.351562 -34.15625 22.5 -34.15625 L 18.25 -34.15625 C 17.394531 -34.15625 16.835938 -33.941406 16.578125 -33.515625 C 16.316406 -33.085938 16.1875 -32.375 16.1875 -31.375 L 16.1875 -9.296875 C 16.1875 -8.960938 16.242188 -8.738281 16.359375 -8.625 C 16.484375 -8.507812 16.710938 -8.453125 17.046875 -8.453125 L 23.78125 -8.453125 C 24.164062 -8.453125 24.40625 -8.507812 24.5 -8.625 C 24.59375 -8.738281 24.640625 -8.960938 24.640625 -9.296875 Z M 24.640625 -9.296875 "/></g></g><g style="fill:#396c84;fill-opacity:1;"><g transform="translate(599.472361, 192.990623)"><path style="stroke:none" d="M 6.25 -18.03125 L 6.25 -32.3125 C 6.25 -32.96875 6.140625 -33.390625 5.921875 -33.578125 C 5.710938 -33.765625 5.273438 -33.859375 4.609375 -33.859375 L 1.921875 -33.859375 L 1.921875 -42.59375 L 11.640625 -42.59375 C 13.679688 -42.59375 15.113281 -42.175781 15.9375 -41.34375 C 16.769531 -40.519531 17.1875 -39.09375 17.1875 -37.0625 L 17.1875 -18.03125 Z M 6.25 -18.03125 "/></g></g><g style="fill:#396c84;fill-opacity:1;"><g transform="translate(620.128315, 192.990623)"><path style="stroke:none" d="M 39.6875 -42.59375 L 39.6875 -33.859375 L 35.640625 -33.859375 C 36.160156 -32.960938 36.421875 -31.257812 36.421875 -28.75 L 36.421875 0 L 25.421875 0 L 25.421875 -30.671875 C 25.421875 -32.046875 25.3125 -32.921875 25.09375 -33.296875 C 24.882812 -33.671875 24.445312 -33.859375 23.78125 -33.859375 L 18.390625 -33.859375 C 17.773438 -33.859375 17.359375 -33.671875 17.140625 -33.296875 C 16.929688 -32.921875 16.828125 -32.046875 16.828125 -30.671875 L 16.828125 0 L 5.828125 0 L 5.828125 -28.75 C 5.828125 -31.257812 6.085938 -32.960938 6.609375 -33.859375 L 2.5625 -33.859375 L 2.5625 -42.59375 Z M 39.6875 -42.59375 "/></g></g><g style="fill:#396c84;fill-opacity:1;"><g transform="translate(662.362951, 192.990623)"><path style="stroke:none" d="M 27.96875 -42.59375 C 30.625 -42.59375 32.503906 -42.035156 33.609375 -40.921875 C 34.722656 -39.816406 35.28125 -37.914062 35.28125 -35.21875 L 35.28125 0 L 24.28125 0 L 24.28125 -31.453125 C 24.28125 -32.398438 24.113281 -33.085938 23.78125 -33.515625 C 23.445312 -33.941406 22.832031 -34.15625 21.9375 -34.15625 L 20.015625 -34.15625 C 18.410156 -34.15625 17.300781 -33.65625 16.6875 -32.65625 C 16.070312 -31.664062 16.046875 -29.582031 16.609375 -26.40625 L 19.171875 -11.5 C 19.878906 -7.625 19.664062 -4.738281 18.53125 -2.84375 C 17.394531 -0.945312 15.097656 0 11.640625 0 L 2.203125 0 L 2.203125 -8.734375 L 6.390625 -8.734375 C 7.054688 -8.734375 7.566406 -8.921875 7.921875 -9.296875 C 8.273438 -9.679688 8.378906 -10.394531 8.234375 -11.4375 L 5.890625 -24.984375 C 5.421875 -27.640625 5.347656 -29.640625 5.671875 -30.984375 C 6.003906 -32.335938 6.429688 -33.296875 6.953125 -33.859375 L 2.34375 -33.859375 L 2.34375 -42.59375 Z M 27.96875 -42.59375 "/></g></g><g style="fill:#396c84;fill-opacity:1;"><g transform="translate(701.616344, 192.990623)"><path style="stroke:none" d="M 3.265625 0 L 3.265625 -8.734375 L 19.953125 -8.734375 C 21.648438 -8.734375 22.5 -9.5625 22.5 -11.21875 L 22.5 -31.875 C 22.5 -32.78125 22.414062 -33.382812 22.25 -33.6875 C 22.09375 -34 21.515625 -34.15625 20.515625 -34.15625 L 17.1875 -34.15625 C 16.238281 -34.15625 15.609375 -34 15.296875 -33.6875 C 14.992188 -33.382812 14.796875 -32.78125 14.703125 -31.875 L 13.921875 -25.625 C 13.867188 -24.96875 13.9375 -24.507812 14.125 -24.25 C 14.3125 -23.988281 14.738281 -23.859375 15.40625 -23.859375 L 18.03125 -23.859375 L 18.03125 -15.34375 L 8.015625 -15.34375 C 5.890625 -15.34375 4.390625 -15.828125 3.515625 -16.796875 C 2.640625 -17.765625 2.320312 -19.289062 2.5625 -21.375 L 4.328125 -36.5 C 4.566406 -38.625 5.21875 -40.171875 6.28125 -41.140625 C 7.34375 -42.109375 8.914062 -42.59375 11 -42.59375 L 26.40625 -42.59375 C 29.007812 -42.59375 30.84375 -42.0625 31.90625 -41 C 32.976562 -39.9375 33.515625 -38.078125 33.515625 -35.421875 L 33.515625 -7.09375 C 33.515625 -4.488281 32.976562 -2.65625 31.90625 -1.59375 C 30.84375 -0.53125 29.007812 0 26.40625 0 Z M 3.265625 0 "/></g></g><g clip-rule="nonzero" clip-path="url(#a325456565)"><path style=" stroke:none;fill-rule:nonzero;fill:#e0f5ff;fill-opacity:1;" d="M 571.054688 24.929688 L 558.84375 101.804688 C 557.792969 108.40625 552.070312 113.234375 545.390625 113.164062 L 503.300781 112.699219 L 449.570312 112.117188 L 288.410156 110.355469 L 234.695312 109.773438 L 187.101562 109.191406 L 133.441406 108.597656 L 30.308594 114.144531 C 29.234375 114.191406 28.367188 113.253906 28.484375 112.179688 L 28.984375 107.605469 L 30.417969 94.761719 C 30.441406 94.511719 30.523438 94.277344 30.640625 94.0625 L 33.933594 88.433594 C 34.195312 87.972656 34.242188 87.414062 34.066406 86.917969 L 32.074219 81.539062 C 31.980469 81.277344 31.945312 81.007812 31.980469 80.734375 L 32.667969 74.539062 L 34.136719 61.304688 L 34.871094 54.679688 L 35.605469 48.070312 L 37.074219 34.847656 L 37.808594 28.222656 L 38.507812 21.996094 C 38.53125 21.746094 38.613281 21.496094 38.746094 21.28125 L 43.28125 13.605469 C 43.699219 12.917969 43.589844 12.027344 43.023438 11.464844 C 42.667969 11.09375 42.515625 10.65625 42.515625 10.230469 C 42.515625 9.304688 43.238281 8.417969 44.3125 8.425781 L 47.464844 9.03125 L 211.945312 3.488281 L 255.472656 4.152344 L 319.746094 4.839844 L 376.011719 5.464844 L 436.277344 6.117188 L 496.535156 6.769531 L 558.3125 9.359375 C 566.363281 9.695312 572.316406 16.976562 571.054688 24.929688 "/></g><g clip-rule="nonzero" clip-path="url(#2414de16c7)"><path style=" stroke:none;fill-rule:nonzero;fill:#e0f5ff;fill-opacity:1;" d="M 819.410156 24.929688 L 807.203125 101.804688 C 806.152344 108.40625 800.425781 113.234375 793.746094 113.164062 L 751.660156 112.699219 L 697.929688 112.117188 L 536.765625 110.355469 L 483.050781 109.773438 L 435.457031 109.191406 L 381.800781 108.597656 L 278.667969 114.144531 C 277.589844 114.191406 276.726562 113.253906 276.84375 112.179688 L 277.339844 107.605469 L 278.773438 94.761719 C 278.800781 94.511719 278.882812 94.277344 279 94.0625 L 282.292969 88.433594 C 282.554688 87.972656 282.601562 87.414062 282.421875 86.917969 L 280.433594 81.539062 C 280.335938 81.277344 280.300781 81.007812 280.335938 80.734375 L 281.023438 74.539062 L 282.492188 61.304688 L 283.230469 54.679688 L 283.964844 48.070312 L 285.433594 34.847656 L 286.167969 28.222656 L 286.867188 21.996094 C 286.886719 21.746094 286.972656 21.496094 287.101562 21.28125 L 291.640625 13.605469 C 292.054688 12.917969 291.949219 12.027344 291.378906 11.464844 C 291.027344 11.09375 290.871094 10.65625 290.871094 10.230469 C 290.871094 9.304688 291.59375 8.417969 292.671875 8.425781 L 295.820312 9.03125 L 460.300781 3.488281 L 503.832031 4.152344 L 568.105469 4.839844 L 624.371094 5.464844 L 684.636719 6.117188 L 744.894531 6.769531 L 806.671875 9.359375 C 814.71875 9.695312 820.675781 16.976562 819.410156 24.929688 "/></g><g style="fill:#396c84;fill-opacity:1;"><g transform="translate(98.06673, 100.448187)"><path style="stroke:none" d="M 29.75 -37.84375 C 32.445312 -35.757812 34.773438 -33.015625 36.734375 -29.609375 C 38.691406 -26.210938 39.671875 -21.578125 39.671875 -15.703125 C 39.671875 -9.953125 38.140625 -5.773438 35.078125 -3.171875 C 32.015625 -0.566406 27.117188 0.734375 20.390625 0.734375 C 13.898438 0.734375 9.15625 -0.703125 6.15625 -3.578125 C 3.15625 -6.460938 1.6875 -11.054688 1.75 -17.359375 L 15.796875 -17.359375 C 15.796875 -14.722656 16.175781 -12.789062 16.9375 -11.5625 C 17.707031 -10.34375 18.859375 -9.734375 20.390625 -9.734375 C 22.160156 -9.734375 23.441406 -10.207031 24.234375 -11.15625 C 25.035156 -12.101562 25.4375 -13.617188 25.4375 -15.703125 C 25.4375 -19.992188 24.992188 -23.238281 24.109375 -25.4375 C 23.222656 -27.644531 21.984375 -29.421875 20.390625 -30.765625 L 14.875 -27 L 7.984375 -35.640625 C 10.742188 -37.773438 12.960938 -39.515625 14.640625 -40.859375 C 16.328125 -42.210938 17.566406 -43.347656 18.359375 -44.265625 C 19.160156 -45.179688 19.625 -46.070312 19.75 -46.9375 C 19.925781 -47.976562 19.4375 -48.5 18.28125 -48.5 L 1.921875 -48.5 L 1.921875 -59.796875 L 34.25 -59.796875 C 36.03125 -59.796875 37.253906 -59.441406 37.921875 -58.734375 C 38.597656 -58.023438 38.9375 -56.816406 38.9375 -55.109375 C 38.9375 -51.679688 38.265625 -48.664062 36.921875 -46.0625 C 35.578125 -43.457031 33.1875 -40.71875 29.75 -37.84375 Z M 29.75 -37.84375 "/></g></g><g style="fill:#396c84;fill-opacity:1;"><g transform="translate(139.956342, 100.448187)"><path style="stroke:none" d=""/></g></g><g style="fill:#396c84;fill-opacity:1;"><g transform="translate(158.783378, 100.448187)"><path style="stroke:none" d="M 42.984375 -55.109375 C 45.679688 -55.109375 47.488281 -54.1875 48.40625 -52.34375 C 49.320312 -50.507812 49.472656 -48.242188 48.859375 -45.546875 L 39.5 0 L 25.078125 0 L 33.15625 -41.609375 C 33.34375 -42.648438 33.375 -43.335938 33.25 -43.671875 C 33.125 -44.003906 32.539062 -44.171875 31.5 -44.171875 L 24.25 -44.171875 C 23.507812 -44.171875 22.925781 -44.078125 22.5 -43.890625 C 22.070312 -43.710938 21.859375 -43.007812 21.859375 -41.78125 L 21.859375 2.203125 C 21.859375 2.941406 22.226562 3.3125 22.96875 3.3125 L 25.171875 3.3125 L 25.171875 14.046875 L 12.671875 14.046875 C 9.304688 14.046875 7.625 12.363281 7.625 9 L 7.625 -40.046875 C 7.625 -41.878906 7.960938 -43.132812 8.640625 -43.8125 L 3.3125 -43.8125 L 3.3125 -55.109375 Z M 42.984375 -55.109375 "/></g></g><g style="fill:#396c84;fill-opacity:1;"><g transform="translate(210.580674, 100.448187)"><path style="stroke:none" d="M 17.546875 0 L 17.546875 -40.5 C 17.546875 -42.707031 16.441406 -43.8125 14.234375 -43.8125 L 1.28125 -43.8125 L 1.28125 -55.109375 L 22.5 -55.109375 C 25.925781 -55.109375 28.328125 -54.398438 29.703125 -52.984375 C 31.085938 -51.578125 31.78125 -49.191406 31.78125 -45.828125 L 31.78125 0 Z M 17.546875 0 "/></g></g><g style="fill:#396c84;fill-opacity:1;"><g transform="translate(247.408191, 100.448187)"><path style="stroke:none" d="M 4.21875 0 L 4.21875 -11.296875 L 25.8125 -11.296875 C 28.007812 -11.296875 29.109375 -12.367188 29.109375 -14.515625 L 29.109375 -41.234375 C 29.109375 -42.398438 29 -43.179688 28.78125 -43.578125 C 28.570312 -43.972656 27.828125 -44.171875 26.546875 -44.171875 L 22.21875 -44.171875 C 21 -44.171875 20.191406 -43.972656 19.796875 -43.578125 C 19.398438 -43.179688 19.140625 -42.398438 19.015625 -41.234375 L 18 -33.15625 C 17.9375 -32.300781 18.023438 -31.703125 18.265625 -31.359375 C 18.515625 -31.023438 19.070312 -30.859375 19.9375 -30.859375 L 23.328125 -30.859375 L 23.328125 -19.84375 L 10.375 -19.84375 C 7.625 -19.84375 5.679688 -20.46875 4.546875 -21.71875 C 3.410156 -22.976562 3 -24.953125 3.3125 -27.640625 L 5.609375 -47.203125 C 5.910156 -49.960938 6.75 -51.96875 8.125 -53.21875 C 9.5 -54.476562 11.535156 -55.109375 14.234375 -55.109375 L 34.171875 -55.109375 C 37.535156 -55.109375 39.90625 -54.414062 41.28125 -53.03125 C 42.65625 -51.65625 43.34375 -49.253906 43.34375 -45.828125 L 43.34375 -9.1875 C 43.34375 -5.820312 42.65625 -3.445312 41.28125 -2.0625 C 39.90625 -0.6875 37.535156 0 34.171875 0 Z M 4.21875 0 "/></g></g><g style="fill:#396c84;fill-opacity:1;"><g transform="translate(295.44008, 100.448187)"><path style="stroke:none" d=""/></g></g><g style="fill:#396c84;fill-opacity:1;"><g transform="translate(314.267116, 100.448187)"><path style="stroke:none" d="M 36.1875 -55.109375 C 39.613281 -55.109375 42.046875 -54.390625 43.484375 -52.953125 C 44.921875 -51.515625 45.640625 -49.046875 45.640625 -45.546875 L 45.640625 0 L 31.40625 0 L 31.40625 -40.6875 C 31.40625 -41.914062 31.191406 -42.800781 30.765625 -43.34375 C 30.335938 -43.894531 29.539062 -44.171875 28.375 -44.171875 L 25.90625 -44.171875 C 23.820312 -44.171875 22.378906 -43.523438 21.578125 -42.234375 C 20.785156 -40.953125 20.753906 -38.265625 21.484375 -34.171875 L 24.796875 -14.875 C 25.710938 -9.851562 25.4375 -6.117188 23.96875 -3.671875 C 22.5 -1.222656 19.53125 0 15.0625 0 L 2.84375 0 L 2.84375 -11.296875 L 8.265625 -11.296875 C 9.117188 -11.296875 9.773438 -11.539062 10.234375 -12.03125 C 10.691406 -12.519531 10.832031 -13.4375 10.65625 -14.78125 L 7.625 -32.328125 C 7.007812 -35.753906 6.914062 -38.335938 7.34375 -40.078125 C 7.769531 -41.828125 8.320312 -43.070312 9 -43.8125 L 3.03125 -43.8125 L 3.03125 -55.109375 Z M 36.1875 -55.109375 "/></g></g><g style="fill:#396c84;fill-opacity:1;"><g transform="translate(365.054198, 100.448187)"><path style="stroke:none" d="M 18.375 -28.84375 C 17.570312 -28.53125 17.109375 -28.097656 16.984375 -27.546875 C 16.867188 -26.992188 16.960938 -26.109375 17.265625 -24.890625 L 21.40625 -11.578125 C 22.445312 -8.265625 22.660156 -5.503906 22.046875 -3.296875 C 21.429688 -1.097656 19.5625 0 16.4375 0 L 3.125 0 L 3.125 -11.296875 L 6.0625 -11.296875 C 6.851562 -11.296875 7.191406 -11.632812 7.078125 -12.3125 L 4.6875 -23.78125 C 4.070312 -26.664062 4.023438 -29.023438 4.546875 -30.859375 C 5.066406 -32.691406 5.953125 -34.21875 7.203125 -35.4375 C 8.460938 -36.664062 9.828125 -37.679688 11.296875 -38.484375 L 12.671875 -39.21875 L 3.21875 -55.109375 L 17.71875 -55.109375 L 30.578125 -31.96875 C 31.066406 -32.269531 31.40625 -32.648438 31.59375 -33.109375 C 31.78125 -33.566406 31.875 -34.316406 31.875 -35.359375 L 31.875 -55.109375 L 45.46875 -55.109375 L 45.46875 -34.25 C 45.46875 -31.4375 44.898438 -29.066406 43.765625 -27.140625 C 42.628906 -25.210938 40.65625 -23.390625 37.84375 -21.671875 L 36.546875 -20.84375 L 47.296875 0 L 32.96875 0 L 18.453125 -28.84375 Z M 18.375 -28.84375 "/></g></g><g style="fill:#396c84;fill-opacity:1;"><g transform="translate(414.279987, 100.448187)"><path style="stroke:none" d=""/></g></g><g style="fill:#396c84;fill-opacity:1;"><g transform="translate(433.107022, 100.448187)"><path style="stroke:none" d="M 14.6875 0 C 11.144531 0 8.757812 -1.113281 7.53125 -3.34375 C 6.300781 -5.582031 6.363281 -8.785156 7.71875 -12.953125 L 16.71875 -40.875 C 17.332031 -42.832031 16.65625 -43.8125 14.6875 -43.8125 L 3.953125 -43.8125 C 2.972656 -43.8125 2.28125 -44.007812 1.875 -44.40625 C 1.476562 -44.800781 1.28125 -45.519531 1.28125 -46.5625 L 1.28125 -62.453125 L 14.6875 -62.453125 L 14.6875 -55.109375 L 24.515625 -55.109375 C 28.003906 -55.109375 30.4375 -53.957031 31.8125 -51.65625 C 33.195312 -49.363281 33.273438 -46.320312 32.046875 -42.53125 L 22.3125 -13.6875 C 22.070312 -13.007812 22.023438 -12.441406 22.171875 -11.984375 C 22.328125 -11.523438 22.804688 -11.296875 23.609375 -11.296875 L 27.640625 -11.296875 L 27.640625 0 Z M 14.6875 0 "/></g></g><g style="fill:#396c84;fill-opacity:1;"><g transform="translate(468.556943, 100.448187)"><path style="stroke:none" d="M 8.078125 -23.328125 L 8.078125 -41.78125 C 8.078125 -42.644531 7.9375 -43.195312 7.65625 -43.4375 C 7.382812 -43.6875 6.820312 -43.8125 5.96875 -43.8125 L 2.484375 -43.8125 L 2.484375 -55.109375 L 15.0625 -55.109375 C 17.695312 -55.109375 19.546875 -54.570312 20.609375 -53.5 C 21.679688 -52.425781 22.21875 -50.570312 22.21875 -47.9375 L 22.21875 -23.328125 Z M 8.078125 -23.328125 "/></g></g><g style="fill:#396c84;fill-opacity:1;"><g transform="translate(495.282162, 100.448187)"><path style="stroke:none" d="M 51.34375 -55.109375 L 51.34375 -43.8125 L 46.109375 -43.8125 C 46.773438 -42.644531 47.109375 -40.441406 47.109375 -37.203125 L 47.109375 0 L 32.875 0 L 32.875 -39.671875 C 32.875 -41.453125 32.734375 -42.585938 32.453125 -43.078125 C 32.179688 -43.566406 31.617188 -43.8125 30.765625 -43.8125 L 23.78125 -43.8125 C 22.988281 -43.8125 22.453125 -43.566406 22.171875 -43.078125 C 21.898438 -42.585938 21.765625 -41.453125 21.765625 -39.671875 L 21.765625 0 L 7.53125 0 L 7.53125 -37.203125 C 7.53125 -40.441406 7.867188 -42.644531 8.546875 -43.8125 L 3.3125 -43.8125 L 3.3125 -55.109375 Z M 51.34375 -55.109375 "/></g></g><g style="fill:#396c84;fill-opacity:1;"><g transform="translate(549.926464, 100.448187)"><path style="stroke:none" d="M 36.1875 -55.109375 C 39.613281 -55.109375 42.046875 -54.390625 43.484375 -52.953125 C 44.921875 -51.515625 45.640625 -49.046875 45.640625 -45.546875 L 45.640625 0 L 31.40625 0 L 31.40625 -40.6875 C 31.40625 -41.914062 31.191406 -42.800781 30.765625 -43.34375 C 30.335938 -43.894531 29.539062 -44.171875 28.375 -44.171875 L 25.90625 -44.171875 C 23.820312 -44.171875 22.378906 -43.523438 21.578125 -42.234375 C 20.785156 -40.953125 20.753906 -38.265625 21.484375 -34.171875 L 24.796875 -14.875 C 25.710938 -9.851562 25.4375 -6.117188 23.96875 -3.671875 C 22.5 -1.222656 19.53125 0 15.0625 0 L 2.84375 0 L 2.84375 -11.296875 L 8.265625 -11.296875 C 9.117188 -11.296875 9.773438 -11.539062 10.234375 -12.03125 C 10.691406 -12.519531 10.832031 -13.4375 10.65625 -14.78125 L 7.625 -32.328125 C 7.007812 -35.753906 6.914062 -38.335938 7.34375 -40.078125 C 7.769531 -41.828125 8.320312 -43.070312 9 -43.8125 L 3.03125 -43.8125 L 3.03125 -55.109375 Z M 36.1875 -55.109375 "/></g></g><g style="fill:#396c84;fill-opacity:1;"><g transform="translate(600.713511, 100.448187)"><path style="stroke:none" d="M 0.28125 0 L 0.28125 -11.296875 L 7.90625 -11.296875 C 9.1875 -11.296875 10.039062 -11.507812 10.46875 -11.9375 C 10.894531 -12.363281 11.109375 -13.253906 11.109375 -14.609375 L 11.109375 -41.046875 C 11.109375 -42.148438 10.925781 -42.882812 10.5625 -43.25 C 10.195312 -43.625 9.492188 -43.8125 8.453125 -43.8125 L 5.234375 -43.8125 L 5.234375 -55.109375 L 16.90625 -55.109375 C 19.957031 -55.109375 22.125 -54.414062 23.40625 -53.03125 C 24.695312 -51.65625 25.34375 -49.347656 25.34375 -46.109375 L 25.34375 -9.1875 C 25.34375 -5.820312 24.6875 -3.445312 23.375 -2.0625 C 22.0625 -0.6875 19.84375 0 16.71875 0 Z M 0.28125 0 "/></g></g><g style="fill:#396c84;fill-opacity:1;"><g transform="translate(630.653117, 100.448187)"><path style="stroke:none" d=""/></g></g><g style="fill:#396c84;fill-opacity:1;"><g transform="translate(649.480128, 100.448187)"><path style="stroke:none" d="M 8.171875 0 L 8.171875 -41.78125 C 8.171875 -42.644531 8.03125 -43.195312 7.75 -43.4375 C 7.476562 -43.6875 6.914062 -43.8125 6.0625 -43.8125 L 2.75 -43.8125 L 2.75 -55.109375 L 16.25 -55.109375 C 18.519531 -55.109375 20.113281 -54.644531 21.03125 -53.71875 C 21.945312 -52.800781 22.40625 -51.242188 22.40625 -49.046875 L 22.40625 0 Z M 8.171875 0 "/></g></g><g style="fill:#396c84;fill-opacity:1;"><g transform="translate(676.94004, 100.448187)"><path style="stroke:none" d="M 18.375 -28.84375 C 17.570312 -28.53125 17.109375 -28.097656 16.984375 -27.546875 C 16.867188 -26.992188 16.960938 -26.109375 17.265625 -24.890625 L 21.40625 -11.578125 C 22.445312 -8.265625 22.660156 -5.503906 22.046875 -3.296875 C 21.429688 -1.097656 19.5625 0 16.4375 0 L 3.125 0 L 3.125 -11.296875 L 6.0625 -11.296875 C 6.851562 -11.296875 7.191406 -11.632812 7.078125 -12.3125 L 4.6875 -23.78125 C 4.070312 -26.664062 4.023438 -29.023438 4.546875 -30.859375 C 5.066406 -32.691406 5.953125 -34.21875 7.203125 -35.4375 C 8.460938 -36.664062 9.828125 -37.679688 11.296875 -38.484375 L 12.671875 -39.21875 L 3.21875 -55.109375 L 17.71875 -55.109375 L 30.578125 -31.96875 C 31.066406 -32.269531 31.40625 -32.648438 31.59375 -33.109375 C 31.78125 -33.566406 31.875 -34.316406 31.875 -35.359375 L 31.875 -55.109375 L 45.46875 -55.109375 L 45.46875 -34.25 C 45.46875 -31.4375 44.898438 -29.066406 43.765625 -27.140625 C 42.628906 -25.210938 40.65625 -23.390625 37.84375 -21.671875 L 36.546875 -20.84375 L 47.296875 0 L 32.96875 0 L 18.453125 -28.84375 Z M 18.375 -28.84375 "/></g></g><g style="fill:#396c84;fill-opacity:1;"><g transform="translate(726.165829, 100.448187)"><path style="stroke:none" d="M 8.171875 0 L 8.171875 -41.78125 C 8.171875 -42.644531 8.03125 -43.195312 7.75 -43.4375 C 7.476562 -43.6875 6.914062 -43.8125 6.0625 -43.8125 L 2.75 -43.8125 L 2.75 -55.109375 L 16.25 -55.109375 C 18.519531 -55.109375 20.113281 -54.644531 21.03125 -53.71875 C 21.945312 -52.800781 22.40625 -51.242188 22.40625 -49.046875 L 22.40625 0 Z M 8.171875 0 "/></g></g><g style="fill:#396c84;fill-opacity:1;"><g transform="translate(753.625789, 100.448187)"><path style="stroke:none" d="M 35.171875 -11.296875 L 37.9375 -11.296875 L 37.9375 0 L 1.65625 0 L 1.65625 -11.296875 L 19.5625 -11.296875 C 19.375 -11.660156 19.21875 -12.101562 19.09375 -12.625 C 18.976562 -13.144531 18.921875 -13.710938 18.921875 -14.328125 L 18.921875 -41.046875 C 18.921875 -42.148438 18.734375 -42.882812 18.359375 -43.25 C 17.992188 -43.625 17.265625 -43.8125 16.171875 -43.8125 L 2.65625 -43.8125 L 2.65625 -55.109375 L 24.34375 -55.109375 C 27.582031 -55.109375 29.859375 -54.390625 31.171875 -52.953125 C 32.492188 -51.515625 33.15625 -49.046875 33.15625 -45.546875 L 33.15625 -13.59375 C 33.15625 -12.0625 33.828125 -11.296875 35.171875 -11.296875 Z M 35.171875 -11.296875 "/></g></g></g></svg>