<svg xmlns="http://www.w3.org/2000/svg" xmlns:xlink="http://www.w3.org/1999/xlink" width="1267" zoomAndPan="magnify" viewBox="0 0 950.25 116.999995" height="156" preserveAspectRatio="xMidYMid meet" version="1.2"><defs/><g id="b0852dc0e8"><g style="fill:#396c84;fill-opacity:1;"><g transform="translate(78.627938, 78.853929)"><path style="stroke:none" d=""/></g></g><g style="fill:#396c84;fill-opacity:1;"><g transform="translate(93.381918, 78.853929)"><path style="stroke:none" d="M 11.515625 0 C 8.734375 0 6.859375 -0.875 5.890625 -2.625 C 4.929688 -4.375 4.984375 -6.878906 6.046875 -10.140625 L 13.09375 -32.015625 C 13.570312 -33.546875 13.046875 -34.3125 11.515625 -34.3125 L 3.09375 -34.3125 C 2.320312 -34.3125 1.78125 -34.46875 1.46875 -34.78125 C 1.15625 -35.09375 1 -35.65625 1 -36.46875 L 1 -48.921875 L 11.515625 -48.921875 L 11.515625 -43.15625 L 19.203125 -43.15625 C 21.941406 -43.15625 23.847656 -42.253906 24.921875 -40.453125 C 26.003906 -38.660156 26.066406 -36.28125 25.109375 -33.3125 L 17.484375 -10.71875 C 17.285156 -10.1875 17.242188 -9.738281 17.359375 -9.375 C 17.484375 -9.019531 17.859375 -8.84375 18.484375 -8.84375 L 21.65625 -8.84375 L 21.65625 0 Z M 11.515625 0 "/></g></g><g style="fill:#396c84;fill-opacity:1;"><g transform="translate(121.151987, 78.853929)"><path style="stroke:none" d="M 6.328125 -18.265625 L 6.328125 -32.734375 C 6.328125 -33.398438 6.21875 -33.828125 6 -34.015625 C 5.789062 -34.210938 5.347656 -34.3125 4.671875 -34.3125 L 1.9375 -34.3125 L 1.9375 -43.15625 L 11.796875 -43.15625 C 13.859375 -43.15625 15.304688 -42.734375 16.140625 -41.890625 C 16.984375 -41.054688 17.40625 -39.609375 17.40625 -37.546875 L 17.40625 -18.265625 Z M 6.328125 -18.265625 "/></g></g><g style="fill:#396c84;fill-opacity:1;"><g transform="translate(142.087454, 78.853929)"><path style="stroke:none" d="M 27.546875 -8.84375 L 29.703125 -8.84375 L 29.703125 0 L 1.296875 0 L 1.296875 -8.84375 L 15.328125 -8.84375 C 15.179688 -9.132812 15.054688 -9.484375 14.953125 -9.890625 C 14.859375 -10.296875 14.8125 -10.738281 14.8125 -11.21875 L 14.8125 -32.15625 C 14.8125 -33.019531 14.664062 -33.59375 14.375 -33.875 C 14.09375 -34.164062 13.519531 -34.3125 12.65625 -34.3125 L 2.09375 -34.3125 L 2.09375 -43.15625 L 19.0625 -43.15625 C 21.601562 -43.15625 23.390625 -42.59375 24.421875 -41.46875 C 25.453125 -40.34375 25.96875 -38.414062 25.96875 -35.6875 L 25.96875 -10.640625 C 25.96875 -9.441406 26.492188 -8.84375 27.546875 -8.84375 Z M 27.546875 -8.84375 "/></g></g><g style="fill:#396c84;fill-opacity:1;"><g transform="translate(172.447474, 78.853929)"><path style="stroke:none" d="M 33.671875 -43.15625 C 35.773438 -43.15625 37.1875 -42.4375 37.90625 -41 C 38.625 -39.5625 38.742188 -37.789062 38.265625 -35.6875 L 30.9375 0 L 19.640625 0 L 25.96875 -32.59375 C 26.113281 -33.40625 26.132812 -33.941406 26.03125 -34.203125 C 25.9375 -34.472656 25.484375 -34.609375 24.671875 -34.609375 L 18.984375 -34.609375 C 18.410156 -34.609375 17.957031 -34.535156 17.625 -34.390625 C 17.289062 -34.242188 17.125 -33.691406 17.125 -32.734375 L 17.125 1.71875 C 17.125 2.300781 17.410156 2.59375 17.984375 2.59375 L 19.703125 2.59375 L 19.703125 11 L 9.921875 11 C 7.285156 11 5.96875 9.679688 5.96875 7.046875 L 5.96875 -31.359375 C 5.96875 -32.796875 6.234375 -33.78125 6.765625 -34.3125 L 2.59375 -34.3125 L 2.59375 -43.15625 Z M 33.671875 -43.15625 "/></g></g><g style="fill:#396c84;fill-opacity:1;"><g transform="translate(213.023434, 78.853929)"><path style="stroke:none" d="M 34.609375 -6.109375 C 34.703125 -4.003906 34.253906 -2.457031 33.265625 -1.46875 C 32.285156 -0.488281 30.671875 0 28.421875 0 L 17.84375 0 L 17.84375 -8.84375 L 21.4375 -8.84375 C 22.207031 -8.84375 22.6875 -9 22.875 -9.3125 C 23.0625 -9.625 23.132812 -10.140625 23.09375 -10.859375 L 22.015625 -30.796875 C 21.960938 -32.179688 21.78125 -33.160156 21.46875 -33.734375 C 21.15625 -34.316406 20.59375 -34.609375 19.78125 -34.609375 L 19.5 -34.609375 C 18.875 -34.609375 18.425781 -34.425781 18.15625 -34.0625 C 17.894531 -33.695312 17.691406 -32.96875 17.546875 -31.875 L 13.3125 0 L 1.9375 0 L 5.96875 -27.703125 C 6.40625 -30.722656 7.242188 -32.925781 8.484375 -34.3125 L 3.171875 -34.3125 L 3.171875 -43.15625 L 23.671875 -43.15625 C 26.398438 -43.15625 28.601562 -42.410156 30.28125 -40.921875 C 31.957031 -39.441406 32.894531 -36.640625 33.09375 -32.515625 Z M 34.609375 -6.109375 "/></g></g><g style="fill:#396c84;fill-opacity:1;"><g transform="translate(250.218055, 78.853929)"><path style="stroke:none" d="M 22.59375 0 L 22.59375 -32.15625 C 22.59375 -33.019531 22.4375 -33.59375 22.125 -33.875 C 21.8125 -34.164062 21.222656 -34.3125 20.359375 -34.3125 L 3.734375 -34.3125 L 3.734375 -43.15625 L 27.1875 -43.15625 C 29.59375 -43.15625 31.285156 -42.59375 32.265625 -41.46875 C 33.242188 -40.34375 33.734375 -38.414062 33.734375 -35.6875 L 33.734375 0 Z M 7.40625 0 C 4.957031 0 3.734375 -1.242188 3.734375 -3.734375 L 3.734375 -26.90625 L 14.890625 -26.90625 L 14.890625 -10.21875 C 14.890625 -9.300781 15.25 -8.84375 15.96875 -8.84375 L 16.90625 -8.84375 L 16.90625 0 Z M 7.40625 0 "/></g></g><g style="fill:#396c84;fill-opacity:1;"><g transform="translate(287.916266, 78.853929)"><path style="stroke:none" d=""/></g></g><g style="fill:#396c84;fill-opacity:1;"><g transform="translate(302.66462, 78.853929)"><path style="stroke:none" d="M 13.3125 11 L 13.3125 -32.15625 C 13.3125 -33.019531 13.164062 -33.59375 12.875 -33.875 C 12.582031 -34.164062 12.007812 -34.3125 11.15625 -34.3125 L 1 -34.3125 L 1 -43.15625 L 17.703125 -43.15625 C 20.140625 -43.15625 21.875 -42.59375 22.90625 -41.46875 C 23.9375 -40.34375 24.453125 -38.414062 24.453125 -35.6875 L 24.453125 11 Z M 13.3125 11 "/></g></g><g style="fill:#396c84;fill-opacity:1;"><g transform="translate(331.154126, 78.853929)"><path style="stroke:none" d="M 3.3125 0 L 3.3125 -8.84375 L 20.21875 -8.84375 C 21.9375 -8.84375 22.796875 -9.679688 22.796875 -11.359375 L 22.796875 -32.296875 C 22.796875 -33.210938 22.710938 -33.828125 22.546875 -34.140625 C 22.378906 -34.453125 21.796875 -34.609375 20.796875 -34.609375 L 17.40625 -34.609375 C 16.445312 -34.609375 15.8125 -34.453125 15.5 -34.140625 C 15.1875 -33.828125 14.984375 -33.210938 14.890625 -32.296875 L 14.09375 -25.96875 C 14.050781 -25.300781 14.125 -24.832031 14.3125 -24.5625 C 14.507812 -24.300781 14.941406 -24.171875 15.609375 -24.171875 L 18.265625 -24.171875 L 18.265625 -15.53125 L 8.125 -15.53125 C 5.96875 -15.53125 4.445312 -16.019531 3.5625 -17 C 2.675781 -17.988281 2.351562 -19.539062 2.59375 -21.65625 L 4.390625 -36.96875 C 4.628906 -39.132812 5.285156 -40.707031 6.359375 -41.6875 C 7.441406 -42.664062 9.039062 -43.15625 11.15625 -43.15625 L 26.765625 -43.15625 C 29.398438 -43.15625 31.253906 -42.613281 32.328125 -41.53125 C 33.410156 -40.457031 33.953125 -38.578125 33.953125 -35.890625 L 33.953125 -7.1875 C 33.953125 -4.550781 33.410156 -2.691406 32.328125 -1.609375 C 31.253906 -0.535156 29.398438 0 26.765625 0 Z M 3.3125 0 "/></g></g><g style="fill:#396c84;fill-opacity:1;"><g transform="translate(368.78041, 78.853929)"><path style="stroke:none" d="M 32.515625 -43.15625 L 43.3125 -43.15625 L 41.21875 -15.328125 C 40.832031 -9.804688 39.40625 -5.867188 36.9375 -3.515625 C 34.46875 -1.171875 30.597656 0 25.328125 0 L 10.9375 0 C 9.0625 0 7.703125 -0.476562 6.859375 -1.4375 C 6.023438 -2.394531 5.488281 -3.738281 5.25 -5.46875 L 4.03125 -14.671875 C 3.644531 -17.023438 4.289062 -18.828125 5.96875 -20.078125 L 2.453125 -43.15625 L 13.3125 -43.15625 L 16.265625 -23.671875 L 16.328125 -23.671875 C 17.003906 -23.910156 17.425781 -24.171875 17.59375 -24.453125 C 17.757812 -24.742188 17.84375 -25.273438 17.84375 -26.046875 L 17.84375 -43.15625 L 28.5625 -43.15625 L 28.5625 -23.890625 C 28.5625 -21.773438 28.222656 -20.25 27.546875 -19.3125 C 26.878906 -18.375 25.800781 -17.644531 24.3125 -17.125 L 16.546875 -14.453125 C 15.734375 -14.117188 15.238281 -13.820312 15.0625 -13.5625 C 14.894531 -13.300781 14.863281 -12.785156 14.96875 -12.015625 L 15.25 -10.140625 C 15.34375 -9.515625 15.566406 -9.117188 15.921875 -8.953125 C 16.285156 -8.785156 16.828125 -8.703125 17.546875 -8.703125 L 22.375 -8.703125 C 24.382812 -8.703125 25.953125 -8.878906 27.078125 -9.234375 C 28.210938 -9.597656 29.03125 -10.304688 29.53125 -11.359375 C 30.03125 -12.421875 30.351562 -13.957031 30.5 -15.96875 Z M 32.515625 -43.15625 "/></g></g><g style="fill:#396c84;fill-opacity:1;"><g transform="translate(414.608222, 78.853929)"><path style="stroke:none" d="M 34.609375 -6.109375 C 34.703125 -4.003906 34.253906 -2.457031 33.265625 -1.46875 C 32.285156 -0.488281 30.671875 0 28.421875 0 L 17.84375 0 L 17.84375 -8.84375 L 21.4375 -8.84375 C 22.207031 -8.84375 22.6875 -9 22.875 -9.3125 C 23.0625 -9.625 23.132812 -10.140625 23.09375 -10.859375 L 22.015625 -30.796875 C 21.960938 -32.179688 21.78125 -33.160156 21.46875 -33.734375 C 21.15625 -34.316406 20.59375 -34.609375 19.78125 -34.609375 L 19.5 -34.609375 C 18.875 -34.609375 18.425781 -34.425781 18.15625 -34.0625 C 17.894531 -33.695312 17.691406 -32.96875 17.546875 -31.875 L 13.3125 0 L 1.9375 0 L 5.96875 -27.703125 C 6.40625 -30.722656 7.242188 -32.925781 8.484375 -34.3125 L 3.171875 -34.3125 L 3.171875 -43.15625 L 23.671875 -43.15625 C 26.398438 -43.15625 28.601562 -42.410156 30.28125 -40.921875 C 31.957031 -39.441406 32.894531 -36.640625 33.09375 -32.515625 Z M 34.609375 -6.109375 "/></g></g><g style="fill:#396c84;fill-opacity:1;"><g transform="translate(451.802855, 78.853929)"><path style="stroke:none" d="M 22.59375 0 L 22.59375 -32.15625 C 22.59375 -33.019531 22.4375 -33.59375 22.125 -33.875 C 21.8125 -34.164062 21.222656 -34.3125 20.359375 -34.3125 L 3.734375 -34.3125 L 3.734375 -43.15625 L 27.1875 -43.15625 C 29.59375 -43.15625 31.285156 -42.59375 32.265625 -41.46875 C 33.242188 -40.34375 33.734375 -38.414062 33.734375 -35.6875 L 33.734375 0 Z M 7.40625 0 C 4.957031 0 3.734375 -1.242188 3.734375 -3.734375 L 3.734375 -26.90625 L 14.890625 -26.90625 L 14.890625 -10.21875 C 14.890625 -9.300781 15.25 -8.84375 15.96875 -8.84375 L 16.90625 -8.84375 L 16.90625 0 Z M 7.40625 0 "/></g></g><g style="fill:#396c84;fill-opacity:1;"><g transform="translate(489.501066, 78.853929)"><path style="stroke:none" d=""/></g></g><g style="fill:#396c84;fill-opacity:1;"><g transform="translate(504.24942, 78.853929)"><path style="stroke:none" d="M 4.09375 -25.390625 L 4.09375 -37.546875 L 16.265625 -37.546875 L 16.265625 -25.390625 Z M 4.09375 0 L 4.09375 -12.15625 L 16.265625 -12.15625 L 16.265625 0 Z M 4.09375 0 "/></g></g><g style="fill:#396c84;fill-opacity:1;"><g transform="translate(524.619664, 78.853929)"><path style="stroke:none" d="M 18.921875 -8.84375 L 25.109375 -8.84375 L 25.109375 0 L 0.796875 0 L 0.796875 -8.84375 L 7.765625 -8.84375 L 7.765625 -36.46875 C 7.765625 -37.039062 7.65625 -37.421875 7.4375 -37.609375 C 7.226562 -37.804688 6.8125 -37.90625 6.1875 -37.90625 L 3.453125 -37.90625 L 3.453125 -46.765625 L 13.734375 -46.765625 C 15.660156 -46.765625 17.003906 -46.378906 17.765625 -45.609375 C 18.535156 -44.835938 18.921875 -43.492188 18.921875 -41.578125 Z M 18.921875 -8.84375 "/></g></g><g style="fill:#396c84;fill-opacity:1;"><g transform="translate(550.240066, 78.853929)"><path style="stroke:none" d=""/></g></g><g style="fill:#396c84;fill-opacity:1;"><g transform="translate(564.98842, 78.853929)"><path style="stroke:none" d="M 13.734375 0 L 13.734375 -31.71875 C 13.734375 -33.445312 12.875 -34.3125 11.15625 -34.3125 L 1 -34.3125 L 1 -43.15625 L 17.625 -43.15625 C 20.3125 -43.15625 22.191406 -42.601562 23.265625 -41.5 C 24.347656 -40.40625 24.890625 -38.535156 24.890625 -35.890625 L 24.890625 0 Z M 13.734375 0 "/></g></g><g style="fill:#396c84;fill-opacity:1;"><g transform="translate(593.837639, 78.853929)"><path style="stroke:none" d="M 3.3125 0 L 3.3125 -8.84375 L 20.21875 -8.84375 C 21.9375 -8.84375 22.796875 -9.679688 22.796875 -11.359375 L 22.796875 -32.296875 C 22.796875 -33.210938 22.710938 -33.828125 22.546875 -34.140625 C 22.378906 -34.453125 21.796875 -34.609375 20.796875 -34.609375 L 17.40625 -34.609375 C 16.445312 -34.609375 15.8125 -34.453125 15.5 -34.140625 C 15.1875 -33.828125 14.984375 -33.210938 14.890625 -32.296875 L 14.09375 -25.96875 C 14.050781 -25.300781 14.125 -24.832031 14.3125 -24.5625 C 14.507812 -24.300781 14.941406 -24.171875 15.609375 -24.171875 L 18.265625 -24.171875 L 18.265625 -15.53125 L 8.125 -15.53125 C 5.96875 -15.53125 4.445312 -16.019531 3.5625 -17 C 2.675781 -17.988281 2.351562 -19.539062 2.59375 -21.65625 L 4.390625 -36.96875 C 4.628906 -39.132812 5.285156 -40.707031 6.359375 -41.6875 C 7.441406 -42.664062 9.039062 -43.15625 11.15625 -43.15625 L 26.765625 -43.15625 C 29.398438 -43.15625 31.253906 -42.613281 32.328125 -41.53125 C 33.410156 -40.457031 33.953125 -38.578125 33.953125 -35.890625 L 33.953125 -7.1875 C 33.953125 -4.550781 33.410156 -2.691406 32.328125 -1.609375 C 31.253906 -0.535156 29.398438 0 26.765625 0 Z M 3.3125 0 "/></g></g><g style="fill:#396c84;fill-opacity:1;"><g transform="translate(631.463923, 78.853929)"><path style="stroke:none" d="M 28.703125 -43.15625 C 31.242188 -43.15625 33.234375 -42.804688 34.671875 -42.109375 C 36.109375 -41.421875 37.101562 -40.1875 37.65625 -38.40625 C 38.207031 -36.632812 38.363281 -34.117188 38.125 -30.859375 L 36.828125 -11.515625 C 36.734375 -9.878906 36.484375 -8.390625 36.078125 -7.046875 C 35.671875 -5.703125 34.953125 -4.5625 33.921875 -3.625 C 32.890625 -2.695312 31.363281 -2.0625 29.34375 -1.71875 L 16.328125 0.4375 C 13.359375 0.957031 11.296875 0.753906 10.140625 -0.171875 C 8.992188 -1.109375 8.320312 -2.707031 8.125 -4.96875 L 6.265625 -29.421875 C 6.160156 -30.523438 6.238281 -31.492188 6.5 -32.328125 C 6.769531 -33.171875 7.144531 -33.878906 7.625 -34.453125 C 6.28125 -34.648438 4.972656 -35.09375 3.703125 -35.78125 C 2.429688 -36.476562 1.390625 -37.523438 0.578125 -38.921875 L 6.40625 -45.609375 C 7.070312 -44.554688 7.753906 -43.882812 8.453125 -43.59375 C 9.148438 -43.300781 10.050781 -43.15625 11.15625 -43.15625 Z M 27.40625 -27.84375 C 27.5 -29.757812 27.507812 -31.207031 27.4375 -32.1875 C 27.375 -33.175781 27.085938 -33.835938 26.578125 -34.171875 C 26.078125 -34.503906 25.203125 -34.648438 23.953125 -34.609375 L 18.34375 -34.453125 C 17.195312 -34.171875 16.691406 -33.210938 16.828125 -31.578125 L 18.484375 -11.15625 C 18.578125 -10.238281 18.828125 -9.632812 19.234375 -9.34375 C 19.648438 -9.0625 20.238281 -8.96875 21 -9.0625 L 24.171875 -9.71875 C 25.035156 -9.851562 25.644531 -10.207031 26 -10.78125 C 26.363281 -11.363281 26.566406 -12.28125 26.609375 -13.53125 Z M 27.40625 -27.84375 "/></g></g><g style="fill:#396c84;fill-opacity:1;"><g transform="translate(672.399596, 78.853929)"><path style="stroke:none" d="M 34.609375 -6.109375 C 34.703125 -4.003906 34.253906 -2.457031 33.265625 -1.46875 C 32.285156 -0.488281 30.671875 0 28.421875 0 L 17.84375 0 L 17.84375 -8.84375 L 21.4375 -8.84375 C 22.207031 -8.84375 22.6875 -9 22.875 -9.3125 C 23.0625 -9.625 23.132812 -10.140625 23.09375 -10.859375 L 22.015625 -30.796875 C 21.960938 -32.179688 21.78125 -33.160156 21.46875 -33.734375 C 21.15625 -34.316406 20.59375 -34.609375 19.78125 -34.609375 L 19.5 -34.609375 C 18.875 -34.609375 18.425781 -34.425781 18.15625 -34.0625 C 17.894531 -33.695312 17.691406 -32.96875 17.546875 -31.875 L 13.3125 0 L 1.9375 0 L 5.96875 -27.703125 C 6.40625 -30.722656 7.242188 -32.925781 8.484375 -34.3125 L 3.171875 -34.3125 L 3.171875 -43.15625 L 23.671875 -43.15625 C 26.398438 -43.15625 28.601562 -42.410156 30.28125 -40.921875 C 31.957031 -39.441406 32.894531 -36.640625 33.09375 -32.515625 Z M 34.609375 -6.109375 "/></g></g><g style="fill:#396c84;fill-opacity:1;"><g transform="translate(709.594218, 78.853929)"><path style="stroke:none" d=""/></g></g><g style="fill:#396c84;fill-opacity:1;"><g transform="translate(724.342572, 78.853929)"><path style="stroke:none" d="M 11.515625 0 C 8.734375 0 6.859375 -0.875 5.890625 -2.625 C 4.929688 -4.375 4.984375 -6.878906 6.046875 -10.140625 L 13.09375 -32.015625 C 13.570312 -33.546875 13.046875 -34.3125 11.515625 -34.3125 L 3.09375 -34.3125 C 2.320312 -34.3125 1.78125 -34.46875 1.46875 -34.78125 C 1.15625 -35.09375 1 -35.65625 1 -36.46875 L 1 -48.921875 L 11.515625 -48.921875 L 11.515625 -43.15625 L 19.203125 -43.15625 C 21.941406 -43.15625 23.847656 -42.253906 24.921875 -40.453125 C 26.003906 -38.660156 26.066406 -36.28125 25.109375 -33.3125 L 17.484375 -10.71875 C 17.285156 -10.1875 17.242188 -9.738281 17.359375 -9.375 C 17.484375 -9.019531 17.859375 -8.84375 18.484375 -8.84375 L 21.65625 -8.84375 L 21.65625 0 Z M 11.515625 0 "/></g></g><g style="fill:#396c84;fill-opacity:1;"><g transform="translate(752.11264, 78.853929)"><path style="stroke:none" d="M 6.40625 0 L 6.40625 -32.734375 C 6.40625 -33.398438 6.296875 -33.828125 6.078125 -34.015625 C 5.859375 -34.210938 5.414062 -34.3125 4.75 -34.3125 L 2.15625 -34.3125 L 2.15625 -43.15625 L 12.734375 -43.15625 C 14.503906 -43.15625 15.75 -42.796875 16.46875 -42.078125 C 17.1875 -41.359375 17.546875 -40.140625 17.546875 -38.421875 L 17.546875 0 Z M 6.40625 0 "/></g></g><g style="fill:#396c84;fill-opacity:1;"><g transform="translate(773.623646, 78.853929)"><path style="stroke:none" d="M 27.125 0 L 17.046875 0 L 12.8125 -15.109375 C 12.375 -14.910156 12.082031 -14.691406 11.9375 -14.453125 C 11.789062 -14.210938 11.695312 -13.90625 11.65625 -13.53125 L 10.640625 0 L 0.078125 0 L 2.09375 -16.46875 C 2.28125 -18.007812 2.6875 -19.1875 3.3125 -20 C 3.9375 -20.8125 4.894531 -21.484375 6.1875 -22.015625 L 10.71875 -23.890625 C 11.488281 -24.222656 12.0625 -24.664062 12.4375 -25.21875 C 12.820312 -25.769531 13.015625 -26.570312 13.015625 -27.625 L 13.015625 -32.375 C 13.015625 -33.1875 12.894531 -33.710938 12.65625 -33.953125 C 12.414062 -34.191406 11.890625 -34.3125 11.078125 -34.3125 L 5.90625 -34.3125 L 5.90625 -43.15625 L 17.40625 -43.15625 C 19.519531 -43.15625 21.066406 -42.613281 22.046875 -41.53125 C 23.035156 -40.457031 23.53125 -38.722656 23.53125 -36.328125 L 23.53125 -22.796875 C 23.53125 -21.703125 23.382812 -20.816406 23.09375 -20.140625 C 22.800781 -19.472656 22.394531 -18.945312 21.875 -18.5625 Z M 27.125 0 "/></g></g><g style="fill:#396c84;fill-opacity:1;"><g transform="translate(801.681479, 78.853929)"><path style="stroke:none" d="M 13.734375 0 L 13.734375 -31.71875 C 13.734375 -33.445312 12.875 -34.3125 11.15625 -34.3125 L 1 -34.3125 L 1 -43.15625 L 17.625 -43.15625 C 20.3125 -43.15625 22.191406 -42.601562 23.265625 -41.5 C 24.347656 -40.40625 24.890625 -38.535156 24.890625 -35.890625 L 24.890625 0 Z M 13.734375 0 "/></g><g transform="translate(830.530708, 78.853929)"><path style="stroke:none" d="M 28.34375 -43.15625 C 31.03125 -43.15625 32.9375 -42.59375 34.0625 -41.46875 C 35.1875 -40.34375 35.75 -38.414062 35.75 -35.6875 L 35.75 0 L 24.609375 0 L 24.609375 -31.875 C 24.609375 -32.832031 24.4375 -33.523438 24.09375 -33.953125 C 23.757812 -34.390625 23.140625 -34.609375 22.234375 -34.609375 L 20.28125 -34.609375 C 18.65625 -34.609375 17.53125 -34.101562 16.90625 -33.09375 C 16.28125 -32.082031 16.253906 -29.972656 16.828125 -26.765625 L 19.421875 -11.65625 C 20.140625 -7.71875 19.921875 -4.789062 18.765625 -2.875 C 17.617188 -0.957031 15.296875 0 11.796875 0 L 2.234375 0 L 2.234375 -8.84375 L 6.46875 -8.84375 C 7.144531 -8.84375 7.660156 -9.035156 8.015625 -9.421875 C 8.378906 -9.804688 8.488281 -10.523438 8.34375 -11.578125 L 5.96875 -25.328125 C 5.488281 -28.003906 5.414062 -30.023438 5.75 -31.390625 C 6.09375 -32.765625 6.523438 -33.738281 7.046875 -34.3125 L 2.375 -34.3125 L 2.375 -43.15625 Z M 28.34375 -43.15625 "/></g></g><path style="fill:none;stroke-width:8;stroke-linecap:round;stroke-linejoin:miter;stroke:#396c84;stroke-opacity:1;stroke-miterlimit:4;" d="M 3.999907 3.999454 L 1216.966973 3.999454 " transform="matrix(0.749408,0,0,0.749408,14.928217,98.5184)"/></g></svg>