<svg xmlns="http://www.w3.org/2000/svg" xmlns:xlink="http://www.w3.org/1999/xlink" width="371" zoomAndPan="magnify" viewBox="0 0 278.25 88.499997" height="118" preserveAspectRatio="xMidYMid meet" version="1.2"><defs/><g id="1390e99d7c"><g style="fill:#396c84;fill-opacity:1;"><g transform="translate(45.629941, 44.941092)"><path style="stroke:none" d="M 6.6875 0 C 5.070312 0 3.984375 -0.503906 3.421875 -1.515625 C 2.867188 -2.535156 2.898438 -3.992188 3.515625 -5.890625 L 7.59375 -18.578125 C 7.875 -19.472656 7.570312 -19.921875 6.6875 -19.921875 L 1.796875 -19.921875 C 1.347656 -19.921875 1.03125 -20.007812 0.84375 -20.1875 C 0.664062 -20.375 0.578125 -20.703125 0.578125 -21.171875 L 0.578125 -28.40625 L 6.6875 -28.40625 L 6.6875 -25.0625 L 11.15625 -25.0625 C 12.738281 -25.0625 13.84375 -24.535156 14.46875 -23.484375 C 15.09375 -22.441406 15.128906 -21.0625 14.578125 -19.34375 L 10.15625 -6.21875 C 10.039062 -5.914062 10.015625 -5.660156 10.078125 -5.453125 C 10.148438 -5.242188 10.367188 -5.140625 10.734375 -5.140625 L 12.578125 -5.140625 L 12.578125 0 Z M 6.6875 0 "/></g></g><g style="fill:#396c84;fill-opacity:1;"><g transform="translate(61.750859, 44.941092)"><path style="stroke:none" d="M 3.671875 -10.609375 L 3.671875 -19 C 3.671875 -19.394531 3.609375 -19.644531 3.484375 -19.75 C 3.359375 -19.863281 3.101562 -19.921875 2.71875 -19.921875 L 1.125 -19.921875 L 1.125 -25.0625 L 6.84375 -25.0625 C 8.039062 -25.0625 8.882812 -24.816406 9.375 -24.328125 C 9.863281 -23.835938 10.109375 -22.992188 10.109375 -21.796875 L 10.109375 -10.609375 Z M 3.671875 -10.609375 "/></g></g><g style="fill:#396c84;fill-opacity:1;"><g transform="translate(73.904199, 44.941092)"><path style="stroke:none" d="M 16 -5.140625 L 17.25 -5.140625 L 17.25 0 L 0.75 0 L 0.75 -5.140625 L 8.890625 -5.140625 C 8.804688 -5.304688 8.738281 -5.503906 8.6875 -5.734375 C 8.632812 -5.972656 8.609375 -6.234375 8.609375 -6.515625 L 8.609375 -18.671875 C 8.609375 -19.171875 8.523438 -19.503906 8.359375 -19.671875 C 8.191406 -19.835938 7.851562 -19.921875 7.34375 -19.921875 L 1.21875 -19.921875 L 1.21875 -25.0625 L 11.0625 -25.0625 C 12.539062 -25.0625 13.578125 -24.734375 14.171875 -24.078125 C 14.773438 -23.421875 15.078125 -22.300781 15.078125 -20.71875 L 15.078125 -6.1875 C 15.078125 -5.488281 15.382812 -5.140625 16 -5.140625 Z M 16 -5.140625 "/></g></g><g style="fill:#396c84;fill-opacity:1;"><g transform="translate(91.528627, 44.941092)"><path style="stroke:none" d="M 19.546875 -25.0625 C 20.773438 -25.0625 21.597656 -24.640625 22.015625 -23.796875 C 22.429688 -22.960938 22.5 -21.9375 22.21875 -20.71875 L 17.953125 0 L 11.40625 0 L 15.078125 -18.921875 C 15.160156 -19.390625 15.171875 -19.703125 15.109375 -19.859375 C 15.054688 -20.015625 14.796875 -20.09375 14.328125 -20.09375 L 11.03125 -20.09375 C 10.695312 -20.09375 10.429688 -20.050781 10.234375 -19.96875 C 10.035156 -19.882812 9.9375 -19.5625 9.9375 -19 L 9.9375 1 C 9.9375 1.332031 10.101562 1.5 10.4375 1.5 L 11.4375 1.5 L 11.4375 6.390625 L 5.765625 6.390625 C 4.234375 6.390625 3.46875 5.625 3.46875 4.09375 L 3.46875 -18.203125 C 3.46875 -19.046875 3.617188 -19.617188 3.921875 -19.921875 L 1.5 -19.921875 L 1.5 -25.0625 Z M 19.546875 -25.0625 "/></g></g><g style="fill:#396c84;fill-opacity:1;"><g transform="translate(115.083547, 44.941092)"><path style="stroke:none" d="M 20.09375 -3.546875 C 20.144531 -2.328125 19.882812 -1.429688 19.3125 -0.859375 C 18.738281 -0.285156 17.800781 0 16.5 0 L 10.359375 0 L 10.359375 -5.140625 L 12.453125 -5.140625 C 12.890625 -5.140625 13.164062 -5.226562 13.28125 -5.40625 C 13.394531 -5.59375 13.4375 -5.894531 13.40625 -6.3125 L 12.78125 -17.875 C 12.75 -18.6875 12.644531 -19.257812 12.46875 -19.59375 C 12.289062 -19.925781 11.960938 -20.09375 11.484375 -20.09375 L 11.3125 -20.09375 C 10.957031 -20.09375 10.703125 -19.988281 10.546875 -19.78125 C 10.390625 -19.570312 10.269531 -19.144531 10.1875 -18.5 L 7.734375 0 L 1.125 0 L 3.46875 -16.078125 C 3.71875 -17.835938 4.203125 -19.117188 4.921875 -19.921875 L 1.84375 -19.921875 L 1.84375 -25.0625 L 13.734375 -25.0625 C 15.328125 -25.0625 16.609375 -24.628906 17.578125 -23.765625 C 18.554688 -22.898438 19.101562 -21.269531 19.21875 -18.875 Z M 20.09375 -3.546875 "/></g></g><g style="fill:#396c84;fill-opacity:1;"><g transform="translate(136.675553, 44.941092)"><path style="stroke:none" d=""/></g></g><g style="fill:#396c84;fill-opacity:1;"><g transform="translate(145.237179, 44.941092)"><path style="stroke:none" d="M 7.734375 6.390625 L 7.734375 -18.671875 C 7.734375 -19.171875 7.644531 -19.503906 7.46875 -19.671875 C 7.300781 -19.835938 6.96875 -19.921875 6.46875 -19.921875 L 0.578125 -19.921875 L 0.578125 -25.0625 L 10.28125 -25.0625 C 11.695312 -25.0625 12.703125 -24.734375 13.296875 -24.078125 C 13.898438 -23.421875 14.203125 -22.300781 14.203125 -20.71875 L 14.203125 6.390625 Z M 7.734375 6.390625 "/></g></g><g style="fill:#396c84;fill-opacity:1;"><g transform="translate(161.775736, 44.941092)"><path style="stroke:none" d="M 1.921875 0 L 1.921875 -5.140625 L 11.734375 -5.140625 C 12.734375 -5.140625 13.234375 -5.625 13.234375 -6.59375 L 13.234375 -18.75 C 13.234375 -19.28125 13.1875 -19.632812 13.09375 -19.8125 C 13 -20 12.65625 -20.09375 12.0625 -20.09375 L 10.109375 -20.09375 C 9.546875 -20.09375 9.175781 -20 9 -19.8125 C 8.820312 -19.632812 8.703125 -19.28125 8.640625 -18.75 L 8.1875 -15.078125 C 8.15625 -14.691406 8.195312 -14.421875 8.3125 -14.265625 C 8.425781 -14.109375 8.675781 -14.03125 9.0625 -14.03125 L 10.609375 -14.03125 L 10.609375 -9.015625 L 4.71875 -9.015625 C 3.46875 -9.015625 2.582031 -9.300781 2.0625 -9.875 C 1.550781 -10.445312 1.363281 -11.347656 1.5 -12.578125 L 2.546875 -21.46875 C 2.679688 -22.71875 3.0625 -23.628906 3.6875 -24.203125 C 4.320312 -24.773438 5.25 -25.0625 6.46875 -25.0625 L 15.53125 -25.0625 C 17.0625 -25.0625 18.140625 -24.75 18.765625 -24.125 C 19.398438 -23.5 19.71875 -22.40625 19.71875 -20.84375 L 19.71875 -4.171875 C 19.71875 -2.640625 19.398438 -1.5625 18.765625 -0.9375 C 18.140625 -0.3125 17.0625 0 15.53125 0 Z M 1.921875 0 "/></g></g><g style="fill:#396c84;fill-opacity:1;"><g transform="translate(183.618325, 44.941092)"><path style="stroke:none" d="M 18.875 -25.0625 L 25.140625 -25.0625 L 23.9375 -8.890625 C 23.707031 -5.691406 22.875 -3.410156 21.4375 -2.046875 C 20.007812 -0.679688 17.765625 0 14.703125 0 L 6.34375 0 C 5.257812 0 4.472656 -0.273438 3.984375 -0.828125 C 3.492188 -1.390625 3.179688 -2.171875 3.046875 -3.171875 L 2.34375 -8.515625 C 2.113281 -9.878906 2.488281 -10.925781 3.46875 -11.65625 L 1.421875 -25.0625 L 7.734375 -25.0625 L 9.4375 -13.734375 L 9.484375 -13.734375 C 9.867188 -13.878906 10.109375 -14.035156 10.203125 -14.203125 C 10.304688 -14.367188 10.359375 -14.675781 10.359375 -15.125 L 10.359375 -25.0625 L 16.578125 -25.0625 L 16.578125 -13.859375 C 16.578125 -12.640625 16.378906 -11.757812 15.984375 -11.21875 C 15.597656 -10.675781 14.972656 -10.25 14.109375 -9.9375 L 9.609375 -8.390625 C 9.128906 -8.203125 8.84375 -8.03125 8.75 -7.875 C 8.65625 -7.71875 8.632812 -7.414062 8.6875 -6.96875 L 8.859375 -5.890625 C 8.910156 -5.523438 9.039062 -5.289062 9.25 -5.1875 C 9.457031 -5.09375 9.769531 -5.046875 10.1875 -5.046875 L 12.984375 -5.046875 C 14.160156 -5.046875 15.070312 -5.148438 15.71875 -5.359375 C 16.375 -5.578125 16.847656 -5.988281 17.140625 -6.59375 C 17.429688 -7.207031 17.617188 -8.097656 17.703125 -9.265625 Z M 18.875 -25.0625 "/></g></g><g style="fill:#396c84;fill-opacity:1;"><g transform="translate(210.222017, 44.941092)"><path style="stroke:none" d="M 20.09375 -3.546875 C 20.144531 -2.328125 19.882812 -1.429688 19.3125 -0.859375 C 18.738281 -0.285156 17.800781 0 16.5 0 L 10.359375 0 L 10.359375 -5.140625 L 12.453125 -5.140625 C 12.890625 -5.140625 13.164062 -5.226562 13.28125 -5.40625 C 13.394531 -5.59375 13.4375 -5.894531 13.40625 -6.3125 L 12.78125 -17.875 C 12.75 -18.6875 12.644531 -19.257812 12.46875 -19.59375 C 12.289062 -19.925781 11.960938 -20.09375 11.484375 -20.09375 L 11.3125 -20.09375 C 10.957031 -20.09375 10.703125 -19.988281 10.546875 -19.78125 C 10.390625 -19.570312 10.269531 -19.144531 10.1875 -18.5 L 7.734375 0 L 1.125 0 L 3.46875 -16.078125 C 3.71875 -17.835938 4.203125 -19.117188 4.921875 -19.921875 L 1.84375 -19.921875 L 1.84375 -25.0625 L 13.734375 -25.0625 C 15.328125 -25.0625 16.609375 -24.628906 17.578125 -23.765625 C 18.554688 -22.898438 19.101562 -21.269531 19.21875 -18.875 Z M 20.09375 -3.546875 "/></g></g><g style="fill:#396c84;fill-opacity:1;"><g transform="translate(48.046347, 74.197316)"><path style="stroke:none" d="M 1.421875 -8.78125 L 1.421875 -12.984375 L 5.625 -12.984375 L 5.625 -8.78125 Z M 1.421875 0 L 1.421875 -4.203125 L 5.625 -4.203125 L 5.625 0 Z M 1.421875 0 "/></g></g><g style="fill:#396c84;fill-opacity:1;"><g transform="translate(55.080484, 74.197316)"><path style="stroke:none" d="M 4.96875 -7.8125 C 4.757812 -7.726562 4.632812 -7.609375 4.59375 -7.453125 C 4.5625 -7.304688 4.585938 -7.066406 4.671875 -6.734375 L 5.796875 -3.125 C 6.078125 -2.238281 6.132812 -1.492188 5.96875 -0.890625 C 5.800781 -0.296875 5.296875 0 4.453125 0 L 0.84375 0 L 0.84375 -3.0625 L 1.640625 -3.0625 C 1.859375 -3.0625 1.953125 -3.148438 1.921875 -3.328125 L 1.265625 -6.4375 C 1.097656 -7.21875 1.082031 -7.851562 1.21875 -8.34375 C 1.363281 -8.84375 1.609375 -9.257812 1.953125 -9.59375 C 2.296875 -9.925781 2.664062 -10.203125 3.0625 -10.421875 L 3.4375 -10.609375 L 0.875 -14.921875 L 4.796875 -14.921875 L 8.28125 -8.65625 C 8.414062 -8.738281 8.503906 -8.835938 8.546875 -8.953125 C 8.597656 -9.078125 8.625 -9.285156 8.625 -9.578125 L 8.625 -14.921875 L 12.3125 -14.921875 L 12.3125 -9.265625 C 12.3125 -8.503906 12.15625 -7.863281 11.84375 -7.34375 C 11.539062 -6.820312 11.003906 -6.328125 10.234375 -5.859375 L 9.890625 -5.640625 L 12.796875 0 L 8.921875 0 L 5 -7.8125 Z M 4.96875 -7.8125 "/></g></g><g style="fill:#396c84;fill-opacity:1;"><g transform="translate(68.403099, 74.197316)"><path style="stroke:none" d="M 9.515625 -3.0625 L 10.265625 -3.0625 L 10.265625 0 L 0.453125 0 L 0.453125 -3.0625 L 5.296875 -3.0625 C 5.242188 -3.15625 5.203125 -3.269531 5.171875 -3.40625 C 5.140625 -3.550781 5.125 -3.707031 5.125 -3.875 L 5.125 -11.109375 C 5.125 -11.410156 5.070312 -11.609375 4.96875 -11.703125 C 4.875 -11.804688 4.675781 -11.859375 4.375 -11.859375 L 0.71875 -11.859375 L 0.71875 -14.921875 L 6.59375 -14.921875 C 7.46875 -14.921875 8.082031 -14.722656 8.4375 -14.328125 C 8.789062 -13.941406 8.96875 -13.273438 8.96875 -12.328125 L 8.96875 -3.671875 C 8.96875 -3.265625 9.148438 -3.0625 9.515625 -3.0625 Z M 9.515625 -3.0625 "/></g></g><g style="fill:#396c84;fill-opacity:1;"><g transform="translate(78.892166, 74.197316)"><path style="stroke:none" d="M 7.8125 0 L 7.8125 -11.109375 C 7.8125 -11.410156 7.753906 -11.609375 7.640625 -11.703125 C 7.535156 -11.804688 7.332031 -11.859375 7.03125 -11.859375 L 1.296875 -11.859375 L 1.296875 -14.921875 L 9.390625 -14.921875 C 10.222656 -14.921875 10.804688 -14.722656 11.140625 -14.328125 C 11.484375 -13.941406 11.65625 -13.273438 11.65625 -12.328125 L 11.65625 0 Z M 2.5625 0 C 1.71875 0 1.296875 -0.429688 1.296875 -1.296875 L 1.296875 -9.296875 L 5.140625 -9.296875 L 5.140625 -3.53125 C 5.140625 -3.21875 5.265625 -3.0625 5.515625 -3.0625 L 5.84375 -3.0625 L 5.84375 0 Z M 2.5625 0 "/></g></g><g style="fill:#396c84;fill-opacity:1;"><g transform="translate(91.916505, 74.197316)"><path style="stroke:none" d=""/></g></g><g style="fill:#396c84;fill-opacity:1;"><g transform="translate(97.011901, 74.197316)"><path style="stroke:none" d="M 2.21875 3.796875 L 2.21875 -11.3125 C 2.21875 -11.539062 2.175781 -11.6875 2.09375 -11.75 C 2.019531 -11.820312 1.867188 -11.859375 1.640625 -11.859375 L 0.75 -11.859375 L 0.75 -14.921875 L 4.40625 -14.921875 C 5.007812 -14.921875 5.4375 -14.796875 5.6875 -14.546875 C 5.9375 -14.296875 6.0625 -13.875 6.0625 -13.28125 L 6.0625 3.796875 Z M 2.21875 3.796875 "/></g></g><g style="fill:#396c84;fill-opacity:1;"><g transform="translate(104.443728, 74.197316)"><path style="stroke:none" d="M 2.21875 0 L 2.21875 -11.3125 C 2.21875 -11.539062 2.175781 -11.6875 2.09375 -11.75 C 2.019531 -11.820312 1.867188 -11.859375 1.640625 -11.859375 L 0.75 -11.859375 L 0.75 -14.921875 L 4.40625 -14.921875 C 5.007812 -14.921875 5.4375 -14.796875 5.6875 -14.546875 C 5.9375 -14.296875 6.0625 -13.875 6.0625 -13.28125 L 6.0625 0 Z M 2.21875 0 "/></g></g><g style="fill:#396c84;fill-opacity:1;"><g transform="translate(111.875556, 74.197316)"><path style="stroke:none" d="M 7.203125 -0.15625 C 6.660156 0.03125 6.113281 0.15625 5.5625 0.21875 C 5.019531 0.289062 4.515625 0.265625 4.046875 0.140625 C 3.585938 0.0234375 3.203125 -0.203125 2.890625 -0.546875 C 2.585938 -0.890625 2.410156 -1.394531 2.359375 -2.0625 L 1.71875 -11.3125 C 1.695312 -11.539062 1.660156 -11.6875 1.609375 -11.75 C 1.566406 -11.820312 1.4375 -11.859375 1.21875 -11.859375 L 0.546875 -11.859375 L 0.546875 -14.921875 L 3.734375 -14.921875 C 4.273438 -14.921875 4.664062 -14.796875 4.90625 -14.546875 C 5.144531 -14.304688 5.28125 -13.925781 5.3125 -13.40625 L 5.9375 -3.921875 C 5.96875 -3.597656 6.082031 -3.394531 6.28125 -3.3125 C 6.488281 -3.226562 6.738281 -3.234375 7.03125 -3.328125 L 8.296875 -3.75 C 8.734375 -3.90625 8.984375 -4.203125 9.046875 -4.640625 C 9.109375 -5.085938 9.191406 -5.671875 9.296875 -6.390625 L 9.921875 -11.3125 C 9.953125 -11.59375 9.921875 -11.796875 9.828125 -11.921875 C 9.734375 -12.046875 9.609375 -12.113281 9.453125 -12.125 C 9.210938 -12.164062 9.046875 -12.125 8.953125 -12 C 8.867188 -11.875 8.816406 -11.6875 8.796875 -11.4375 L 8.59375 -8.78125 L 6.234375 -8.828125 L 6.359375 -12.375 C 6.390625 -13.289062 6.695312 -13.988281 7.28125 -14.46875 C 7.863281 -14.945312 8.707031 -15.1875 9.8125 -15.1875 C 10.507812 -15.1875 11.15625 -15.054688 11.75 -14.796875 C 12.351562 -14.546875 12.820312 -14.15625 13.15625 -13.625 C 13.5 -13.09375 13.625 -12.394531 13.53125 -11.53125 L 12.734375 -4.453125 C 12.648438 -3.585938 12.398438 -2.882812 11.984375 -2.34375 C 11.566406 -1.8125 10.90625 -1.382812 10 -1.0625 Z M 7.203125 -0.15625 "/></g></g><g style="fill:#396c84;fill-opacity:1;"><g transform="translate(126.266961, 74.197316)"><path style="stroke:none" d="M 4.75 0 L 4.75 -10.96875 C 4.75 -11.5625 4.453125 -11.859375 3.859375 -11.859375 L 0.34375 -11.859375 L 0.34375 -14.921875 L 6.09375 -14.921875 C 7.019531 -14.921875 7.664062 -14.726562 8.03125 -14.34375 C 8.40625 -13.957031 8.59375 -13.3125 8.59375 -12.40625 L 8.59375 0 Z M 4.75 0 "/></g></g><g style="fill:#396c84;fill-opacity:1;"><g transform="translate(136.234059, 74.197316)"><path style="stroke:none" d="M 9.921875 -14.921875 C 10.796875 -14.921875 11.484375 -14.796875 11.984375 -14.546875 C 12.484375 -14.304688 12.828125 -13.878906 13.015625 -13.265625 C 13.203125 -12.660156 13.253906 -11.796875 13.171875 -10.671875 L 12.734375 -3.984375 C 12.691406 -3.410156 12.597656 -2.890625 12.453125 -2.421875 C 12.316406 -1.960938 12.070312 -1.570312 11.71875 -1.25 C 11.363281 -0.925781 10.835938 -0.707031 10.140625 -0.59375 L 5.640625 0.15625 C 4.617188 0.332031 3.90625 0.257812 3.5 -0.0625 C 3.101562 -0.382812 2.875 -0.9375 2.8125 -1.71875 L 2.15625 -10.171875 C 2.125 -10.546875 2.15625 -10.878906 2.25 -11.171875 C 2.34375 -11.460938 2.472656 -11.707031 2.640625 -11.90625 C 2.171875 -11.96875 1.71875 -12.117188 1.28125 -12.359375 C 0.84375 -12.609375 0.484375 -12.972656 0.203125 -13.453125 L 2.21875 -15.765625 C 2.445312 -15.398438 2.679688 -15.164062 2.921875 -15.0625 C 3.160156 -14.96875 3.472656 -14.921875 3.859375 -14.921875 Z M 9.46875 -9.625 C 9.5 -10.28125 9.503906 -10.78125 9.484375 -11.125 C 9.460938 -11.46875 9.363281 -11.695312 9.1875 -11.8125 C 9.007812 -11.925781 8.707031 -11.972656 8.28125 -11.953125 L 6.34375 -11.90625 C 5.945312 -11.8125 5.769531 -11.476562 5.8125 -10.90625 L 6.390625 -3.859375 C 6.421875 -3.535156 6.503906 -3.320312 6.640625 -3.21875 C 6.785156 -3.125 6.992188 -3.09375 7.265625 -3.125 L 8.359375 -3.359375 C 8.648438 -3.410156 8.859375 -3.535156 8.984375 -3.734375 C 9.109375 -3.929688 9.179688 -4.242188 9.203125 -4.671875 Z M 9.46875 -9.625 "/></g></g><g style="fill:#396c84;fill-opacity:1;"><g transform="translate(150.376907, 74.197316)"><path style="stroke:none" d="M 3.984375 0 C 3.015625 0 2.363281 -0.300781 2.03125 -0.90625 C 1.707031 -1.507812 1.726562 -2.375 2.09375 -3.5 L 4.53125 -11.0625 C 4.6875 -11.59375 4.503906 -11.859375 3.984375 -11.859375 L 1.0625 -11.859375 C 0.800781 -11.859375 0.613281 -11.910156 0.5 -12.015625 C 0.394531 -12.128906 0.34375 -12.328125 0.34375 -12.609375 L 0.34375 -16.90625 L 3.984375 -16.90625 L 3.984375 -14.921875 L 6.640625 -14.921875 C 7.578125 -14.921875 8.234375 -14.609375 8.609375 -13.984375 C 8.984375 -13.359375 9.003906 -12.535156 8.671875 -11.515625 L 6.046875 -3.703125 C 5.972656 -3.523438 5.957031 -3.375 6 -3.25 C 6.039062 -3.125 6.171875 -3.0625 6.390625 -3.0625 L 7.484375 -3.0625 L 7.484375 0 Z M 3.984375 0 "/></g></g><g style="fill:#396c84;fill-opacity:1;"><g transform="translate(159.971169, 74.197316)"><path style="stroke:none" d=""/></g></g><g style="fill:#396c84;fill-opacity:1;"><g transform="translate(165.066565, 74.197316)"><path style="stroke:none" d="M 10.34375 -14.921875 C 11.070312 -14.921875 11.59375 -14.757812 11.90625 -14.4375 C 12.21875 -14.125 12.375 -13.597656 12.375 -12.859375 L 12.375 -0.921875 C 12.375 -0.585938 12.300781 -0.347656 12.15625 -0.203125 C 12.019531 -0.0664062 11.785156 0 11.453125 0 L 2.828125 0 C 2.503906 0 2.269531 -0.0664062 2.125 -0.203125 C 1.988281 -0.347656 1.921875 -0.585938 1.921875 -0.921875 L 1.921875 -10.265625 C 1.921875 -11.015625 2.039062 -11.546875 2.28125 -11.859375 L 0.890625 -11.859375 L 0.890625 -14.921875 Z M 8.625 -3.25 L 8.625 -11.109375 C 8.625 -11.441406 8.570312 -11.664062 8.46875 -11.78125 C 8.375 -11.894531 8.175781 -11.953125 7.875 -11.953125 L 6.390625 -11.953125 C 6.085938 -11.953125 5.890625 -11.878906 5.796875 -11.734375 C 5.710938 -11.585938 5.671875 -11.335938 5.671875 -10.984375 L 5.671875 -3.25 C 5.671875 -3.132812 5.691406 -3.054688 5.734375 -3.015625 C 5.773438 -2.972656 5.851562 -2.953125 5.96875 -2.953125 L 8.328125 -2.953125 C 8.460938 -2.953125 8.546875 -2.972656 8.578125 -3.015625 C 8.609375 -3.054688 8.625 -3.132812 8.625 -3.25 Z M 8.625 -3.25 "/></g></g><g style="fill:#396c84;fill-opacity:1;"><g transform="translate(178.811723, 74.197316)"><path style="stroke:none" d="M 4.96875 -7.8125 C 4.757812 -7.726562 4.632812 -7.609375 4.59375 -7.453125 C 4.5625 -7.304688 4.585938 -7.066406 4.671875 -6.734375 L 5.796875 -3.125 C 6.078125 -2.238281 6.132812 -1.492188 5.96875 -0.890625 C 5.800781 -0.296875 5.296875 0 4.453125 0 L 0.84375 0 L 0.84375 -3.0625 L 1.640625 -3.0625 C 1.859375 -3.0625 1.953125 -3.148438 1.921875 -3.328125 L 1.265625 -6.4375 C 1.097656 -7.21875 1.082031 -7.851562 1.21875 -8.34375 C 1.363281 -8.84375 1.609375 -9.257812 1.953125 -9.59375 C 2.296875 -9.925781 2.664062 -10.203125 3.0625 -10.421875 L 3.4375 -10.609375 L 0.875 -14.921875 L 4.796875 -14.921875 L 8.28125 -8.65625 C 8.414062 -8.738281 8.503906 -8.835938 8.546875 -8.953125 C 8.597656 -9.078125 8.625 -9.285156 8.625 -9.578125 L 8.625 -14.921875 L 12.3125 -14.921875 L 12.3125 -9.265625 C 12.3125 -8.503906 12.15625 -7.863281 11.84375 -7.34375 C 11.539062 -6.820312 11.003906 -6.328125 10.234375 -5.859375 L 9.890625 -5.640625 L 12.796875 0 L 8.921875 0 L 5 -7.8125 Z M 4.96875 -7.8125 "/></g></g><g style="fill:#396c84;fill-opacity:1;"><g transform="translate(192.134337, 74.197316)"><path style="stroke:none" d="M 9.796875 -14.921875 C 10.722656 -14.921875 11.378906 -14.722656 11.765625 -14.328125 C 12.160156 -13.941406 12.359375 -13.273438 12.359375 -12.328125 L 12.359375 0 L 8.5 0 L 8.5 -11.015625 C 8.5 -11.347656 8.441406 -11.585938 8.328125 -11.734375 C 8.210938 -11.878906 8 -11.953125 7.6875 -11.953125 L 7.015625 -11.953125 C 6.453125 -11.953125 6.0625 -11.773438 5.84375 -11.421875 C 5.625 -11.078125 5.613281 -10.351562 5.8125 -9.25 L 6.71875 -4.03125 C 6.957031 -2.664062 6.878906 -1.648438 6.484375 -0.984375 C 6.085938 -0.328125 5.285156 0 4.078125 0 L 0.765625 0 L 0.765625 -3.0625 L 2.234375 -3.0625 C 2.460938 -3.0625 2.640625 -3.125 2.765625 -3.25 C 2.890625 -3.382812 2.929688 -3.632812 2.890625 -4 L 2.0625 -8.75 C 1.894531 -9.675781 1.867188 -10.375 1.984375 -10.84375 C 2.097656 -11.320312 2.25 -11.660156 2.4375 -11.859375 L 0.828125 -11.859375 L 0.828125 -14.921875 Z M 9.796875 -14.921875 "/></g></g><g style="fill:#396c84;fill-opacity:1;"><g transform="translate(205.879495, 74.197316)"><path style="stroke:none" d="M 7.8125 0 L 7.8125 -11.109375 C 7.8125 -11.410156 7.753906 -11.609375 7.640625 -11.703125 C 7.535156 -11.804688 7.332031 -11.859375 7.03125 -11.859375 L 1.296875 -11.859375 L 1.296875 -14.921875 L 9.390625 -14.921875 C 10.222656 -14.921875 10.804688 -14.722656 11.140625 -14.328125 C 11.484375 -13.941406 11.65625 -13.273438 11.65625 -12.328125 L 11.65625 0 Z M 2.5625 0 C 1.71875 0 1.296875 -0.429688 1.296875 -1.296875 L 1.296875 -9.296875 L 5.140625 -9.296875 L 5.140625 -3.53125 C 5.140625 -3.21875 5.265625 -3.0625 5.515625 -3.0625 L 5.84375 -3.0625 L 5.84375 0 Z M 2.5625 0 "/></g></g><g style="fill:#396c84;fill-opacity:1;"><g transform="translate(218.903834, 74.197316)"><path style="stroke:none" d="M 9.515625 -3.0625 L 10.265625 -3.0625 L 10.265625 0 L 0.453125 0 L 0.453125 -3.0625 L 5.296875 -3.0625 C 5.242188 -3.15625 5.203125 -3.269531 5.171875 -3.40625 C 5.140625 -3.550781 5.125 -3.707031 5.125 -3.875 L 5.125 -11.109375 C 5.125 -11.410156 5.070312 -11.609375 4.96875 -11.703125 C 4.875 -11.804688 4.675781 -11.859375 4.375 -11.859375 L 0.71875 -11.859375 L 0.71875 -14.921875 L 6.59375 -14.921875 C 7.46875 -14.921875 8.082031 -14.722656 8.4375 -14.328125 C 8.789062 -13.941406 8.96875 -13.273438 8.96875 -12.328125 L 8.96875 -3.671875 C 8.96875 -3.265625 9.148438 -3.0625 9.515625 -3.0625 Z M 9.515625 -3.0625 "/></g></g></g></svg>