<svg xmlns="http://www.w3.org/2000/svg" xmlns:xlink="http://www.w3.org/1999/xlink" width="908" zoomAndPan="magnify" viewBox="0 0 681 143.249994" height="191" preserveAspectRatio="xMidYMid meet" version="1.2"><defs/><g id="e87b91bfd8"><g style="fill:#396c84;fill-opacity:1;"><g transform="translate(169.460132, 95.728756)"><path style="stroke:none" d="M 1.21875 -52.53125 L 33.4375 -52.53125 L 33.4375 -41.765625 L 31.6875 -41.765625 C 29.882812 -41.765625 28.984375 -40.566406 28.984375 -38.171875 L 28.984375 0 L 16.203125 0 L 16.203125 -36.15625 C 16.203125 -38.601562 16.578125 -40.472656 17.328125 -41.765625 L 1.21875 -41.765625 Z M 1.21875 -52.53125 "/></g></g><g style="fill:#396c84;fill-opacity:1;"><g transform="translate(205.263088, 95.728756)"><path style="stroke:none" d="M 7.796875 0 L 7.796875 -39.828125 C 7.796875 -40.648438 7.660156 -41.175781 7.390625 -41.40625 C 7.128906 -41.644531 6.59375 -41.765625 5.78125 -41.765625 L 2.625 -41.765625 L 2.625 -52.53125 L 15.5 -52.53125 C 17.65625 -52.53125 19.171875 -52.09375 20.046875 -51.21875 C 20.921875 -50.34375 21.359375 -48.851562 21.359375 -46.75 L 21.359375 0 Z M 7.796875 0 "/></g></g><g style="fill:#396c84;fill-opacity:1;"><g transform="translate(231.436888, 95.728756)"><path style="stroke:none" d="M 34.9375 -52.53125 C 38.03125 -52.53125 40.453125 -52.101562 42.203125 -51.25 C 43.953125 -50.40625 45.160156 -48.90625 45.828125 -46.75 C 46.503906 -44.59375 46.695312 -41.53125 46.40625 -37.5625 L 44.828125 -14 C 44.710938 -12.019531 44.40625 -10.210938 43.90625 -8.578125 C 43.40625 -6.941406 42.523438 -5.554688 41.265625 -4.421875 C 40.015625 -3.285156 38.164062 -2.507812 35.71875 -2.09375 L 19.875 0.53125 C 16.25 1.164062 13.738281 0.914062 12.34375 -0.21875 C 10.945312 -1.351562 10.128906 -3.296875 9.890625 -6.046875 L 7.609375 -35.8125 C 7.492188 -37.144531 7.597656 -38.320312 7.921875 -39.34375 C 8.242188 -40.375 8.695312 -41.238281 9.28125 -41.9375 C 7.644531 -42.164062 6.050781 -42.703125 4.5 -43.546875 C 2.957031 -44.398438 1.691406 -45.671875 0.703125 -47.359375 L 7.796875 -55.5 C 8.609375 -54.21875 9.4375 -53.398438 10.28125 -53.046875 C 11.132812 -52.703125 12.226562 -52.53125 13.5625 -52.53125 Z M 33.359375 -33.875 C 33.472656 -36.207031 33.484375 -37.972656 33.390625 -39.171875 C 33.304688 -40.367188 32.957031 -41.171875 32.34375 -41.578125 C 31.726562 -41.992188 30.664062 -42.171875 29.15625 -42.109375 L 22.328125 -41.9375 C 20.921875 -41.582031 20.304688 -40.414062 20.484375 -38.4375 L 22.5 -13.5625 C 22.613281 -12.457031 22.914062 -11.726562 23.40625 -11.375 C 23.90625 -11.03125 24.625 -10.914062 25.5625 -11.03125 L 29.421875 -11.8125 C 30.460938 -11.988281 31.203125 -12.425781 31.640625 -13.125 C 32.085938 -13.832031 32.335938 -14.941406 32.390625 -16.453125 Z M 33.359375 -33.875 "/></g></g><g style="fill:#396c84;fill-opacity:1;"><g transform="translate(281.245893, 95.728756)"><path style="stroke:none" d="M 7.703125 -22.234375 L 7.703125 -39.828125 C 7.703125 -40.648438 7.570312 -41.175781 7.3125 -41.40625 C 7.050781 -41.644531 6.507812 -41.765625 5.6875 -41.765625 L 2.359375 -41.765625 L 2.359375 -52.53125 L 14.359375 -52.53125 C 16.867188 -52.53125 18.632812 -52.019531 19.65625 -51 C 20.675781 -49.976562 21.1875 -48.210938 21.1875 -45.703125 L 21.1875 -22.234375 Z M 7.703125 -22.234375 "/></g></g><g style="fill:#396c84;fill-opacity:1;"><g transform="translate(306.719399, 95.728756)"><path style="stroke:none" d=""/></g></g><g style="fill:#396c84;fill-opacity:1;"><g transform="translate(324.664651, 95.728756)"><path style="stroke:none" d="M 7.703125 -22.234375 L 7.703125 -39.828125 C 7.703125 -40.648438 7.570312 -41.175781 7.3125 -41.40625 C 7.050781 -41.644531 6.507812 -41.765625 5.6875 -41.765625 L 2.359375 -41.765625 L 2.359375 -52.53125 L 14.359375 -52.53125 C 16.867188 -52.53125 18.632812 -52.019531 19.65625 -51 C 20.675781 -49.976562 21.1875 -48.210938 21.1875 -45.703125 L 21.1875 -22.234375 Z M 7.703125 -22.234375 "/></g></g><g style="fill:#396c84;fill-opacity:1;"><g transform="translate(350.138156, 95.728756)"><path style="stroke:none" d="M 33 0 L 20.75 0 L 15.578125 -18.390625 C 15.054688 -18.148438 14.707031 -17.882812 14.53125 -17.59375 C 14.351562 -17.300781 14.238281 -16.921875 14.1875 -16.453125 L 12.953125 0 L 0.09375 0 L 2.53125 -20.046875 C 2.769531 -21.910156 3.269531 -23.335938 4.03125 -24.328125 C 4.789062 -25.328125 5.957031 -26.148438 7.53125 -26.796875 L 13.046875 -29.0625 C 13.972656 -29.46875 14.671875 -30.003906 15.140625 -30.671875 C 15.609375 -31.347656 15.84375 -32.332031 15.84375 -33.625 L 15.84375 -39.390625 C 15.84375 -40.390625 15.695312 -41.035156 15.40625 -41.328125 C 15.113281 -41.617188 14.472656 -41.765625 13.484375 -41.765625 L 7.171875 -41.765625 L 7.171875 -52.53125 L 21.1875 -52.53125 C 23.75 -52.53125 25.628906 -51.875 26.828125 -50.5625 C 28.023438 -49.25 28.625 -47.132812 28.625 -44.21875 L 28.625 -27.75 C 28.625 -26.40625 28.445312 -25.320312 28.09375 -24.5 C 27.75 -23.6875 27.253906 -23.050781 26.609375 -22.59375 Z M 33 0 "/></g></g><g style="fill:#396c84;fill-opacity:1;"><g transform="translate(384.277896, 95.728756)"><path style="stroke:none" d="M 39.578125 -52.53125 L 52.703125 -52.53125 L 50.171875 -18.640625 C 49.703125 -11.929688 47.960938 -7.144531 44.953125 -4.28125 C 41.953125 -1.425781 37.238281 0 30.8125 0 L 13.3125 0 C 11.03125 0 9.378906 -0.582031 8.359375 -1.75 C 7.335938 -2.914062 6.679688 -4.550781 6.390625 -6.65625 L 4.90625 -17.859375 C 4.4375 -20.722656 5.222656 -22.910156 7.265625 -24.421875 L 2.984375 -52.53125 L 16.203125 -52.53125 L 19.78125 -28.796875 L 19.875 -28.796875 C 20.6875 -29.085938 21.195312 -29.410156 21.40625 -29.765625 C 21.613281 -30.117188 21.71875 -30.757812 21.71875 -31.6875 L 21.71875 -52.53125 L 34.75 -52.53125 L 34.75 -29.0625 C 34.75 -26.5 34.34375 -24.644531 33.53125 -23.5 C 32.71875 -22.363281 31.40625 -21.476562 29.59375 -20.84375 L 20.140625 -17.59375 C 19.140625 -17.1875 18.535156 -16.820312 18.328125 -16.5 C 18.128906 -16.175781 18.085938 -15.550781 18.203125 -14.625 L 18.5625 -12.34375 C 18.675781 -11.582031 18.953125 -11.097656 19.390625 -10.890625 C 19.828125 -10.691406 20.484375 -10.59375 21.359375 -10.59375 L 27.234375 -10.59375 C 29.679688 -10.59375 31.585938 -10.8125 32.953125 -11.25 C 34.328125 -11.6875 35.320312 -12.546875 35.9375 -13.828125 C 36.550781 -15.117188 36.945312 -16.988281 37.125 -19.4375 Z M 39.578125 -52.53125 "/></g></g><g style="fill:#396c84;fill-opacity:1;"><g transform="translate(440.039474, 95.728756)"><path style="stroke:none" d="M 7.796875 0 L 7.796875 -39.828125 C 7.796875 -40.648438 7.660156 -41.175781 7.390625 -41.40625 C 7.128906 -41.644531 6.59375 -41.765625 5.78125 -41.765625 L 2.625 -41.765625 L 2.625 -52.53125 L 15.5 -52.53125 C 17.65625 -52.53125 19.171875 -52.09375 20.046875 -51.21875 C 20.921875 -50.34375 21.359375 -48.851562 21.359375 -46.75 L 21.359375 0 Z M 7.796875 0 "/></g></g><g style="fill:#396c84;fill-opacity:1;"><g transform="translate(466.213273, 95.728756)"><path style="stroke:none" d="M 42.109375 -7.4375 C 42.222656 -4.875 41.679688 -2.992188 40.484375 -1.796875 C 39.296875 -0.597656 37.328125 0 34.578125 0 L 21.71875 0 L 21.71875 -10.765625 L 26.09375 -10.765625 C 27.019531 -10.765625 27.597656 -10.953125 27.828125 -11.328125 C 28.066406 -11.710938 28.160156 -12.34375 28.109375 -13.21875 L 26.796875 -37.46875 C 26.734375 -39.164062 26.507812 -40.363281 26.125 -41.0625 C 25.75 -41.757812 25.066406 -42.109375 24.078125 -42.109375 L 23.71875 -42.109375 C 22.96875 -42.109375 22.429688 -41.890625 22.109375 -41.453125 C 21.785156 -41.015625 21.535156 -40.125 21.359375 -38.78125 L 16.203125 0 L 2.359375 0 L 7.265625 -33.703125 C 7.785156 -37.378906 8.804688 -40.066406 10.328125 -41.765625 L 3.859375 -41.765625 L 3.859375 -52.53125 L 28.796875 -52.53125 C 32.128906 -52.53125 34.816406 -51.625 36.859375 -49.8125 C 38.898438 -48 40.035156 -44.585938 40.265625 -39.578125 Z M 42.109375 -7.4375 "/></g></g><path style="fill:none;stroke-width:8;stroke-linecap:round;stroke-linejoin:miter;stroke:#396c84;stroke-opacity:1;stroke-miterlimit:4;" d="M 3.998993 4.000474 L 833.040465 4.000474 " transform="matrix(0.746066,0,0,0.746066,28.219613,127.566164)"/></g></svg>