<svg xmlns="http://www.w3.org/2000/svg" xmlns:xlink="http://www.w3.org/1999/xlink" width="1188" zoomAndPan="magnify" viewBox="0 0 890.88 247.499998" height="330" preserveAspectRatio="xMidYMid meet" version="1.2"><defs><clipPath id="0c041f08c5"><path d="M 29.257812 13.480469 L 570.992188 13.480469 L 570.992188 123.929688 L 29.257812 123.929688 Z M 29.257812 13.480469 "/></clipPath><clipPath id="d09712897c"><path d="M 277.148438 13.480469 L 818.878906 13.480469 L 818.878906 123.929688 L 277.148438 123.929688 Z M 277.148438 13.480469 "/></clipPath></defs><g id="39decf712a"><g style="fill:#396c84;fill-opacity:1;"><g transform="translate(297.074984, 206.817254)"><path style="stroke:none" d="M 1.0625 -45.5 L 28.96875 -45.5 L 28.96875 -36.171875 L 27.453125 -36.171875 C 25.890625 -36.171875 25.109375 -35.132812 25.109375 -33.0625 L 25.109375 0 L 14.03125 0 L 14.03125 -31.328125 C 14.03125 -33.453125 14.359375 -35.066406 15.015625 -36.171875 L 1.0625 -36.171875 Z M 1.0625 -45.5 "/></g></g><g style="fill:#396c84;fill-opacity:1;"><g transform="translate(328.094721, 206.817254)"><path style="stroke:none" d="M 6.75 0 L 6.75 -34.515625 C 6.75 -35.222656 6.632812 -35.675781 6.40625 -35.875 C 6.175781 -36.070312 5.707031 -36.171875 5 -36.171875 L 2.28125 -36.171875 L 2.28125 -45.5 L 13.421875 -45.5 C 15.296875 -45.5 16.609375 -45.117188 17.359375 -44.359375 C 18.117188 -43.609375 18.5 -42.320312 18.5 -40.5 L 18.5 0 Z M 6.75 0 "/></g></g><g style="fill:#396c84;fill-opacity:1;"><g transform="translate(350.771747, 206.817254)"><path style="stroke:none" d="M 30.265625 -45.5 C 32.941406 -45.5 35.035156 -45.132812 36.546875 -44.40625 C 38.066406 -43.675781 39.117188 -42.375 39.703125 -40.5 C 40.285156 -38.625 40.453125 -35.96875 40.203125 -32.53125 L 38.828125 -12.140625 C 38.734375 -10.421875 38.46875 -8.851562 38.03125 -7.4375 C 37.601562 -6.019531 36.84375 -4.816406 35.75 -3.828125 C 34.664062 -2.835938 33.0625 -2.164062 30.9375 -1.8125 L 17.21875 0.453125 C 14.082031 1.015625 11.90625 0.800781 10.6875 -0.1875 C 9.476562 -1.175781 8.773438 -2.859375 8.578125 -5.234375 L 6.59375 -31.015625 C 6.5 -32.179688 6.585938 -33.207031 6.859375 -34.09375 C 7.140625 -34.976562 7.535156 -35.722656 8.046875 -36.328125 C 6.628906 -36.523438 5.25 -36.988281 3.90625 -37.71875 C 2.5625 -38.457031 1.460938 -39.5625 0.609375 -41.03125 L 6.75 -48.078125 C 7.457031 -46.972656 8.175781 -46.265625 8.90625 -45.953125 C 9.644531 -45.648438 10.59375 -45.5 11.75 -45.5 Z M 28.890625 -29.34375 C 28.992188 -31.375 29.007812 -32.90625 28.9375 -33.9375 C 28.863281 -34.976562 28.5625 -35.675781 28.03125 -36.03125 C 27.5 -36.382812 26.570312 -36.535156 25.25 -36.484375 L 19.34375 -36.328125 C 18.125 -36.023438 17.59375 -35.015625 17.75 -33.296875 L 19.484375 -11.75 C 19.585938 -10.789062 19.851562 -10.160156 20.28125 -9.859375 C 20.71875 -9.554688 21.335938 -9.457031 22.140625 -9.5625 L 25.484375 -10.234375 C 26.390625 -10.390625 27.03125 -10.769531 27.40625 -11.375 C 27.789062 -11.976562 28.007812 -12.941406 28.0625 -14.265625 Z M 28.890625 -29.34375 "/></g></g><g style="fill:#396c84;fill-opacity:1;"><g transform="translate(393.926351, 206.817254)"><path style="stroke:none" d="M 6.671875 -19.265625 L 6.671875 -34.515625 C 6.671875 -35.222656 6.554688 -35.675781 6.328125 -35.875 C 6.097656 -36.070312 5.632812 -36.171875 4.9375 -36.171875 L 2.046875 -36.171875 L 2.046875 -45.5 L 12.4375 -45.5 C 14.613281 -45.5 16.144531 -45.054688 17.03125 -44.171875 C 17.914062 -43.296875 18.359375 -41.769531 18.359375 -39.59375 L 18.359375 -19.265625 Z M 6.671875 -19.265625 "/></g></g><g style="fill:#396c84;fill-opacity:1;"><g transform="translate(415.996624, 206.817254)"><path style="stroke:none" d=""/></g></g><g style="fill:#396c84;fill-opacity:1;"><g transform="translate(431.544411, 206.817254)"><path style="stroke:none" d="M 6.671875 -19.265625 L 6.671875 -34.515625 C 6.671875 -35.222656 6.554688 -35.675781 6.328125 -35.875 C 6.097656 -36.070312 5.632812 -36.171875 4.9375 -36.171875 L 2.046875 -36.171875 L 2.046875 -45.5 L 12.4375 -45.5 C 14.613281 -45.5 16.144531 -45.054688 17.03125 -44.171875 C 17.914062 -43.296875 18.359375 -41.769531 18.359375 -39.59375 L 18.359375 -19.265625 Z M 6.671875 -19.265625 "/></g></g><g style="fill:#396c84;fill-opacity:1;"><g transform="translate(453.614684, 206.817254)"><path style="stroke:none" d="M 28.59375 0 L 17.96875 0 L 13.5 -15.921875 C 13.039062 -15.722656 12.734375 -15.492188 12.578125 -15.234375 C 12.429688 -14.984375 12.332031 -14.660156 12.28125 -14.265625 L 11.21875 0 L 0.078125 0 L 2.203125 -17.375 C 2.398438 -18.988281 2.828125 -20.222656 3.484375 -21.078125 C 4.140625 -21.941406 5.148438 -22.648438 6.515625 -23.203125 L 11.296875 -25.1875 C 12.109375 -25.539062 12.71875 -26.003906 13.125 -26.578125 C 13.53125 -27.160156 13.734375 -28.007812 13.734375 -29.125 L 13.734375 -34.125 C 13.734375 -34.988281 13.601562 -35.546875 13.34375 -35.796875 C 13.09375 -36.046875 12.539062 -36.171875 11.6875 -36.171875 L 6.21875 -36.171875 L 6.21875 -45.5 L 18.359375 -45.5 C 20.578125 -45.5 22.203125 -44.929688 23.234375 -43.796875 C 24.273438 -42.660156 24.796875 -40.828125 24.796875 -38.296875 L 24.796875 -24.046875 C 24.796875 -22.878906 24.644531 -21.941406 24.34375 -21.234375 C 24.039062 -20.523438 23.613281 -19.96875 23.0625 -19.5625 Z M 28.59375 0 "/></g></g><g style="fill:#396c84;fill-opacity:1;"><g transform="translate(483.193409, 206.817254)"><path style="stroke:none" d="M 34.28125 -45.5 L 45.65625 -45.5 L 43.453125 -16.15625 C 43.054688 -10.34375 41.554688 -6.195312 38.953125 -3.71875 C 36.347656 -1.238281 32.265625 0 26.703125 0 L 11.53125 0 C 9.5625 0 8.132812 -0.503906 7.25 -1.515625 C 6.363281 -2.523438 5.789062 -3.941406 5.53125 -5.765625 L 4.25 -15.46875 C 3.84375 -17.945312 4.523438 -19.84375 6.296875 -21.15625 L 2.578125 -45.5 L 14.03125 -45.5 L 17.140625 -24.953125 L 17.21875 -24.953125 C 17.925781 -25.203125 18.367188 -25.476562 18.546875 -25.78125 C 18.722656 -26.082031 18.8125 -26.640625 18.8125 -27.453125 L 18.8125 -45.5 L 30.109375 -45.5 L 30.109375 -25.1875 C 30.109375 -22.957031 29.753906 -21.347656 29.046875 -20.359375 C 28.335938 -19.378906 27.203125 -18.609375 25.640625 -18.046875 L 17.4375 -15.25 C 16.582031 -14.894531 16.066406 -14.578125 15.890625 -14.296875 C 15.710938 -14.015625 15.675781 -13.472656 15.78125 -12.671875 L 16.078125 -10.6875 C 16.179688 -10.03125 16.421875 -9.613281 16.796875 -9.4375 C 17.179688 -9.257812 17.75 -9.171875 18.5 -9.171875 L 23.59375 -9.171875 C 25.707031 -9.171875 27.359375 -9.359375 28.546875 -9.734375 C 29.742188 -10.117188 30.609375 -10.867188 31.140625 -11.984375 C 31.671875 -13.097656 32.007812 -14.71875 32.15625 -16.84375 Z M 34.28125 -45.5 "/></g></g><g style="fill:#396c84;fill-opacity:1;"><g transform="translate(531.505323, 206.817254)"><path style="stroke:none" d="M 6.75 0 L 6.75 -34.515625 C 6.75 -35.222656 6.632812 -35.675781 6.40625 -35.875 C 6.175781 -36.070312 5.707031 -36.171875 5 -36.171875 L 2.28125 -36.171875 L 2.28125 -45.5 L 13.421875 -45.5 C 15.296875 -45.5 16.609375 -45.117188 17.359375 -44.359375 C 18.117188 -43.609375 18.5 -42.320312 18.5 -40.5 L 18.5 0 Z M 6.75 0 "/></g></g><g style="fill:#396c84;fill-opacity:1;"><g transform="translate(554.182348, 206.817254)"><path style="stroke:none" d="M 36.484375 -6.453125 C 36.578125 -4.222656 36.101562 -2.585938 35.0625 -1.546875 C 34.03125 -0.515625 32.328125 0 29.953125 0 L 18.8125 0 L 18.8125 -9.328125 L 22.59375 -9.328125 C 23.40625 -9.328125 23.910156 -9.488281 24.109375 -9.8125 C 24.316406 -10.144531 24.394531 -10.691406 24.34375 -11.453125 L 23.203125 -32.46875 C 23.148438 -33.925781 22.957031 -34.957031 22.625 -35.5625 C 22.300781 -36.175781 21.710938 -36.484375 20.859375 -36.484375 L 20.546875 -36.484375 C 19.890625 -36.484375 19.421875 -36.289062 19.140625 -35.90625 C 18.867188 -35.53125 18.65625 -34.757812 18.5 -33.59375 L 14.03125 0 L 2.046875 0 L 6.296875 -29.203125 C 6.753906 -32.390625 7.640625 -34.710938 8.953125 -36.171875 L 3.34375 -36.171875 L 3.34375 -45.5 L 24.953125 -45.5 C 27.835938 -45.5 30.160156 -44.710938 31.921875 -43.140625 C 33.691406 -41.578125 34.679688 -38.625 34.890625 -34.28125 Z M 36.484375 -6.453125 "/></g></g><g clip-rule="nonzero" clip-path="url(#0c041f08c5)"><path style=" stroke:none;fill-rule:nonzero;fill:#e0f5ff;fill-opacity:1;" d="M 570.816406 34.882812 L 558.628906 111.613281 C 557.582031 118.199219 551.871094 123.019531 545.203125 122.949219 L 503.191406 122.484375 L 449.5625 121.90625 L 288.707031 120.144531 L 235.089844 119.5625 L 187.585938 118.984375 L 134.03125 118.394531 L 31.089844 123.929688 C 30.015625 123.976562 29.152344 123.039062 29.269531 121.964844 L 29.765625 117.402344 L 31.199219 104.582031 C 31.222656 104.332031 31.304688 104.097656 31.421875 103.882812 L 34.710938 98.265625 C 34.96875 97.804688 35.015625 97.25 34.839844 96.753906 L 32.855469 91.382812 C 32.757812 91.125 32.722656 90.851562 32.757812 90.582031 L 33.441406 84.394531 L 34.910156 71.1875 L 35.644531 64.574219 L 36.375 57.980469 L 37.84375 44.78125 L 38.574219 38.167969 L 39.273438 31.953125 C 39.296875 31.703125 39.378906 31.457031 39.511719 31.242188 L 44.039062 23.578125 C 44.453125 22.894531 44.347656 22.003906 43.78125 21.441406 C 43.425781 21.070312 43.273438 20.632812 43.273438 20.207031 C 43.273438 19.285156 43.992188 18.398438 45.066406 18.410156 L 48.210938 19.011719 L 212.382812 13.480469 L 255.832031 14.140625 L 319.984375 14.828125 L 376.140625 15.453125 L 436.296875 16.105469 L 496.4375 16.753906 L 558.101562 19.339844 C 566.132812 19.675781 572.078125 26.941406 570.816406 34.882812 "/></g><g clip-rule="nonzero" clip-path="url(#d09712897c)"><path style=" stroke:none;fill-rule:nonzero;fill:#e0f5ff;fill-opacity:1;" d="M 818.707031 34.882812 L 806.519531 111.613281 C 805.472656 118.199219 799.757812 123.019531 793.089844 122.949219 L 751.082031 122.484375 L 697.453125 121.90625 L 536.59375 120.144531 L 482.980469 119.5625 L 435.476562 118.984375 L 381.917969 118.394531 L 278.980469 123.929688 C 277.90625 123.976562 277.042969 123.039062 277.160156 121.964844 L 277.65625 117.402344 L 279.085938 104.582031 C 279.113281 104.332031 279.195312 104.097656 279.3125 103.882812 L 282.601562 98.265625 C 282.859375 97.804688 282.90625 97.25 282.730469 96.753906 L 280.742188 91.382812 C 280.648438 91.125 280.613281 90.851562 280.648438 90.582031 L 281.332031 84.394531 L 282.800781 71.1875 L 283.535156 64.574219 L 284.265625 57.980469 L 285.734375 44.78125 L 286.464844 38.167969 L 287.164062 31.953125 C 287.1875 31.703125 287.269531 31.457031 287.402344 31.242188 L 291.929688 23.578125 C 292.34375 22.894531 292.238281 22.003906 291.667969 21.441406 C 291.316406 21.070312 291.164062 20.632812 291.164062 20.207031 C 291.164062 19.285156 291.882812 18.398438 292.957031 18.410156 L 296.101562 19.011719 L 460.273438 13.480469 L 503.722656 14.140625 L 567.875 14.828125 L 624.03125 15.453125 L 684.1875 16.105469 L 744.328125 16.753906 L 805.992188 19.339844 C 814.023438 19.675781 819.96875 26.941406 818.707031 34.882812 "/></g><g style="fill:#396c84;fill-opacity:1;"><g transform="translate(103.310417, 100.243636)"><path style="stroke:none" d="M 24.109375 -11.28125 L 32 -11.28125 L 32 0 L 1.015625 0 L 1.015625 -11.28125 L 9.90625 -11.28125 L 9.90625 -46.484375 C 9.90625 -47.210938 9.765625 -47.695312 9.484375 -47.9375 C 9.210938 -48.1875 8.679688 -48.3125 7.890625 -48.3125 L 4.40625 -48.3125 L 4.40625 -59.59375 L 17.515625 -59.59375 C 19.953125 -59.59375 21.660156 -59.101562 22.640625 -58.125 C 23.617188 -57.144531 24.109375 -55.429688 24.109375 -52.984375 Z M 24.109375 -11.28125 "/></g></g><g style="fill:#396c84;fill-opacity:1;"><g transform="translate(135.953351, 100.243636)"><path style="stroke:none" d=""/></g></g><g style="fill:#396c84;fill-opacity:1;"><g transform="translate(154.744959, 100.243636)"><path style="stroke:none" d="M 42.90625 -55 C 45.59375 -55 47.394531 -54.082031 48.3125 -52.25 C 49.226562 -50.414062 49.378906 -48.15625 48.765625 -45.46875 L 39.421875 0 L 25.03125 0 L 33.09375 -41.53125 C 33.28125 -42.5625 33.3125 -43.242188 33.1875 -43.578125 C 33.0625 -43.921875 32.476562 -44.09375 31.4375 -44.09375 L 24.203125 -44.09375 C 23.460938 -44.09375 22.878906 -44 22.453125 -43.8125 C 22.023438 -43.632812 21.8125 -42.929688 21.8125 -41.703125 L 21.8125 2.203125 C 21.8125 2.929688 22.179688 3.296875 22.921875 3.296875 L 25.125 3.296875 L 25.125 14.03125 L 12.65625 14.03125 C 9.289062 14.03125 7.609375 12.347656 7.609375 8.984375 L 7.609375 -39.96875 C 7.609375 -41.800781 7.941406 -43.054688 8.609375 -43.734375 L 3.296875 -43.734375 L 3.296875 -55 Z M 42.90625 -55 "/></g></g><g style="fill:#396c84;fill-opacity:1;"><g transform="translate(206.444788, 100.243636)"><path style="stroke:none" d="M 17.515625 0 L 17.515625 -40.421875 C 17.515625 -42.628906 16.410156 -43.734375 14.203125 -43.734375 L 1.28125 -43.734375 L 1.28125 -55 L 22.453125 -55 C 25.878906 -55 28.28125 -54.296875 29.65625 -52.890625 C 31.03125 -51.484375 31.71875 -49.101562 31.71875 -45.75 L 31.71875 0 Z M 17.515625 0 "/></g></g><g style="fill:#396c84;fill-opacity:1;"><g transform="translate(243.203006, 100.243636)"><path style="stroke:none" d="M 4.21875 0 L 4.21875 -11.28125 L 25.765625 -11.28125 C 27.960938 -11.28125 29.0625 -12.347656 29.0625 -14.484375 L 29.0625 -41.15625 C 29.0625 -42.320312 28.953125 -43.101562 28.734375 -43.5 C 28.523438 -43.894531 27.78125 -44.09375 26.5 -44.09375 L 22.1875 -44.09375 C 20.957031 -44.09375 20.144531 -43.894531 19.75 -43.5 C 19.351562 -43.101562 19.09375 -42.320312 18.96875 -41.15625 L 17.96875 -33.09375 C 17.90625 -32.238281 17.992188 -31.640625 18.234375 -31.296875 C 18.484375 -30.960938 19.035156 -30.796875 19.890625 -30.796875 L 23.28125 -30.796875 L 23.28125 -19.796875 L 10.359375 -19.796875 C 7.609375 -19.796875 5.664062 -20.421875 4.53125 -21.671875 C 3.40625 -22.929688 2.992188 -24.90625 3.296875 -27.59375 L 5.59375 -47.125 C 5.894531 -49.875 6.734375 -51.875 8.109375 -53.125 C 9.484375 -54.375 11.515625 -55 14.203125 -55 L 34.109375 -55 C 37.460938 -55 39.828125 -54.3125 41.203125 -52.9375 C 42.578125 -51.5625 43.265625 -49.164062 43.265625 -45.75 L 43.265625 -9.171875 C 43.265625 -5.804688 42.578125 -3.4375 41.203125 -2.0625 C 39.828125 -0.6875 37.460938 0 34.109375 0 Z M 4.21875 0 "/></g></g><g style="fill:#396c84;fill-opacity:1;"><g transform="translate(291.144513, 100.243636)"><path style="stroke:none" d=""/></g></g><g style="fill:#396c84;fill-opacity:1;"><g transform="translate(309.936122, 100.243636)"><path style="stroke:none" d="M 36.125 -55 C 39.539062 -55 41.96875 -54.28125 43.40625 -52.84375 C 44.84375 -51.40625 45.5625 -48.945312 45.5625 -45.46875 L 45.5625 0 L 31.359375 0 L 31.359375 -40.609375 C 31.359375 -41.828125 31.140625 -42.710938 30.703125 -43.265625 C 30.273438 -43.816406 29.484375 -44.09375 28.328125 -44.09375 L 25.84375 -44.09375 C 23.769531 -44.09375 22.332031 -43.453125 21.53125 -42.171875 C 20.738281 -40.890625 20.710938 -38.203125 21.453125 -34.109375 L 24.75 -14.84375 C 25.664062 -9.832031 25.390625 -6.101562 23.921875 -3.65625 C 22.453125 -1.21875 19.488281 0 15.03125 0 L 2.84375 0 L 2.84375 -11.28125 L 8.25 -11.28125 C 9.101562 -11.28125 9.757812 -11.523438 10.21875 -12.015625 C 10.675781 -12.503906 10.816406 -13.421875 10.640625 -14.765625 L 7.609375 -32.265625 C 6.992188 -35.691406 6.898438 -38.273438 7.328125 -40.015625 C 7.753906 -41.753906 8.304688 -42.992188 8.984375 -43.734375 L 3.03125 -43.734375 L 3.03125 -55 Z M 36.125 -55 "/></g></g><g style="fill:#396c84;fill-opacity:1;"><g transform="translate(360.627637, 100.243636)"><path style="stroke:none" d="M 18.328125 -28.78125 C 17.535156 -28.476562 17.078125 -28.050781 16.953125 -27.5 C 16.835938 -26.945312 16.929688 -26.0625 17.234375 -24.84375 L 21.359375 -11.546875 C 22.398438 -8.242188 22.613281 -5.492188 22 -3.296875 C 21.382812 -1.097656 19.519531 0 16.40625 0 L 3.109375 0 L 3.109375 -11.28125 L 6.046875 -11.28125 C 6.835938 -11.28125 7.175781 -11.613281 7.0625 -12.28125 L 4.671875 -23.75 C 4.066406 -26.613281 4.019531 -28.960938 4.53125 -30.796875 C 5.050781 -32.628906 5.9375 -34.15625 7.1875 -35.375 C 8.445312 -36.601562 9.8125 -37.613281 11.28125 -38.40625 L 12.65625 -39.140625 L 3.203125 -55 L 17.6875 -55 L 30.53125 -31.90625 C 31.019531 -32.207031 31.351562 -32.585938 31.53125 -33.046875 C 31.71875 -33.503906 31.8125 -34.253906 31.8125 -35.296875 L 31.8125 -55 L 45.375 -55 L 45.375 -34.1875 C 45.375 -31.382812 44.804688 -29.019531 43.671875 -27.09375 C 42.546875 -25.164062 40.578125 -23.347656 37.765625 -21.640625 L 36.484375 -20.8125 L 47.21875 0 L 32.90625 0 L 18.421875 -28.78125 Z M 18.328125 -28.78125 "/></g></g><g style="fill:#396c84;fill-opacity:1;"><g transform="translate(409.760797, 100.243636)"><path style="stroke:none" d=""/></g></g><g style="fill:#396c84;fill-opacity:1;"><g transform="translate(428.552406, 100.243636)"><path style="stroke:none" d="M 14.671875 0 C 11.117188 0 8.734375 -1.113281 7.515625 -3.34375 C 6.296875 -5.570312 6.359375 -8.765625 7.703125 -12.921875 L 16.6875 -40.796875 C 17.289062 -42.753906 16.617188 -43.734375 14.671875 -43.734375 L 3.9375 -43.734375 C 2.957031 -43.734375 2.269531 -43.929688 1.875 -44.328125 C 1.476562 -44.722656 1.28125 -45.441406 1.28125 -46.484375 L 1.28125 -62.34375 L 14.671875 -62.34375 L 14.671875 -55 L 24.46875 -55 C 27.957031 -55 30.390625 -53.851562 31.765625 -51.5625 C 33.140625 -49.269531 33.21875 -46.226562 32 -42.4375 L 22.28125 -13.65625 C 22.03125 -12.988281 21.984375 -12.425781 22.140625 -11.96875 C 22.296875 -11.507812 22.769531 -11.28125 23.5625 -11.28125 L 27.59375 -11.28125 L 27.59375 0 Z M 14.671875 0 "/></g></g><g style="fill:#396c84;fill-opacity:1;"><g transform="translate(463.93562, 100.243636)"><path style="stroke:none" d="M 8.0625 -23.28125 L 8.0625 -41.703125 C 8.0625 -42.566406 7.921875 -43.117188 7.640625 -43.359375 C 7.367188 -43.609375 6.804688 -43.734375 5.953125 -43.734375 L 2.46875 -43.734375 L 2.46875 -55 L 15.03125 -55 C 17.65625 -55 19.503906 -54.460938 20.578125 -53.390625 C 21.648438 -52.328125 22.1875 -50.484375 22.1875 -47.859375 L 22.1875 -23.28125 Z M 8.0625 -23.28125 "/></g></g><g style="fill:#396c84;fill-opacity:1;"><g transform="translate(490.61055, 100.243636)"><path style="stroke:none" d="M 51.25 -55 L 51.25 -43.734375 L 46.015625 -43.734375 C 46.691406 -42.566406 47.03125 -40.363281 47.03125 -37.125 L 47.03125 0 L 32.8125 0 L 32.8125 -39.609375 C 32.8125 -41.378906 32.675781 -42.507812 32.40625 -43 C 32.132812 -43.488281 31.566406 -43.734375 30.703125 -43.734375 L 23.75 -43.734375 C 22.945312 -43.734375 22.40625 -43.488281 22.125 -43 C 21.851562 -42.507812 21.71875 -41.378906 21.71875 -39.609375 L 21.71875 0 L 7.515625 0 L 7.515625 -37.125 C 7.515625 -40.363281 7.851562 -42.566406 8.53125 -43.734375 L 3.296875 -43.734375 L 3.296875 -55 Z M 51.25 -55 "/></g></g><g style="fill:#396c84;fill-opacity:1;"><g transform="translate(545.152027, 100.243636)"><path style="stroke:none" d="M 36.125 -55 C 39.539062 -55 41.96875 -54.28125 43.40625 -52.84375 C 44.84375 -51.40625 45.5625 -48.945312 45.5625 -45.46875 L 45.5625 0 L 31.359375 0 L 31.359375 -40.609375 C 31.359375 -41.828125 31.140625 -42.710938 30.703125 -43.265625 C 30.273438 -43.816406 29.484375 -44.09375 28.328125 -44.09375 L 25.84375 -44.09375 C 23.769531 -44.09375 22.332031 -43.453125 21.53125 -42.171875 C 20.738281 -40.890625 20.710938 -38.203125 21.453125 -34.109375 L 24.75 -14.84375 C 25.664062 -9.832031 25.390625 -6.101562 23.921875 -3.65625 C 22.453125 -1.21875 19.488281 0 15.03125 0 L 2.84375 0 L 2.84375 -11.28125 L 8.25 -11.28125 C 9.101562 -11.28125 9.757812 -11.523438 10.21875 -12.015625 C 10.675781 -12.503906 10.816406 -13.421875 10.640625 -14.765625 L 7.609375 -32.265625 C 6.992188 -35.691406 6.898438 -38.273438 7.328125 -40.015625 C 7.753906 -41.753906 8.304688 -42.992188 8.984375 -43.734375 L 3.03125 -43.734375 L 3.03125 -55 Z M 36.125 -55 "/></g></g><g style="fill:#396c84;fill-opacity:1;"><g transform="translate(595.843507, 100.243636)"><path style="stroke:none" d="M 0.28125 0 L 0.28125 -11.28125 L 7.890625 -11.28125 C 9.171875 -11.28125 10.023438 -11.492188 10.453125 -11.921875 C 10.878906 -12.347656 11.09375 -13.234375 11.09375 -14.578125 L 11.09375 -40.984375 C 11.09375 -42.078125 10.910156 -42.804688 10.546875 -43.171875 C 10.179688 -43.546875 9.476562 -43.734375 8.4375 -43.734375 L 5.21875 -43.734375 L 5.21875 -55 L 16.875 -55 C 19.925781 -55 22.09375 -54.3125 23.375 -52.9375 C 24.65625 -51.5625 25.296875 -49.253906 25.296875 -46.015625 L 25.296875 -9.171875 C 25.296875 -5.804688 24.640625 -3.4375 23.328125 -2.0625 C 22.015625 -0.6875 19.800781 0 16.6875 0 Z M 0.28125 0 "/></g></g><g style="fill:#396c84;fill-opacity:1;"><g transform="translate(625.726776, 100.243636)"><path style="stroke:none" d=""/></g></g><g style="fill:#396c84;fill-opacity:1;"><g transform="translate(644.51836, 100.243636)"><path style="stroke:none" d="M 8.15625 0 L 8.15625 -41.703125 C 8.15625 -42.566406 8.015625 -43.117188 7.734375 -43.359375 C 7.460938 -43.609375 6.898438 -43.734375 6.046875 -43.734375 L 2.75 -43.734375 L 2.75 -55 L 16.21875 -55 C 18.488281 -55 20.082031 -54.539062 21 -53.625 C 21.914062 -52.707031 22.375 -51.148438 22.375 -48.953125 L 22.375 0 Z M 8.15625 0 "/></g></g><g style="fill:#396c84;fill-opacity:1;"><g transform="translate(671.9266, 100.243636)"><path style="stroke:none" d="M 18.328125 -28.78125 C 17.535156 -28.476562 17.078125 -28.050781 16.953125 -27.5 C 16.835938 -26.945312 16.929688 -26.0625 17.234375 -24.84375 L 21.359375 -11.546875 C 22.398438 -8.242188 22.613281 -5.492188 22 -3.296875 C 21.382812 -1.097656 19.519531 0 16.40625 0 L 3.109375 0 L 3.109375 -11.28125 L 6.046875 -11.28125 C 6.835938 -11.28125 7.175781 -11.613281 7.0625 -12.28125 L 4.671875 -23.75 C 4.066406 -26.613281 4.019531 -28.960938 4.53125 -30.796875 C 5.050781 -32.628906 5.9375 -34.15625 7.1875 -35.375 C 8.445312 -36.601562 9.8125 -37.613281 11.28125 -38.40625 L 12.65625 -39.140625 L 3.203125 -55 L 17.6875 -55 L 30.53125 -31.90625 C 31.019531 -32.207031 31.351562 -32.585938 31.53125 -33.046875 C 31.71875 -33.503906 31.8125 -34.253906 31.8125 -35.296875 L 31.8125 -55 L 45.375 -55 L 45.375 -34.1875 C 45.375 -31.382812 44.804688 -29.019531 43.671875 -27.09375 C 42.546875 -25.164062 40.578125 -23.347656 37.765625 -21.640625 L 36.484375 -20.8125 L 47.21875 0 L 32.90625 0 L 18.421875 -28.78125 Z M 18.328125 -28.78125 "/></g></g><g style="fill:#396c84;fill-opacity:1;"><g transform="translate(721.05976, 100.243636)"><path style="stroke:none" d="M 8.15625 0 L 8.15625 -41.703125 C 8.15625 -42.566406 8.015625 -43.117188 7.734375 -43.359375 C 7.460938 -43.609375 6.898438 -43.734375 6.046875 -43.734375 L 2.75 -43.734375 L 2.75 -55 L 16.21875 -55 C 18.488281 -55 20.082031 -54.539062 21 -53.625 C 21.914062 -52.707031 22.375 -51.148438 22.375 -48.953125 L 22.375 0 Z M 8.15625 0 "/></g></g><g style="fill:#396c84;fill-opacity:1;"><g transform="translate(748.468048, 100.243636)"><path style="stroke:none" d="M 35.109375 -11.28125 L 37.859375 -11.28125 L 37.859375 0 L 1.65625 0 L 1.65625 -11.28125 L 19.53125 -11.28125 C 19.34375 -11.644531 19.1875 -12.085938 19.0625 -12.609375 C 18.945312 -13.128906 18.890625 -13.691406 18.890625 -14.296875 L 18.890625 -40.984375 C 18.890625 -42.078125 18.703125 -42.804688 18.328125 -43.171875 C 17.960938 -43.546875 17.234375 -43.734375 16.140625 -43.734375 L 2.65625 -43.734375 L 2.65625 -55 L 24.296875 -55 C 27.535156 -55 29.8125 -54.28125 31.125 -52.84375 C 32.4375 -51.40625 33.09375 -48.945312 33.09375 -45.46875 L 33.09375 -13.5625 C 33.09375 -12.039062 33.765625 -11.28125 35.109375 -11.28125 Z M 35.109375 -11.28125 "/></g></g></g></svg>