<svg xmlns="http://www.w3.org/2000/svg" xmlns:xlink="http://www.w3.org/1999/xlink" width="1920" zoomAndPan="magnify" viewBox="0 0 1440 809.999993" height="1080" preserveAspectRatio="xMidYMid meet" version="1.2"><defs><filter x="0%" y="0%" width="100%" filterUnits="objectBoundingBox" id="6a0b7a3af4" height="100%"><feColorMatrix values="0 0 0 0 1 0 0 0 0 1 0 0 0 0 1 0 0 0 1 0" type="matrix" in="SourceGraphic"/></filter><clipPath id="4a012c6e3b"><path d="M 0 0 L 389.089844 0 L 389.089844 349.160156 L 0 349.160156 Z M 0 0 "/></clipPath><clipPath id="d2c9cddfd1"><rect x="0" width="390" y="0" height="350"/></clipPath><clipPath id="0991411e5f"><path d="M 1 1.261719 L 573 1.261719 L 573 312 L 1 312 Z M 1 1.261719 "/></clipPath><clipPath id="0516ce7c03"><rect x="0" width="573" y="0" height="312"/></clipPath><clipPath id="ea8590ef91"><path d="M 0.539062 0.761719 L 485.789062 0.761719 L 485.789062 313 L 0.539062 313 Z M 0.539062 0.761719 "/></clipPath><clipPath id="16e509c474"><rect x="0" width="576" y="0" height="313"/></clipPath><clipPath id="f152f8422e"><path d="M 0 0.761719 L 381.839844 0.761719 L 381.839844 313 L 0 313 Z M 0 0.761719 "/></clipPath><clipPath id="44cb11963b"><rect x="0" width="382" y="0" height="313"/></clipPath></defs><g id="d9b6a4d89f"><rect x="0" width="1440" y="0" height="809.999993" style="fill:#ffffff;fill-opacity:1;stroke:none;"/><rect x="0" width="1440" y="0" height="809.999993" style="fill:#f4f6f9;fill-opacity:1;stroke:none;"/><g mask="url(#56b6ad9f4d)" transform="matrix(1,0,0,1,0,0.000000000000039746)"><g clip-path="url(#d2c9cddfd1)"><g clip-rule="nonzero" clip-path="url(#4a012c6e3b)"><path style=" stroke:none;fill-rule:nonzero;fill:#396c84;fill-opacity:1;" d="M 386.289062 -28.101562 C 386.660156 -28.101562 387.019531 -28.171875 387.359375 -28.316406 C 387.703125 -28.457031 388.007812 -28.660156 388.269531 -28.921875 C 388.53125 -29.183594 388.734375 -29.488281 388.878906 -29.832031 C 389.019531 -30.175781 389.089844 -30.53125 389.089844 -30.902344 C 389.089844 -31.273438 389.019531 -31.632812 388.878906 -31.976562 C 388.734375 -32.320312 388.53125 -32.621094 388.269531 -32.882812 C 388.007812 -33.148438 387.703125 -33.347656 387.359375 -33.492188 C 387.019531 -33.632812 386.660156 -33.703125 386.289062 -33.703125 L 294.777344 -33.703125 L 294.777344 -122.425781 L 386.289062 -122.425781 C 386.660156 -122.425781 387.019531 -122.5 387.359375 -122.640625 C 387.703125 -122.78125 388.007812 -122.984375 388.269531 -123.246094 C 388.53125 -123.511719 388.734375 -123.8125 388.878906 -124.15625 C 389.019531 -124.5 389.089844 -124.855469 389.089844 -125.230469 C 389.089844 -125.601562 389.019531 -125.957031 388.878906 -126.300781 C 388.734375 -126.644531 388.53125 -126.945312 388.269531 -127.210938 C 388.007812 -127.472656 387.703125 -127.675781 387.359375 -127.816406 C 387.019531 -127.960938 386.660156 -128.03125 386.289062 -128.03125 L 294.777344 -128.03125 L 294.777344 -219.539062 C 294.777344 -219.910156 294.707031 -220.269531 294.566406 -220.613281 C 294.421875 -220.957031 294.222656 -221.257812 293.957031 -221.519531 C 293.695312 -221.785156 293.394531 -221.984375 293.050781 -222.128906 C 292.707031 -222.269531 292.347656 -222.339844 291.976562 -222.339844 C 291.605469 -222.339844 291.25 -222.269531 290.90625 -222.128906 C 290.5625 -221.984375 290.257812 -221.785156 289.996094 -221.519531 C 289.734375 -221.257812 289.53125 -220.957031 289.390625 -220.613281 C 289.246094 -220.269531 289.175781 -219.910156 289.175781 -219.539062 L 289.175781 -128.03125 L 200.453125 -128.03125 L 200.453125 -219.539062 C 200.453125 -219.910156 200.382812 -220.269531 200.238281 -220.613281 C 200.097656 -220.957031 199.894531 -221.257812 199.632812 -221.519531 C 199.371094 -221.785156 199.066406 -221.984375 198.722656 -222.128906 C 198.378906 -222.269531 198.023438 -222.339844 197.652344 -222.339844 C 197.28125 -222.339844 196.921875 -222.269531 196.578125 -222.128906 C 196.238281 -221.984375 195.933594 -221.785156 195.671875 -221.519531 C 195.410156 -221.257812 195.207031 -220.957031 195.0625 -220.613281 C 194.921875 -220.269531 194.851562 -219.910156 194.851562 -219.539062 L 194.851562 -128.03125 L 106.140625 -128.03125 L 106.140625 -219.539062 C 106.140625 -219.910156 106.070312 -220.269531 105.929688 -220.613281 C 105.785156 -220.957031 105.585938 -221.257812 105.320312 -221.519531 C 105.058594 -221.785156 104.753906 -221.984375 104.414062 -222.128906 C 104.070312 -222.269531 103.710938 -222.339844 103.339844 -222.339844 C 102.96875 -222.339844 102.613281 -222.269531 102.269531 -222.128906 C 101.925781 -221.984375 101.621094 -221.785156 101.359375 -221.519531 C 101.097656 -221.257812 100.894531 -220.957031 100.753906 -220.613281 C 100.609375 -220.269531 100.539062 -219.910156 100.539062 -219.539062 L 100.539062 -128.03125 L 11.832031 -128.03125 L 11.832031 -219.539062 C 11.832031 -219.910156 11.757812 -220.269531 11.617188 -220.613281 C 11.476562 -220.957031 11.273438 -221.257812 11.011719 -221.519531 C 10.746094 -221.785156 10.445312 -221.984375 10.101562 -222.128906 C 9.757812 -222.269531 9.402344 -222.339844 9.027344 -222.339844 C 8.65625 -222.339844 8.300781 -222.269531 7.957031 -222.128906 C 7.613281 -221.984375 7.3125 -221.785156 7.046875 -221.519531 C 6.785156 -221.257812 6.582031 -220.957031 6.441406 -220.613281 C 6.296875 -220.269531 6.226562 -219.910156 6.226562 -219.539062 L 6.226562 -128.03125 L -82.496094 -128.03125 L -82.496094 -219.539062 C -82.496094 -219.910156 -82.566406 -220.269531 -82.707031 -220.613281 C -82.851562 -220.957031 -83.054688 -221.257812 -83.316406 -221.519531 C -83.578125 -221.785156 -83.882812 -221.984375 -84.222656 -222.128906 C -84.566406 -222.269531 -84.925781 -222.339844 -85.296875 -222.339844 C -85.667969 -222.339844 -86.023438 -222.269531 -86.367188 -222.128906 C -86.710938 -221.984375 -87.015625 -221.785156 -87.277344 -221.519531 C -87.539062 -221.257812 -87.742188 -220.957031 -87.882812 -220.613281 C -88.027344 -220.269531 -88.097656 -219.910156 -88.097656 -219.539062 L -88.097656 -128.03125 L -179.609375 -128.03125 C -179.980469 -128.03125 -180.335938 -127.960938 -180.679688 -127.816406 C -181.023438 -127.675781 -181.328125 -127.472656 -181.589844 -127.210938 C -181.851562 -126.945312 -182.054688 -126.644531 -182.195312 -126.300781 C -182.339844 -125.957031 -182.410156 -125.601562 -182.410156 -125.230469 C -182.410156 -124.855469 -182.339844 -124.5 -182.195312 -124.15625 C -182.054688 -123.8125 -181.851562 -123.511719 -181.589844 -123.246094 C -181.328125 -122.984375 -181.023438 -122.78125 -180.679688 -122.640625 C -180.335938 -122.5 -179.980469 -122.425781 -179.609375 -122.425781 L -88.097656 -122.425781 L -88.097656 -33.703125 L -179.609375 -33.703125 C -179.980469 -33.703125 -180.335938 -33.632812 -180.679688 -33.492188 C -181.023438 -33.347656 -181.328125 -33.148438 -181.589844 -32.882812 C -181.851562 -32.621094 -182.054688 -32.320312 -182.195312 -31.976562 C -182.339844 -31.632812 -182.410156 -31.273438 -182.410156 -30.902344 C -182.410156 -30.53125 -182.339844 -30.175781 -182.195312 -29.832031 C -182.054688 -29.488281 -181.851562 -29.183594 -181.589844 -28.921875 C -181.328125 -28.660156 -181.023438 -28.457031 -180.679688 -28.316406 C -180.335938 -28.171875 -179.980469 -28.101562 -179.609375 -28.101562 L -88.097656 -28.101562 L -88.097656 60.605469 L -179.609375 60.605469 C -179.980469 60.605469 -180.335938 60.679688 -180.679688 60.820312 C -181.023438 60.960938 -181.328125 61.164062 -181.589844 61.425781 C -181.851562 61.691406 -182.054688 61.992188 -182.195312 62.335938 C -182.339844 62.679688 -182.410156 63.035156 -182.410156 63.410156 C -182.410156 63.78125 -182.339844 64.136719 -182.195312 64.480469 C -182.054688 64.824219 -181.851562 65.125 -181.589844 65.390625 C -181.328125 65.652344 -181.023438 65.855469 -180.679688 65.996094 C -180.335938 66.136719 -179.980469 66.210938 -179.609375 66.210938 L -88.097656 66.210938 L -88.097656 154.917969 L -179.609375 154.917969 C -179.980469 154.917969 -180.335938 154.988281 -180.679688 155.132812 C -181.023438 155.273438 -181.328125 155.476562 -181.589844 155.738281 C -181.851562 156 -182.054688 156.304688 -182.195312 156.648438 C -182.339844 156.992188 -182.410156 157.347656 -182.410156 157.71875 C -182.410156 158.089844 -182.339844 158.449219 -182.195312 158.792969 C -182.054688 159.136719 -181.851562 159.4375 -181.589844 159.699219 C -181.328125 159.964844 -181.023438 160.164062 -180.679688 160.308594 C -180.335938 160.449219 -179.980469 160.519531 -179.609375 160.519531 L -88.097656 160.519531 L -88.097656 249.242188 L -179.609375 249.242188 C -179.980469 249.242188 -180.335938 249.316406 -180.679688 249.457031 C -181.023438 249.597656 -181.328125 249.800781 -181.589844 250.0625 C -181.851562 250.328125 -182.054688 250.628906 -182.195312 250.972656 C -182.339844 251.316406 -182.410156 251.675781 -182.410156 252.046875 C -182.410156 252.417969 -182.339844 252.773438 -182.195312 253.117188 C -182.054688 253.460938 -181.851562 253.761719 -181.589844 254.027344 C -181.328125 254.289062 -181.023438 254.492188 -180.679688 254.632812 C -180.335938 254.777344 -179.980469 254.847656 -179.609375 254.847656 L -88.097656 254.847656 L -88.097656 346.355469 C -88.097656 346.726562 -88.027344 347.085938 -87.882812 347.429688 C -87.742188 347.773438 -87.539062 348.074219 -87.277344 348.335938 C -87.015625 348.601562 -86.710938 348.804688 -86.367188 348.945312 C -86.023438 349.085938 -85.667969 349.160156 -85.296875 349.160156 C -84.925781 349.160156 -84.566406 349.085938 -84.222656 348.945312 C -83.882812 348.804688 -83.578125 348.601562 -83.316406 348.335938 C -83.054688 348.074219 -82.851562 347.773438 -82.707031 347.429688 C -82.566406 347.085938 -82.496094 346.726562 -82.496094 346.355469 L -82.496094 254.847656 L 6.226562 254.847656 L 6.226562 346.355469 C 6.226562 346.726562 6.296875 347.085938 6.441406 347.429688 C 6.582031 347.773438 6.785156 348.074219 7.046875 348.335938 C 7.3125 348.601562 7.613281 348.804688 7.957031 348.945312 C 8.300781 349.085938 8.65625 349.160156 9.027344 349.160156 C 9.402344 349.160156 9.757812 349.085938 10.101562 348.945312 C 10.445312 348.804688 10.746094 348.601562 11.011719 348.335938 C 11.273438 348.074219 11.476562 347.773438 11.617188 347.429688 C 11.757812 347.085938 11.832031 346.726562 11.832031 346.355469 L 11.832031 254.847656 L 100.539062 254.847656 L 100.539062 346.355469 C 100.539062 346.726562 100.609375 347.085938 100.753906 347.429688 C 100.894531 347.773438 101.097656 348.074219 101.359375 348.335938 C 101.621094 348.601562 101.925781 348.804688 102.269531 348.945312 C 102.613281 349.085938 102.96875 349.160156 103.339844 349.160156 C 103.710938 349.160156 104.070312 349.085938 104.414062 348.945312 C 104.753906 348.804688 105.058594 348.601562 105.320312 348.335938 C 105.585938 348.074219 105.785156 347.773438 105.929688 347.429688 C 106.070312 347.085938 106.140625 346.726562 106.140625 346.355469 L 106.140625 254.847656 L 194.851562 254.847656 L 194.851562 346.355469 C 194.851562 346.726562 194.921875 347.085938 195.0625 347.429688 C 195.207031 347.773438 195.410156 348.074219 195.671875 348.335938 C 195.933594 348.601562 196.238281 348.804688 196.578125 348.945312 C 196.921875 349.085938 197.28125 349.160156 197.652344 349.160156 C 198.023438 349.160156 198.382812 349.085938 198.722656 348.945312 C 199.066406 348.804688 199.371094 348.601562 199.632812 348.335938 C 199.894531 348.074219 200.097656 347.773438 200.238281 347.429688 C 200.382812 347.085938 200.453125 346.726562 200.453125 346.355469 L 200.453125 254.847656 L 289.175781 254.847656 L 289.175781 346.355469 C 289.175781 346.726562 289.246094 347.085938 289.390625 347.429688 C 289.53125 347.773438 289.734375 348.074219 289.996094 348.335938 C 290.257812 348.601562 290.5625 348.804688 290.90625 348.945312 C 291.25 349.085938 291.605469 349.160156 291.976562 349.160156 C 292.347656 349.160156 292.707031 349.085938 293.050781 348.945312 C 293.394531 348.804688 293.695312 348.601562 293.957031 348.335938 C 294.222656 348.074219 294.421875 347.773438 294.566406 347.429688 C 294.707031 347.085938 294.777344 346.726562 294.777344 346.355469 L 294.777344 254.847656 L 386.289062 254.847656 C 386.660156 254.847656 387.019531 254.777344 387.359375 254.632812 C 387.703125 254.492188 388.007812 254.289062 388.269531 254.027344 C 388.53125 253.761719 388.734375 253.460938 388.878906 253.117188 C 389.019531 252.773438 389.089844 252.417969 389.089844 252.046875 C 389.089844 251.675781 389.019531 251.316406 388.878906 250.972656 C 388.734375 250.628906 388.53125 250.328125 388.269531 250.0625 C 388.007812 249.800781 387.703125 249.597656 387.359375 249.457031 C 387.019531 249.316406 386.660156 249.242188 386.289062 249.242188 L 294.777344 249.242188 L 294.777344 160.519531 L 386.289062 160.519531 C 386.660156 160.519531 387.019531 160.449219 387.359375 160.308594 C 387.703125 160.164062 388.007812 159.964844 388.269531 159.699219 C 388.53125 159.4375 388.734375 159.136719 388.878906 158.792969 C 389.019531 158.449219 389.089844 158.089844 389.089844 157.71875 C 389.089844 157.347656 389.019531 156.992188 388.878906 156.648438 C 388.734375 156.304688 388.53125 156 388.269531 155.738281 C 388.007812 155.476562 387.703125 155.273438 387.359375 155.132812 C 387.019531 154.988281 386.660156 154.917969 386.289062 154.917969 L 294.777344 154.917969 L 294.777344 66.210938 L 386.289062 66.210938 C 386.660156 66.210938 387.019531 66.136719 387.359375 65.996094 C 387.703125 65.855469 388.007812 65.652344 388.269531 65.390625 C 388.53125 65.125 388.734375 64.824219 388.878906 64.480469 C 389.019531 64.136719 389.089844 63.78125 389.089844 63.410156 C 389.089844 63.035156 389.019531 62.679688 388.878906 62.335938 C 388.734375 61.992188 388.53125 61.691406 388.269531 61.425781 C 388.007812 61.164062 387.703125 60.960938 387.359375 60.820312 C 387.019531 60.679688 386.660156 60.605469 386.289062 60.605469 L 294.777344 60.605469 L 294.777344 -28.101562 Z M 289.175781 -122.425781 L 289.175781 -33.703125 L 200.453125 -33.703125 L 200.453125 -122.425781 Z M 194.851562 -122.425781 L 194.851562 -33.703125 L 106.140625 -33.703125 L 106.140625 -122.425781 Z M 100.539062 66.210938 L 100.539062 154.917969 L 11.832031 154.917969 L 11.832031 66.210938 Z M 11.832031 60.605469 L 11.832031 -28.101562 L 100.539062 -28.101562 L 100.539062 60.605469 Z M 106.140625 66.210938 L 194.851562 66.210938 L 194.851562 154.917969 L 106.140625 154.917969 Z M 106.140625 60.605469 L 106.140625 -28.101562 L 194.851562 -28.101562 L 194.851562 60.605469 Z M 100.539062 -122.425781 L 100.539062 -33.703125 L 11.832031 -33.703125 L 11.832031 -122.425781 Z M -82.496094 -122.425781 L 6.226562 -122.425781 L 6.226562 -33.703125 L -82.496094 -33.703125 Z M -82.496094 -28.101562 L 6.226562 -28.101562 L 6.226562 60.605469 L -82.496094 60.605469 Z M -82.496094 66.210938 L 6.226562 66.210938 L 6.226562 154.917969 L -82.496094 154.917969 Z M -82.496094 249.242188 L -82.496094 160.519531 L 6.226562 160.519531 L 6.226562 249.242188 Z M 11.832031 249.242188 L 11.832031 160.519531 L 100.539062 160.519531 L 100.539062 249.242188 Z M 106.140625 249.242188 L 106.140625 160.519531 L 194.851562 160.519531 L 194.851562 249.242188 Z M 289.175781 249.242188 L 200.453125 249.242188 L 200.453125 160.519531 L 289.175781 160.519531 Z M 289.175781 154.917969 L 200.453125 154.917969 L 200.453125 66.210938 L 289.175781 66.210938 Z M 289.175781 60.605469 L 200.453125 60.605469 L 200.453125 -28.101562 L 289.175781 -28.101562 Z M 289.175781 60.605469 "/></g></g><mask id="56b6ad9f4d"><g filter="url(#6a0b7a3af4)"><rect x="0" width="1440" y="0" height="809.999993" style="fill:#000000;fill-opacity:0.05;stroke:none;"/></g></mask></g><g mask="url(#bb04b81c0e)" transform="matrix(1,0,0,1,867,498)"><g clip-path="url(#0516ce7c03)"><g clip-rule="nonzero" clip-path="url(#0991411e5f)"><path style=" stroke:none;fill-rule:nonzero;fill:#396c84;fill-opacity:1;" d="M 526.554688 61.757812 L 516.070312 61.757812 L 516.070312 35.847656 L 526.554688 35.847656 Z M 526.554688 96.484375 L 516.070312 96.484375 L 516.070312 70.574219 L 526.554688 70.574219 Z M 526.554688 131.207031 L 516.070312 131.207031 L 516.070312 105.292969 L 526.554688 105.292969 Z M 526.554688 165.933594 L 516.070312 165.933594 L 516.070312 140.019531 L 526.554688 140.019531 Z M 526.554688 200.652344 L 516.070312 200.652344 L 516.070312 174.75 L 526.554688 174.75 Z M 526.554688 235.371094 L 516.070312 235.371094 L 516.070312 209.46875 L 526.554688 209.46875 Z M 526.554688 270.09375 L 516.070312 270.09375 L 516.070312 244.1875 L 526.554688 244.1875 Z M 526.554688 304.820312 L 516.070312 304.820312 L 516.070312 278.910156 L 526.554688 278.910156 Z M 507.257812 61.757812 L 496.78125 61.757812 L 496.78125 35.847656 L 507.257812 35.847656 Z M 507.257812 96.484375 L 496.78125 96.484375 L 496.78125 70.574219 L 507.257812 70.574219 Z M 507.257812 131.207031 L 496.78125 131.207031 L 496.78125 105.292969 L 507.257812 105.292969 Z M 507.257812 165.933594 L 496.78125 165.933594 L 496.78125 140.019531 L 507.257812 140.019531 Z M 507.257812 200.652344 L 496.78125 200.652344 L 496.78125 174.75 L 507.257812 174.75 Z M 507.257812 235.371094 L 496.78125 235.371094 L 496.78125 209.46875 L 507.257812 209.46875 Z M 507.257812 270.09375 L 496.78125 270.09375 L 496.78125 244.1875 L 507.257812 244.1875 Z M 507.257812 304.820312 L 496.78125 304.820312 L 496.78125 278.910156 L 507.257812 278.910156 Z M 416.746094 180.820312 L 380.390625 180.820312 L 380.390625 170.347656 L 416.746094 170.347656 Z M 416.746094 201.765625 L 380.390625 201.765625 L 380.390625 191.296875 L 416.746094 191.296875 Z M 416.746094 222.710938 L 380.390625 222.710938 L 380.390625 212.242188 L 416.746094 212.242188 Z M 416.746094 243.660156 L 380.390625 243.660156 L 380.390625 233.179688 L 416.746094 233.179688 Z M 416.746094 264.605469 L 380.390625 264.605469 L 380.390625 254.128906 L 416.746094 254.128906 Z M 416.746094 285.546875 L 380.390625 285.546875 L 380.390625 275.074219 L 416.746094 275.074219 Z M 416.746094 306.492188 L 380.390625 306.492188 L 380.390625 296.023438 L 416.746094 296.023438 Z M 375.84375 306.492188 L 366.195312 306.492188 L 366.195312 170.347656 L 375.84375 170.347656 Z M 361.644531 180.820312 L 325.285156 180.820312 L 325.285156 170.347656 L 361.644531 170.347656 Z M 361.644531 201.765625 L 325.285156 201.765625 L 325.285156 191.296875 L 361.644531 191.296875 Z M 361.644531 222.710938 L 325.285156 222.710938 L 325.285156 212.242188 L 361.644531 212.242188 Z M 361.644531 243.660156 L 325.285156 243.660156 L 325.285156 233.179688 L 361.644531 233.179688 Z M 361.644531 264.605469 L 325.285156 264.605469 L 325.285156 254.128906 L 361.644531 254.128906 Z M 361.644531 285.546875 L 325.285156 285.546875 L 325.285156 275.074219 L 361.644531 275.074219 Z M 361.644531 306.492188 L 325.285156 306.492188 L 325.285156 296.023438 L 361.644531 296.023438 Z M 268.976562 311.457031 L 264.144531 311.457031 L 264.144531 89.320312 L 268.976562 89.320312 Z M 260.726562 311.457031 L 255.902344 311.457031 L 255.902344 89.320312 L 260.726562 89.320312 Z M 251.53125 100.363281 L 241.601562 100.363281 L 241.601562 89.289062 L 251.53125 89.289062 Z M 251.53125 117.960938 L 241.601562 117.960938 L 241.601562 106.882812 L 251.53125 106.882812 Z M 251.53125 135.546875 L 241.601562 135.546875 L 241.601562 124.480469 L 251.53125 124.480469 Z M 251.53125 153.144531 L 241.601562 153.144531 L 241.601562 142.074219 L 251.53125 142.074219 Z M 251.53125 170.738281 L 241.601562 170.738281 L 241.601562 159.664062 L 251.53125 159.664062 Z M 251.53125 188.332031 L 241.601562 188.332031 L 241.601562 177.257812 L 251.53125 177.257812 Z M 251.53125 205.921875 L 241.601562 205.921875 L 241.601562 194.859375 L 251.53125 194.859375 Z M 251.53125 223.519531 L 241.601562 223.519531 L 241.601562 212.449219 L 251.53125 212.449219 Z M 251.53125 241.113281 L 241.601562 241.113281 L 241.601562 230.039062 L 251.53125 230.039062 Z M 251.53125 258.703125 L 241.601562 258.703125 L 241.601562 247.632812 L 251.53125 247.632812 Z M 251.53125 276.296875 L 241.601562 276.296875 L 241.601562 265.226562 L 251.53125 265.226562 Z M 251.53125 293.890625 L 241.601562 293.890625 L 241.601562 282.816406 L 251.53125 282.816406 Z M 251.53125 311.480469 L 241.601562 311.480469 L 241.601562 300.414062 L 251.53125 300.414062 Z M 236.515625 100.363281 L 226.589844 100.363281 L 226.589844 89.289062 L 236.515625 89.289062 Z M 236.515625 117.960938 L 226.589844 117.960938 L 226.589844 106.882812 L 236.515625 106.882812 Z M 236.515625 135.546875 L 226.589844 135.546875 L 226.589844 124.480469 L 236.515625 124.480469 Z M 236.515625 153.144531 L 226.589844 153.144531 L 226.589844 142.074219 L 236.515625 142.074219 Z M 236.515625 170.738281 L 226.589844 170.738281 L 226.589844 159.664062 L 236.515625 159.664062 Z M 236.515625 188.332031 L 226.589844 188.332031 L 226.589844 177.257812 L 236.515625 177.257812 Z M 236.515625 205.921875 L 226.589844 205.921875 L 226.589844 194.859375 L 236.515625 194.859375 Z M 236.515625 223.519531 L 226.589844 223.519531 L 226.589844 212.449219 L 236.515625 212.449219 Z M 236.515625 241.113281 L 226.589844 241.113281 L 226.589844 230.039062 L 236.515625 230.039062 Z M 236.515625 258.703125 L 226.589844 258.703125 L 226.589844 247.632812 L 236.515625 247.632812 Z M 236.515625 276.296875 L 226.589844 276.296875 L 226.589844 265.226562 L 236.515625 265.226562 Z M 236.515625 293.890625 L 226.589844 293.890625 L 226.589844 282.816406 L 236.515625 282.816406 Z M 236.515625 311.480469 L 226.589844 311.480469 L 226.589844 300.414062 L 236.515625 300.414062 Z M 222.21875 311.457031 L 217.390625 311.457031 L 217.390625 89.320312 L 222.21875 89.320312 Z M 213.972656 311.457031 L 209.144531 311.457031 L 209.144531 89.320312 L 213.972656 89.320312 Z M 195.148438 158.769531 L 129.109375 158.769531 L 129.109375 152.285156 L 195.148438 152.285156 Z M 195.148438 168.796875 L 129.109375 168.796875 L 129.109375 162.308594 L 195.148438 162.308594 Z M 195.148438 178.824219 L 129.109375 178.824219 L 129.109375 172.335938 L 195.148438 172.335938 Z M 195.148438 188.855469 L 129.109375 188.855469 L 129.109375 182.359375 L 195.148438 182.359375 Z M 195.148438 198.875 L 129.109375 198.875 L 129.109375 192.386719 L 195.148438 192.386719 Z M 195.148438 208.90625 L 129.109375 208.90625 L 129.109375 202.414062 L 195.148438 202.414062 Z M 195.148438 218.925781 L 129.109375 218.925781 L 129.109375 212.441406 L 195.148438 212.441406 Z M 195.148438 228.953125 L 129.109375 228.953125 L 129.109375 222.464844 L 195.148438 222.464844 Z M 195.148438 238.976562 L 129.109375 238.976562 L 129.109375 232.492188 L 195.148438 232.492188 Z M 195.148438 249.003906 L 129.109375 249.003906 L 129.109375 242.515625 L 195.148438 242.515625 Z M 195.148438 259.03125 L 129.109375 259.03125 L 129.109375 252.542969 L 195.148438 252.542969 Z M 195.148438 269.054688 L 129.109375 269.054688 L 129.109375 262.570312 L 195.148438 262.570312 Z M 195.148438 279.078125 L 129.109375 279.078125 L 129.109375 272.59375 L 195.148438 272.59375 Z M 195.148438 289.109375 L 129.109375 289.109375 L 129.109375 282.621094 L 195.148438 282.621094 Z M 195.148438 299.132812 L 129.109375 299.132812 L 129.109375 292.648438 L 195.148438 292.648438 Z M 39.4375 61.757812 L 28.960938 61.757812 L 28.960938 35.847656 L 39.4375 35.847656 Z M 39.4375 96.484375 L 28.960938 96.484375 L 28.960938 70.574219 L 39.4375 70.574219 Z M 39.4375 131.207031 L 28.960938 131.207031 L 28.960938 105.292969 L 39.4375 105.292969 Z M 39.4375 165.933594 L 28.960938 165.933594 L 28.960938 140.019531 L 39.4375 140.019531 Z M 39.4375 200.652344 L 28.960938 200.652344 L 28.960938 174.75 L 39.4375 174.75 Z M 39.4375 235.371094 L 28.960938 235.371094 L 28.960938 209.46875 L 39.4375 209.46875 Z M 39.4375 270.09375 L 28.960938 270.09375 L 28.960938 244.1875 L 39.4375 244.1875 Z M 39.4375 304.820312 L 28.960938 304.820312 L 28.960938 278.910156 L 39.4375 278.910156 Z M 20.144531 61.757812 L 9.671875 61.757812 L 9.671875 35.847656 L 20.144531 35.847656 Z M 20.144531 96.484375 L 9.671875 96.484375 L 9.671875 70.574219 L 20.144531 70.574219 Z M 20.144531 131.207031 L 9.671875 131.207031 L 9.671875 105.292969 L 20.144531 105.292969 Z M 20.144531 165.933594 L 9.671875 165.933594 L 9.671875 140.019531 L 20.144531 140.019531 Z M 20.144531 200.652344 L 9.671875 200.652344 L 9.671875 174.75 L 20.144531 174.75 Z M 20.144531 235.371094 L 9.671875 235.371094 L 9.671875 209.46875 L 20.144531 209.46875 Z M 20.144531 270.09375 L 9.671875 270.09375 L 9.671875 244.1875 L 20.144531 244.1875 Z M 20.144531 304.820312 L 9.671875 304.820312 L 9.671875 278.910156 L 20.144531 278.910156 Z M 535.097656 33.847656 L 535.097656 28.140625 L 526.449219 28.140625 L 526.449219 18.769531 L 519.390625 18.769531 L 519.390625 8.894531 L 514.753906 8.894531 L 514.753906 1.191406 L 508.285156 1.191406 L 508.285156 8.894531 L 503.636719 8.894531 L 503.636719 18.769531 L 496.589844 18.769531 L 496.589844 28.140625 L 488.242188 28.140625 L 488.242188 204.191406 L 461.621094 204.191406 L 461.621094 175.335938 L 457.679688 175.335938 L 457.679688 150.71875 L 448.605469 150.71875 L 448.605469 131.527344 L 435.988281 131.527344 L 435.988281 150.71875 L 426.914062 150.71875 L 426.914062 175.335938 L 422.964844 175.335938 L 422.964844 161.230469 L 319.066406 161.230469 L 319.066406 131.8125 L 308.726562 131.8125 L 308.726562 99.757812 L 301.925781 99.757812 L 301.925781 74.761719 L 292.449219 74.761719 L 292.449219 99.757812 L 285.640625 99.757812 L 285.640625 131.8125 L 275.300781 131.8125 L 275.300781 81.601562 L 264.167969 81.601562 L 264.167969 69.539062 L 262.339844 69.539062 L 262.339844 65.078125 L 256.988281 65.078125 L 255.910156 38.480469 L 255.109375 38.480469 L 254.042969 65.078125 L 248.699219 65.078125 L 248.699219 69.539062 L 246.855469 69.539062 L 246.855469 81.601562 L 240.878906 81.601562 L 240.878906 62.828125 L 238.027344 62.828125 L 238.027344 55.875 L 229.695312 55.875 L 228.035156 14.5 L 226.792969 14.5 L 225.128906 55.875 L 216.808594 55.875 L 216.808594 62.828125 L 213.941406 62.828125 L 213.941406 81.601562 L 202.820312 81.601562 L 202.820312 143.441406 L 121.4375 143.441406 L 121.4375 140.789062 L 90.570312 140.789062 L 90.570312 33.847656 L 47.976562 33.847656 L 47.976562 17.539062 L 36.910156 17.539062 L 36.910156 13.300781 L 29.628906 13.300781 L 29.628906 10 L 19.484375 10 L 19.484375 13.300781 L 12.191406 13.300781 L 12.191406 17.539062 L 1.128906 17.539062 L 1.128906 319.175781 L 574.882812 319.175781 C 575.195312 318.621094 575.480469 318.050781 575.792969 317.5 L 575.792969 33.847656 L 535.097656 33.847656 "/></g></g><mask id="bb04b81c0e"><g filter="url(#6a0b7a3af4)"><rect x="0" width="1440" y="0" height="809.999993" style="fill:#000000;fill-opacity:0.04;stroke:none;"/></g></mask></g><g mask="url(#3620c3b2c1)" transform="matrix(1,0,0,1,382,497)"><g clip-path="url(#16e509c474)"><g clip-rule="nonzero" clip-path="url(#ea8590ef91)"><path style=" stroke:none;fill-rule:nonzero;fill:#396c84;fill-opacity:1;" d="M 526.34375 61.257812 L 515.863281 61.257812 L 515.863281 35.347656 L 526.34375 35.347656 Z M 526.34375 95.984375 L 515.863281 95.984375 L 515.863281 70.074219 L 526.34375 70.074219 Z M 526.34375 130.707031 L 515.863281 130.707031 L 515.863281 104.792969 L 526.34375 104.792969 Z M 526.34375 165.433594 L 515.863281 165.433594 L 515.863281 139.519531 L 526.34375 139.519531 Z M 526.34375 200.152344 L 515.863281 200.152344 L 515.863281 174.25 L 526.34375 174.25 Z M 526.34375 234.871094 L 515.863281 234.871094 L 515.863281 208.96875 L 526.34375 208.96875 Z M 526.34375 269.59375 L 515.863281 269.59375 L 515.863281 243.6875 L 526.34375 243.6875 Z M 526.34375 304.320312 L 515.863281 304.320312 L 515.863281 278.410156 L 526.34375 278.410156 Z M 507.046875 61.257812 L 496.570312 61.257812 L 496.570312 35.347656 L 507.046875 35.347656 Z M 507.046875 95.984375 L 496.570312 95.984375 L 496.570312 70.074219 L 507.046875 70.074219 Z M 507.046875 130.707031 L 496.570312 130.707031 L 496.570312 104.792969 L 507.046875 104.792969 Z M 507.046875 165.433594 L 496.570312 165.433594 L 496.570312 139.519531 L 507.046875 139.519531 Z M 507.046875 200.152344 L 496.570312 200.152344 L 496.570312 174.25 L 507.046875 174.25 Z M 507.046875 234.871094 L 496.570312 234.871094 L 496.570312 208.96875 L 507.046875 208.96875 Z M 507.046875 269.59375 L 496.570312 269.59375 L 496.570312 243.6875 L 507.046875 243.6875 Z M 507.046875 304.320312 L 496.570312 304.320312 L 496.570312 278.410156 L 507.046875 278.410156 Z M 416.535156 180.320312 L 380.183594 180.320312 L 380.183594 169.847656 L 416.535156 169.847656 Z M 416.535156 201.265625 L 380.183594 201.265625 L 380.183594 190.796875 L 416.535156 190.796875 Z M 416.535156 222.210938 L 380.183594 222.210938 L 380.183594 211.742188 L 416.535156 211.742188 Z M 416.535156 243.160156 L 380.183594 243.160156 L 380.183594 232.679688 L 416.535156 232.679688 Z M 416.535156 264.105469 L 380.183594 264.105469 L 380.183594 253.628906 L 416.535156 253.628906 Z M 416.535156 285.046875 L 380.183594 285.046875 L 380.183594 274.574219 L 416.535156 274.574219 Z M 416.535156 305.992188 L 380.183594 305.992188 L 380.183594 295.523438 L 416.535156 295.523438 Z M 375.632812 305.992188 L 365.984375 305.992188 L 365.984375 169.847656 L 375.632812 169.847656 Z M 361.4375 180.320312 L 325.078125 180.320312 L 325.078125 169.847656 L 361.4375 169.847656 Z M 361.4375 201.265625 L 325.078125 201.265625 L 325.078125 190.796875 L 361.4375 190.796875 Z M 361.4375 222.210938 L 325.078125 222.210938 L 325.078125 211.742188 L 361.4375 211.742188 Z M 361.4375 243.160156 L 325.078125 243.160156 L 325.078125 232.679688 L 361.4375 232.679688 Z M 361.4375 264.105469 L 325.078125 264.105469 L 325.078125 253.628906 L 361.4375 253.628906 Z M 361.4375 285.046875 L 325.078125 285.046875 L 325.078125 274.574219 L 361.4375 274.574219 Z M 361.4375 305.992188 L 325.078125 305.992188 L 325.078125 295.523438 L 361.4375 295.523438 Z M 268.765625 310.957031 L 263.9375 310.957031 L 263.9375 88.820312 L 268.765625 88.820312 Z M 260.519531 310.957031 L 255.695312 310.957031 L 255.695312 88.820312 L 260.519531 88.820312 Z M 251.324219 99.863281 L 241.394531 99.863281 L 241.394531 88.789062 L 251.324219 88.789062 Z M 251.324219 117.460938 L 241.394531 117.460938 L 241.394531 106.382812 L 251.324219 106.382812 Z M 251.324219 135.046875 L 241.394531 135.046875 L 241.394531 123.980469 L 251.324219 123.980469 Z M 251.324219 152.644531 L 241.394531 152.644531 L 241.394531 141.574219 L 251.324219 141.574219 Z M 251.324219 170.238281 L 241.394531 170.238281 L 241.394531 159.164062 L 251.324219 159.164062 Z M 251.324219 187.832031 L 241.394531 187.832031 L 241.394531 176.757812 L 251.324219 176.757812 Z M 251.324219 205.421875 L 241.394531 205.421875 L 241.394531 194.359375 L 251.324219 194.359375 Z M 251.324219 223.019531 L 241.394531 223.019531 L 241.394531 211.949219 L 251.324219 211.949219 Z M 251.324219 240.613281 L 241.394531 240.613281 L 241.394531 229.539062 L 251.324219 229.539062 Z M 251.324219 258.203125 L 241.394531 258.203125 L 241.394531 247.132812 L 251.324219 247.132812 Z M 251.324219 275.796875 L 241.394531 275.796875 L 241.394531 264.726562 L 251.324219 264.726562 Z M 251.324219 293.390625 L 241.394531 293.390625 L 241.394531 282.316406 L 251.324219 282.316406 Z M 251.324219 310.980469 L 241.394531 310.980469 L 241.394531 299.914062 L 251.324219 299.914062 Z M 236.304688 99.863281 L 226.382812 99.863281 L 226.382812 88.789062 L 236.304688 88.789062 Z M 236.304688 117.460938 L 226.382812 117.460938 L 226.382812 106.382812 L 236.304688 106.382812 Z M 236.304688 135.046875 L 226.382812 135.046875 L 226.382812 123.980469 L 236.304688 123.980469 Z M 236.304688 152.644531 L 226.382812 152.644531 L 226.382812 141.574219 L 236.304688 141.574219 Z M 236.304688 170.238281 L 226.382812 170.238281 L 226.382812 159.164062 L 236.304688 159.164062 Z M 236.304688 187.832031 L 226.382812 187.832031 L 226.382812 176.757812 L 236.304688 176.757812 Z M 236.304688 205.421875 L 226.382812 205.421875 L 226.382812 194.359375 L 236.304688 194.359375 Z M 236.304688 223.019531 L 226.382812 223.019531 L 226.382812 211.949219 L 236.304688 211.949219 Z M 236.304688 240.613281 L 226.382812 240.613281 L 226.382812 229.539062 L 236.304688 229.539062 Z M 236.304688 258.203125 L 226.382812 258.203125 L 226.382812 247.132812 L 236.304688 247.132812 Z M 236.304688 275.796875 L 226.382812 275.796875 L 226.382812 264.726562 L 236.304688 264.726562 Z M 236.304688 293.390625 L 226.382812 293.390625 L 226.382812 282.316406 L 236.304688 282.316406 Z M 236.304688 310.980469 L 226.382812 310.980469 L 226.382812 299.914062 L 236.304688 299.914062 Z M 222.011719 310.957031 L 217.179688 310.957031 L 217.179688 88.820312 L 222.011719 88.820312 Z M 213.765625 310.957031 L 208.933594 310.957031 L 208.933594 88.820312 L 213.765625 88.820312 Z M 194.9375 158.269531 L 128.898438 158.269531 L 128.898438 151.785156 L 194.9375 151.785156 Z M 194.9375 168.296875 L 128.898438 168.296875 L 128.898438 161.808594 L 194.9375 161.808594 Z M 194.9375 178.324219 L 128.898438 178.324219 L 128.898438 171.835938 L 194.9375 171.835938 Z M 194.9375 188.355469 L 128.898438 188.355469 L 128.898438 181.859375 L 194.9375 181.859375 Z M 194.9375 198.375 L 128.898438 198.375 L 128.898438 191.886719 L 194.9375 191.886719 Z M 194.9375 208.40625 L 128.898438 208.40625 L 128.898438 201.914062 L 194.9375 201.914062 Z M 194.9375 218.425781 L 128.898438 218.425781 L 128.898438 211.941406 L 194.9375 211.941406 Z M 194.9375 228.453125 L 128.898438 228.453125 L 128.898438 221.964844 L 194.9375 221.964844 Z M 194.9375 238.476562 L 128.898438 238.476562 L 128.898438 231.992188 L 194.9375 231.992188 Z M 194.9375 248.503906 L 128.898438 248.503906 L 128.898438 242.015625 L 194.9375 242.015625 Z M 194.9375 258.53125 L 128.898438 258.53125 L 128.898438 252.042969 L 194.9375 252.042969 Z M 194.9375 268.554688 L 128.898438 268.554688 L 128.898438 262.070312 L 194.9375 262.070312 Z M 194.9375 278.578125 L 128.898438 278.578125 L 128.898438 272.09375 L 194.9375 272.09375 Z M 194.9375 288.609375 L 128.898438 288.609375 L 128.898438 282.121094 L 194.9375 282.121094 Z M 194.9375 298.632812 L 128.898438 298.632812 L 128.898438 292.148438 L 194.9375 292.148438 Z M 39.226562 61.257812 L 28.753906 61.257812 L 28.753906 35.347656 L 39.226562 35.347656 Z M 39.226562 95.984375 L 28.753906 95.984375 L 28.753906 70.074219 L 39.226562 70.074219 Z M 39.226562 130.707031 L 28.753906 130.707031 L 28.753906 104.792969 L 39.226562 104.792969 Z M 39.226562 165.433594 L 28.753906 165.433594 L 28.753906 139.519531 L 39.226562 139.519531 Z M 39.226562 200.152344 L 28.753906 200.152344 L 28.753906 174.25 L 39.226562 174.25 Z M 39.226562 234.871094 L 28.753906 234.871094 L 28.753906 208.96875 L 39.226562 208.96875 Z M 39.226562 269.59375 L 28.753906 269.59375 L 28.753906 243.6875 L 39.226562 243.6875 Z M 39.226562 304.320312 L 28.753906 304.320312 L 28.753906 278.410156 L 39.226562 278.410156 Z M 19.9375 61.257812 L 9.460938 61.257812 L 9.460938 35.347656 L 19.9375 35.347656 Z M 19.9375 95.984375 L 9.460938 95.984375 L 9.460938 70.074219 L 19.9375 70.074219 Z M 19.9375 130.707031 L 9.460938 130.707031 L 9.460938 104.792969 L 19.9375 104.792969 Z M 19.9375 165.433594 L 9.460938 165.433594 L 9.460938 139.519531 L 19.9375 139.519531 Z M 19.9375 200.152344 L 9.460938 200.152344 L 9.460938 174.25 L 19.9375 174.25 Z M 19.9375 234.871094 L 9.460938 234.871094 L 9.460938 208.96875 L 19.9375 208.96875 Z M 19.9375 269.59375 L 9.460938 269.59375 L 9.460938 243.6875 L 19.9375 243.6875 Z M 19.9375 304.320312 L 9.460938 304.320312 L 9.460938 278.410156 L 19.9375 278.410156 Z M 534.890625 33.347656 L 534.890625 27.640625 L 526.238281 27.640625 L 526.238281 18.269531 L 519.179688 18.269531 L 519.179688 8.394531 L 514.546875 8.394531 L 514.546875 0.691406 L 508.074219 0.691406 L 508.074219 8.394531 L 503.429688 8.394531 L 503.429688 18.269531 L 496.382812 18.269531 L 496.382812 27.640625 L 488.03125 27.640625 L 488.03125 203.691406 L 461.414062 203.691406 L 461.414062 174.835938 L 457.46875 174.835938 L 457.46875 150.21875 L 448.394531 150.21875 L 448.394531 131.027344 L 435.777344 131.027344 L 435.777344 150.21875 L 426.707031 150.21875 L 426.707031 174.835938 L 422.757812 174.835938 L 422.757812 160.730469 L 318.859375 160.730469 L 318.859375 131.3125 L 308.515625 131.3125 L 308.515625 99.257812 L 301.714844 99.257812 L 301.714844 74.261719 L 292.238281 74.261719 L 292.238281 99.257812 L 285.429688 99.257812 L 285.429688 131.3125 L 275.089844 131.3125 L 275.089844 81.101562 L 263.960938 81.101562 L 263.960938 69.039062 L 262.128906 69.039062 L 262.128906 64.578125 L 256.777344 64.578125 L 255.703125 37.980469 L 254.898438 37.980469 L 253.835938 64.578125 L 248.488281 64.578125 L 248.488281 69.039062 L 246.648438 69.039062 L 246.648438 81.101562 L 240.671875 81.101562 L 240.671875 62.328125 L 237.820312 62.328125 L 237.820312 55.375 L 229.484375 55.375 L 227.828125 14 L 226.585938 14 L 224.917969 55.375 L 216.597656 55.375 L 216.597656 62.328125 L 213.734375 62.328125 L 213.734375 81.101562 L 202.609375 81.101562 L 202.609375 142.941406 L 121.226562 142.941406 L 121.226562 140.289062 L 90.359375 140.289062 L 90.359375 33.347656 L 47.769531 33.347656 L 47.769531 17.039062 L 36.699219 17.039062 L 36.699219 12.800781 L 29.417969 12.800781 L 29.417969 9.5 L 19.277344 9.5 L 19.277344 12.800781 L 11.984375 12.800781 L 11.984375 17.039062 L 0.921875 17.039062 L 0.921875 318.675781 L 574.671875 318.675781 C 574.984375 318.121094 575.273438 317.550781 575.585938 317 L 575.585938 33.347656 L 534.890625 33.347656 "/></g></g><mask id="3620c3b2c1"><g filter="url(#6a0b7a3af4)"><rect x="0" width="1440" y="0" height="809.999993" style="fill:#000000;fill-opacity:0.04;stroke:none;"/></g></mask></g><g mask="url(#c78dc008b1)" transform="matrix(1,0,0,1,0,497)"><g clip-path="url(#44cb11963b)"><g clip-rule="nonzero" clip-path="url(#f152f8422e)"><path style=" stroke:none;fill-rule:nonzero;fill:#396c84;fill-opacity:1;" d="M 332.34375 61.257812 L 321.863281 61.257812 L 321.863281 35.347656 L 332.34375 35.347656 Z M 332.34375 95.984375 L 321.863281 95.984375 L 321.863281 70.074219 L 332.34375 70.074219 Z M 332.34375 130.707031 L 321.863281 130.707031 L 321.863281 104.792969 L 332.34375 104.792969 Z M 332.34375 165.433594 L 321.863281 165.433594 L 321.863281 139.519531 L 332.34375 139.519531 Z M 332.34375 200.152344 L 321.863281 200.152344 L 321.863281 174.25 L 332.34375 174.25 Z M 332.34375 234.871094 L 321.863281 234.871094 L 321.863281 208.96875 L 332.34375 208.96875 Z M 332.34375 269.59375 L 321.863281 269.59375 L 321.863281 243.6875 L 332.34375 243.6875 Z M 332.34375 304.320312 L 321.863281 304.320312 L 321.863281 278.410156 L 332.34375 278.410156 Z M 313.046875 61.257812 L 302.570312 61.257812 L 302.570312 35.347656 L 313.046875 35.347656 Z M 313.046875 95.984375 L 302.570312 95.984375 L 302.570312 70.074219 L 313.046875 70.074219 Z M 313.046875 130.707031 L 302.570312 130.707031 L 302.570312 104.792969 L 313.046875 104.792969 Z M 313.046875 165.433594 L 302.570312 165.433594 L 302.570312 139.519531 L 313.046875 139.519531 Z M 313.046875 200.152344 L 302.570312 200.152344 L 302.570312 174.25 L 313.046875 174.25 Z M 313.046875 234.871094 L 302.570312 234.871094 L 302.570312 208.96875 L 313.046875 208.96875 Z M 313.046875 269.59375 L 302.570312 269.59375 L 302.570312 243.6875 L 313.046875 243.6875 Z M 313.046875 304.320312 L 302.570312 304.320312 L 302.570312 278.410156 L 313.046875 278.410156 Z M 222.535156 180.320312 L 186.183594 180.320312 L 186.183594 169.847656 L 222.535156 169.847656 Z M 222.535156 201.265625 L 186.183594 201.265625 L 186.183594 190.796875 L 222.535156 190.796875 Z M 222.535156 222.210938 L 186.183594 222.210938 L 186.183594 211.742188 L 222.535156 211.742188 Z M 222.535156 243.160156 L 186.183594 243.160156 L 186.183594 232.679688 L 222.535156 232.679688 Z M 222.535156 264.105469 L 186.183594 264.105469 L 186.183594 253.628906 L 222.535156 253.628906 Z M 222.535156 285.046875 L 186.183594 285.046875 L 186.183594 274.574219 L 222.535156 274.574219 Z M 222.535156 305.992188 L 186.183594 305.992188 L 186.183594 295.523438 L 222.535156 295.523438 Z M 181.632812 305.992188 L 171.984375 305.992188 L 171.984375 169.847656 L 181.632812 169.847656 Z M 167.4375 180.320312 L 131.078125 180.320312 L 131.078125 169.847656 L 167.4375 169.847656 Z M 167.4375 201.265625 L 131.078125 201.265625 L 131.078125 190.796875 L 167.4375 190.796875 Z M 167.4375 222.210938 L 131.078125 222.210938 L 131.078125 211.742188 L 167.4375 211.742188 Z M 167.4375 243.160156 L 131.078125 243.160156 L 131.078125 232.679688 L 167.4375 232.679688 Z M 167.4375 264.105469 L 131.078125 264.105469 L 131.078125 253.628906 L 167.4375 253.628906 Z M 167.4375 285.046875 L 131.078125 285.046875 L 131.078125 274.574219 L 167.4375 274.574219 Z M 167.4375 305.992188 L 131.078125 305.992188 L 131.078125 295.523438 L 167.4375 295.523438 Z M 74.765625 310.957031 L 69.9375 310.957031 L 69.9375 88.820312 L 74.765625 88.820312 Z M 66.519531 310.957031 L 61.695312 310.957031 L 61.695312 88.820312 L 66.519531 88.820312 Z M 57.324219 99.863281 L 47.394531 99.863281 L 47.394531 88.789062 L 57.324219 88.789062 Z M 57.324219 117.460938 L 47.394531 117.460938 L 47.394531 106.382812 L 57.324219 106.382812 Z M 57.324219 135.046875 L 47.394531 135.046875 L 47.394531 123.980469 L 57.324219 123.980469 Z M 57.324219 152.644531 L 47.394531 152.644531 L 47.394531 141.574219 L 57.324219 141.574219 Z M 57.324219 170.238281 L 47.394531 170.238281 L 47.394531 159.164062 L 57.324219 159.164062 Z M 57.324219 187.832031 L 47.394531 187.832031 L 47.394531 176.757812 L 57.324219 176.757812 Z M 57.324219 205.421875 L 47.394531 205.421875 L 47.394531 194.359375 L 57.324219 194.359375 Z M 57.324219 223.019531 L 47.394531 223.019531 L 47.394531 211.949219 L 57.324219 211.949219 Z M 57.324219 240.613281 L 47.394531 240.613281 L 47.394531 229.539062 L 57.324219 229.539062 Z M 57.324219 258.203125 L 47.394531 258.203125 L 47.394531 247.132812 L 57.324219 247.132812 Z M 57.324219 275.796875 L 47.394531 275.796875 L 47.394531 264.726562 L 57.324219 264.726562 Z M 57.324219 293.390625 L 47.394531 293.390625 L 47.394531 282.316406 L 57.324219 282.316406 Z M 57.324219 310.980469 L 47.394531 310.980469 L 47.394531 299.914062 L 57.324219 299.914062 Z M 42.304688 99.863281 L 32.382812 99.863281 L 32.382812 88.789062 L 42.304688 88.789062 Z M 42.304688 117.460938 L 32.382812 117.460938 L 32.382812 106.382812 L 42.304688 106.382812 Z M 42.304688 135.046875 L 32.382812 135.046875 L 32.382812 123.980469 L 42.304688 123.980469 Z M 42.304688 152.644531 L 32.382812 152.644531 L 32.382812 141.574219 L 42.304688 141.574219 Z M 42.304688 170.238281 L 32.382812 170.238281 L 32.382812 159.164062 L 42.304688 159.164062 Z M 42.304688 187.832031 L 32.382812 187.832031 L 32.382812 176.757812 L 42.304688 176.757812 Z M 42.304688 205.421875 L 32.382812 205.421875 L 32.382812 194.359375 L 42.304688 194.359375 Z M 42.304688 223.019531 L 32.382812 223.019531 L 32.382812 211.949219 L 42.304688 211.949219 Z M 42.304688 240.613281 L 32.382812 240.613281 L 32.382812 229.539062 L 42.304688 229.539062 Z M 42.304688 258.203125 L 32.382812 258.203125 L 32.382812 247.132812 L 42.304688 247.132812 Z M 42.304688 275.796875 L 32.382812 275.796875 L 32.382812 264.726562 L 42.304688 264.726562 Z M 42.304688 293.390625 L 32.382812 293.390625 L 32.382812 282.316406 L 42.304688 282.316406 Z M 42.304688 310.980469 L 32.382812 310.980469 L 32.382812 299.914062 L 42.304688 299.914062 Z M 28.011719 310.957031 L 23.179688 310.957031 L 23.179688 88.820312 L 28.011719 88.820312 Z M 19.765625 310.957031 L 14.933594 310.957031 L 14.933594 88.820312 L 19.765625 88.820312 Z M 0.9375 158.269531 L -65.101562 158.269531 L -65.101562 151.785156 L 0.9375 151.785156 Z M 0.9375 168.296875 L -65.101562 168.296875 L -65.101562 161.808594 L 0.9375 161.808594 Z M 0.9375 178.324219 L -65.101562 178.324219 L -65.101562 171.835938 L 0.9375 171.835938 Z M 0.9375 188.355469 L -65.101562 188.355469 L -65.101562 181.859375 L 0.9375 181.859375 Z M 0.9375 198.375 L -65.101562 198.375 L -65.101562 191.886719 L 0.9375 191.886719 Z M 0.9375 208.40625 L -65.101562 208.40625 L -65.101562 201.914062 L 0.9375 201.914062 Z M 0.9375 218.425781 L -65.101562 218.425781 L -65.101562 211.941406 L 0.9375 211.941406 Z M 0.9375 228.453125 L -65.101562 228.453125 L -65.101562 221.964844 L 0.9375 221.964844 Z M 0.9375 238.476562 L -65.101562 238.476562 L -65.101562 231.992188 L 0.9375 231.992188 Z M 0.9375 248.503906 L -65.101562 248.503906 L -65.101562 242.015625 L 0.9375 242.015625 Z M 0.9375 258.53125 L -65.101562 258.53125 L -65.101562 252.042969 L 0.9375 252.042969 Z M 0.9375 268.554688 L -65.101562 268.554688 L -65.101562 262.070312 L 0.9375 262.070312 Z M 0.9375 278.578125 L -65.101562 278.578125 L -65.101562 272.09375 L 0.9375 272.09375 Z M 0.9375 288.609375 L -65.101562 288.609375 L -65.101562 282.121094 L 0.9375 282.121094 Z M 0.9375 298.632812 L -65.101562 298.632812 L -65.101562 292.148438 L 0.9375 292.148438 Z M -154.773438 61.257812 L -165.246094 61.257812 L -165.246094 35.347656 L -154.773438 35.347656 Z M -154.773438 95.984375 L -165.246094 95.984375 L -165.246094 70.074219 L -154.773438 70.074219 Z M -154.773438 130.707031 L -165.246094 130.707031 L -165.246094 104.792969 L -154.773438 104.792969 Z M -154.773438 165.433594 L -165.246094 165.433594 L -165.246094 139.519531 L -154.773438 139.519531 Z M -154.773438 200.152344 L -165.246094 200.152344 L -165.246094 174.25 L -154.773438 174.25 Z M -154.773438 234.871094 L -165.246094 234.871094 L -165.246094 208.96875 L -154.773438 208.96875 Z M -154.773438 269.59375 L -165.246094 269.59375 L -165.246094 243.6875 L -154.773438 243.6875 Z M -154.773438 304.320312 L -165.246094 304.320312 L -165.246094 278.410156 L -154.773438 278.410156 Z M -174.0625 61.257812 L -184.539062 61.257812 L -184.539062 35.347656 L -174.0625 35.347656 Z M -174.0625 95.984375 L -184.539062 95.984375 L -184.539062 70.074219 L -174.0625 70.074219 Z M -174.0625 130.707031 L -184.539062 130.707031 L -184.539062 104.792969 L -174.0625 104.792969 Z M -174.0625 165.433594 L -184.539062 165.433594 L -184.539062 139.519531 L -174.0625 139.519531 Z M -174.0625 200.152344 L -184.539062 200.152344 L -184.539062 174.25 L -174.0625 174.25 Z M -174.0625 234.871094 L -184.539062 234.871094 L -184.539062 208.96875 L -174.0625 208.96875 Z M -174.0625 269.59375 L -184.539062 269.59375 L -184.539062 243.6875 L -174.0625 243.6875 Z M -174.0625 304.320312 L -184.539062 304.320312 L -184.539062 278.410156 L -174.0625 278.410156 Z M 340.890625 33.347656 L 340.890625 27.640625 L 332.238281 27.640625 L 332.238281 18.269531 L 325.179688 18.269531 L 325.179688 8.394531 L 320.546875 8.394531 L 320.546875 0.691406 L 314.074219 0.691406 L 314.074219 8.394531 L 309.429688 8.394531 L 309.429688 18.269531 L 302.382812 18.269531 L 302.382812 27.640625 L 294.03125 27.640625 L 294.03125 203.691406 L 267.414062 203.691406 L 267.414062 174.835938 L 263.46875 174.835938 L 263.46875 150.21875 L 254.394531 150.21875 L 254.394531 131.027344 L 241.777344 131.027344 L 241.777344 150.21875 L 232.707031 150.21875 L 232.707031 174.835938 L 228.757812 174.835938 L 228.757812 160.730469 L 124.859375 160.730469 L 124.859375 131.3125 L 114.515625 131.3125 L 114.515625 99.257812 L 107.714844 99.257812 L 107.714844 74.261719 L 98.238281 74.261719 L 98.238281 99.257812 L 91.429688 99.257812 L 91.429688 131.3125 L 81.089844 131.3125 L 81.089844 81.101562 L 69.960938 81.101562 L 69.960938 69.039062 L 68.128906 69.039062 L 68.128906 64.578125 L 62.777344 64.578125 L 61.703125 37.980469 L 60.898438 37.980469 L 59.835938 64.578125 L 54.488281 64.578125 L 54.488281 69.039062 L 52.648438 69.039062 L 52.648438 81.101562 L 46.671875 81.101562 L 46.671875 62.328125 L 43.820312 62.328125 L 43.820312 55.375 L 35.484375 55.375 L 33.828125 14 L 32.585938 14 L 30.917969 55.375 L 22.597656 55.375 L 22.597656 62.328125 L 19.734375 62.328125 L 19.734375 81.101562 L 8.609375 81.101562 L 8.609375 142.941406 L -72.773438 142.941406 L -72.773438 140.289062 L -103.640625 140.289062 L -103.640625 33.347656 L -146.230469 33.347656 L -146.230469 17.039062 L -157.300781 17.039062 L -157.300781 12.800781 L -164.582031 12.800781 L -164.582031 9.5 L -174.722656 9.5 L -174.722656 12.800781 L -182.015625 12.800781 L -182.015625 17.039062 L -193.078125 17.039062 L -193.078125 318.675781 L 380.671875 318.675781 C 380.984375 318.121094 381.273438 317.550781 381.585938 317 L 381.585938 33.347656 L 340.890625 33.347656 "/></g></g><mask id="c78dc008b1"><g filter="url(#6a0b7a3af4)"><rect x="0" width="1440" y="0" height="809.999993" style="fill:#000000;fill-opacity:0.04;stroke:none;"/></g></mask></g></g></svg>