<svg xmlns="http://www.w3.org/2000/svg" xmlns:xlink="http://www.w3.org/1999/xlink" width="1871" zoomAndPan="magnify" viewBox="0 0 1403.25 232.499993" height="310" preserveAspectRatio="xMidYMid meet" version="1.2"><defs><clipPath id="98fd882bce"><path d="M 543.304688 29.582031 L 1287.753906 29.582031 L 1287.753906 181.359375 L 543.304688 181.359375 Z M 543.304688 29.582031 "/></clipPath><clipPath id="7af55578b7"><path d="M 31.054688 29.582031 L 775.503906 29.582031 L 775.503906 181.359375 L 31.054688 181.359375 Z M 31.054688 29.582031 "/></clipPath></defs><g id="0517bfaac3"><g clip-rule="nonzero" clip-path="url(#98fd882bce)"><path style=" stroke:none;fill-rule:nonzero;fill:#e0f5ff;fill-opacity:1;" d="M 1287.515625 58.992188 L 1270.769531 164.433594 C 1269.328125 173.484375 1261.476562 180.113281 1252.3125 180.015625 L 1194.585938 179.375 L 1120.890625 178.578125 L 899.835938 176.160156 L 826.160156 175.363281 L 760.878906 174.566406 L 687.28125 173.753906 L 545.820312 181.359375 C 544.34375 181.421875 543.15625 180.140625 543.320312 178.660156 L 544 172.390625 L 545.96875 154.773438 C 546.003906 154.433594 546.117188 154.109375 546.277344 153.8125 L 550.796875 146.09375 C 551.152344 145.460938 551.21875 144.695312 550.972656 144.015625 L 548.246094 136.636719 C 548.113281 136.277344 548.0625 135.90625 548.113281 135.53125 L 549.054688 127.03125 L 551.070312 108.878906 L 552.078125 99.796875 L 553.085938 90.730469 L 555.101562 72.59375 L 556.109375 63.507812 L 557.066406 54.964844 C 557.097656 54.621094 557.210938 54.28125 557.390625 53.988281 L 563.617188 43.457031 C 564.183594 42.515625 564.039062 41.292969 563.257812 40.519531 C 562.773438 40.011719 562.5625 39.410156 562.5625 38.828125 C 562.5625 37.558594 563.550781 36.339844 565.03125 36.355469 L 569.351562 37.183594 L 794.953125 29.582031 L 854.660156 30.488281 L 942.820312 31.433594 L 1019.992188 32.292969 L 1102.65625 33.1875 L 1185.304688 34.078125 L 1270.042969 37.632812 C 1281.082031 38.097656 1289.25 48.082031 1287.515625 58.992188 "/></g><g clip-rule="nonzero" clip-path="url(#7af55578b7)"><path style=" stroke:none;fill-rule:nonzero;fill:#e0f5ff;fill-opacity:1;" d="M 775.265625 58.992188 L 758.519531 164.433594 C 757.082031 173.484375 749.230469 180.113281 740.066406 180.015625 L 682.335938 179.375 L 608.640625 178.578125 L 387.585938 176.160156 L 313.910156 175.363281 L 248.628906 174.566406 L 175.03125 173.753906 L 33.574219 181.359375 C 32.09375 181.421875 30.910156 180.140625 31.070312 178.660156 L 31.753906 172.390625 L 33.71875 154.773438 C 33.753906 154.433594 33.867188 154.109375 34.027344 153.8125 L 38.546875 146.09375 C 38.902344 145.460938 38.96875 144.695312 38.722656 144.015625 L 35.996094 136.636719 C 35.863281 136.277344 35.8125 135.90625 35.863281 135.53125 L 36.804688 127.03125 L 38.820312 108.878906 L 39.832031 99.796875 L 40.835938 90.730469 L 42.851562 72.59375 L 43.859375 63.507812 L 44.820312 54.964844 C 44.847656 54.621094 44.960938 54.28125 45.144531 53.988281 L 51.367188 43.457031 C 51.9375 42.515625 51.789062 41.292969 51.007812 40.519531 C 50.523438 40.011719 50.3125 39.410156 50.3125 38.828125 C 50.3125 37.558594 51.304688 36.339844 52.78125 36.355469 L 57.101562 37.183594 L 282.707031 29.582031 L 342.414062 30.488281 L 430.570312 31.433594 L 507.742188 32.292969 L 590.40625 33.1875 L 673.054688 34.078125 L 757.792969 37.632812 C 768.832031 38.097656 777 48.082031 775.265625 58.992188 "/></g><g style="fill:#396c84;fill-opacity:1;"><g transform="translate(154.372063, 156.770781)"><path style="stroke:none" d="M 56.15625 -85.53125 C 61.476562 -85.53125 65.253906 -84.410156 67.484375 -82.171875 C 69.722656 -79.941406 70.84375 -76.117188 70.84375 -70.703125 L 70.84375 0 L 48.75 0 L 48.75 -63.140625 C 48.75 -65.046875 48.414062 -66.425781 47.75 -67.28125 C 47.082031 -68.132812 45.847656 -68.5625 44.046875 -68.5625 L 40.203125 -68.5625 C 36.972656 -68.5625 34.738281 -67.5625 33.5 -65.5625 C 32.257812 -63.570312 32.210938 -59.394531 33.359375 -53.03125 L 38.484375 -23.09375 C 39.910156 -15.300781 39.484375 -9.503906 37.203125 -5.703125 C 34.921875 -1.898438 30.3125 0 23.375 0 L 4.421875 0 L 4.421875 -17.53125 L 12.828125 -17.53125 C 14.160156 -17.53125 15.179688 -17.910156 15.890625 -18.671875 C 16.609375 -19.429688 16.820312 -20.859375 16.53125 -22.953125 L 11.828125 -50.171875 C 10.878906 -55.492188 10.738281 -59.507812 11.40625 -62.21875 C 12.070312 -64.925781 12.925781 -66.851562 13.96875 -68 L 4.703125 -68 L 4.703125 -85.53125 Z M 56.15625 -85.53125 "/></g></g><g style="fill:#396c84;fill-opacity:1;"><g transform="translate(233.199465, 156.770781)"><path style="stroke:none" d="M 22.8125 0 C 17.300781 0 13.59375 -1.734375 11.6875 -5.203125 C 9.789062 -8.671875 9.882812 -13.632812 11.96875 -20.09375 L 25.9375 -63.4375 C 26.894531 -66.476562 25.851562 -68 22.8125 -68 L 6.125 -68 C 4.601562 -68 3.535156 -68.304688 2.921875 -68.921875 C 2.304688 -69.535156 2 -70.648438 2 -72.265625 L 2 -96.9375 L 22.8125 -96.9375 L 22.8125 -85.53125 L 38.0625 -85.53125 C 43.476562 -85.53125 47.253906 -83.75 49.390625 -80.1875 C 51.523438 -76.625 51.644531 -71.894531 49.75 -66 L 34.640625 -21.234375 C 34.253906 -20.191406 34.179688 -19.3125 34.421875 -18.59375 C 34.660156 -17.882812 35.398438 -17.53125 36.640625 -17.53125 L 42.90625 -17.53125 L 42.90625 0 Z M 22.8125 0 "/></g></g><g style="fill:#396c84;fill-opacity:1;"><g transform="translate(288.221846, 156.770781)"><path style="stroke:none" d="M 2 -85.53125 L 54.453125 -85.53125 L 54.453125 -68 L 51.609375 -68 C 48.660156 -68 47.1875 -66.050781 47.1875 -62.15625 L 47.1875 0 L 26.375 0 L 26.375 -58.875 C 26.375 -62.863281 26.988281 -65.90625 28.21875 -68 L 2 -68 Z M 2 -85.53125 "/></g></g><g style="fill:#396c84;fill-opacity:1;"><g transform="translate(346.522763, 156.770781)"><path style="stroke:none" d="M 44.765625 0 L 44.765625 -63.71875 C 44.765625 -65.425781 44.453125 -66.566406 43.828125 -67.140625 C 43.210938 -67.710938 42.050781 -68 40.34375 -68 L 7.40625 -68 L 7.40625 -85.53125 L 53.875 -85.53125 C 58.632812 -85.53125 61.988281 -84.410156 63.9375 -82.171875 C 65.882812 -79.941406 66.859375 -76.117188 66.859375 -70.703125 L 66.859375 0 Z M 14.6875 0 C 9.832031 0 7.40625 -2.46875 7.40625 -7.40625 L 7.40625 -53.3125 L 29.5 -53.3125 L 29.5 -20.234375 C 29.5 -18.429688 30.210938 -17.53125 31.640625 -17.53125 L 33.5 -17.53125 L 33.5 0 Z M 14.6875 0 "/></g></g><g style="fill:#396c84;fill-opacity:1;"><g transform="translate(421.216352, 156.770781)"><path style="stroke:none" d=""/></g></g><g style="fill:#396c84;fill-opacity:1;"><g transform="translate(450.438092, 156.770781)"><path style="stroke:none" d="M 22.8125 0 C 17.300781 0 13.59375 -1.734375 11.6875 -5.203125 C 9.789062 -8.671875 9.882812 -13.632812 11.96875 -20.09375 L 25.9375 -63.4375 C 26.894531 -66.476562 25.851562 -68 22.8125 -68 L 6.125 -68 C 4.601562 -68 3.535156 -68.304688 2.921875 -68.921875 C 2.304688 -69.535156 2 -70.648438 2 -72.265625 L 2 -96.9375 L 22.8125 -96.9375 L 22.8125 -85.53125 L 38.0625 -85.53125 C 43.476562 -85.53125 47.253906 -83.75 49.390625 -80.1875 C 51.523438 -76.625 51.644531 -71.894531 49.75 -66 L 34.640625 -21.234375 C 34.253906 -20.191406 34.179688 -19.3125 34.421875 -18.59375 C 34.660156 -17.882812 35.398438 -17.53125 36.640625 -17.53125 L 42.90625 -17.53125 L 42.90625 0 Z M 22.8125 0 "/></g></g><g style="fill:#396c84;fill-opacity:1;"><g transform="translate(505.460484, 156.770781)"><path style="stroke:none" d="M 43.765625 -85.53125 L 65.859375 -85.53125 L 65.859375 -42.90625 C 65.859375 -36.632812 65.144531 -31.476562 63.71875 -27.4375 C 62.289062 -23.394531 60.222656 -20.066406 57.515625 -17.453125 C 54.804688 -14.847656 51.523438 -12.617188 47.671875 -10.765625 C 43.828125 -8.910156 39.53125 -7.03125 34.78125 -5.125 L 9.546875 4.84375 L 3.421875 -11.828125 L 17.953125 -17.390625 C 14.347656 -20.804688 12.257812 -25.414062 11.6875 -31.21875 L 5.84375 -85.53125 L 27.9375 -85.53125 L 34.359375 -28.65625 C 34.546875 -26.945312 34.921875 -25.828125 35.484375 -25.296875 C 36.054688 -24.773438 36.820312 -24.660156 37.78125 -24.953125 L 38.484375 -25.234375 C 40.097656 -25.992188 41.378906 -27.082031 42.328125 -28.5 C 43.285156 -29.925781 43.765625 -32.066406 43.765625 -34.921875 Z M 43.765625 -85.53125 "/></g></g><g style="fill:#396c84;fill-opacity:1;"><g transform="translate(578.30098, 156.770781)"><path style="stroke:none" d=""/></g></g><g style="fill:#396c84;fill-opacity:1;"><g transform="translate(607.522697, 156.770781)"><path style="stroke:none" d="M 44.765625 0 L 44.765625 -63.71875 C 44.765625 -65.425781 44.453125 -66.566406 43.828125 -67.140625 C 43.210938 -67.710938 42.050781 -68 40.34375 -68 L 7.40625 -68 L 7.40625 -85.53125 L 53.875 -85.53125 C 58.632812 -85.53125 61.988281 -84.410156 63.9375 -82.171875 C 65.882812 -79.941406 66.859375 -76.117188 66.859375 -70.703125 L 66.859375 0 Z M 14.6875 0 C 9.832031 0 7.40625 -2.46875 7.40625 -7.40625 L 7.40625 -53.3125 L 29.5 -53.3125 L 29.5 -20.234375 C 29.5 -18.429688 30.210938 -17.53125 31.640625 -17.53125 L 33.5 -17.53125 L 33.5 0 Z M 14.6875 0 "/></g></g><g style="fill:#396c84;fill-opacity:1;"><g transform="translate(682.216308, 156.770781)"><path style="stroke:none" d="M 0.421875 0 L 0.421875 -17.53125 L 12.265625 -17.53125 C 14.253906 -17.53125 15.582031 -17.863281 16.25 -18.53125 C 16.914062 -19.195312 17.25 -20.578125 17.25 -22.671875 L 17.25 -63.71875 C 17.25 -65.425781 16.960938 -66.566406 16.390625 -67.140625 C 15.816406 -67.710938 14.722656 -68 13.109375 -68 L 8.125 -68 L 8.125 -85.53125 L 26.234375 -85.53125 C 30.984375 -85.53125 34.351562 -84.457031 36.34375 -82.3125 C 38.34375 -80.175781 39.34375 -76.59375 39.34375 -71.5625 L 39.34375 -14.25 C 39.34375 -9.03125 38.320312 -5.347656 36.28125 -3.203125 C 34.238281 -1.066406 30.789062 0 25.9375 0 Z M 0.421875 0 "/></g></g><g style="fill:#396c84;fill-opacity:1;"><g transform="translate(728.685995, 156.770781)"><path style="stroke:none" d="M 53.734375 0 L 33.78125 0 L 25.375 -29.9375 C 24.519531 -29.550781 23.945312 -29.117188 23.65625 -28.640625 C 23.375 -28.171875 23.1875 -27.554688 23.09375 -26.796875 L 21.09375 0 L 0.140625 0 L 4.140625 -32.640625 C 4.515625 -35.679688 5.316406 -38.007812 6.546875 -39.625 C 7.785156 -41.238281 9.691406 -42.570312 12.265625 -43.625 L 21.234375 -47.328125 C 22.753906 -47.992188 23.894531 -48.875 24.65625 -49.96875 C 25.414062 -51.0625 25.796875 -52.648438 25.796875 -54.734375 L 25.796875 -64.140625 C 25.796875 -65.753906 25.554688 -66.800781 25.078125 -67.28125 C 24.609375 -67.757812 23.566406 -68 21.953125 -68 L 11.6875 -68 L 11.6875 -85.53125 L 34.5 -85.53125 C 38.675781 -85.53125 41.738281 -84.457031 43.6875 -82.3125 C 45.632812 -80.175781 46.609375 -76.734375 46.609375 -71.984375 L 46.609375 -45.1875 C 46.609375 -43 46.320312 -41.238281 45.75 -39.90625 C 45.1875 -38.582031 44.378906 -37.539062 43.328125 -36.78125 Z M 53.734375 0 "/></g></g><g style="fill:#396c84;fill-opacity:1;"><g transform="translate(784.278519, 156.770781)"><path style="stroke:none" d="M 44.765625 0 L 44.765625 -63.71875 C 44.765625 -65.425781 44.453125 -66.566406 43.828125 -67.140625 C 43.210938 -67.710938 42.050781 -68 40.34375 -68 L 7.40625 -68 L 7.40625 -85.53125 L 53.875 -85.53125 C 58.632812 -85.53125 61.988281 -84.410156 63.9375 -82.171875 C 65.882812 -79.941406 66.859375 -76.117188 66.859375 -70.703125 L 66.859375 0 Z M 14.6875 0 C 9.832031 0 7.40625 -2.46875 7.40625 -7.40625 L 7.40625 -53.3125 L 29.5 -53.3125 L 29.5 -20.234375 C 29.5 -18.429688 30.210938 -17.53125 31.640625 -17.53125 L 33.5 -17.53125 L 33.5 0 Z M 14.6875 0 "/></g></g><g style="fill:#396c84;fill-opacity:1;"><g transform="translate(858.972131, 156.770781)"><path style="stroke:none" d="M 22.8125 0 C 17.300781 0 13.59375 -1.734375 11.6875 -5.203125 C 9.789062 -8.671875 9.882812 -13.632812 11.96875 -20.09375 L 25.9375 -63.4375 C 26.894531 -66.476562 25.851562 -68 22.8125 -68 L 6.125 -68 C 4.601562 -68 3.535156 -68.304688 2.921875 -68.921875 C 2.304688 -69.535156 2 -70.648438 2 -72.265625 L 2 -96.9375 L 22.8125 -96.9375 L 22.8125 -85.53125 L 38.0625 -85.53125 C 43.476562 -85.53125 47.253906 -83.75 49.390625 -80.1875 C 51.523438 -76.625 51.644531 -71.894531 49.75 -66 L 34.640625 -21.234375 C 34.253906 -20.191406 34.179688 -19.3125 34.421875 -18.59375 C 34.660156 -17.882812 35.398438 -17.53125 36.640625 -17.53125 L 42.90625 -17.53125 L 42.90625 0 Z M 22.8125 0 "/></g></g><g style="fill:#396c84;fill-opacity:1;"><g transform="translate(913.994546, 156.770781)"><path style="stroke:none" d=""/></g></g><g style="fill:#396c84;fill-opacity:1;"><g transform="translate(943.216217, 156.770781)"><path style="stroke:none" d="M 44.765625 0 L 44.765625 -63.71875 C 44.765625 -65.425781 44.453125 -66.566406 43.828125 -67.140625 C 43.210938 -67.710938 42.050781 -68 40.34375 -68 L 7.40625 -68 L 7.40625 -85.53125 L 53.875 -85.53125 C 58.632812 -85.53125 61.988281 -84.410156 63.9375 -82.171875 C 65.882812 -79.941406 66.859375 -76.117188 66.859375 -70.703125 L 66.859375 0 Z M 14.6875 0 C 9.832031 0 7.40625 -2.46875 7.40625 -7.40625 L 7.40625 -53.3125 L 29.5 -53.3125 L 29.5 -20.234375 C 29.5 -18.429688 30.210938 -17.53125 31.640625 -17.53125 L 33.5 -17.53125 L 33.5 0 Z M 14.6875 0 "/></g></g><g style="fill:#396c84;fill-opacity:1;"><g transform="translate(1017.909828, 156.770781)"><path style="stroke:none" d="M 2 -85.53125 L 54.453125 -85.53125 L 54.453125 -68 L 51.609375 -68 C 48.660156 -68 47.1875 -66.050781 47.1875 -62.15625 L 47.1875 0 L 26.375 0 L 26.375 -58.875 C 26.375 -62.863281 26.988281 -65.90625 28.21875 -68 L 2 -68 Z M 2 -85.53125 "/></g></g><g style="fill:#396c84;fill-opacity:1;"><g transform="translate(1076.210746, 156.770781)"><path style="stroke:none" d="M 68.5625 -12.109375 C 68.75 -7.929688 67.867188 -4.867188 65.921875 -2.921875 C 63.972656 -0.972656 60.769531 0 56.3125 0 L 35.359375 0 L 35.359375 -17.53125 L 42.484375 -17.53125 C 44.003906 -17.53125 44.953125 -17.835938 45.328125 -18.453125 C 45.710938 -19.078125 45.851562 -20.101562 45.75 -21.53125 L 43.625 -61.015625 C 43.53125 -63.765625 43.171875 -65.707031 42.546875 -66.84375 C 41.929688 -67.988281 40.816406 -68.5625 39.203125 -68.5625 L 38.625 -68.5625 C 37.394531 -68.5625 36.515625 -68.203125 35.984375 -67.484375 C 35.460938 -66.773438 35.0625 -65.328125 34.78125 -63.140625 L 26.375 0 L 3.84375 0 L 11.828125 -54.875 C 12.679688 -60.863281 14.347656 -65.238281 16.828125 -68 L 6.265625 -68 L 6.265625 -85.53125 L 46.890625 -85.53125 C 52.304688 -85.53125 56.675781 -84.054688 60 -81.109375 C 63.332031 -78.160156 65.191406 -72.601562 65.578125 -64.4375 Z M 68.5625 -12.109375 "/></g></g><g style="fill:#396c84;fill-opacity:1;"><g transform="translate(1149.906564, 156.770781)"><path style="stroke:none" d="M 12.6875 0 L 12.6875 -64.859375 C 12.6875 -66.191406 12.472656 -67.046875 12.046875 -67.421875 C 11.617188 -67.804688 10.738281 -68 9.40625 -68 L 4.28125 -68 L 4.28125 -85.53125 L 25.234375 -85.53125 C 28.742188 -85.53125 31.210938 -84.816406 32.640625 -83.390625 C 34.066406 -81.960938 34.78125 -79.539062 34.78125 -76.125 L 34.78125 0 Z M 12.6875 0 "/></g></g><g style="fill:#396c84;fill-opacity:1;"><g transform="translate(1192.527549, 156.770781)"><path style="stroke:none" d="M 22.8125 0 C 17.300781 0 13.59375 -1.734375 11.6875 -5.203125 C 9.789062 -8.671875 9.882812 -13.632812 11.96875 -20.09375 L 25.9375 -63.4375 C 26.894531 -66.476562 25.851562 -68 22.8125 -68 L 6.125 -68 C 4.601562 -68 3.535156 -68.304688 2.921875 -68.921875 C 2.304688 -69.535156 2 -70.648438 2 -72.265625 L 2 -96.9375 L 22.8125 -96.9375 L 22.8125 -85.53125 L 38.0625 -85.53125 C 43.476562 -85.53125 47.253906 -83.75 49.390625 -80.1875 C 51.523438 -76.625 51.644531 -71.894531 49.75 -66 L 34.640625 -21.234375 C 34.253906 -20.191406 34.179688 -19.3125 34.421875 -18.59375 C 34.660156 -17.882812 35.398438 -17.53125 36.640625 -17.53125 L 42.90625 -17.53125 L 42.90625 0 Z M 22.8125 0 "/></g></g></g></svg>