<svg xmlns="http://www.w3.org/2000/svg" xmlns:xlink="http://www.w3.org/1999/xlink" width="192" zoomAndPan="magnify" viewBox="0 0 144 149.249994" height="199" preserveAspectRatio="xMidYMid meet" version="1.2"><defs><clipPath id="47f2806de3"><path d="M 0.359375 141 L 143.640625 141 L 143.640625 147.757812 L 0.359375 147.757812 Z M 0.359375 141 "/></clipPath><clipPath id="65e2c13e1a"><path d="M 57.691406 85.9375 L 71.246094 85.9375 L 71.246094 101.980469 L 57.691406 101.980469 Z M 57.691406 85.9375 "/></clipPath><clipPath id="957e243677"><path d="M 0.691406 0.9375 L 14.246094 0.9375 L 14.246094 16.980469 L 0.691406 16.980469 Z M 0.691406 0.9375 "/></clipPath><clipPath id="f863bc5267"><rect x="0" width="15" y="0" height="17"/></clipPath></defs><g id="a8954f33e4"><path style=" stroke:none;fill-rule:nonzero;fill:#396c84;fill-opacity:1;" d="M 113.359375 26.738281 L 111.863281 26.738281 L 111.863281 12.78125 L 113.359375 12.78125 L 113.359375 26.738281 "/><path style=" stroke:none;fill-rule:nonzero;fill:#396c84;fill-opacity:1;" d="M 121.242188 28.941406 L 119.746094 28.941406 L 119.746094 14.980469 L 121.242188 14.980469 L 121.242188 28.941406 "/><path style=" stroke:none;fill-rule:nonzero;fill:#396c84;fill-opacity:1;" d="M 128.59375 32.320312 L 127.09375 32.320312 L 127.09375 18.359375 L 128.59375 18.359375 L 128.59375 32.320312 "/><path style=" stroke:none;fill-rule:nonzero;fill:#396c84;fill-opacity:1;" d="M 101.964844 143.804688 L 69.320312 143.804688 L 69.320312 35.046875 L 101.964844 18.859375 L 101.964844 143.804688 "/><path style=" stroke:none;fill-rule:nonzero;fill:#396c84;fill-opacity:1;" d="M 42.121094 143.804688 L 9.476562 143.804688 L 9.476562 54.183594 L 42.121094 37.996094 L 42.121094 143.804688 "/><path style=" stroke:none;fill-rule:nonzero;fill:#396c84;fill-opacity:1;" d="M 85.789062 143.804688 L 35.554688 143.804688 L 35.554688 88.027344 L 85.789062 77.953125 L 85.789062 143.804688 "/><path style=" stroke:none;fill-rule:nonzero;fill:#396c84;fill-opacity:1;" d="M 56.941406 143.804688 L 42.121094 143.804688 L 42.121094 37.996094 L 56.941406 42.5 L 56.941406 143.804688 "/><path style=" stroke:none;fill-rule:nonzero;fill:#396c84;fill-opacity:1;" d="M 137.449219 143.804688 L 101.964844 143.804688 L 101.964844 18.859375 L 137.449219 28.992188 L 137.449219 143.804688 "/><path style=" stroke:none;fill-rule:nonzero;fill:#c9e5f2;fill-opacity:1;" d="M 117.867188 101.417969 C 113.664062 101.417969 111.5625 101.417969 107.355469 101.417969 C 107.355469 96.789062 107.355469 92.15625 107.355469 87.523438 C 111.5625 87.757812 113.664062 87.878906 117.867188 88.109375 C 117.867188 92.546875 117.867188 96.984375 117.867188 101.417969 "/><path style=" stroke:none;fill-rule:nonzero;fill:#c9e5f2;fill-opacity:1;" d="M 133.738281 101.417969 C 129.53125 101.417969 127.429688 101.417969 123.226562 101.417969 C 123.226562 97.082031 123.226562 92.746094 123.226562 88.40625 C 127.429688 88.640625 129.53125 88.757812 133.738281 88.992188 C 133.738281 93.132812 133.738281 97.277344 133.738281 101.417969 "/><path style=" stroke:none;fill-rule:nonzero;fill:#c9e5f2;fill-opacity:1;" d="M 117.867188 83.054688 C 113.664062 82.734375 111.5625 82.570312 107.355469 82.25 C 107.355469 77.617188 107.355469 72.988281 107.355469 68.355469 C 111.5625 68.910156 113.664062 69.1875 117.867188 69.746094 C 117.867188 74.183594 117.867188 78.621094 117.867188 83.054688 "/><path style=" stroke:none;fill-rule:nonzero;fill:#c9e5f2;fill-opacity:1;" d="M 133.738281 84.273438 C 129.53125 83.949219 127.429688 83.789062 123.226562 83.464844 C 123.226562 79.128906 123.226562 74.789062 123.226562 70.453125 C 127.429688 71.007812 129.53125 71.285156 133.738281 71.84375 C 133.738281 75.984375 133.738281 80.125 133.738281 84.273438 "/><path style=" stroke:none;fill-rule:nonzero;fill:#c9e5f2;fill-opacity:1;" d="M 117.867188 64.691406 C 113.664062 64.042969 111.5625 63.722656 107.355469 63.078125 C 107.355469 58.445312 107.355469 53.816406 107.355469 49.183594 C 111.5625 50.0625 113.664062 50.5 117.867188 51.378906 C 117.867188 55.816406 117.867188 60.25 117.867188 64.691406 "/><path style=" stroke:none;fill-rule:nonzero;fill:#c9e5f2;fill-opacity:1;" d="M 133.738281 67.121094 C 129.53125 66.476562 127.429688 66.15625 123.226562 65.511719 C 123.226562 61.175781 123.226562 56.835938 123.226562 52.496094 C 127.429688 53.375 129.53125 53.816406 133.738281 54.691406 C 133.738281 58.835938 133.738281 62.980469 133.738281 67.121094 "/><path style=" stroke:none;fill-rule:nonzero;fill:#c9e5f2;fill-opacity:1;" d="M 117.871094 46.324219 C 113.664062 45.355469 111.5625 44.875 107.355469 43.910156 C 107.355469 39.273438 107.355469 34.648438 107.355469 30.011719 C 110.859375 31.011719 114.363281 32.015625 117.867188 33.015625 C 117.867188 37.449219 117.867188 41.886719 117.871094 46.324219 "/><path style=" stroke:none;fill-rule:nonzero;fill:#c9e5f2;fill-opacity:1;" d="M 133.738281 49.972656 C 129.53125 49.003906 127.429688 48.527344 123.226562 47.554688 C 123.226562 43.21875 123.226562 38.882812 123.226562 34.542969 C 126.730469 35.542969 130.230469 36.546875 133.738281 37.546875 C 133.738281 41.6875 133.738281 45.828125 133.738281 49.972656 "/><path style=" stroke:none;fill-rule:nonzero;fill:#c9e5f2;fill-opacity:1;" d="M 82.710938 47.972656 C 79.496094 49.371094 76.289062 50.769531 73.078125 52.167969 C 73.078125 48.339844 73.078125 46.425781 73.078125 42.59375 C 76.289062 41.003906 79.496094 39.410156 82.710938 37.816406 C 82.710938 41.878906 82.710938 43.910156 82.710938 47.972656 "/><path style=" stroke:none;fill-rule:nonzero;fill:#c9e5f2;fill-opacity:1;" d="M 98.5 41.09375 C 95.289062 42.492188 92.078125 43.890625 88.867188 45.289062 C 88.867188 41.78125 88.867188 38.273438 88.867188 34.761719 C 92.078125 33.171875 95.289062 31.578125 98.5 29.988281 C 98.5 33.6875 98.5 37.390625 98.5 41.09375 "/><path style=" stroke:none;fill-rule:nonzero;fill:#c9e5f2;fill-opacity:1;" d="M 82.710938 62.660156 C 78.855469 64.007812 76.929688 64.675781 73.078125 66.019531 C 73.078125 62.1875 73.078125 60.273438 73.078125 56.445312 C 76.929688 54.871094 78.855469 54.082031 82.710938 52.503906 C 82.710938 56.570312 82.710938 58.601562 82.710938 62.660156 "/><path style=" stroke:none;fill-rule:nonzero;fill:#c9e5f2;fill-opacity:1;" d="M 98.5 57.160156 C 94.648438 58.5 92.722656 59.175781 88.867188 60.515625 C 88.867188 57.007812 88.867188 53.496094 88.867188 49.988281 C 92.722656 48.414062 94.648438 47.625 98.5 46.050781 C 98.5 49.753906 98.5 53.457031 98.5 57.160156 "/><path style=" stroke:none;fill-rule:nonzero;fill:#c9e5f2;fill-opacity:1;" d="M 82.710938 77.355469 C 78.855469 78.359375 76.929688 78.863281 73.078125 79.871094 C 73.078125 76.042969 73.078125 74.125 73.078125 70.296875 C 76.929688 69.054688 78.855469 68.4375 82.710938 67.195312 C 82.710938 71.257812 82.710938 73.292969 82.710938 77.355469 "/><path style=" stroke:none;fill-rule:nonzero;fill:#c9e5f2;fill-opacity:1;" d="M 98.5 73.226562 C 94.648438 74.230469 92.722656 74.738281 88.867188 75.742188 C 88.867188 72.234375 88.867188 68.726562 88.867188 65.214844 C 92.722656 63.976562 94.648438 63.355469 98.5 62.117188 C 98.5 65.820312 98.5 69.523438 98.5 73.226562 "/><path style=" stroke:none;fill-rule:nonzero;fill:#c9e5f2;fill-opacity:1;" d="M 82.710938 92.046875 C 78.855469 92.714844 76.929688 93.050781 73.078125 93.722656 C 73.078125 89.890625 73.078125 87.976562 73.078125 84.148438 C 76.929688 83.242188 78.855469 82.789062 82.710938 81.886719 C 82.710938 85.953125 82.710938 87.980469 82.710938 92.046875 "/><path style=" stroke:none;fill-rule:nonzero;fill:#c9e5f2;fill-opacity:1;" d="M 98.5 89.292969 C 94.648438 89.964844 92.722656 90.300781 88.867188 90.972656 C 88.867188 87.460938 88.867188 83.953125 88.867188 80.445312 C 92.722656 79.542969 94.648438 79.089844 98.5 78.1875 C 98.5 81.886719 98.5 85.589844 98.5 89.292969 "/><path style=" stroke:none;fill-rule:nonzero;fill:#c9e5f2;fill-opacity:1;" d="M 82.710938 106.734375 C 78.855469 107.070312 76.929688 107.238281 73.078125 107.574219 C 73.078125 103.746094 73.078125 101.828125 73.078125 98 C 76.929688 97.429688 78.855469 97.148438 82.710938 96.578125 C 82.710938 100.640625 82.710938 102.675781 82.710938 106.734375 "/><path style=" stroke:none;fill-rule:nonzero;fill:#c9e5f2;fill-opacity:1;" d="M 98.5 105.359375 C 94.648438 105.695312 92.722656 105.863281 88.867188 106.195312 C 88.867188 102.691406 88.867188 99.179688 88.867188 95.671875 C 92.722656 95.101562 94.648438 94.820312 98.5 94.253906 C 98.5 97.953125 98.5 101.65625 98.5 105.359375 "/><path style=" stroke:none;fill-rule:nonzero;fill:#c9e5f2;fill-opacity:1;" d="M 82.710938 121.425781 C 78.855469 121.425781 76.929688 121.425781 73.078125 121.425781 C 73.078125 117.59375 73.078125 115.679688 73.078125 111.847656 C 76.929688 111.617188 78.855469 111.5 82.710938 111.269531 C 82.710938 115.332031 82.710938 117.363281 82.710938 121.425781 "/><path style=" stroke:none;fill-rule:nonzero;fill:#c9e5f2;fill-opacity:1;" d="M 61.757812 118.257812 C 57.902344 118.59375 55.980469 118.761719 52.125 119.097656 C 52.125 115.269531 52.125 113.351562 52.125 109.519531 C 55.980469 108.953125 57.902344 108.667969 61.757812 108.097656 C 61.757812 112.164062 61.757812 114.195312 61.757812 118.257812 "/><path style=" stroke:none;fill-rule:nonzero;fill:#c9e5f2;fill-opacity:1;" d="M 61.757812 132.945312 C 57.902344 132.945312 55.980469 132.945312 52.125 132.945312 C 52.125 129.117188 52.125 127.203125 52.125 123.371094 C 55.980469 123.136719 57.902344 123.023438 61.757812 122.792969 C 61.757812 126.851562 61.757812 128.882812 61.757812 132.945312 "/><path style=" stroke:none;fill-rule:nonzero;fill:#c9e5f2;fill-opacity:1;" d="M 98.5 121.425781 C 94.648438 121.425781 92.722656 121.425781 88.867188 121.425781 C 88.867188 117.917969 88.867188 114.40625 88.867188 110.898438 C 92.722656 110.667969 94.648438 110.550781 98.5 110.316406 C 98.5 114.019531 98.5 117.722656 98.5 121.425781 "/><path style=" stroke:none;fill-rule:nonzero;fill:#c9e5f2;fill-opacity:1;" d="M 23.140625 62.96875 C 20.363281 64.175781 17.59375 65.382812 14.816406 66.59375 C 14.816406 63.28125 14.816406 61.628906 14.816406 58.320312 C 17.59375 56.945312 20.363281 55.570312 23.140625 54.195312 C 23.140625 57.703125 23.140625 59.457031 23.140625 62.96875 "/><path style=" stroke:none;fill-rule:nonzero;fill:#c9e5f2;fill-opacity:1;" d="M 36.777344 57.027344 C 34.003906 58.234375 31.230469 59.441406 28.457031 60.648438 C 28.457031 57.617188 28.457031 54.589844 28.457031 51.554688 C 31.230469 50.183594 34.003906 48.804688 36.777344 47.429688 C 36.777344 50.628906 36.777344 53.828125 36.777344 57.027344 "/><path style=" stroke:none;fill-rule:nonzero;fill:#c9e5f2;fill-opacity:1;" d="M 23.140625 75.65625 C 19.808594 76.816406 18.144531 77.394531 14.816406 78.554688 C 14.816406 75.246094 14.816406 73.59375 14.816406 70.285156 C 18.144531 68.925781 19.808594 68.242188 23.140625 66.882812 C 23.140625 70.394531 23.140625 72.148438 23.140625 75.65625 "/><path style=" stroke:none;fill-rule:nonzero;fill:#c9e5f2;fill-opacity:1;" d="M 36.777344 70.902344 C 33.453125 72.0625 31.785156 72.644531 28.457031 73.800781 C 28.457031 70.769531 28.457031 67.738281 28.457031 64.707031 C 31.785156 63.347656 33.453125 62.667969 36.777344 61.308594 C 36.777344 64.507812 36.777344 67.703125 36.777344 70.902344 "/><path style=" stroke:none;fill-rule:nonzero;fill:#c9e5f2;fill-opacity:1;" d="M 23.140625 88.347656 C 19.808594 89.214844 18.144531 89.652344 14.816406 90.523438 C 14.816406 87.214844 14.816406 85.558594 14.816406 82.25 C 18.144531 81.179688 19.808594 80.644531 23.140625 79.570312 C 23.140625 83.082031 23.140625 84.835938 23.140625 88.347656 "/><path style=" stroke:none;fill-rule:nonzero;fill:#c9e5f2;fill-opacity:1;" d="M 36.777344 84.78125 C 33.453125 85.652344 31.785156 86.085938 28.457031 86.957031 C 28.457031 83.925781 28.457031 80.894531 28.457031 77.859375 C 31.785156 76.792969 33.453125 76.253906 36.777344 75.183594 C 36.777344 78.382812 36.777344 81.582031 36.777344 84.78125 "/><path style=" stroke:none;fill-rule:nonzero;fill:#c9e5f2;fill-opacity:1;" d="M 23.140625 101.035156 C 19.808594 101.613281 18.144531 101.902344 14.816406 102.484375 C 14.816406 99.175781 14.816406 97.523438 14.816406 94.214844 C 18.144531 93.433594 19.808594 93.042969 23.140625 92.261719 C 23.140625 95.773438 23.140625 97.527344 23.140625 101.035156 "/><path style=" stroke:none;fill-rule:nonzero;fill:#c9e5f2;fill-opacity:1;" d="M 36.777344 98.660156 C 33.453125 99.238281 31.785156 99.53125 28.457031 100.109375 C 28.457031 97.078125 28.457031 94.046875 28.457031 91.015625 C 31.785156 90.234375 33.453125 89.84375 36.777344 89.0625 C 36.777344 92.261719 36.777344 95.460938 36.777344 98.660156 "/><path style=" stroke:none;fill-rule:nonzero;fill:#c9e5f2;fill-opacity:1;" d="M 23.140625 113.726562 C 19.808594 114.015625 18.144531 114.160156 14.816406 114.449219 C 14.816406 111.140625 14.816406 109.488281 14.816406 106.179688 C 18.144531 105.6875 19.808594 105.441406 23.140625 104.953125 C 23.140625 108.460938 23.140625 110.21875 23.140625 113.726562 "/><path style=" stroke:none;fill-rule:nonzero;fill:#c9e5f2;fill-opacity:1;" d="M 36.777344 112.539062 C 33.453125 112.828125 31.785156 112.972656 28.457031 113.261719 C 28.457031 110.230469 28.457031 107.199219 28.457031 104.167969 C 31.785156 103.675781 33.453125 103.433594 36.777344 102.941406 C 36.777344 106.140625 36.777344 109.339844 36.777344 112.539062 "/><path style=" stroke:none;fill-rule:nonzero;fill:#c9e5f2;fill-opacity:1;" d="M 23.140625 126.414062 C 19.808594 126.414062 18.144531 126.414062 14.816406 126.414062 C 14.816406 123.105469 14.816406 121.453125 14.816406 118.140625 C 18.144531 117.941406 19.808594 117.839844 23.140625 117.640625 C 23.140625 121.148438 23.140625 122.90625 23.140625 126.414062 "/><path style=" stroke:none;fill-rule:nonzero;fill:#c9e5f2;fill-opacity:1;" d="M 36.777344 126.414062 C 33.453125 126.414062 31.785156 126.414062 28.457031 126.414062 C 28.457031 123.382812 28.457031 120.351562 28.457031 117.320312 C 31.785156 117.121094 33.453125 117.019531 36.777344 116.820312 C 36.777344 120.019531 36.777344 123.214844 36.777344 126.414062 "/><path style=" stroke:none;fill-rule:nonzero;fill:#c9e5f2;fill-opacity:1;" d="M 130.601562 143.804688 L 112.613281 143.804688 L 112.613281 114.449219 L 130.601562 114.449219 L 130.601562 143.804688 "/><path style=" stroke:none;fill-rule:nonzero;fill:#396c84;fill-opacity:1;" d="M 104.566406 0.0664062 L 104.566406 14.71875 L 134.847656 23.363281 L 134.847656 8.710938 L 104.566406 0.0664062 "/><g clip-rule="nonzero" clip-path="url(#47f2806de3)"><path style=" stroke:none;fill-rule:nonzero;fill:#396c84;fill-opacity:1;" d="M 143.625 141.730469 L 0.351562 141.730469 L 0.351562 147.960938 L 143.625 147.960938 L 143.625 141.730469 "/></g><g clip-rule="nonzero" clip-path="url(#65e2c13e1a)"><g transform="matrix(1,0,0,1,57,85)"><g clip-path="url(#f863bc5267)"><g clip-rule="nonzero" clip-path="url(#957e243677)"><path style=" stroke:none;fill-rule:nonzero;fill:#396c84;fill-opacity:1;" d="M 0.691406 0.9375 L 14.246094 0.9375 L 14.246094 16.980469 L 0.691406 16.980469 Z M 0.691406 0.9375 "/></g></g></g></g></g></svg>