<svg xmlns="http://www.w3.org/2000/svg" xmlns:xlink="http://www.w3.org/1999/xlink" width="236" zoomAndPan="magnify" viewBox="0 0 177 117.749996" height="157" preserveAspectRatio="xMidYMid meet" version="1.2"><defs><clipPath id="d817b475e8"><path d="M 98 61 L 121 61 L 121 83.074219 L 98 83.074219 Z M 98 61 "/></clipPath><clipPath id="2a8c1f8ea0"><path d="M 119 61 L 121 61 L 121 83.074219 L 119 83.074219 Z M 119 61 "/></clipPath><clipPath id="428efdb7e0"><path d="M 109 61 L 111 61 L 111 83.074219 L 109 83.074219 Z M 109 61 "/></clipPath><clipPath id="f26bc4b1bd"><path d="M 41 18 L 88 18 L 88 83.074219 L 41 83.074219 Z M 41 18 "/></clipPath><clipPath id="964dafd3ea"><path d="M 24 64 L 42 64 L 42 83.074219 L 24 83.074219 Z M 24 64 "/></clipPath><clipPath id="28721b48a3"><path d="M 133 64 L 151 64 L 151 83.074219 L 133 83.074219 Z M 133 64 "/></clipPath><clipPath id="6be5b74e51"><path d="M 52 8 L 135 8 L 135 83.074219 L 52 83.074219 Z M 52 8 "/></clipPath><clipPath id="dacdaaef7c"><path d="M 20.425781 82 L 155.886719 82 L 155.886719 83.074219 L 20.425781 83.074219 Z M 20.425781 82 "/></clipPath><clipPath id="082486b948"><path d="M 52 59 L 53 59 L 53 83.074219 L 52 83.074219 Z M 52 59 "/></clipPath><clipPath id="4d9bc86b31"><path d="M 79 59 L 81 59 L 81 83.074219 L 79 83.074219 Z M 79 59 "/></clipPath></defs><g id="cf15285745"><path style=" stroke:none;fill-rule:nonzero;fill:#303144;fill-opacity:1;" d="M 143.496094 34.800781 C 143.425781 34.800781 143.351562 34.785156 143.289062 34.742188 L 87.367188 0.800781 C 87.175781 0.6875 87.113281 0.441406 87.230469 0.25 C 87.347656 0.0585938 87.59375 -0.00390625 87.785156 0.113281 L 143.703125 34.054688 C 143.894531 34.171875 143.957031 34.417969 143.839844 34.609375 C 143.765625 34.734375 143.632812 34.800781 143.496094 34.800781 Z M 143.496094 34.800781 "/><path style=" stroke:none;fill-rule:nonzero;fill:#303144;fill-opacity:1;" d="M 104.386719 52.980469 L 93.117188 52.980469 C 92.894531 52.980469 92.714844 52.796875 92.714844 52.578125 L 92.714844 41.308594 C 92.714844 41.085938 92.894531 40.90625 93.117188 40.90625 L 104.386719 40.90625 C 104.609375 40.90625 104.789062 41.085938 104.789062 41.308594 L 104.789062 52.578125 C 104.789062 52.796875 104.609375 52.980469 104.386719 52.980469 Z M 93.519531 52.171875 L 103.984375 52.171875 L 103.984375 41.710938 L 93.519531 41.710938 Z M 93.519531 52.171875 "/><g clip-rule="nonzero" clip-path="url(#d817b475e8)"><path style=" stroke:none;fill-rule:nonzero;fill:#303144;fill-opacity:1;" d="M 120.242188 83.0625 L 99.378906 83.0625 C 99.15625 83.0625 98.976562 82.882812 98.976562 82.660156 L 98.976562 61.796875 C 98.976562 61.574219 99.15625 61.394531 99.378906 61.394531 L 120.242188 61.394531 C 120.464844 61.394531 120.644531 61.574219 120.644531 61.796875 L 120.644531 82.660156 C 120.644531 82.882812 120.464844 83.0625 120.242188 83.0625 Z M 99.78125 82.257812 L 119.839844 82.257812 L 119.839844 62.199219 L 99.78125 62.199219 Z M 99.78125 82.257812 "/></g><g clip-rule="nonzero" clip-path="url(#2a8c1f8ea0)"><path style=" stroke:none;fill-rule:nonzero;fill:#303144;fill-opacity:1;" d="M 120.242188 83.0625 C 120.019531 83.0625 119.839844 82.882812 119.839844 82.660156 L 119.839844 61.796875 C 119.839844 61.574219 120.019531 61.394531 120.242188 61.394531 C 120.464844 61.394531 120.644531 61.574219 120.644531 61.796875 L 120.644531 82.660156 C 120.644531 82.882812 120.464844 83.0625 120.242188 83.0625 Z M 120.242188 83.0625 "/></g><g clip-rule="nonzero" clip-path="url(#428efdb7e0)"><path style=" stroke:none;fill-rule:nonzero;fill:#303144;fill-opacity:1;" d="M 109.808594 83.0625 C 109.589844 83.0625 109.40625 82.882812 109.40625 82.660156 L 109.40625 61.796875 C 109.40625 61.574219 109.589844 61.394531 109.808594 61.394531 C 110.03125 61.394531 110.214844 61.574219 110.214844 61.796875 L 110.214844 82.660156 C 110.214844 82.882812 110.03125 83.0625 109.808594 83.0625 Z M 109.808594 83.0625 "/></g><path style=" stroke:none;fill-rule:nonzero;fill:#303144;fill-opacity:1;" d="M 124.523438 52.980469 L 113.257812 52.980469 C 113.035156 52.980469 112.851562 52.796875 112.851562 52.578125 L 112.851562 41.308594 C 112.851562 41.085938 113.035156 40.90625 113.257812 40.90625 L 124.523438 40.90625 C 124.746094 40.90625 124.929688 41.085938 124.929688 41.308594 L 124.929688 52.578125 C 124.929688 52.796875 124.746094 52.980469 124.523438 52.980469 Z M 113.660156 52.171875 L 124.121094 52.171875 L 124.121094 41.710938 L 113.660156 41.710938 Z M 113.660156 52.171875 "/><g clip-rule="nonzero" clip-path="url(#f26bc4b1bd)"><path style=" stroke:none;fill-rule:nonzero;fill:#303144;fill-opacity:1;" d="M 87.578125 83.0625 L 41.433594 83.0625 C 41.210938 83.0625 41.03125 82.882812 41.03125 82.660156 L 41.03125 46.816406 C 41.03125 46.675781 41.101562 46.542969 41.222656 46.472656 L 87.367188 18.460938 C 87.558594 18.34375 87.804688 18.40625 87.921875 18.59375 C 88.035156 18.785156 87.972656 19.035156 87.785156 19.148438 L 41.839844 47.039062 L 41.839844 82.253906 L 87.578125 82.253906 C 87.796875 82.253906 87.980469 82.4375 87.980469 82.65625 C 87.980469 82.878906 87.796875 83.0625 87.578125 83.0625 Z M 87.578125 83.0625 "/></g><path style=" stroke:none;fill-rule:nonzero;fill:#303144;fill-opacity:1;" d="M 32.820312 44.964844 C 32.683594 44.964844 32.550781 44.894531 32.472656 44.773438 C 32.359375 44.582031 32.421875 44.332031 32.609375 44.21875 L 87.367188 10.984375 C 87.558594 10.867188 87.804688 10.929688 87.921875 11.117188 C 88.035156 11.308594 87.972656 11.554688 87.785156 11.671875 L 33.027344 44.90625 C 32.964844 44.949219 32.890625 44.964844 32.820312 44.964844 Z M 32.820312 44.964844 "/><path style=" stroke:none;fill-rule:nonzero;fill:#303144;fill-opacity:1;" d="M 73.910156 52.980469 L 62.640625 52.980469 C 62.421875 52.980469 62.238281 52.796875 62.238281 52.578125 L 62.238281 41.308594 C 62.238281 41.085938 62.421875 40.90625 62.640625 40.90625 L 73.910156 40.90625 C 74.132812 40.90625 74.3125 41.085938 74.3125 41.308594 L 74.3125 52.578125 C 74.3125 52.796875 74.132812 52.980469 73.910156 52.980469 Z M 63.042969 52.171875 L 73.507812 52.171875 L 73.507812 41.710938 L 63.042969 41.710938 Z M 63.042969 52.171875 "/><g clip-rule="nonzero" clip-path="url(#964dafd3ea)"><path style=" stroke:none;fill-rule:nonzero;fill:#303144;fill-opacity:1;" d="M 40.855469 83.0625 L 28.289062 83.0625 C 28.226562 83.0625 28.167969 83.050781 28.113281 83.023438 C 25.84375 81.945312 24.378906 79.625 24.378906 77.121094 C 24.378906 74.027344 26.515625 71.390625 29.507812 70.730469 C 29.632812 67.230469 32.519531 64.425781 36.050781 64.425781 C 38.050781 64.425781 39.917969 65.324219 41.171875 66.894531 C 41.226562 66.964844 41.257812 67.054688 41.257812 67.144531 L 41.257812 82.664062 C 41.257812 82.882812 41.078125 83.0625 40.855469 83.0625 Z M 28.378906 82.257812 L 40.453125 82.257812 L 40.453125 67.285156 C 39.355469 65.976562 37.761719 65.226562 36.050781 65.226562 C 32.882812 65.226562 30.308594 67.800781 30.308594 70.96875 C 30.3125 71.011719 30.316406 71.03125 30.316406 71.054688 C 30.316406 71.253906 30.175781 71.425781 29.980469 71.457031 C 27.203125 71.921875 25.1875 74.300781 25.1875 77.117188 C 25.183594 79.285156 26.4375 81.292969 28.378906 82.257812 Z M 28.378906 82.257812 "/></g><g clip-rule="nonzero" clip-path="url(#28721b48a3)"><path style=" stroke:none;fill-rule:nonzero;fill:#303144;fill-opacity:1;" d="M 146.285156 83.0625 L 133.71875 83.0625 C 133.496094 83.0625 133.316406 82.882812 133.316406 82.660156 L 133.316406 67.144531 C 133.316406 67.050781 133.347656 66.960938 133.40625 66.890625 C 134.65625 65.320312 136.523438 64.421875 138.523438 64.421875 C 142.054688 64.421875 144.941406 67.230469 145.070312 70.730469 C 148.0625 71.386719 150.195312 74.023438 150.195312 77.117188 C 150.195312 79.621094 148.730469 81.941406 146.460938 83.023438 C 146.402344 83.050781 146.34375 83.0625 146.285156 83.0625 Z M 134.121094 82.257812 L 146.195312 82.257812 C 148.136719 81.292969 149.386719 79.289062 149.386719 77.121094 C 149.386719 74.308594 147.371094 71.925781 144.597656 71.460938 C 144.398438 71.429688 144.253906 71.253906 144.257812 71.054688 C 144.257812 71.035156 144.261719 71.011719 144.261719 70.992188 C 144.261719 67.804688 141.6875 65.230469 138.519531 65.230469 C 136.8125 65.230469 135.214844 65.976562 134.117188 67.289062 L 134.117188 82.257812 Z M 134.121094 82.257812 "/></g><g clip-rule="nonzero" clip-path="url(#6be5b74e51)"><path style=" stroke:none;fill-rule:nonzero;fill:#303144;fill-opacity:1;" d="M 133.71875 83.0625 L 52.476562 83.0625 C 52.253906 83.0625 52.070312 82.882812 52.070312 82.660156 L 52.070312 60.328125 C 52.070312 60.109375 52.253906 59.925781 52.476562 59.925781 L 87.175781 59.925781 L 87.175781 8.578125 C 87.175781 8.433594 87.253906 8.296875 87.378906 8.226562 C 87.507812 8.152344 87.660156 8.160156 87.789062 8.230469 L 133.925781 36.238281 C 134.046875 36.3125 134.121094 36.441406 134.121094 36.582031 L 134.121094 82.65625 C 134.121094 82.882812 133.941406 83.0625 133.71875 83.0625 Z M 52.878906 82.257812 L 133.316406 82.257812 L 133.316406 36.8125 L 87.980469 9.292969 L 87.980469 60.328125 C 87.980469 60.550781 87.796875 60.730469 87.578125 60.730469 L 52.878906 60.730469 Z M 52.878906 82.257812 "/></g><g clip-rule="nonzero" clip-path="url(#dacdaaef7c)"><path style=" stroke:none;fill-rule:nonzero;fill:#303144;fill-opacity:1;" d="M 155.183594 83.0625 L 20.863281 83.0625 C 20.644531 83.0625 20.460938 82.882812 20.460938 82.660156 C 20.460938 82.4375 20.644531 82.257812 20.863281 82.257812 L 155.183594 82.257812 C 155.402344 82.257812 155.585938 82.4375 155.585938 82.660156 C 155.585938 82.882812 155.402344 83.0625 155.183594 83.0625 Z M 155.183594 83.0625 "/></g><g clip-rule="nonzero" clip-path="url(#082486b948)"><path style=" stroke:none;fill-rule:nonzero;fill:#303144;fill-opacity:1;" d="M 52.476562 83.0625 C 52.253906 83.0625 52.070312 82.882812 52.070312 82.660156 L 52.070312 60.328125 C 52.070312 60.109375 52.253906 59.925781 52.476562 59.925781 C 52.695312 59.925781 52.878906 60.109375 52.878906 60.328125 L 52.878906 82.660156 C 52.878906 82.882812 52.695312 83.0625 52.476562 83.0625 Z M 52.476562 83.0625 "/></g><g clip-rule="nonzero" clip-path="url(#4d9bc86b31)"><path style=" stroke:none;fill-rule:nonzero;fill:#303144;fill-opacity:1;" d="M 79.628906 83.0625 C 79.40625 83.0625 79.226562 82.882812 79.226562 82.660156 L 79.226562 60.328125 C 79.226562 60.109375 79.40625 59.925781 79.628906 59.925781 C 79.851562 59.925781 80.03125 60.109375 80.03125 60.328125 L 80.03125 82.660156 C 80.03125 82.882812 79.851562 83.0625 79.628906 83.0625 Z M 79.628906 83.0625 "/></g><path style=" stroke:none;fill-rule:nonzero;fill:#303144;fill-opacity:1;" d="M 87.578125 60.730469 L 48.976562 60.730469 C 48.757812 60.730469 48.574219 60.550781 48.574219 60.328125 C 48.574219 60.109375 48.757812 59.925781 48.976562 59.925781 L 87.578125 59.925781 C 87.796875 59.925781 87.980469 60.109375 87.980469 60.328125 C 87.980469 60.550781 87.796875 60.730469 87.578125 60.730469 Z M 87.578125 60.730469 "/><g style="fill:#303144;fill-opacity:1;"><g transform="translate(13.566176, 108.198854)"><path style="stroke:none" d="M 8.984375 -7.1875 L 8.984375 0 L 6.578125 0 L 6.578125 -7.1875 L 3.734375 -7.1875 L 3.734375 0 L 0.4375 0 L 0.4375 -2.1875 L 1.3125 -2.1875 L 1.3125 -5.390625 L 1.8125 -7.1875 L 0.96875 -7.1875 L 0.96875 -9.359375 L 7.75 -9.359375 C 8.113281 -9.359375 8.410156 -9.242188 8.640625 -9.015625 C 8.867188 -8.796875 8.984375 -8.5 8.984375 -8.125 Z M 8.984375 -7.1875 "/></g></g><g style="fill:#303144;fill-opacity:1;"><g transform="translate(23.331137, 108.198854)"><path style="stroke:none" d="M 0.265625 -10.796875 L 2.6875 -10.796875 L 2.6875 -9.359375 L 7.03125 -9.359375 C 7.394531 -9.359375 7.691406 -9.242188 7.921875 -9.015625 C 8.160156 -8.796875 8.28125 -8.5 8.28125 -8.125 L 8.28125 -3.90625 C 8.28125 -2.664062 7.941406 -1.703125 7.265625 -1.015625 C 6.597656 -0.335938 5.632812 0 4.375 0 L 4.0625 0 L 4.0625 -2.1875 L 4.375 -2.1875 C 5.363281 -2.1875 5.859375 -2.679688 5.859375 -3.671875 L 5.859375 -7.1875 L 0.265625 -7.1875 Z M 0.265625 -10.796875 "/></g></g><g style="fill:#303144;fill-opacity:1;"><g transform="translate(32.144562, 108.198854)"><path style="stroke:none" d="M 8.5 -7.1875 L 7.890625 -7.1875 L 7.890625 0 L 5.46875 0 L 5.46875 -7.1875 L 0.21875 -7.1875 L 0.21875 -9.359375 L 7.25 -9.359375 C 7.613281 -9.359375 7.910156 -9.242188 8.140625 -9.015625 C 8.378906 -8.796875 8.5 -8.5 8.5 -8.125 Z M 8.5 -7.1875 "/></g></g><g style="fill:#303144;fill-opacity:1;"><g transform="translate(41.082772, 108.198854)"><path style="stroke:none" d="M 0.625 -5.390625 L 3.0625 -5.390625 L 3.046875 0 L 0.625 0 Z M 0.625 -9.359375 L 7.390625 -9.359375 C 7.765625 -9.359375 8.0625 -9.242188 8.28125 -9.015625 C 8.507812 -8.796875 8.625 -8.5 8.625 -8.125 L 8.625 0 L 6.21875 0 L 6.21875 -7.1875 L 0.625 -7.1875 Z M 0.625 -9.359375 "/></g></g><g style="fill:#303144;fill-opacity:1;"><g transform="translate(50.488956, 108.198854)"><path style="stroke:none" d=""/></g></g><g style="fill:#303144;fill-opacity:1;"><g transform="translate(57.524094, 108.198854)"><path style="stroke:none" d="M 0.265625 -10.796875 L 2.6875 -10.796875 L 2.6875 -9.359375 L 7.03125 -9.359375 C 7.394531 -9.359375 7.691406 -9.242188 7.921875 -9.015625 C 8.160156 -8.796875 8.28125 -8.5 8.28125 -8.125 L 8.28125 -3.90625 C 8.28125 -2.664062 7.941406 -1.703125 7.265625 -1.015625 C 6.597656 -0.335938 5.632812 0 4.375 0 L 4.0625 0 L 4.0625 -2.1875 L 4.375 -2.1875 C 5.363281 -2.1875 5.859375 -2.679688 5.859375 -3.671875 L 5.859375 -7.1875 L 0.265625 -7.1875 Z M 0.265625 -10.796875 "/></g></g><g style="fill:#303144;fill-opacity:1;"><g transform="translate(66.337519, 108.198854)"><path style="stroke:none" d="M 4.390625 -2.1875 L 5.984375 -2.1875 C 6.140625 -2.1875 6.269531 -2.238281 6.375 -2.34375 C 6.476562 -2.445312 6.53125 -2.578125 6.53125 -2.734375 L 6.53125 -7.1875 L 5.671875 -7.1875 L 5.671875 -9.359375 L 7.703125 -9.359375 C 8.078125 -9.359375 8.375 -9.242188 8.59375 -9.015625 C 8.820312 -8.796875 8.9375 -8.5 8.9375 -8.125 L 8.9375 -2.96875 C 8.9375 -0.988281 7.953125 0 5.984375 0 L 0.375 0 L 0.375 -2.1875 L 1.96875 -2.1875 L 1.96875 -7.1875 L 1.109375 -7.1875 L 1.109375 -9.359375 L 3.140625 -9.359375 C 3.515625 -9.359375 3.816406 -9.242188 4.046875 -9.015625 C 4.273438 -8.796875 4.390625 -8.5 4.390625 -8.125 Z M 4.390625 -2.1875 "/></g></g><g style="fill:#303144;fill-opacity:1;"><g transform="translate(75.852888, 108.198854)"><path style="stroke:none" d=""/></g></g><g style="fill:#303144;fill-opacity:1;"><g transform="translate(82.888027, 108.198854)"><path style="stroke:none" d="M 0.625 -5.390625 L 3.0625 -5.390625 L 3.046875 0 L 0.625 0 Z M 0.625 -9.359375 L 7.390625 -9.359375 C 7.765625 -9.359375 8.0625 -9.242188 8.28125 -9.015625 C 8.507812 -8.796875 8.625 -8.5 8.625 -8.125 L 8.625 0 L 6.21875 0 L 6.21875 -7.1875 L 0.625 -7.1875 Z M 0.625 -9.359375 "/></g></g><g style="fill:#303144;fill-opacity:1;"><g transform="translate(92.29421, 108.198854)"><path style="stroke:none" d="M 1.046875 -9.359375 L 3.21875 -9.359375 C 3.582031 -9.359375 3.878906 -9.242188 4.109375 -9.015625 C 4.347656 -8.796875 4.46875 -8.5 4.46875 -8.125 L 4.46875 0 L 0.390625 0 L 0.390625 -2.1875 L 2.046875 -2.1875 L 2.046875 -7.1875 L 1.046875 -7.1875 Z M 1.046875 -9.359375 "/></g></g><g style="fill:#303144;fill-opacity:1;"><g transform="translate(97.535462, 108.198854)"><path style="stroke:none" d="M 3.109375 -2.75 L 2.390625 -7.1875 L 1.390625 -7.1875 L 1.390625 -9.359375 L 3.5625 -9.359375 C 3.914062 -9.359375 4.195312 -9.242188 4.40625 -9.015625 C 4.625 -8.796875 4.757812 -8.5 4.8125 -8.125 L 5.984375 0 L 3.8125 0 L 3.203125 -2.1875 L 3.203125 -2.21875 L 2.46875 0 L 0.03125 0 L 0.9375 -2.75 Z M 3.109375 -2.75 "/></g></g><g style="fill:#303144;fill-opacity:1;"><g transform="translate(104.289821, 108.198854)"><path style="stroke:none" d="M 0.625 -5.390625 L 3.0625 -5.390625 L 3.046875 0 L 0.625 0 Z M 0.625 -9.359375 L 7.390625 -9.359375 C 7.765625 -9.359375 8.0625 -9.242188 8.28125 -9.015625 C 8.507812 -8.796875 8.625 -8.5 8.625 -8.125 L 8.625 0 L 6.21875 0 L 6.21875 -7.1875 L 0.625 -7.1875 Z M 0.625 -9.359375 "/></g></g><g style="fill:#303144;fill-opacity:1;"><g transform="translate(113.696005, 108.198854)"><path style="stroke:none" d=""/></g></g><g style="fill:#303144;fill-opacity:1;"><g transform="translate(120.731143, 108.198854)"><path style="stroke:none" d="M 8.984375 -7.1875 L 8.984375 0 L 6.578125 0 L 6.578125 -7.1875 L 3.734375 -7.1875 L 3.734375 0 L 0.4375 0 L 0.4375 -2.1875 L 1.3125 -2.1875 L 1.3125 -5.390625 L 1.8125 -7.1875 L 0.96875 -7.1875 L 0.96875 -9.359375 L 7.75 -9.359375 C 8.113281 -9.359375 8.410156 -9.242188 8.640625 -9.015625 C 8.867188 -8.796875 8.984375 -8.5 8.984375 -8.125 Z M 8.984375 -7.1875 "/></g></g><g style="fill:#303144;fill-opacity:1;"><g transform="translate(130.496104, 108.198854)"><path style="stroke:none" d="M 8.5 -7.1875 L 7.890625 -7.1875 L 7.890625 0 L 5.46875 0 L 5.46875 -7.1875 L 0.21875 -7.1875 L 0.21875 -9.359375 L 7.25 -9.359375 C 7.613281 -9.359375 7.910156 -9.242188 8.140625 -9.015625 C 8.378906 -8.796875 8.5 -8.5 8.5 -8.125 Z M 8.5 -7.1875 "/></g></g><g style="fill:#303144;fill-opacity:1;"><g transform="translate(139.434314, 108.198854)"><path style="stroke:none" d="M 3.265625 -8.890625 C 3.816406 -9.203125 4.441406 -9.359375 5.140625 -9.359375 C 6.265625 -9.359375 7.21875 -8.960938 8 -8.171875 C 8.789062 -7.390625 9.1875 -6.4375 9.1875 -5.3125 L 9.1875 0 L 4.640625 0 L 4.640625 -2.1875 L 6.78125 -2.1875 L 6.78125 -5.53125 C 6.78125 -5.988281 6.617188 -6.378906 6.296875 -6.703125 C 5.984375 -7.023438 5.597656 -7.1875 5.140625 -7.1875 C 4.691406 -7.1875 4.304688 -7.023438 3.984375 -6.703125 C 3.660156 -6.378906 3.5 -5.988281 3.5 -5.53125 L 3.5 0 L 1.078125 0 L 1.078125 -7.1875 L 0.515625 -7.1875 L 0.515625 -9.359375 L 2.25 -9.359375 C 2.71875 -9.359375 3.054688 -9.203125 3.265625 -8.890625 Z M 3.265625 -8.890625 "/></g></g><g style="fill:#303144;fill-opacity:1;"><g transform="translate(149.402057, 108.198854)"><path style="stroke:none" d="M 0.46875 -9.359375 L 2.640625 -9.359375 C 3.015625 -9.359375 3.316406 -9.242188 3.546875 -9.015625 C 3.773438 -8.796875 3.890625 -8.5 3.890625 -8.125 L 3.890625 0 L 1.46875 0 L 1.46875 -7.1875 L 0.46875 -7.1875 Z M 0.46875 -9.359375 "/></g></g><g style="fill:#303144;fill-opacity:1;"><g transform="translate(154.06615, 108.198854)"><path style="stroke:none" d="M 0.265625 -10.796875 L 2.6875 -10.796875 L 2.6875 -9.359375 L 7.03125 -9.359375 C 7.394531 -9.359375 7.691406 -9.242188 7.921875 -9.015625 C 8.160156 -8.796875 8.28125 -8.5 8.28125 -8.125 L 8.28125 -3.90625 C 8.28125 -2.664062 7.941406 -1.703125 7.265625 -1.015625 C 6.597656 -0.335938 5.632812 0 4.375 0 L 4.0625 0 L 4.0625 -2.1875 L 4.375 -2.1875 C 5.363281 -2.1875 5.859375 -2.679688 5.859375 -3.671875 L 5.859375 -7.1875 L 0.265625 -7.1875 Z M 0.265625 -10.796875 "/></g></g></g></svg>