<svg xmlns="http://www.w3.org/2000/svg" xmlns:xlink="http://www.w3.org/1999/xlink" width="639" zoomAndPan="magnify" viewBox="0 0 479.25 44.249999" height="59" preserveAspectRatio="xMidYMid meet" version="1.2"><defs><clipPath id="c2d7b223eb"><path d="M 122.554688 1.871094 L 154 1.871094 L 154 33.582031 L 122.554688 33.582031 Z M 122.554688 1.871094 "/></clipPath></defs><g id="f56df5246c"><g style="fill:#396c84;fill-opacity:1;"><g transform="translate(44.292551, 28.666837)"><path style="stroke:none" d="M 8.328125 0 L 8.328125 -11.859375 C 8.328125 -12.179688 8.269531 -12.394531 8.15625 -12.5 C 8.039062 -12.601562 7.828125 -12.65625 7.515625 -12.65625 L 1.375 -12.65625 L 1.375 -15.921875 L 10.03125 -15.921875 C 10.914062 -15.921875 11.539062 -15.710938 11.90625 -15.296875 C 12.269531 -14.890625 12.453125 -14.179688 12.453125 -13.171875 L 12.453125 0 Z M 2.734375 0 C 1.828125 0 1.375 -0.457031 1.375 -1.375 L 1.375 -9.921875 L 5.5 -9.921875 L 5.5 -3.765625 C 5.5 -3.429688 5.628906 -3.265625 5.890625 -3.265625 L 6.234375 -3.265625 L 6.234375 0 Z M 2.734375 0 "/></g></g><g style="fill:#396c84;fill-opacity:1;"><g transform="translate(58.20476, 28.666837)"><path style="stroke:none" d="M 4.25 0 C 3.21875 0 2.523438 -0.320312 2.171875 -0.96875 C 1.816406 -1.613281 1.835938 -2.539062 2.234375 -3.75 L 4.828125 -11.8125 C 5.003906 -12.375 4.8125 -12.65625 4.25 -12.65625 L 1.140625 -12.65625 C 0.859375 -12.65625 0.660156 -12.710938 0.546875 -12.828125 C 0.429688 -12.953125 0.375 -13.160156 0.375 -13.453125 L 0.375 -18.046875 L 4.25 -18.046875 L 4.25 -15.921875 L 7.09375 -15.921875 C 8.09375 -15.921875 8.789062 -15.585938 9.1875 -14.921875 C 9.59375 -14.265625 9.617188 -13.390625 9.265625 -12.296875 L 6.453125 -3.953125 C 6.378906 -3.753906 6.363281 -3.585938 6.40625 -3.453125 C 6.457031 -3.328125 6.597656 -3.265625 6.828125 -3.265625 L 7.984375 -3.265625 L 7.984375 0 Z M 4.25 0 "/></g></g><g style="fill:#396c84;fill-opacity:1;"><g transform="translate(68.453067, 28.666837)"><path style="stroke:none" d="M 0.375 -15.921875 L 10.140625 -15.921875 L 10.140625 -12.65625 L 9.609375 -12.65625 C 9.054688 -12.65625 8.78125 -12.296875 8.78125 -11.578125 L 8.78125 0 L 4.90625 0 L 4.90625 -10.96875 C 4.90625 -11.707031 5.019531 -12.269531 5.25 -12.65625 L 0.375 -12.65625 Z M 0.375 -15.921875 "/></g><g transform="translate(79.312017, 28.666837)"><path style="stroke:none" d="M 10.015625 0 L 6.296875 0 L 4.71875 -5.578125 C 4.5625 -5.503906 4.457031 -5.421875 4.40625 -5.328125 C 4.351562 -5.242188 4.316406 -5.128906 4.296875 -4.984375 L 3.921875 0 L 0.03125 0 L 0.765625 -6.078125 C 0.835938 -6.640625 0.988281 -7.070312 1.21875 -7.375 C 1.445312 -7.675781 1.800781 -7.925781 2.28125 -8.125 L 3.953125 -8.8125 C 4.234375 -8.9375 4.445312 -9.097656 4.59375 -9.296875 C 4.738281 -9.503906 4.8125 -9.800781 4.8125 -10.1875 L 4.8125 -11.953125 C 4.8125 -12.242188 4.765625 -12.429688 4.671875 -12.515625 C 4.585938 -12.609375 4.394531 -12.65625 4.09375 -12.65625 L 2.171875 -12.65625 L 2.171875 -15.921875 L 6.421875 -15.921875 C 7.203125 -15.921875 7.773438 -15.722656 8.140625 -15.328125 C 8.503906 -14.929688 8.6875 -14.289062 8.6875 -13.40625 L 8.6875 -8.421875 C 8.6875 -8.015625 8.628906 -7.6875 8.515625 -7.4375 C 8.410156 -7.1875 8.257812 -6.988281 8.0625 -6.84375 Z M 10.015625 0 "/></g></g><g style="fill:#396c84;fill-opacity:1;"><g transform="translate(89.666522, 28.666837)"><path style="stroke:none" d="M 8.328125 0 L 8.328125 -11.859375 C 8.328125 -12.179688 8.269531 -12.394531 8.15625 -12.5 C 8.039062 -12.601562 7.828125 -12.65625 7.515625 -12.65625 L 1.375 -12.65625 L 1.375 -15.921875 L 10.03125 -15.921875 C 10.914062 -15.921875 11.539062 -15.710938 11.90625 -15.296875 C 12.269531 -14.890625 12.453125 -14.179688 12.453125 -13.171875 L 12.453125 0 Z M 2.734375 0 C 1.828125 0 1.375 -0.457031 1.375 -1.375 L 1.375 -9.921875 L 5.5 -9.921875 L 5.5 -3.765625 C 5.5 -3.429688 5.628906 -3.265625 5.890625 -3.265625 L 6.234375 -3.265625 L 6.234375 0 Z M 2.734375 0 "/></g></g><g style="fill:#396c84;fill-opacity:1;"><g transform="translate(103.578731, 28.666837)"><path style="stroke:none" d="M 4.25 0 C 3.21875 0 2.523438 -0.320312 2.171875 -0.96875 C 1.816406 -1.613281 1.835938 -2.539062 2.234375 -3.75 L 4.828125 -11.8125 C 5.003906 -12.375 4.8125 -12.65625 4.25 -12.65625 L 1.140625 -12.65625 C 0.859375 -12.65625 0.660156 -12.710938 0.546875 -12.828125 C 0.429688 -12.953125 0.375 -13.160156 0.375 -13.453125 L 0.375 -18.046875 L 4.25 -18.046875 L 4.25 -15.921875 L 7.09375 -15.921875 C 8.09375 -15.921875 8.789062 -15.585938 9.1875 -14.921875 C 9.59375 -14.265625 9.617188 -13.390625 9.265625 -12.296875 L 6.453125 -3.953125 C 6.378906 -3.753906 6.363281 -3.585938 6.40625 -3.453125 C 6.457031 -3.328125 6.597656 -3.265625 6.828125 -3.265625 L 7.984375 -3.265625 L 7.984375 0 Z M 4.25 0 "/></g></g><g style="fill:#396c84;fill-opacity:1;"><g transform="translate(113.836491, 28.666837)"><path style="stroke:none" d=""/></g></g><g style="fill:#396c84;fill-opacity:1;"><g transform="translate(119.279244, 28.666837)"><path style="stroke:none" d=""/></g></g><g style="fill:#396c84;fill-opacity:1;"><g transform="translate(124.721997, 28.666837)"><path style="stroke:none" d=""/></g></g><g style="fill:#396c84;fill-opacity:1;"><g transform="translate(130.16475, 28.666837)"><path style="stroke:none" d=""/></g></g><g style="fill:#396c84;fill-opacity:1;"><g transform="translate(135.607504, 28.666837)"><path style="stroke:none" d=""/></g></g><g style="fill:#396c84;fill-opacity:1;"><g transform="translate(141.050257, 28.666837)"><path style="stroke:none" d=""/></g></g><g style="fill:#396c84;fill-opacity:1;"><g transform="translate(146.49301, 28.666837)"><path style="stroke:none" d=""/></g></g><g style="fill:#396c84;fill-opacity:1;"><g transform="translate(151.935763, 28.666837)"><path style="stroke:none" d=""/></g></g><g style="fill:#396c84;fill-opacity:1;"><g transform="translate(157.378516, 28.666837)"><path style="stroke:none" d=""/></g></g><g style="fill:#396c84;fill-opacity:1;"><g transform="translate(162.822624, 28.666837)"><path style="stroke:none" d="M 4.25 0 C 3.21875 0 2.523438 -0.320312 2.171875 -0.96875 C 1.816406 -1.613281 1.835938 -2.539062 2.234375 -3.75 L 4.828125 -11.8125 C 5.003906 -12.375 4.8125 -12.65625 4.25 -12.65625 L 1.140625 -12.65625 C 0.859375 -12.65625 0.660156 -12.710938 0.546875 -12.828125 C 0.429688 -12.953125 0.375 -13.160156 0.375 -13.453125 L 0.375 -18.046875 L 4.25 -18.046875 L 4.25 -15.921875 L 7.09375 -15.921875 C 8.09375 -15.921875 8.789062 -15.585938 9.1875 -14.921875 C 9.59375 -14.265625 9.617188 -13.390625 9.265625 -12.296875 L 6.453125 -3.953125 C 6.378906 -3.753906 6.363281 -3.585938 6.40625 -3.453125 C 6.457031 -3.328125 6.597656 -3.265625 6.828125 -3.265625 L 7.984375 -3.265625 L 7.984375 0 Z M 4.25 0 "/></g></g><g style="fill:#396c84;fill-opacity:1;"><g transform="translate(173.070931, 28.666837)"><path style="stroke:none" d="M 8.15625 -15.921875 L 12.265625 -15.921875 L 12.265625 -7.984375 C 12.265625 -6.816406 12.128906 -5.859375 11.859375 -5.109375 C 11.597656 -4.359375 11.210938 -3.738281 10.703125 -3.25 C 10.203125 -2.757812 9.59375 -2.34375 8.875 -2 C 8.164062 -1.65625 7.367188 -1.304688 6.484375 -0.953125 L 1.78125 0.90625 L 0.640625 -2.203125 L 3.34375 -3.234375 C 2.675781 -3.867188 2.285156 -4.726562 2.171875 -5.8125 L 1.09375 -15.921875 L 5.203125 -15.921875 L 6.390625 -5.34375 C 6.429688 -5.019531 6.503906 -4.804688 6.609375 -4.703125 C 6.710938 -4.609375 6.851562 -4.585938 7.03125 -4.640625 L 7.171875 -4.703125 C 7.472656 -4.835938 7.710938 -5.035156 7.890625 -5.296875 C 8.066406 -5.566406 8.15625 -5.96875 8.15625 -6.5 Z M 8.15625 -15.921875 "/></g></g><g style="fill:#396c84;fill-opacity:1;"><g transform="translate(186.637988, 28.666837)"><path style="stroke:none" d=""/></g></g><g style="fill:#396c84;fill-opacity:1;"><g transform="translate(192.080742, 28.666837)"><path style="stroke:none" d="M 2.359375 0 L 2.359375 -12.078125 C 2.359375 -12.328125 2.316406 -12.484375 2.234375 -12.546875 C 2.160156 -12.617188 2 -12.65625 1.75 -12.65625 L 0.796875 -12.65625 L 0.796875 -15.921875 L 4.703125 -15.921875 C 5.359375 -15.921875 5.816406 -15.785156 6.078125 -15.515625 C 6.347656 -15.253906 6.484375 -14.804688 6.484375 -14.171875 L 6.484375 0 Z M 2.359375 0 "/></g></g><g style="fill:#396c84;fill-opacity:1;"><g transform="translate(200.019197, 28.666837)"><path style="stroke:none" d="M 11.015625 -6.1875 L 11.734375 -2.78125 C 11.910156 -1.96875 11.820312 -1.300781 11.46875 -0.78125 C 11.113281 -0.257812 10.492188 0 9.609375 0 L 0.609375 0 L 0.609375 -3.265625 L 6.765625 -3.265625 C 7.015625 -3.265625 7.1875 -3.328125 7.28125 -3.453125 C 7.382812 -3.585938 7.390625 -3.878906 7.296875 -4.328125 L 7.109375 -5.125 C 7.054688 -5.425781 6.953125 -5.660156 6.796875 -5.828125 C 6.648438 -5.992188 6.445312 -6.140625 6.1875 -6.265625 L 3.421875 -7.59375 C 3.109375 -7.738281 2.863281 -7.898438 2.6875 -8.078125 C 2.519531 -8.265625 2.394531 -8.546875 2.3125 -8.921875 L 0.578125 -15.921875 L 4.75 -15.921875 L 6.1875 -10.109375 L 7.625 -15.921875 L 11.84375 -15.921875 L 9.71875 -7.75 C 10.050781 -7.59375 10.332031 -7.394531 10.5625 -7.15625 C 10.789062 -6.914062 10.941406 -6.59375 11.015625 -6.1875 Z M 11.015625 -6.1875 "/></g></g><g style="fill:#396c84;fill-opacity:1;"><g transform="translate(212.975602, 28.666837)"><path style="stroke:none" d="M 14.84375 -15.921875 L 14.84375 -12.65625 L 13.328125 -12.65625 C 13.523438 -12.320312 13.625 -11.6875 13.625 -10.75 L 13.625 0 L 9.5 0 L 9.5 -11.46875 C 9.5 -11.976562 9.457031 -12.300781 9.375 -12.4375 C 9.300781 -12.582031 9.140625 -12.65625 8.890625 -12.65625 L 6.875 -12.65625 C 6.644531 -12.65625 6.488281 -12.582031 6.40625 -12.4375 C 6.332031 -12.300781 6.296875 -11.976562 6.296875 -11.46875 L 6.296875 0 L 2.171875 0 L 2.171875 -10.75 C 2.171875 -11.6875 2.269531 -12.320312 2.46875 -12.65625 L 0.953125 -12.65625 L 0.953125 -15.921875 Z M 14.84375 -15.921875 "/></g></g><g style="fill:#396c84;fill-opacity:1;"><g transform="translate(228.77286, 28.666837)"><path style="stroke:none" d="M 4.25 0 C 3.21875 0 2.523438 -0.320312 2.171875 -0.96875 C 1.816406 -1.613281 1.835938 -2.539062 2.234375 -3.75 L 4.828125 -11.8125 C 5.003906 -12.375 4.8125 -12.65625 4.25 -12.65625 L 1.140625 -12.65625 C 0.859375 -12.65625 0.660156 -12.710938 0.546875 -12.828125 C 0.429688 -12.953125 0.375 -13.160156 0.375 -13.453125 L 0.375 -18.046875 L 4.25 -18.046875 L 4.25 -15.921875 L 7.09375 -15.921875 C 8.09375 -15.921875 8.789062 -15.585938 9.1875 -14.921875 C 9.59375 -14.265625 9.617188 -13.390625 9.265625 -12.296875 L 6.453125 -3.953125 C 6.378906 -3.753906 6.363281 -3.585938 6.40625 -3.453125 C 6.457031 -3.328125 6.597656 -3.265625 6.828125 -3.265625 L 7.984375 -3.265625 L 7.984375 0 Z M 4.25 0 "/></g></g><g style="fill:#396c84;fill-opacity:1;"><g transform="translate(239.021168, 28.666837)"><path style="stroke:none" d=""/></g></g><g style="fill:#396c84;fill-opacity:1;"><g transform="translate(244.463921, 28.666837)"><path style="stroke:none" d="M 1.28125 -6.34375 L 1.28125 -9.578125 L 8.359375 -9.578125 L 8.359375 -6.34375 Z M 1.28125 -6.34375 "/></g></g><g style="fill:#396c84;fill-opacity:1;"><g transform="translate(254.101576, 28.666837)"><path style="stroke:none" d=""/></g></g><g style="fill:#396c84;fill-opacity:1;"><g transform="translate(259.54433, 28.666837)"><path style="stroke:none" d="M 8.328125 0 L 8.328125 -11.859375 C 8.328125 -12.179688 8.269531 -12.394531 8.15625 -12.5 C 8.039062 -12.601562 7.828125 -12.65625 7.515625 -12.65625 L 1.375 -12.65625 L 1.375 -15.921875 L 10.03125 -15.921875 C 10.914062 -15.921875 11.539062 -15.710938 11.90625 -15.296875 C 12.269531 -14.890625 12.453125 -14.179688 12.453125 -13.171875 L 12.453125 0 Z M 2.734375 0 C 1.828125 0 1.375 -0.457031 1.375 -1.375 L 1.375 -9.921875 L 5.5 -9.921875 L 5.5 -3.765625 C 5.5 -3.429688 5.628906 -3.265625 5.890625 -3.265625 L 6.234375 -3.265625 L 6.234375 0 Z M 2.734375 0 "/></g></g><g style="fill:#396c84;fill-opacity:1;"><g transform="translate(273.456539, 28.666837)"><path style="stroke:none" d="M 4.25 0 C 3.21875 0 2.523438 -0.320312 2.171875 -0.96875 C 1.816406 -1.613281 1.835938 -2.539062 2.234375 -3.75 L 4.828125 -11.8125 C 5.003906 -12.375 4.8125 -12.65625 4.25 -12.65625 L 1.140625 -12.65625 C 0.859375 -12.65625 0.660156 -12.710938 0.546875 -12.828125 C 0.429688 -12.953125 0.375 -13.160156 0.375 -13.453125 L 0.375 -18.046875 L 4.25 -18.046875 L 4.25 -15.921875 L 7.09375 -15.921875 C 8.09375 -15.921875 8.789062 -15.585938 9.1875 -14.921875 C 9.59375 -14.265625 9.617188 -13.390625 9.265625 -12.296875 L 6.453125 -3.953125 C 6.378906 -3.753906 6.363281 -3.585938 6.40625 -3.453125 C 6.457031 -3.328125 6.597656 -3.265625 6.828125 -3.265625 L 7.984375 -3.265625 L 7.984375 0 Z M 4.25 0 "/></g></g><g style="fill:#396c84;fill-opacity:1;"><g transform="translate(283.704847, 28.666837)"><path style="stroke:none" d="M 10.171875 -3.265625 L 10.96875 -3.265625 L 10.96875 0 L 0.484375 0 L 0.484375 -3.265625 L 5.65625 -3.265625 C 5.601562 -3.367188 5.554688 -3.492188 5.515625 -3.640625 C 5.484375 -3.796875 5.46875 -3.960938 5.46875 -4.140625 L 5.46875 -11.859375 C 5.46875 -12.179688 5.414062 -12.394531 5.3125 -12.5 C 5.207031 -12.601562 4.992188 -12.65625 4.671875 -12.65625 L 0.765625 -12.65625 L 0.765625 -15.921875 L 7.03125 -15.921875 C 7.96875 -15.921875 8.625 -15.710938 9 -15.296875 C 9.382812 -14.890625 9.578125 -14.179688 9.578125 -13.171875 L 9.578125 -3.921875 C 9.578125 -3.484375 9.773438 -3.265625 10.171875 -3.265625 Z M 10.171875 -3.265625 "/></g></g><g style="fill:#396c84;fill-opacity:1;"><g transform="translate(294.908947, 28.666837)"><path style="stroke:none" d="M 7.703125 -0.15625 C 7.117188 0.03125 6.535156 0.160156 5.953125 0.234375 C 5.367188 0.304688 4.828125 0.28125 4.328125 0.15625 C 3.828125 0.03125 3.414062 -0.210938 3.09375 -0.578125 C 2.769531 -0.953125 2.578125 -1.492188 2.515625 -2.203125 L 1.828125 -12.078125 C 1.816406 -12.328125 1.78125 -12.484375 1.71875 -12.546875 C 1.664062 -12.617188 1.523438 -12.65625 1.296875 -12.65625 L 0.578125 -12.65625 L 0.578125 -15.921875 L 3.984375 -15.921875 C 4.566406 -15.921875 4.984375 -15.789062 5.234375 -15.53125 C 5.492188 -15.28125 5.644531 -14.875 5.6875 -14.3125 L 6.34375 -4.1875 C 6.375 -3.832031 6.492188 -3.609375 6.703125 -3.515625 C 6.921875 -3.429688 7.191406 -3.445312 7.515625 -3.5625 L 8.859375 -4.015625 C 9.328125 -4.171875 9.59375 -4.488281 9.65625 -4.96875 C 9.726562 -5.445312 9.816406 -6.066406 9.921875 -6.828125 L 10.59375 -12.078125 C 10.625 -12.378906 10.59375 -12.59375 10.5 -12.71875 C 10.40625 -12.851562 10.269531 -12.929688 10.09375 -12.953125 C 9.84375 -12.992188 9.664062 -12.945312 9.5625 -12.8125 C 9.46875 -12.675781 9.410156 -12.476562 9.390625 -12.21875 L 9.1875 -9.375 L 6.65625 -9.421875 L 6.796875 -13.21875 C 6.828125 -14.195312 7.148438 -14.941406 7.765625 -15.453125 C 8.390625 -15.960938 9.296875 -16.21875 10.484375 -16.21875 C 11.222656 -16.21875 11.910156 -16.078125 12.546875 -15.796875 C 13.191406 -15.523438 13.691406 -15.109375 14.046875 -14.546875 C 14.410156 -13.984375 14.539062 -13.238281 14.4375 -12.3125 L 13.59375 -4.75 C 13.5 -3.832031 13.226562 -3.082031 12.78125 -2.5 C 12.34375 -1.925781 11.640625 -1.472656 10.671875 -1.140625 Z M 7.703125 -0.15625 "/></g></g><g style="fill:#396c84;fill-opacity:1;"><g transform="translate(310.281402, 28.666837)"><path style="stroke:none" d="M 10.171875 -3.265625 L 10.96875 -3.265625 L 10.96875 0 L 0.484375 0 L 0.484375 -3.265625 L 5.65625 -3.265625 C 5.601562 -3.367188 5.554688 -3.492188 5.515625 -3.640625 C 5.484375 -3.796875 5.46875 -3.960938 5.46875 -4.140625 L 5.46875 -11.859375 C 5.46875 -12.179688 5.414062 -12.394531 5.3125 -12.5 C 5.207031 -12.601562 4.992188 -12.65625 4.671875 -12.65625 L 0.765625 -12.65625 L 0.765625 -15.921875 L 7.03125 -15.921875 C 7.96875 -15.921875 8.625 -15.710938 9 -15.296875 C 9.382812 -14.890625 9.578125 -14.179688 9.578125 -13.171875 L 9.578125 -3.921875 C 9.578125 -3.484375 9.773438 -3.265625 10.171875 -3.265625 Z M 10.171875 -3.265625 "/></g></g><g style="fill:#396c84;fill-opacity:1;"><g transform="translate(321.485502, 28.666837)"><path style="stroke:none" d=""/></g></g><g style="fill:#396c84;fill-opacity:1;"><g transform="translate(326.928256, 28.666837)"><path style="stroke:none" d="M 5.078125 0 L 5.078125 -11.703125 C 5.078125 -12.335938 4.753906 -12.65625 4.109375 -12.65625 L 0.375 -12.65625 L 0.375 -15.921875 L 6.5 -15.921875 C 7.488281 -15.921875 8.179688 -15.71875 8.578125 -15.3125 C 8.984375 -14.90625 9.1875 -14.21875 9.1875 -13.25 L 9.1875 0 Z M 5.078125 0 "/></g></g><g style="fill:#396c84;fill-opacity:1;"><g transform="translate(337.574808, 28.666837)"><path style="stroke:none" d="M 4.140625 -15.921875 L 9.390625 -15.921875 L 9.390625 -12.65625 L 8.46875 -12.65625 C 7.96875 -12.65625 7.613281 -12.519531 7.40625 -12.25 C 7.207031 -11.976562 7.132812 -11.503906 7.1875 -10.828125 L 8.0625 0 L 3.953125 0 L 3.109375 -10.625 C 3.035156 -11.539062 3.25 -12.21875 3.75 -12.65625 L 3.578125 -12.65625 C 2.867188 -12.65625 2.21875 -12.785156 1.625 -13.046875 C 1.039062 -13.316406 0.570312 -13.753906 0.21875 -14.359375 L 2.359375 -16.828125 C 2.609375 -16.492188 2.847656 -16.257812 3.078125 -16.125 C 3.304688 -15.988281 3.660156 -15.921875 4.140625 -15.921875 Z M 4.140625 -15.921875 "/></g></g><g style="fill:#396c84;fill-opacity:1;"><g transform="translate(347.69036, 28.666837)"><path style="stroke:none" d="M 8.15625 -15.921875 L 12.265625 -15.921875 L 12.265625 -7.984375 C 12.265625 -6.816406 12.128906 -5.859375 11.859375 -5.109375 C 11.597656 -4.359375 11.210938 -3.738281 10.703125 -3.25 C 10.203125 -2.757812 9.59375 -2.34375 8.875 -2 C 8.164062 -1.65625 7.367188 -1.304688 6.484375 -0.953125 L 1.78125 0.90625 L 0.640625 -2.203125 L 3.34375 -3.234375 C 2.675781 -3.867188 2.285156 -4.726562 2.171875 -5.8125 L 1.09375 -15.921875 L 5.203125 -15.921875 L 6.390625 -5.34375 C 6.429688 -5.019531 6.503906 -4.804688 6.609375 -4.703125 C 6.710938 -4.609375 6.851562 -4.585938 7.03125 -4.640625 L 7.171875 -4.703125 C 7.472656 -4.835938 7.710938 -5.035156 7.890625 -5.296875 C 8.066406 -5.566406 8.15625 -5.96875 8.15625 -6.5 Z M 8.15625 -15.921875 "/></g></g><g style="fill:#396c84;fill-opacity:1;"><g transform="translate(361.257417, 28.666837)"><path style="stroke:none" d="M 2.34375 -6.75 L 2.34375 -12.078125 C 2.34375 -12.328125 2.300781 -12.484375 2.21875 -12.546875 C 2.132812 -12.617188 1.96875 -12.65625 1.71875 -12.65625 L 0.71875 -12.65625 L 0.71875 -15.921875 L 4.359375 -15.921875 C 5.117188 -15.921875 5.648438 -15.765625 5.953125 -15.453125 C 6.265625 -15.148438 6.421875 -14.617188 6.421875 -13.859375 L 6.421875 -6.75 Z M 2.34375 -6.75 "/></g></g><g style="fill:#396c84;fill-opacity:1;"><g transform="translate(368.983476, 28.666837)"><path style="stroke:none" d="M 8.328125 0 L 8.328125 -11.859375 C 8.328125 -12.179688 8.269531 -12.394531 8.15625 -12.5 C 8.039062 -12.601562 7.828125 -12.65625 7.515625 -12.65625 L 1.375 -12.65625 L 1.375 -15.921875 L 10.03125 -15.921875 C 10.914062 -15.921875 11.539062 -15.710938 11.90625 -15.296875 C 12.269531 -14.890625 12.453125 -14.179688 12.453125 -13.171875 L 12.453125 0 Z M 2.734375 0 C 1.828125 0 1.375 -0.457031 1.375 -1.375 L 1.375 -9.921875 L 5.5 -9.921875 L 5.5 -3.765625 C 5.5 -3.429688 5.628906 -3.265625 5.890625 -3.265625 L 6.234375 -3.265625 L 6.234375 0 Z M 2.734375 0 "/></g></g><g style="fill:#396c84;fill-opacity:1;"><g transform="translate(382.895686, 28.666837)"><path style="stroke:none" d="M 4.25 0 C 3.21875 0 2.523438 -0.320312 2.171875 -0.96875 C 1.816406 -1.613281 1.835938 -2.539062 2.234375 -3.75 L 4.828125 -11.8125 C 5.003906 -12.375 4.8125 -12.65625 4.25 -12.65625 L 1.140625 -12.65625 C 0.859375 -12.65625 0.660156 -12.710938 0.546875 -12.828125 C 0.429688 -12.953125 0.375 -13.160156 0.375 -13.453125 L 0.375 -18.046875 L 4.25 -18.046875 L 4.25 -15.921875 L 7.09375 -15.921875 C 8.09375 -15.921875 8.789062 -15.585938 9.1875 -14.921875 C 9.59375 -14.265625 9.617188 -13.390625 9.265625 -12.296875 L 6.453125 -3.953125 C 6.378906 -3.753906 6.363281 -3.585938 6.40625 -3.453125 C 6.457031 -3.328125 6.597656 -3.265625 6.828125 -3.265625 L 7.984375 -3.265625 L 7.984375 0 Z M 4.25 0 "/></g></g><g style="fill:#396c84;fill-opacity:1;"><g transform="translate(393.143982, 28.666837)"><path style="stroke:none" d=""/></g></g><g style="fill:#396c84;fill-opacity:1;"><g transform="translate(398.586735, 28.666837)"><path style="stroke:none" d="M 12 -15.921875 L 15.984375 -15.921875 L 15.21875 -5.65625 C 15.070312 -3.625 14.539062 -2.171875 13.625 -1.296875 C 12.71875 -0.429688 11.289062 0 9.34375 0 L 4.03125 0 C 3.34375 0 2.84375 -0.175781 2.53125 -0.53125 C 2.226562 -0.882812 2.03125 -1.378906 1.9375 -2.015625 L 1.484375 -5.421875 C 1.347656 -6.285156 1.585938 -6.945312 2.203125 -7.40625 L 0.90625 -15.921875 L 4.90625 -15.921875 L 6 -8.734375 L 6.03125 -8.734375 C 6.269531 -8.816406 6.421875 -8.910156 6.484375 -9.015625 C 6.546875 -9.128906 6.578125 -9.328125 6.578125 -9.609375 L 6.578125 -15.921875 L 10.546875 -15.921875 L 10.546875 -8.8125 C 10.546875 -8.03125 10.421875 -7.46875 10.171875 -7.125 C 9.921875 -6.78125 9.519531 -6.507812 8.96875 -6.3125 L 6.109375 -5.34375 C 5.804688 -5.21875 5.625 -5.101562 5.5625 -5 C 5.5 -4.90625 5.484375 -4.71875 5.515625 -4.4375 L 5.625 -3.75 C 5.664062 -3.507812 5.75 -3.359375 5.875 -3.296875 C 6.007812 -3.242188 6.210938 -3.21875 6.484375 -3.21875 L 8.25 -3.21875 C 9 -3.21875 9.582031 -3.28125 10 -3.40625 C 10.414062 -3.539062 10.710938 -3.800781 10.890625 -4.1875 C 11.078125 -4.582031 11.195312 -5.148438 11.25 -5.890625 Z M 12 -15.921875 "/></g></g><g style="fill:#396c84;fill-opacity:1;"><g transform="translate(415.499089, 28.666837)"><path style="stroke:none" d="M 2.34375 -6.75 L 2.34375 -12.078125 C 2.34375 -12.328125 2.300781 -12.484375 2.21875 -12.546875 C 2.132812 -12.617188 1.96875 -12.65625 1.71875 -12.65625 L 0.71875 -12.65625 L 0.71875 -15.921875 L 4.359375 -15.921875 C 5.117188 -15.921875 5.648438 -15.765625 5.953125 -15.453125 C 6.265625 -15.148438 6.421875 -14.617188 6.421875 -13.859375 L 6.421875 -6.75 Z M 2.34375 -6.75 "/></g></g><g style="fill:#396c84;fill-opacity:1;"><g transform="translate(423.225148, 28.666837)"><path style="stroke:none" d="M 9.921875 -15.375 L 8.28125 -13.828125 L 9.921875 -12.265625 L 8.25 -10.640625 L 6.609375 -12.265625 L 6.484375 -12.125 L 6.484375 -9.5 L 4.0625 -9.5 L 4.0625 -12.125 L 3.984375 -12.21875 L 2.359375 -10.625 L 0.6875 -12.234375 L 2.3125 -13.828125 L 0.6875 -15.421875 L 2.359375 -17.0625 L 3.984375 -15.484375 L 4.0625 -15.5625 L 4.0625 -18.1875 L 6.484375 -18.1875 L 6.484375 -15.5625 L 6.609375 -15.421875 L 8.25 -17.046875 Z M 9.921875 -15.375 "/></g></g><g clip-rule="nonzero" clip-path="url(#c2d7b223eb)"><path style=" stroke:none;fill-rule:nonzero;fill:#396c84;fill-opacity:1;" d="M 124.101562 1.855469 C 123.894531 1.855469 123.699219 1.898438 123.511719 1.984375 C 123.324219 2.070312 123.164062 2.191406 123.03125 2.34375 C 122.894531 2.5 122.800781 2.675781 122.742188 2.871094 C 122.683594 3.070312 122.667969 3.269531 122.695312 3.472656 L 122.695312 10.382812 C 122.691406 10.574219 122.726562 10.757812 122.796875 10.933594 C 122.867188 11.109375 122.972656 11.265625 123.105469 11.398438 C 123.238281 11.535156 123.390625 11.640625 123.566406 11.710938 C 123.742188 11.785156 123.925781 11.824219 124.113281 11.824219 C 124.304688 11.824219 124.488281 11.785156 124.660156 11.710938 C 124.835938 11.640625 124.992188 11.535156 125.125 11.398438 C 125.257812 11.265625 125.359375 11.109375 125.429688 10.933594 C 125.5 10.757812 125.535156 10.574219 125.535156 10.382812 L 125.535156 6.714844 L 131.625 12.804688 C 131.757812 12.941406 131.910156 13.050781 132.085938 13.125 C 132.257812 13.199219 132.441406 13.238281 132.632812 13.242188 C 132.824219 13.242188 133.007812 13.207031 133.183594 13.136719 C 133.359375 13.0625 133.515625 12.960938 133.652344 12.824219 C 133.785156 12.691406 133.890625 12.535156 133.960938 12.359375 C 134.035156 12.183594 134.070312 12 134.066406 11.808594 C 134.066406 11.617188 134.027344 11.433594 133.949219 11.261719 C 133.875 11.085938 133.769531 10.929688 133.628906 10.800781 L 127.539062 4.707031 L 131.207031 4.707031 C 131.398438 4.710938 131.582031 4.675781 131.757812 4.605469 C 131.933594 4.535156 132.089844 4.433594 132.226562 4.300781 C 132.359375 4.167969 132.464844 4.011719 132.539062 3.835938 C 132.609375 3.660156 132.648438 3.480469 132.648438 3.289062 C 132.648438 3.101562 132.609375 2.917969 132.539062 2.742188 C 132.464844 2.566406 132.359375 2.414062 132.226562 2.277344 C 132.089844 2.144531 131.933594 2.042969 131.757812 1.972656 C 131.582031 1.902344 131.398438 1.867188 131.207031 1.871094 L 124.28125 1.871094 C 124.222656 1.863281 124.160156 1.859375 124.101562 1.855469 Z M 152.460938 1.855469 C 152.410156 1.859375 152.355469 1.863281 152.304688 1.871094 L 145.394531 1.871094 C 145.207031 1.867188 145.023438 1.902344 144.847656 1.972656 C 144.671875 2.042969 144.515625 2.144531 144.378906 2.277344 C 144.246094 2.414062 144.140625 2.566406 144.066406 2.742188 C 143.992188 2.917969 143.957031 3.101562 143.957031 3.289062 C 143.957031 3.480469 143.992188 3.660156 144.066406 3.835938 C 144.140625 4.011719 144.246094 4.167969 144.378906 4.300781 C 144.515625 4.433594 144.671875 4.535156 144.847656 4.605469 C 145.023438 4.675781 145.207031 4.710938 145.394531 4.707031 L 149.066406 4.707031 L 142.972656 10.800781 C 142.835938 10.929688 142.730469 11.085938 142.65625 11.261719 C 142.578125 11.433594 142.539062 11.617188 142.539062 11.808594 C 142.535156 12 142.570312 12.183594 142.644531 12.359375 C 142.714844 12.535156 142.820312 12.691406 142.953125 12.824219 C 143.089844 12.960938 143.246094 13.0625 143.421875 13.136719 C 143.597656 13.207031 143.78125 13.242188 143.972656 13.242188 C 144.164062 13.238281 144.34375 13.199219 144.519531 13.125 C 144.695312 13.050781 144.847656 12.941406 144.980469 12.804688 L 151.070312 6.714844 L 151.070312 10.382812 C 151.070312 10.574219 151.101562 10.757812 151.171875 10.933594 C 151.246094 11.109375 151.347656 11.265625 151.480469 11.398438 C 151.613281 11.535156 151.765625 11.640625 151.941406 11.710938 C 152.117188 11.785156 152.300781 11.824219 152.492188 11.824219 C 152.679688 11.824219 152.863281 11.785156 153.039062 11.710938 C 153.214844 11.640625 153.367188 11.535156 153.5 11.398438 C 153.632812 11.265625 153.734375 11.109375 153.808594 10.933594 C 153.878906 10.757812 153.910156 10.574219 153.910156 10.382812 L 153.910156 3.46875 C 153.9375 3.261719 153.921875 3.058594 153.859375 2.859375 C 153.800781 2.660156 153.699219 2.484375 153.558594 2.328125 C 153.421875 2.171875 153.253906 2.054688 153.0625 1.972656 C 152.871094 1.890625 152.671875 1.851562 152.460938 1.855469 Z M 132.597656 21.71875 C 132.214844 21.730469 131.890625 21.875 131.625 22.148438 L 125.535156 28.242188 L 125.535156 24.570312 C 125.535156 24.378906 125.5 24.195312 125.429688 24.015625 C 125.355469 23.839844 125.253906 23.683594 125.117188 23.546875 C 124.980469 23.414062 124.824219 23.308594 124.648438 23.238281 C 124.46875 23.164062 124.285156 23.128906 124.09375 23.132812 C 123.90625 23.136719 123.722656 23.175781 123.550781 23.25 C 123.378906 23.324219 123.226562 23.429688 123.097656 23.5625 C 122.964844 23.699219 122.867188 23.851562 122.796875 24.027344 C 122.726562 24.203125 122.691406 24.382812 122.695312 24.570312 L 122.695312 31.449219 C 122.65625 31.675781 122.671875 31.898438 122.742188 32.117188 C 122.8125 32.335938 122.929688 32.527344 123.089844 32.6875 C 123.253906 32.851562 123.445312 32.964844 123.664062 33.035156 C 123.882812 33.105469 124.105469 33.121094 124.332031 33.085938 L 131.207031 33.085938 C 131.398438 33.085938 131.582031 33.054688 131.757812 32.980469 C 131.933594 32.910156 132.089844 32.808594 132.226562 32.675781 C 132.359375 32.542969 132.464844 32.386719 132.539062 32.214844 C 132.609375 32.039062 132.648438 31.855469 132.648438 31.664062 C 132.648438 31.476562 132.609375 31.292969 132.539062 31.117188 C 132.464844 30.941406 132.359375 30.789062 132.226562 30.65625 C 132.089844 30.523438 131.933594 30.417969 131.757812 30.347656 C 131.582031 30.277344 131.398438 30.242188 131.207031 30.246094 L 127.539062 30.246094 L 133.628906 24.15625 C 133.839844 23.953125 133.972656 23.707031 134.03125 23.417969 C 134.089844 23.132812 134.0625 22.855469 133.949219 22.585938 C 133.835938 22.316406 133.652344 22.101562 133.40625 21.945312 C 133.160156 21.785156 132.890625 21.710938 132.597656 21.71875 Z M 143.964844 21.71875 C 143.675781 21.71875 143.410156 21.800781 143.171875 21.960938 C 142.933594 22.125 142.757812 22.335938 142.648438 22.605469 C 142.539062 22.871094 142.515625 23.148438 142.574219 23.429688 C 142.632812 23.710938 142.765625 23.953125 142.972656 24.15625 L 149.066406 30.246094 L 145.394531 30.246094 C 145.207031 30.242188 145.023438 30.277344 144.847656 30.347656 C 144.671875 30.417969 144.515625 30.523438 144.378906 30.65625 C 144.246094 30.789062 144.140625 30.941406 144.066406 31.117188 C 143.992188 31.292969 143.957031 31.476562 143.957031 31.664062 C 143.957031 31.855469 143.992188 32.039062 144.066406 32.214844 C 144.140625 32.386719 144.246094 32.542969 144.378906 32.675781 C 144.515625 32.808594 144.671875 32.910156 144.847656 32.980469 C 145.023438 33.054688 145.207031 33.085938 145.394531 33.085938 L 152.273438 33.085938 C 152.5 33.121094 152.722656 33.105469 152.941406 33.035156 C 153.160156 32.964844 153.351562 32.851562 153.511719 32.6875 C 153.675781 32.527344 153.792969 32.335938 153.863281 32.117188 C 153.929688 31.898438 153.945312 31.675781 153.910156 31.449219 L 153.910156 24.570312 C 153.910156 24.378906 153.875 24.195312 153.804688 24.015625 C 153.730469 23.839844 153.628906 23.683594 153.492188 23.546875 C 153.355469 23.414062 153.199219 23.308594 153.023438 23.238281 C 152.84375 23.164062 152.660156 23.128906 152.46875 23.132812 C 152.28125 23.136719 152.101562 23.175781 151.925781 23.25 C 151.753906 23.324219 151.601562 23.429688 151.472656 23.5625 C 151.339844 23.699219 151.242188 23.851562 151.171875 24.027344 C 151.101562 24.203125 151.070312 24.382812 151.070312 24.570312 L 151.070312 28.242188 L 144.980469 22.148438 C 144.703125 21.863281 144.363281 21.71875 143.964844 21.71875 Z M 143.964844 21.71875 "/></g></g></svg>