<svg xmlns="http://www.w3.org/2000/svg" xmlns:xlink="http://www.w3.org/1999/xlink" width="1399" zoomAndPan="magnify" viewBox="0 0 1049.25 161.249994" height="215" preserveAspectRatio="xMidYMid meet" version="1.2"><defs/><g id="a45c32ceb6"><g style="fill:#396c84;fill-opacity:1;"><g transform="translate(164.143939, 60.331944)"><path style="stroke:none" d="M 3.125 -19.328125 L 3.125 -28.578125 L 12.375 -28.578125 L 12.375 -19.328125 Z M 3.125 0 L 3.125 -9.25 L 12.375 -9.25 L 12.375 0 Z M 3.125 0 "/></g></g><g style="fill:#396c84;fill-opacity:1;"><g transform="translate(179.635756, 60.331944)"><path style="stroke:none" d="M 30.609375 -32.84375 L 30.609375 -26.109375 L 27.484375 -26.109375 C 27.890625 -25.421875 28.09375 -24.109375 28.09375 -22.171875 L 28.09375 0 L 19.59375 0 L 19.59375 -23.65625 C 19.59375 -24.707031 19.507812 -25.378906 19.34375 -25.671875 C 19.1875 -25.960938 18.851562 -26.109375 18.34375 -26.109375 L 14.1875 -26.109375 C 13.707031 -26.109375 13.382812 -25.960938 13.21875 -25.671875 C 13.050781 -25.378906 12.96875 -24.707031 12.96875 -23.65625 L 12.96875 0 L 4.484375 0 L 4.484375 -22.171875 C 4.484375 -24.109375 4.6875 -25.421875 5.09375 -26.109375 L 1.96875 -26.109375 L 1.96875 -32.84375 Z M 30.609375 -32.84375 "/></g></g><g style="fill:#396c84;fill-opacity:1;"><g transform="translate(212.206889, 60.331944)"><path style="stroke:none" d="M 21.578125 -32.84375 C 23.617188 -32.84375 25.066406 -32.414062 25.921875 -31.5625 C 26.773438 -30.707031 27.203125 -29.238281 27.203125 -27.15625 L 27.203125 0 L 18.71875 0 L 18.71875 -24.25 C 18.71875 -24.976562 18.585938 -25.503906 18.328125 -25.828125 C 18.078125 -26.160156 17.609375 -26.328125 16.921875 -26.328125 L 15.4375 -26.328125 C 14.195312 -26.328125 13.335938 -25.941406 12.859375 -25.171875 C 12.390625 -24.410156 12.375 -22.804688 12.8125 -20.359375 L 14.78125 -8.875 C 15.332031 -5.875 15.164062 -3.644531 14.28125 -2.1875 C 13.40625 -0.726562 11.640625 0 8.984375 0 L 1.703125 0 L 1.703125 -6.734375 L 4.921875 -6.734375 C 5.429688 -6.734375 5.820312 -6.878906 6.09375 -7.171875 C 6.375 -7.460938 6.457031 -8.007812 6.34375 -8.8125 L 4.546875 -19.265625 C 4.179688 -21.316406 4.125 -22.859375 4.375 -23.890625 C 4.632812 -24.929688 4.960938 -25.671875 5.359375 -26.109375 L 1.8125 -26.109375 L 1.8125 -32.84375 Z M 21.578125 -32.84375 "/></g></g><g style="fill:#396c84;fill-opacity:1;"><g transform="translate(242.478887, 60.331944)"><path style="stroke:none" d="M 2.515625 0 L 2.515625 -6.734375 L 15.390625 -6.734375 C 16.703125 -6.734375 17.359375 -7.375 17.359375 -8.65625 L 17.359375 -24.578125 C 17.359375 -25.273438 17.289062 -25.738281 17.15625 -25.96875 C 17.03125 -26.207031 16.585938 -26.328125 15.828125 -26.328125 L 13.25 -26.328125 C 12.519531 -26.328125 12.035156 -26.207031 11.796875 -25.96875 C 11.554688 -25.738281 11.398438 -25.273438 11.328125 -24.578125 L 10.734375 -19.765625 C 10.691406 -19.253906 10.742188 -18.894531 10.890625 -18.6875 C 11.035156 -18.488281 11.363281 -18.390625 11.875 -18.390625 L 13.90625 -18.390625 L 13.90625 -11.828125 L 6.1875 -11.828125 C 4.539062 -11.828125 3.378906 -12.203125 2.703125 -12.953125 C 2.035156 -13.703125 1.789062 -14.878906 1.96875 -16.484375 L 3.34375 -28.140625 C 3.519531 -29.785156 4.019531 -30.976562 4.84375 -31.71875 C 5.664062 -32.46875 6.878906 -32.84375 8.484375 -32.84375 L 20.359375 -32.84375 C 22.367188 -32.84375 23.785156 -32.429688 24.609375 -31.609375 C 25.429688 -30.796875 25.84375 -29.363281 25.84375 -27.3125 L 25.84375 -5.46875 C 25.84375 -3.46875 25.429688 -2.054688 24.609375 -1.234375 C 23.785156 -0.410156 22.367188 0 20.359375 0 Z M 2.515625 0 "/></g></g><g style="fill:#396c84;fill-opacity:1;"><g transform="translate(271.108639, 60.331944)"><path style="stroke:none" d=""/></g></g><g style="fill:#396c84;fill-opacity:1;"><g transform="translate(282.330624, 60.331944)"><path style="stroke:none" d="M 20.96875 -6.734375 L 22.609375 -6.734375 L 22.609375 0 L 0.984375 0 L 0.984375 -6.734375 L 11.65625 -6.734375 C 11.550781 -6.953125 11.460938 -7.21875 11.390625 -7.53125 C 11.316406 -7.84375 11.28125 -8.179688 11.28125 -8.546875 L 11.28125 -24.46875 C 11.28125 -25.125 11.171875 -25.5625 10.953125 -25.78125 C 10.734375 -26 10.296875 -26.109375 9.640625 -26.109375 L 1.59375 -26.109375 L 1.59375 -32.84375 L 14.515625 -32.84375 C 16.441406 -32.84375 17.796875 -32.414062 18.578125 -31.5625 C 19.367188 -30.707031 19.765625 -29.238281 19.765625 -27.15625 L 19.765625 -8.109375 C 19.765625 -7.191406 20.164062 -6.734375 20.96875 -6.734375 Z M 20.96875 -6.734375 "/></g></g><g style="fill:#396c84;fill-opacity:1;"><g transform="translate(305.431497, 60.331944)"><path style="stroke:none" d="M 30.609375 -32.84375 L 30.609375 -26.109375 L 27.484375 -26.109375 C 27.890625 -25.421875 28.09375 -24.109375 28.09375 -22.171875 L 28.09375 0 L 19.59375 0 L 19.59375 -23.65625 C 19.59375 -24.707031 19.507812 -25.378906 19.34375 -25.671875 C 19.1875 -25.960938 18.851562 -26.109375 18.34375 -26.109375 L 14.1875 -26.109375 C 13.707031 -26.109375 13.382812 -25.960938 13.21875 -25.671875 C 13.050781 -25.378906 12.96875 -24.707031 12.96875 -23.65625 L 12.96875 0 L 4.484375 0 L 4.484375 -22.171875 C 4.484375 -24.109375 4.6875 -25.421875 5.09375 -26.109375 L 1.96875 -26.109375 L 1.96875 -32.84375 Z M 30.609375 -32.84375 "/></g></g><g style="fill:#396c84;fill-opacity:1;"><g transform="translate(338.002631, 60.331944)"><path style="stroke:none" d="M 4.875 0 L 4.875 -24.90625 C 4.875 -25.414062 4.789062 -25.742188 4.625 -25.890625 C 4.457031 -26.035156 4.117188 -26.109375 3.609375 -26.109375 L 1.640625 -26.109375 L 1.640625 -32.84375 L 9.6875 -32.84375 C 11.039062 -32.84375 11.988281 -32.566406 12.53125 -32.015625 C 13.082031 -31.472656 13.359375 -30.546875 13.359375 -29.234375 L 13.359375 0 Z M 4.875 0 "/></g></g><g style="fill:#396c84;fill-opacity:1;"><g transform="translate(354.37031, 60.331944)"><path style="stroke:none" d="M 10.453125 0 L 10.453125 -24.140625 C 10.453125 -25.453125 9.796875 -26.109375 8.484375 -26.109375 L 0.765625 -26.109375 L 0.765625 -32.84375 L 13.40625 -32.84375 C 15.457031 -32.84375 16.890625 -32.421875 17.703125 -31.578125 C 18.523438 -30.742188 18.9375 -29.320312 18.9375 -27.3125 L 18.9375 0 Z M 10.453125 0 "/></g></g><g style="fill:#396c84;fill-opacity:1;"><g transform="translate(376.321615, 60.331944)"><path style="stroke:none" d=""/></g></g><g style="fill:#396c84;fill-opacity:1;"><g transform="translate(387.543588, 60.331944)"><path style="stroke:none" d="M 20.96875 -6.734375 L 22.609375 -6.734375 L 22.609375 0 L 0.984375 0 L 0.984375 -6.734375 L 11.65625 -6.734375 C 11.550781 -6.953125 11.460938 -7.21875 11.390625 -7.53125 C 11.316406 -7.84375 11.28125 -8.179688 11.28125 -8.546875 L 11.28125 -24.46875 C 11.28125 -25.125 11.171875 -25.5625 10.953125 -25.78125 C 10.734375 -26 10.296875 -26.109375 9.640625 -26.109375 L 1.59375 -26.109375 L 1.59375 -32.84375 L 14.515625 -32.84375 C 16.441406 -32.84375 17.796875 -32.414062 18.578125 -31.5625 C 19.367188 -30.707031 19.765625 -29.238281 19.765625 -27.15625 L 19.765625 -8.109375 C 19.765625 -7.191406 20.164062 -6.734375 20.96875 -6.734375 Z M 20.96875 -6.734375 "/></g></g><g style="fill:#396c84;fill-opacity:1;"><g transform="translate(410.644484, 60.331944)"><path style="stroke:none" d="M 4.875 0 L 4.875 -24.90625 C 4.875 -25.414062 4.789062 -25.742188 4.625 -25.890625 C 4.457031 -26.035156 4.117188 -26.109375 3.609375 -26.109375 L 1.640625 -26.109375 L 1.640625 -32.84375 L 9.6875 -32.84375 C 11.039062 -32.84375 11.988281 -32.566406 12.53125 -32.015625 C 13.082031 -31.472656 13.359375 -30.546875 13.359375 -29.234375 L 13.359375 0 Z M 4.875 0 "/></g></g><g style="fill:#396c84;fill-opacity:1;"><g transform="translate(427.012141, 60.331944)"><path style="stroke:none" d="M 24.75 -32.84375 L 32.953125 -32.84375 L 31.375 -11.65625 C 31.082031 -7.457031 29.992188 -4.460938 28.109375 -2.671875 C 26.234375 -0.890625 23.285156 0 19.265625 0 L 8.328125 0 C 6.898438 0 5.863281 -0.363281 5.21875 -1.09375 C 4.582031 -1.820312 4.175781 -2.84375 4 -4.15625 L 3.0625 -11.171875 C 2.769531 -12.960938 3.265625 -14.332031 4.546875 -15.28125 L 1.859375 -32.84375 L 10.125 -32.84375 L 12.375 -18.015625 L 12.421875 -18.015625 C 12.929688 -18.191406 13.25 -18.390625 13.375 -18.609375 C 13.507812 -18.828125 13.578125 -19.226562 13.578125 -19.8125 L 13.578125 -32.84375 L 21.734375 -32.84375 L 21.734375 -18.171875 C 21.734375 -16.566406 21.476562 -15.40625 20.96875 -14.6875 C 20.457031 -13.976562 19.632812 -13.425781 18.5 -13.03125 L 12.59375 -11 C 11.96875 -10.75 11.59375 -10.519531 11.46875 -10.3125 C 11.34375 -10.113281 11.316406 -9.722656 11.390625 -9.140625 L 11.609375 -7.71875 C 11.679688 -7.25 11.851562 -6.945312 12.125 -6.8125 C 12.394531 -6.6875 12.804688 -6.625 13.359375 -6.625 L 17.03125 -6.625 C 18.5625 -6.625 19.753906 -6.757812 20.609375 -7.03125 C 21.472656 -7.3125 22.09375 -7.851562 22.46875 -8.65625 C 22.851562 -9.457031 23.101562 -10.625 23.21875 -12.15625 Z M 24.75 -32.84375 "/></g></g><g style="fill:#396c84;fill-opacity:1;"><g transform="translate(461.882422, 60.331944)"><path style="stroke:none" d="M 4.8125 -13.90625 L 4.8125 -24.90625 C 4.8125 -25.414062 4.726562 -25.742188 4.5625 -25.890625 C 4.40625 -26.035156 4.070312 -26.109375 3.5625 -26.109375 L 1.484375 -26.109375 L 1.484375 -32.84375 L 8.984375 -32.84375 C 10.546875 -32.84375 11.644531 -32.523438 12.28125 -31.890625 C 12.925781 -31.253906 13.25 -30.148438 13.25 -28.578125 L 13.25 -13.90625 Z M 4.8125 -13.90625 "/></g></g><g style="fill:#396c84;fill-opacity:1;"><g transform="translate(477.812159, 60.331944)"><path style="stroke:none" d="M 30.609375 -32.84375 L 30.609375 -26.109375 L 27.484375 -26.109375 C 27.890625 -25.421875 28.09375 -24.109375 28.09375 -22.171875 L 28.09375 0 L 19.59375 0 L 19.59375 -23.65625 C 19.59375 -24.707031 19.507812 -25.378906 19.34375 -25.671875 C 19.1875 -25.960938 18.851562 -26.109375 18.34375 -26.109375 L 14.1875 -26.109375 C 13.707031 -26.109375 13.382812 -25.960938 13.21875 -25.671875 C 13.050781 -25.378906 12.96875 -24.707031 12.96875 -23.65625 L 12.96875 0 L 4.484375 0 L 4.484375 -22.171875 C 4.484375 -24.109375 4.6875 -25.421875 5.09375 -26.109375 L 1.96875 -26.109375 L 1.96875 -32.84375 Z M 30.609375 -32.84375 "/></g></g><g style="fill:#396c84;fill-opacity:1;"><g transform="translate(510.383303, 60.331944)"><path style="stroke:none" d=""/></g></g><g style="fill:#396c84;fill-opacity:1;"><g transform="translate(521.605277, 60.331944)"><path style="stroke:none" d="M 4.875 8.375 L 4.875 -24.90625 C 4.875 -25.414062 4.789062 -25.742188 4.625 -25.890625 C 4.457031 -26.035156 4.117188 -26.109375 3.609375 -26.109375 L 1.640625 -26.109375 L 1.640625 -32.84375 L 9.6875 -32.84375 C 11.039062 -32.84375 11.988281 -32.566406 12.53125 -32.015625 C 13.082031 -31.472656 13.359375 -30.546875 13.359375 -29.234375 L 13.359375 8.375 Z M 4.875 8.375 "/></g></g><g style="fill:#396c84;fill-opacity:1;"><g transform="translate(537.972979, 60.331944)"><path style="stroke:none" d="M 2.515625 0 L 2.515625 -6.734375 L 15.390625 -6.734375 C 16.703125 -6.734375 17.359375 -7.375 17.359375 -8.65625 L 17.359375 -24.578125 C 17.359375 -25.273438 17.289062 -25.738281 17.15625 -25.96875 C 17.03125 -26.207031 16.585938 -26.328125 15.828125 -26.328125 L 13.25 -26.328125 C 12.519531 -26.328125 12.035156 -26.207031 11.796875 -25.96875 C 11.554688 -25.738281 11.398438 -25.273438 11.328125 -24.578125 L 10.734375 -19.765625 C 10.691406 -19.253906 10.742188 -18.894531 10.890625 -18.6875 C 11.035156 -18.488281 11.363281 -18.390625 11.875 -18.390625 L 13.90625 -18.390625 L 13.90625 -11.828125 L 6.1875 -11.828125 C 4.539062 -11.828125 3.378906 -12.203125 2.703125 -12.953125 C 2.035156 -13.703125 1.789062 -14.878906 1.96875 -16.484375 L 3.34375 -28.140625 C 3.519531 -29.785156 4.019531 -30.976562 4.84375 -31.71875 C 5.664062 -32.46875 6.878906 -32.84375 8.484375 -32.84375 L 20.359375 -32.84375 C 22.367188 -32.84375 23.785156 -32.429688 24.609375 -31.609375 C 25.429688 -30.796875 25.84375 -29.363281 25.84375 -27.3125 L 25.84375 -5.46875 C 25.84375 -3.46875 25.429688 -2.054688 24.609375 -1.234375 C 23.785156 -0.410156 22.367188 0 20.359375 0 Z M 2.515625 0 "/></g></g><g style="fill:#396c84;fill-opacity:1;"><g transform="translate(566.602709, 60.331944)"><path style="stroke:none" d="M 4.875 0 L 4.875 -24.90625 C 4.875 -25.414062 4.789062 -25.742188 4.625 -25.890625 C 4.457031 -26.035156 4.117188 -26.109375 3.609375 -26.109375 L 1.640625 -26.109375 L 1.640625 -32.84375 L 9.6875 -32.84375 C 11.039062 -32.84375 11.988281 -32.566406 12.53125 -32.015625 C 13.082031 -31.472656 13.359375 -30.546875 13.359375 -29.234375 L 13.359375 0 Z M 4.875 0 "/></g></g><g style="fill:#396c84;fill-opacity:1;"><g transform="translate(582.970412, 60.331944)"><path style="stroke:none" d="M 10.953125 -17.1875 C 10.472656 -17.007812 10.195312 -16.753906 10.125 -16.421875 C 10.050781 -16.097656 10.109375 -15.570312 10.296875 -14.84375 L 12.75 -6.90625 C 13.375 -4.925781 13.503906 -3.28125 13.140625 -1.96875 C 12.773438 -0.65625 11.660156 0 9.796875 0 L 1.859375 0 L 1.859375 -6.734375 L 3.609375 -6.734375 C 4.085938 -6.734375 4.289062 -6.9375 4.21875 -7.34375 L 2.796875 -14.1875 C 2.429688 -15.894531 2.398438 -17.296875 2.703125 -18.390625 C 3.015625 -19.484375 3.546875 -20.394531 4.296875 -21.125 C 5.046875 -21.863281 5.859375 -22.46875 6.734375 -22.9375 L 7.5625 -23.375 L 1.921875 -32.84375 L 10.5625 -32.84375 L 18.234375 -19.046875 C 18.523438 -19.234375 18.722656 -19.460938 18.828125 -19.734375 C 18.941406 -20.003906 19 -20.453125 19 -21.078125 L 19 -32.84375 L 27.09375 -32.84375 L 27.09375 -20.421875 C 27.09375 -18.742188 26.753906 -17.328125 26.078125 -16.171875 C 25.410156 -15.023438 24.238281 -13.941406 22.5625 -12.921875 L 21.796875 -12.421875 L 28.203125 0 L 19.65625 0 L 11 -17.1875 Z M 10.953125 -17.1875 "/></g></g><g style="fill:#396c84;fill-opacity:1;"><g transform="translate(612.311813, 60.331944)"><path style="stroke:none" d=""/></g></g><g style="fill:#396c84;fill-opacity:1;"><g transform="translate(623.533786, 60.331944)"><path style="stroke:none" d="M 22.78125 -32.84375 C 24.382812 -32.84375 25.53125 -32.492188 26.21875 -31.796875 C 26.914062 -31.109375 27.265625 -29.945312 27.265625 -28.3125 L 27.265625 -2.03125 C 27.265625 -1.300781 27.109375 -0.78125 26.796875 -0.46875 C 26.484375 -0.15625 25.960938 0 25.234375 0 L 6.234375 0 C 5.503906 0 4.984375 -0.15625 4.671875 -0.46875 C 4.367188 -0.78125 4.21875 -1.300781 4.21875 -2.03125 L 4.21875 -22.609375 C 4.21875 -24.253906 4.488281 -25.421875 5.03125 -26.109375 L 1.96875 -26.109375 L 1.96875 -32.84375 Z M 19 -7.171875 L 19 -24.46875 C 19 -25.195312 18.890625 -25.6875 18.671875 -25.9375 C 18.453125 -26.195312 18.015625 -26.328125 17.359375 -26.328125 L 14.078125 -26.328125 C 13.410156 -26.328125 12.976562 -26.160156 12.78125 -25.828125 C 12.582031 -25.503906 12.484375 -24.960938 12.484375 -24.203125 L 12.484375 -7.171875 C 12.484375 -6.910156 12.523438 -6.734375 12.609375 -6.640625 C 12.703125 -6.554688 12.878906 -6.515625 13.140625 -6.515625 L 18.34375 -6.515625 C 18.632812 -6.515625 18.816406 -6.554688 18.890625 -6.640625 C 18.960938 -6.734375 19 -6.910156 19 -7.171875 Z M 19 -7.171875 "/></g></g><g style="fill:#396c84;fill-opacity:1;"><g transform="translate(653.805795, 60.331944)"><path style="stroke:none" d="M 4.875 0 L 4.875 -24.90625 C 4.875 -25.414062 4.789062 -25.742188 4.625 -25.890625 C 4.457031 -26.035156 4.117188 -26.109375 3.609375 -26.109375 L 1.640625 -26.109375 L 1.640625 -32.84375 L 9.6875 -32.84375 C 11.039062 -32.84375 11.988281 -32.566406 12.53125 -32.015625 C 13.082031 -31.472656 13.359375 -30.546875 13.359375 -29.234375 L 13.359375 0 Z M 4.875 0 "/></g></g><g style="fill:#396c84;fill-opacity:1;"><g transform="translate(670.173452, 60.331944)"><path style="stroke:none" d="M 0.984375 0 L 0.984375 -6.734375 L 9.421875 -6.734375 C 10.078125 -6.734375 10.519531 -6.84375 10.75 -7.0625 C 10.988281 -7.28125 11.109375 -7.703125 11.109375 -8.328125 L 11.109375 -24.46875 C 11.109375 -25.125 10.988281 -25.5625 10.75 -25.78125 C 10.519531 -26 10.078125 -26.109375 9.421875 -26.109375 L 1.59375 -26.109375 L 1.59375 -32.84375 L 14.40625 -32.84375 C 16.300781 -32.84375 17.640625 -32.453125 18.421875 -31.671875 C 19.203125 -30.890625 19.59375 -29.550781 19.59375 -27.65625 L 19.59375 -5.140625 C 19.59375 -3.285156 19.203125 -1.960938 18.421875 -1.171875 C 17.640625 -0.390625 16.300781 0 14.40625 0 Z M 0.984375 0 "/></g></g><g style="fill:#396c84;fill-opacity:1;"><g transform="translate(692.507954, 60.331944)"><path style="stroke:none" d="M 4.8125 -13.90625 L 4.8125 -24.90625 C 4.8125 -25.414062 4.726562 -25.742188 4.5625 -25.890625 C 4.40625 -26.035156 4.070312 -26.109375 3.5625 -26.109375 L 1.484375 -26.109375 L 1.484375 -32.84375 L 8.984375 -32.84375 C 10.546875 -32.84375 11.644531 -32.523438 12.28125 -31.890625 C 12.925781 -31.253906 13.25 -30.148438 13.25 -28.578125 L 13.25 -13.90625 Z M 4.8125 -13.90625 "/></g></g><g style="fill:#396c84;fill-opacity:1;"><g transform="translate(708.437691, 60.331944)"><path style="stroke:none" d="M 21.84375 -32.84375 C 23.78125 -32.84375 25.296875 -32.578125 26.390625 -32.046875 C 27.484375 -31.523438 28.238281 -30.585938 28.65625 -29.234375 C 29.082031 -27.878906 29.203125 -25.960938 29.015625 -23.484375 L 28.03125 -8.765625 C 27.957031 -7.523438 27.765625 -6.390625 27.453125 -5.359375 C 27.140625 -4.335938 26.59375 -3.472656 25.8125 -2.765625 C 25.03125 -2.054688 23.875 -1.570312 22.34375 -1.3125 L 12.421875 0.328125 C 10.160156 0.734375 8.59375 0.582031 7.71875 -0.125 C 6.84375 -0.84375 6.332031 -2.0625 6.1875 -3.78125 L 4.765625 -22.390625 C 4.691406 -23.234375 4.753906 -23.972656 4.953125 -24.609375 C 5.148438 -25.242188 5.429688 -25.78125 5.796875 -26.21875 C 4.773438 -26.363281 3.78125 -26.703125 2.8125 -27.234375 C 1.851562 -27.765625 1.0625 -28.5625 0.4375 -29.625 L 4.875 -34.71875 C 5.382812 -33.90625 5.90625 -33.390625 6.4375 -33.171875 C 6.96875 -32.953125 7.648438 -32.84375 8.484375 -32.84375 Z M 20.859375 -21.1875 C 20.929688 -22.644531 20.941406 -23.75 20.890625 -24.5 C 20.835938 -25.25 20.617188 -25.75 20.234375 -26 C 19.847656 -26.257812 19.179688 -26.367188 18.234375 -26.328125 L 13.96875 -26.21875 C 13.082031 -26 12.695312 -25.269531 12.8125 -24.03125 L 14.078125 -8.484375 C 14.148438 -7.796875 14.335938 -7.335938 14.640625 -7.109375 C 14.953125 -6.890625 15.398438 -6.820312 15.984375 -6.90625 L 18.390625 -7.390625 C 19.046875 -7.503906 19.507812 -7.78125 19.78125 -8.21875 C 20.0625 -8.65625 20.21875 -9.347656 20.25 -10.296875 Z M 20.859375 -21.1875 "/></g></g><g style="fill:#396c84;fill-opacity:1;"><g transform="translate(739.58554, 60.331944)"><path style="stroke:none" d=""/></g></g><g style="fill:#396c84;fill-opacity:1;"><g transform="translate(750.807559, 60.331944)"><path style="stroke:none" d="M 3.125 -19.328125 L 3.125 -28.578125 L 12.375 -28.578125 L 12.375 -19.328125 Z M 3.125 0 L 3.125 -9.25 L 12.375 -9.25 L 12.375 0 Z M 3.125 0 "/></g></g><g style="fill:#396c84;fill-opacity:1;"><g transform="translate(766.299376, 60.331944)"><path style="stroke:none" d="M 4.875 8.375 L 4.875 -24.90625 C 4.875 -25.414062 4.789062 -25.742188 4.625 -25.890625 C 4.457031 -26.035156 4.117188 -26.109375 3.609375 -26.109375 L 1.640625 -26.109375 L 1.640625 -32.84375 L 9.6875 -32.84375 C 11.039062 -32.84375 11.988281 -32.566406 12.53125 -32.015625 C 13.082031 -31.472656 13.359375 -30.546875 13.359375 -29.234375 L 13.359375 8.375 Z M 4.875 8.375 "/></g></g><g style="fill:#396c84;fill-opacity:1;"><g transform="translate(782.667033, 60.331944)"><path style="stroke:none" d="M 4.875 0 L 4.875 -24.90625 C 4.875 -25.414062 4.789062 -25.742188 4.625 -25.890625 C 4.457031 -26.035156 4.117188 -26.109375 3.609375 -26.109375 L 1.640625 -26.109375 L 1.640625 -32.84375 L 9.6875 -32.84375 C 11.039062 -32.84375 11.988281 -32.566406 12.53125 -32.015625 C 13.082031 -31.472656 13.359375 -30.546875 13.359375 -29.234375 L 13.359375 0 Z M 4.875 0 "/></g></g><g style="fill:#396c84;fill-opacity:1;"><g transform="translate(799.03469, 60.331944)"><path style="stroke:none" d="M 15.875 -0.328125 C 14.675781 0.078125 13.472656 0.351562 12.265625 0.5 C 11.054688 0.644531 9.941406 0.585938 8.921875 0.328125 C 7.898438 0.0664062 7.050781 -0.441406 6.375 -1.203125 C 5.695312 -1.972656 5.304688 -3.085938 5.203125 -4.546875 L 3.78125 -24.90625 C 3.738281 -25.414062 3.660156 -25.742188 3.546875 -25.890625 C 3.441406 -26.035156 3.15625 -26.109375 2.6875 -26.109375 L 1.203125 -26.109375 L 1.203125 -32.84375 L 8.21875 -32.84375 C 9.414062 -32.84375 10.28125 -32.578125 10.8125 -32.046875 C 11.34375 -31.523438 11.644531 -30.679688 11.71875 -29.515625 L 13.078125 -8.65625 C 13.148438 -7.925781 13.40625 -7.46875 13.84375 -7.28125 C 14.289062 -7.101562 14.84375 -7.125 15.5 -7.34375 L 18.28125 -8.265625 C 19.226562 -8.597656 19.773438 -9.253906 19.921875 -10.234375 C 20.066406 -11.222656 20.25 -12.503906 20.46875 -14.078125 L 21.84375 -24.90625 C 21.914062 -25.53125 21.851562 -25.976562 21.65625 -26.25 C 21.457031 -26.519531 21.175781 -26.675781 20.8125 -26.71875 C 20.289062 -26.789062 19.929688 -26.6875 19.734375 -26.40625 C 19.535156 -26.132812 19.414062 -25.726562 19.375 -25.1875 L 18.9375 -19.328125 L 13.75 -19.4375 L 14.015625 -27.265625 C 14.085938 -29.273438 14.757812 -30.804688 16.03125 -31.859375 C 17.3125 -32.921875 19.175781 -33.453125 21.625 -33.453125 C 23.15625 -33.453125 24.578125 -33.164062 25.890625 -32.59375 C 27.210938 -32.03125 28.242188 -31.164062 28.984375 -30 C 29.734375 -28.832031 30 -27.300781 29.78125 -25.40625 L 28.03125 -9.796875 C 27.851562 -7.898438 27.304688 -6.359375 26.390625 -5.171875 C 25.472656 -3.984375 24.015625 -3.046875 22.015625 -2.359375 Z M 15.875 -0.328125 "/></g></g><g style="fill:#396c84;fill-opacity:1;"><g transform="translate(830.729995, 60.331944)"><path style="stroke:none" d="M 10.453125 0 L 10.453125 -24.140625 C 10.453125 -25.453125 9.796875 -26.109375 8.484375 -26.109375 L 0.765625 -26.109375 L 0.765625 -32.84375 L 13.40625 -32.84375 C 15.457031 -32.84375 16.890625 -32.421875 17.703125 -31.578125 C 18.523438 -30.742188 18.9375 -29.320312 18.9375 -27.3125 L 18.9375 0 Z M 10.453125 0 "/></g></g><g style="fill:#396c84;fill-opacity:1;"><g transform="translate(852.6813, 60.331944)"><path style="stroke:none" d="M 21.84375 -32.84375 C 23.78125 -32.84375 25.296875 -32.578125 26.390625 -32.046875 C 27.484375 -31.523438 28.238281 -30.585938 28.65625 -29.234375 C 29.082031 -27.878906 29.203125 -25.960938 29.015625 -23.484375 L 28.03125 -8.765625 C 27.957031 -7.523438 27.765625 -6.390625 27.453125 -5.359375 C 27.140625 -4.335938 26.59375 -3.472656 25.8125 -2.765625 C 25.03125 -2.054688 23.875 -1.570312 22.34375 -1.3125 L 12.421875 0.328125 C 10.160156 0.734375 8.59375 0.582031 7.71875 -0.125 C 6.84375 -0.84375 6.332031 -2.0625 6.1875 -3.78125 L 4.765625 -22.390625 C 4.691406 -23.234375 4.753906 -23.972656 4.953125 -24.609375 C 5.148438 -25.242188 5.429688 -25.78125 5.796875 -26.21875 C 4.773438 -26.363281 3.78125 -26.703125 2.8125 -27.234375 C 1.851562 -27.765625 1.0625 -28.5625 0.4375 -29.625 L 4.875 -34.71875 C 5.382812 -33.90625 5.90625 -33.390625 6.4375 -33.171875 C 6.96875 -32.953125 7.648438 -32.84375 8.484375 -32.84375 Z M 20.859375 -21.1875 C 20.929688 -22.644531 20.941406 -23.75 20.890625 -24.5 C 20.835938 -25.25 20.617188 -25.75 20.234375 -26 C 19.847656 -26.257812 19.179688 -26.367188 18.234375 -26.328125 L 13.96875 -26.21875 C 13.082031 -26 12.695312 -25.269531 12.8125 -24.03125 L 14.078125 -8.484375 C 14.148438 -7.796875 14.335938 -7.335938 14.640625 -7.109375 C 14.953125 -6.890625 15.398438 -6.820312 15.984375 -6.90625 L 18.390625 -7.390625 C 19.046875 -7.503906 19.507812 -7.78125 19.78125 -8.21875 C 20.0625 -8.65625 20.21875 -9.347656 20.25 -10.296875 Z M 20.859375 -21.1875 "/></g></g><path style="fill:none;stroke-width:8;stroke-linecap:round;stroke-linejoin:miter;stroke:#396c84;stroke-opacity:1;stroke-miterlimit:4;" d="M 4.00241 4.000844 L 959.938532 4.000844 " transform="matrix(0.746528,0,0,0.746528,162.402715,76.767165)"/></g></svg>