<svg xmlns="http://www.w3.org/2000/svg" xmlns:xlink="http://www.w3.org/1999/xlink" width="1188" zoomAndPan="magnify" viewBox="0 0 890.88 189.750001" height="253" preserveAspectRatio="xMidYMid meet" version="1.2"><defs><clipPath id="ab6a9f51e1"><path d="M 28.96875 3.46875 L 571.078125 3.46875 L 571.078125 113.996094 L 28.96875 113.996094 Z M 28.96875 3.46875 "/></clipPath><clipPath id="622094017f"><path d="M 277.03125 3.46875 L 819.144531 3.46875 L 819.144531 113.996094 L 277.03125 113.996094 Z M 277.03125 3.46875 "/></clipPath></defs><g id="9aa0fdc388"><g style="fill:#396c84;fill-opacity:1;"><g transform="translate(139.163971, 166.022517)"><path style="stroke:none" d="M 3.734375 6.421875 L 3.734375 -19.078125 C 3.734375 -19.472656 3.671875 -19.722656 3.546875 -19.828125 C 3.421875 -19.941406 3.160156 -20 2.765625 -20 L 1.265625 -20 L 1.265625 -25.15625 L 7.421875 -25.15625 C 8.453125 -25.15625 9.175781 -24.945312 9.59375 -24.53125 C 10.019531 -24.113281 10.234375 -23.398438 10.234375 -22.390625 L 10.234375 6.421875 Z M 3.734375 6.421875 "/></g></g><g style="fill:#396c84;fill-opacity:1;"><g transform="translate(151.705449, 166.022517)"><path style="stroke:none" d="M 3.734375 0 L 3.734375 -19.078125 C 3.734375 -19.472656 3.671875 -19.722656 3.546875 -19.828125 C 3.421875 -19.941406 3.160156 -20 2.765625 -20 L 1.265625 -20 L 1.265625 -25.15625 L 7.421875 -25.15625 C 8.453125 -25.15625 9.175781 -24.945312 9.59375 -24.53125 C 10.019531 -24.113281 10.234375 -23.398438 10.234375 -22.390625 L 10.234375 0 Z M 3.734375 0 "/></g></g><g style="fill:#396c84;fill-opacity:1;"><g transform="translate(164.246927, 166.022517)"><path style="stroke:none" d="M 0.125 0 L 0.125 -5.15625 L 3.609375 -5.15625 C 4.191406 -5.15625 4.582031 -5.253906 4.78125 -5.453125 C 4.976562 -5.648438 5.078125 -6.054688 5.078125 -6.671875 L 5.078125 -18.75 C 5.078125 -19.25 4.992188 -19.582031 4.828125 -19.75 C 4.660156 -19.914062 4.335938 -20 3.859375 -20 L 2.390625 -20 L 2.390625 -25.15625 L 7.71875 -25.15625 C 9.113281 -25.15625 10.101562 -24.84375 10.6875 -24.21875 C 11.28125 -23.59375 11.578125 -22.535156 11.578125 -21.046875 L 11.578125 -4.1875 C 11.578125 -2.65625 11.273438 -1.570312 10.671875 -0.9375 C 10.066406 -0.3125 9.050781 0 7.625 0 Z M 0.125 0 "/></g></g><g style="fill:#396c84;fill-opacity:1;"><g transform="translate(177.920909, 166.022517)"><path style="stroke:none" d="M 0.75 0 L 0.75 -5.15625 L 7.21875 -5.15625 C 7.71875 -5.15625 8.054688 -5.238281 8.234375 -5.40625 C 8.421875 -5.570312 8.515625 -5.894531 8.515625 -6.375 L 8.515625 -18.75 C 8.515625 -19.25 8.421875 -19.582031 8.234375 -19.75 C 8.054688 -19.914062 7.71875 -20 7.21875 -20 L 1.21875 -20 L 1.21875 -25.15625 L 11.03125 -25.15625 C 12.476562 -25.15625 13.503906 -24.851562 14.109375 -24.25 C 14.710938 -23.65625 15.015625 -22.628906 15.015625 -21.171875 L 15.015625 -3.9375 C 15.015625 -2.507812 14.710938 -1.492188 14.109375 -0.890625 C 13.503906 -0.296875 12.476562 0 11.03125 0 Z M 0.75 0 "/></g></g><g style="fill:#396c84;fill-opacity:1;"><g transform="translate(195.034355, 166.022517)"><path style="stroke:none" d="M 16.515625 -25.15625 C 18.085938 -25.15625 19.203125 -24.828125 19.859375 -24.171875 C 20.515625 -23.515625 20.84375 -22.390625 20.84375 -20.796875 L 20.84375 0 L 14.34375 0 L 14.34375 -18.578125 C 14.34375 -19.140625 14.242188 -19.546875 14.046875 -19.796875 C 13.847656 -20.046875 13.484375 -20.171875 12.953125 -20.171875 L 11.828125 -20.171875 C 10.878906 -20.171875 10.222656 -19.875 9.859375 -19.28125 C 9.492188 -18.695312 9.476562 -17.46875 9.8125 -15.59375 L 11.328125 -6.796875 C 11.742188 -4.503906 11.613281 -2.796875 10.9375 -1.671875 C 10.269531 -0.554688 8.914062 0 6.875 0 L 1.296875 0 L 1.296875 -5.15625 L 3.78125 -5.15625 C 4.164062 -5.15625 4.460938 -5.265625 4.671875 -5.484375 C 4.878906 -5.710938 4.941406 -6.132812 4.859375 -6.75 L 3.484375 -14.765625 C 3.203125 -16.328125 3.160156 -17.503906 3.359375 -18.296875 C 3.554688 -19.097656 3.804688 -19.664062 4.109375 -20 L 1.390625 -20 L 1.390625 -25.15625 Z M 16.515625 -25.15625 "/></g></g><g style="fill:#396c84;fill-opacity:1;"><g transform="translate(218.229795, 166.022517)"><path style="stroke:none" d="M 16.0625 -5.15625 L 17.3125 -5.15625 L 17.3125 0 L 0.75 0 L 0.75 -5.15625 L 8.9375 -5.15625 C 8.851562 -5.320312 8.78125 -5.523438 8.71875 -5.765625 C 8.664062 -6.003906 8.640625 -6.265625 8.640625 -6.546875 L 8.640625 -18.75 C 8.640625 -19.25 8.554688 -19.582031 8.390625 -19.75 C 8.222656 -19.914062 7.882812 -20 7.375 -20 L 1.21875 -20 L 1.21875 -25.15625 L 11.109375 -25.15625 C 12.597656 -25.15625 13.640625 -24.828125 14.234375 -24.171875 C 14.835938 -23.515625 15.140625 -22.390625 15.140625 -20.796875 L 15.140625 -6.203125 C 15.140625 -5.503906 15.445312 -5.15625 16.0625 -5.15625 Z M 16.0625 -5.15625 "/></g></g><g style="fill:#396c84;fill-opacity:1;"><g transform="translate(235.930476, 166.022517)"><path style="stroke:none" d=""/></g></g><g style="fill:#396c84;fill-opacity:1;"><g transform="translate(244.529144, 166.022517)"><path style="stroke:none" d="M 17.453125 -25.15625 C 18.679688 -25.15625 19.5625 -24.890625 20.09375 -24.359375 C 20.625 -23.828125 20.890625 -22.9375 20.890625 -21.6875 L 20.890625 -1.546875 C 20.890625 -0.992188 20.769531 -0.597656 20.53125 -0.359375 C 20.289062 -0.117188 19.890625 0 19.328125 0 L 4.78125 0 C 4.21875 0 3.816406 -0.117188 3.578125 -0.359375 C 3.347656 -0.597656 3.234375 -0.992188 3.234375 -1.546875 L 3.234375 -17.3125 C 3.234375 -18.570312 3.441406 -19.46875 3.859375 -20 L 1.515625 -20 L 1.515625 -25.15625 Z M 14.546875 -5.5 L 14.546875 -18.75 C 14.546875 -19.300781 14.460938 -19.675781 14.296875 -19.875 C 14.128906 -20.070312 13.796875 -20.171875 13.296875 -20.171875 L 10.78125 -20.171875 C 10.269531 -20.171875 9.9375 -20.046875 9.78125 -19.796875 C 9.632812 -19.546875 9.5625 -19.125 9.5625 -18.53125 L 9.5625 -5.5 C 9.5625 -5.300781 9.59375 -5.164062 9.65625 -5.09375 C 9.726562 -5.019531 9.863281 -4.984375 10.0625 -4.984375 L 14.046875 -4.984375 C 14.273438 -4.984375 14.414062 -5.019531 14.46875 -5.09375 C 14.519531 -5.164062 14.546875 -5.300781 14.546875 -5.5 Z M 14.546875 -5.5 "/></g></g><g style="fill:#396c84;fill-opacity:1;"><g transform="translate(267.724584, 166.022517)"><path style="stroke:none" d="M 3.6875 -10.65625 L 3.6875 -19.078125 C 3.6875 -19.472656 3.625 -19.722656 3.5 -19.828125 C 3.375 -19.941406 3.113281 -20 2.71875 -20 L 1.125 -20 L 1.125 -25.15625 L 6.875 -25.15625 C 8.082031 -25.15625 8.929688 -24.910156 9.421875 -24.421875 C 9.910156 -23.929688 10.15625 -23.085938 10.15625 -21.890625 L 10.15625 -10.65625 Z M 3.6875 -10.65625 "/></g></g><g style="fill:#396c84;fill-opacity:1;"><g transform="translate(279.930506, 166.022517)"><path style="stroke:none" d="M 0.125 0 L 0.125 -5.15625 L 3.609375 -5.15625 C 4.191406 -5.15625 4.582031 -5.253906 4.78125 -5.453125 C 4.976562 -5.648438 5.078125 -6.054688 5.078125 -6.671875 L 5.078125 -18.75 C 5.078125 -19.25 4.992188 -19.582031 4.828125 -19.75 C 4.660156 -19.914062 4.335938 -20 3.859375 -20 L 2.390625 -20 L 2.390625 -25.15625 L 7.71875 -25.15625 C 9.113281 -25.15625 10.101562 -24.84375 10.6875 -24.21875 C 11.28125 -23.59375 11.578125 -22.535156 11.578125 -21.046875 L 11.578125 -4.1875 C 11.578125 -2.65625 11.273438 -1.570312 10.671875 -0.9375 C 10.066406 -0.3125 9.050781 0 7.625 0 Z M 0.125 0 "/></g></g><g style="fill:#396c84;fill-opacity:1;"><g transform="translate(293.604487, 166.022517)"><path style="stroke:none" d="M 3.734375 0 L 3.734375 -19.078125 C 3.734375 -19.472656 3.671875 -19.722656 3.546875 -19.828125 C 3.421875 -19.941406 3.160156 -20 2.765625 -20 L 1.265625 -20 L 1.265625 -25.15625 L 7.421875 -25.15625 C 8.453125 -25.15625 9.175781 -24.945312 9.59375 -24.53125 C 10.019531 -24.113281 10.234375 -23.398438 10.234375 -22.390625 L 10.234375 0 Z M 3.734375 0 "/></g></g><g style="fill:#396c84;fill-opacity:1;"><g transform="translate(306.145966, 166.022517)"><path style="stroke:none" d="M 18.953125 -25.15625 L 25.25 -25.15625 L 24.03125 -8.9375 C 23.800781 -5.71875 22.96875 -3.421875 21.53125 -2.046875 C 20.09375 -0.679688 17.835938 0 14.765625 0 L 6.375 0 C 5.28125 0 4.488281 -0.273438 4 -0.828125 C 3.507812 -1.390625 3.195312 -2.175781 3.0625 -3.1875 L 2.34375 -8.5625 C 2.125 -9.925781 2.503906 -10.972656 3.484375 -11.703125 L 1.421875 -25.15625 L 7.765625 -25.15625 L 9.484375 -13.796875 L 9.515625 -13.796875 C 9.910156 -13.929688 10.15625 -14.082031 10.25 -14.25 C 10.351562 -14.425781 10.40625 -14.738281 10.40625 -15.1875 L 10.40625 -25.15625 L 16.65625 -25.15625 L 16.65625 -13.921875 C 16.65625 -12.691406 16.457031 -11.800781 16.0625 -11.25 C 15.664062 -10.707031 15.035156 -10.285156 14.171875 -9.984375 L 9.640625 -8.421875 C 9.171875 -8.234375 8.882812 -8.0625 8.78125 -7.90625 C 8.6875 -7.75 8.664062 -7.445312 8.71875 -7 L 8.890625 -5.90625 C 8.941406 -5.550781 9.070312 -5.320312 9.28125 -5.21875 C 9.5 -5.125 9.816406 -5.078125 10.234375 -5.078125 L 13.046875 -5.078125 C 14.210938 -5.078125 15.125 -5.179688 15.78125 -5.390625 C 16.445312 -5.597656 16.925781 -6.007812 17.21875 -6.625 C 17.507812 -7.238281 17.695312 -8.132812 17.78125 -9.3125 Z M 18.953125 -25.15625 "/></g></g><g style="fill:#396c84;fill-opacity:1;"><g transform="translate(332.86476, 166.022517)"><path style="stroke:none" d=""/></g></g><g style="fill:#396c84;fill-opacity:1;"><g transform="translate(341.463439, 166.022517)"><path style="stroke:none" d="M 17.453125 -25.15625 C 18.679688 -25.15625 19.5625 -24.890625 20.09375 -24.359375 C 20.625 -23.828125 20.890625 -22.9375 20.890625 -21.6875 L 20.890625 -1.546875 C 20.890625 -0.992188 20.769531 -0.597656 20.53125 -0.359375 C 20.289062 -0.117188 19.890625 0 19.328125 0 L 4.78125 0 C 4.21875 0 3.816406 -0.117188 3.578125 -0.359375 C 3.347656 -0.597656 3.234375 -0.992188 3.234375 -1.546875 L 3.234375 -17.3125 C 3.234375 -18.570312 3.441406 -19.46875 3.859375 -20 L 1.515625 -20 L 1.515625 -25.15625 Z M 14.546875 -5.5 L 14.546875 -18.75 C 14.546875 -19.300781 14.460938 -19.675781 14.296875 -19.875 C 14.128906 -20.070312 13.796875 -20.171875 13.296875 -20.171875 L 10.78125 -20.171875 C 10.269531 -20.171875 9.9375 -20.046875 9.78125 -19.796875 C 9.632812 -19.546875 9.5625 -19.125 9.5625 -18.53125 L 9.5625 -5.5 C 9.5625 -5.300781 9.59375 -5.164062 9.65625 -5.09375 C 9.726562 -5.019531 9.863281 -4.984375 10.0625 -4.984375 L 14.046875 -4.984375 C 14.273438 -4.984375 14.414062 -5.019531 14.46875 -5.09375 C 14.519531 -5.164062 14.546875 -5.300781 14.546875 -5.5 Z M 14.546875 -5.5 "/></g></g><g style="fill:#396c84;fill-opacity:1;"><g transform="translate(364.658868, 166.022517)"><path style="stroke:none" d="M 3.6875 -10.65625 L 3.6875 -19.078125 C 3.6875 -19.472656 3.625 -19.722656 3.5 -19.828125 C 3.375 -19.941406 3.113281 -20 2.71875 -20 L 1.125 -20 L 1.125 -25.15625 L 6.875 -25.15625 C 8.082031 -25.15625 8.929688 -24.910156 9.421875 -24.421875 C 9.910156 -23.929688 10.15625 -23.085938 10.15625 -21.890625 L 10.15625 -10.65625 Z M 3.6875 -10.65625 "/></g></g><g style="fill:#396c84;fill-opacity:1;"><g transform="translate(376.864778, 166.022517)"><path style="stroke:none" d="M 8.015625 0 L 8.015625 -18.5 C 8.015625 -19.5 7.507812 -20 6.5 -20 L 0.59375 -20 L 0.59375 -25.15625 L 10.28125 -25.15625 C 11.84375 -25.15625 12.9375 -24.832031 13.5625 -24.1875 C 14.195312 -23.550781 14.515625 -22.460938 14.515625 -20.921875 L 14.515625 0 Z M 8.015625 0 "/></g></g><g style="fill:#396c84;fill-opacity:1;"><g transform="translate(393.684612, 166.022517)"><path style="stroke:none" d="M 19.625 -25.15625 C 20.851562 -25.15625 21.675781 -24.734375 22.09375 -23.890625 C 22.519531 -23.054688 22.59375 -22.023438 22.3125 -20.796875 L 18.03125 0 L 11.453125 0 L 15.140625 -19 C 15.222656 -19.46875 15.234375 -19.78125 15.171875 -19.9375 C 15.117188 -20.09375 14.859375 -20.171875 14.390625 -20.171875 L 11.078125 -20.171875 C 10.734375 -20.171875 10.460938 -20.128906 10.265625 -20.046875 C 10.078125 -19.960938 9.984375 -19.640625 9.984375 -19.078125 L 9.984375 1 C 9.984375 1.34375 10.148438 1.515625 10.484375 1.515625 L 11.484375 1.515625 L 11.484375 6.421875 L 5.78125 6.421875 C 4.25 6.421875 3.484375 5.648438 3.484375 4.109375 L 3.484375 -18.28125 C 3.484375 -19.125 3.632812 -19.695312 3.9375 -20 L 1.515625 -20 L 1.515625 -25.15625 Z M 19.625 -25.15625 "/></g></g><g style="fill:#396c84;fill-opacity:1;"><g transform="translate(417.341454, 166.022517)"><path style="stroke:none" d="M 20.171875 -3.5625 C 20.222656 -2.332031 19.960938 -1.429688 19.390625 -0.859375 C 18.816406 -0.285156 17.875 0 16.5625 0 L 10.40625 0 L 10.40625 -5.15625 L 12.5 -5.15625 C 12.945312 -5.15625 13.222656 -5.242188 13.328125 -5.421875 C 13.441406 -5.609375 13.488281 -5.910156 13.46875 -6.328125 L 12.828125 -17.953125 C 12.804688 -18.765625 12.703125 -19.335938 12.515625 -19.671875 C 12.335938 -20.003906 12.007812 -20.171875 11.53125 -20.171875 L 11.359375 -20.171875 C 10.992188 -20.171875 10.734375 -20.066406 10.578125 -19.859375 C 10.429688 -19.648438 10.316406 -19.222656 10.234375 -18.578125 L 7.765625 0 L 1.125 0 L 3.484375 -16.140625 C 3.734375 -17.898438 4.222656 -19.1875 4.953125 -20 L 1.84375 -20 L 1.84375 -25.15625 L 13.796875 -25.15625 C 15.390625 -25.15625 16.675781 -24.722656 17.65625 -23.859375 C 18.632812 -22.992188 19.179688 -21.359375 19.296875 -18.953125 Z M 20.171875 -3.5625 "/></g></g><g style="fill:#396c84;fill-opacity:1;"><g transform="translate(439.02688, 166.022517)"><path style="stroke:none" d="M 6.703125 0 C 5.085938 0 4 -0.507812 3.4375 -1.53125 C 2.875 -2.550781 2.898438 -4.007812 3.515625 -5.90625 L 7.625 -18.65625 C 7.90625 -19.550781 7.597656 -20 6.703125 -20 L 1.796875 -20 C 1.347656 -20 1.035156 -20.085938 0.859375 -20.265625 C 0.679688 -20.453125 0.59375 -20.785156 0.59375 -21.265625 L 0.59375 -28.515625 L 6.703125 -28.515625 L 6.703125 -25.15625 L 11.203125 -25.15625 C 12.796875 -25.15625 13.90625 -24.628906 14.53125 -23.578125 C 15.15625 -22.535156 15.191406 -21.148438 14.640625 -19.421875 L 10.1875 -6.25 C 10.070312 -5.9375 10.050781 -5.675781 10.125 -5.46875 C 10.195312 -5.257812 10.414062 -5.15625 10.78125 -5.15625 L 12.625 -5.15625 L 12.625 0 Z M 6.703125 0 "/></g></g><g style="fill:#396c84;fill-opacity:1;"><g transform="translate(455.217545, 166.022517)"><path style="stroke:none" d=""/></g></g><g style="fill:#396c84;fill-opacity:1;"><g transform="translate(463.816224, 166.022517)"><path style="stroke:none" d="M 16.515625 -25.15625 C 18.085938 -25.15625 19.203125 -24.828125 19.859375 -24.171875 C 20.515625 -23.515625 20.84375 -22.390625 20.84375 -20.796875 L 20.84375 0 L 14.34375 0 L 14.34375 -18.578125 C 14.34375 -19.140625 14.242188 -19.546875 14.046875 -19.796875 C 13.847656 -20.046875 13.484375 -20.171875 12.953125 -20.171875 L 11.828125 -20.171875 C 10.878906 -20.171875 10.222656 -19.875 9.859375 -19.28125 C 9.492188 -18.695312 9.476562 -17.46875 9.8125 -15.59375 L 11.328125 -6.796875 C 11.742188 -4.503906 11.613281 -2.796875 10.9375 -1.671875 C 10.269531 -0.554688 8.914062 0 6.875 0 L 1.296875 0 L 1.296875 -5.15625 L 3.78125 -5.15625 C 4.164062 -5.15625 4.460938 -5.265625 4.671875 -5.484375 C 4.878906 -5.710938 4.941406 -6.132812 4.859375 -6.75 L 3.484375 -14.765625 C 3.203125 -16.328125 3.160156 -17.503906 3.359375 -18.296875 C 3.554688 -19.097656 3.804688 -19.664062 4.109375 -20 L 1.390625 -20 L 1.390625 -25.15625 Z M 16.515625 -25.15625 "/></g></g><g style="fill:#396c84;fill-opacity:1;"><g transform="translate(487.011653, 166.022517)"><path style="stroke:none" d="M 3.734375 0 L 3.734375 -19.078125 C 3.734375 -19.472656 3.671875 -19.722656 3.546875 -19.828125 C 3.421875 -19.941406 3.160156 -20 2.765625 -20 L 1.265625 -20 L 1.265625 -25.15625 L 7.421875 -25.15625 C 8.453125 -25.15625 9.175781 -24.945312 9.59375 -24.53125 C 10.019531 -24.113281 10.234375 -23.398438 10.234375 -22.390625 L 10.234375 0 Z M 3.734375 0 "/></g></g><g style="fill:#396c84;fill-opacity:1;"><g transform="translate(499.55312, 166.022517)"><path style="stroke:none" d="M 16.734375 -25.15625 C 18.210938 -25.15625 19.367188 -24.953125 20.203125 -24.546875 C 21.046875 -24.148438 21.628906 -23.429688 21.953125 -22.390625 C 22.273438 -21.359375 22.367188 -19.890625 22.234375 -17.984375 L 21.46875 -6.703125 C 21.414062 -5.753906 21.269531 -4.890625 21.03125 -4.109375 C 20.789062 -3.328125 20.367188 -2.660156 19.765625 -2.109375 C 19.171875 -1.566406 18.285156 -1.195312 17.109375 -1 L 9.515625 0.25 C 7.785156 0.5625 6.582031 0.445312 5.90625 -0.09375 C 5.238281 -0.644531 4.847656 -1.578125 4.734375 -2.890625 L 3.65625 -17.15625 C 3.59375 -17.789062 3.640625 -18.351562 3.796875 -18.84375 C 3.953125 -19.332031 4.171875 -19.75 4.453125 -20.09375 C 3.660156 -20.195312 2.894531 -20.453125 2.15625 -20.859375 C 1.414062 -21.265625 0.804688 -21.875 0.328125 -22.6875 L 3.734375 -26.59375 C 4.117188 -25.976562 4.515625 -25.582031 4.921875 -25.40625 C 5.328125 -25.238281 5.851562 -25.15625 6.5 -25.15625 Z M 15.984375 -16.234375 C 16.035156 -17.347656 16.039062 -18.191406 16 -18.765625 C 15.957031 -19.335938 15.789062 -19.722656 15.5 -19.921875 C 15.207031 -20.117188 14.695312 -20.203125 13.96875 -20.171875 L 10.6875 -20.09375 C 10.019531 -19.925781 9.726562 -19.363281 9.8125 -18.40625 L 10.78125 -6.5 C 10.832031 -5.96875 10.976562 -5.617188 11.21875 -5.453125 C 11.457031 -5.285156 11.800781 -5.226562 12.25 -5.28125 L 14.09375 -5.65625 C 14.59375 -5.738281 14.945312 -5.945312 15.15625 -6.28125 C 15.363281 -6.625 15.484375 -7.160156 15.515625 -7.890625 Z M 15.984375 -16.234375 "/></g></g><g style="fill:#396c84;fill-opacity:1;"><g transform="translate(523.419685, 166.022517)"><path style="stroke:none" d="M 23.4375 -25.15625 L 23.4375 -20 L 21.046875 -20 C 21.359375 -19.46875 21.515625 -18.460938 21.515625 -16.984375 L 21.515625 0 L 15.015625 0 L 15.015625 -18.109375 C 15.015625 -18.921875 14.953125 -19.4375 14.828125 -19.65625 C 14.703125 -19.882812 14.441406 -20 14.046875 -20 L 10.859375 -20 C 10.492188 -20 10.25 -19.882812 10.125 -19.65625 C 10 -19.4375 9.9375 -18.921875 9.9375 -18.109375 L 9.9375 0 L 3.4375 0 L 3.4375 -16.984375 C 3.4375 -18.460938 3.59375 -19.46875 3.90625 -20 L 1.515625 -20 L 1.515625 -25.15625 Z M 23.4375 -25.15625 "/></g></g><g style="fill:#396c84;fill-opacity:1;"><g transform="translate(548.376807, 166.022517)"><path style="stroke:none" d="M 3.6875 -10.65625 L 3.6875 -19.078125 C 3.6875 -19.472656 3.625 -19.722656 3.5 -19.828125 C 3.375 -19.941406 3.113281 -20 2.71875 -20 L 1.125 -20 L 1.125 -25.15625 L 6.875 -25.15625 C 8.082031 -25.15625 8.929688 -24.910156 9.421875 -24.421875 C 9.910156 -23.929688 10.15625 -23.085938 10.15625 -21.890625 L 10.15625 -10.65625 Z M 3.6875 -10.65625 "/></g></g><g style="fill:#396c84;fill-opacity:1;"><g transform="translate(560.582695, 166.022517)"><path style="stroke:none" d="M 3.6875 -10.65625 L 3.6875 -19.078125 C 3.6875 -19.472656 3.625 -19.722656 3.5 -19.828125 C 3.375 -19.941406 3.113281 -20 2.71875 -20 L 1.125 -20 L 1.125 -25.15625 L 6.875 -25.15625 C 8.082031 -25.15625 8.929688 -24.910156 9.421875 -24.421875 C 9.910156 -23.929688 10.15625 -23.085938 10.15625 -21.890625 L 10.15625 -10.65625 Z M 3.6875 -10.65625 "/></g></g><g style="fill:#396c84;fill-opacity:1;"><g transform="translate(572.788628, 166.022517)"><path style="stroke:none" d="M 16.515625 -25.15625 C 18.085938 -25.15625 19.203125 -24.828125 19.859375 -24.171875 C 20.515625 -23.515625 20.84375 -22.390625 20.84375 -20.796875 L 20.84375 0 L 14.34375 0 L 14.34375 -18.578125 C 14.34375 -19.140625 14.242188 -19.546875 14.046875 -19.796875 C 13.847656 -20.046875 13.484375 -20.171875 12.953125 -20.171875 L 11.828125 -20.171875 C 10.878906 -20.171875 10.222656 -19.875 9.859375 -19.28125 C 9.492188 -18.695312 9.476562 -17.46875 9.8125 -15.59375 L 11.328125 -6.796875 C 11.742188 -4.503906 11.613281 -2.796875 10.9375 -1.671875 C 10.269531 -0.554688 8.914062 0 6.875 0 L 1.296875 0 L 1.296875 -5.15625 L 3.78125 -5.15625 C 4.164062 -5.15625 4.460938 -5.265625 4.671875 -5.484375 C 4.878906 -5.710938 4.941406 -6.132812 4.859375 -6.75 L 3.484375 -14.765625 C 3.203125 -16.328125 3.160156 -17.503906 3.359375 -18.296875 C 3.554688 -19.097656 3.804688 -19.664062 4.109375 -20 L 1.390625 -20 L 1.390625 -25.15625 Z M 16.515625 -25.15625 "/></g></g><g style="fill:#396c84;fill-opacity:1;"><g transform="translate(595.984081, 166.022517)"><path style="stroke:none" d="M 13.171875 0 L 13.171875 -18.75 C 13.171875 -19.25 13.078125 -19.582031 12.890625 -19.75 C 12.710938 -19.914062 12.375 -20 11.875 -20 L 2.1875 -20 L 2.1875 -25.15625 L 15.859375 -25.15625 C 17.253906 -25.15625 18.238281 -24.828125 18.8125 -24.171875 C 19.382812 -23.515625 19.671875 -22.390625 19.671875 -20.796875 L 19.671875 0 Z M 4.3125 0 C 2.894531 0 2.1875 -0.726562 2.1875 -2.1875 L 2.1875 -15.6875 L 8.6875 -15.6875 L 8.6875 -5.953125 C 8.6875 -5.421875 8.894531 -5.15625 9.3125 -5.15625 L 9.859375 -5.15625 L 9.859375 0 Z M 4.3125 0 "/></g></g><g style="fill:#396c84;fill-opacity:1;"><g transform="translate(617.963117, 166.022517)"><path style="stroke:none" d="M 6.703125 0 C 5.085938 0 4 -0.507812 3.4375 -1.53125 C 2.875 -2.550781 2.898438 -4.007812 3.515625 -5.90625 L 7.625 -18.65625 C 7.90625 -19.550781 7.597656 -20 6.703125 -20 L 1.796875 -20 C 1.347656 -20 1.035156 -20.085938 0.859375 -20.265625 C 0.679688 -20.453125 0.59375 -20.785156 0.59375 -21.265625 L 0.59375 -28.515625 L 6.703125 -28.515625 L 6.703125 -25.15625 L 11.203125 -25.15625 C 12.796875 -25.15625 13.90625 -24.628906 14.53125 -23.578125 C 15.15625 -22.535156 15.191406 -21.148438 14.640625 -19.421875 L 10.1875 -6.25 C 10.070312 -5.9375 10.050781 -5.675781 10.125 -5.46875 C 10.195312 -5.257812 10.414062 -5.15625 10.78125 -5.15625 L 12.625 -5.15625 L 12.625 0 Z M 6.703125 0 "/></g></g><g style="fill:#396c84;fill-opacity:1;"><g transform="translate(634.15376, 166.022517)"><path style="stroke:none" d=""/></g></g><g style="fill:#396c84;fill-opacity:1;"><g transform="translate(642.752462, 166.022517)"><path style="stroke:none" d="M 16.515625 -25.15625 C 18.085938 -25.15625 19.203125 -24.828125 19.859375 -24.171875 C 20.515625 -23.515625 20.84375 -22.390625 20.84375 -20.796875 L 20.84375 0 L 14.34375 0 L 14.34375 -18.578125 C 14.34375 -19.140625 14.242188 -19.546875 14.046875 -19.796875 C 13.847656 -20.046875 13.484375 -20.171875 12.953125 -20.171875 L 11.828125 -20.171875 C 10.878906 -20.171875 10.222656 -19.875 9.859375 -19.28125 C 9.492188 -18.695312 9.476562 -17.46875 9.8125 -15.59375 L 11.328125 -6.796875 C 11.742188 -4.503906 11.613281 -2.796875 10.9375 -1.671875 C 10.269531 -0.554688 8.914062 0 6.875 0 L 1.296875 0 L 1.296875 -5.15625 L 3.78125 -5.15625 C 4.164062 -5.15625 4.460938 -5.265625 4.671875 -5.484375 C 4.878906 -5.710938 4.941406 -6.132812 4.859375 -6.75 L 3.484375 -14.765625 C 3.203125 -16.328125 3.160156 -17.503906 3.359375 -18.296875 C 3.554688 -19.097656 3.804688 -19.664062 4.109375 -20 L 1.390625 -20 L 1.390625 -25.15625 Z M 16.515625 -25.15625 "/></g></g><g style="fill:#396c84;fill-opacity:1;"><g transform="translate(665.947869, 166.022517)"><path style="stroke:none" d="M 3.734375 0 L 3.734375 -19.078125 C 3.734375 -19.472656 3.671875 -19.722656 3.546875 -19.828125 C 3.421875 -19.941406 3.160156 -20 2.765625 -20 L 1.265625 -20 L 1.265625 -25.15625 L 7.421875 -25.15625 C 8.453125 -25.15625 9.175781 -24.945312 9.59375 -24.53125 C 10.019531 -24.113281 10.234375 -23.398438 10.234375 -22.390625 L 10.234375 0 Z M 3.734375 0 "/></g></g><g style="fill:#396c84;fill-opacity:1;"><g transform="translate(678.489359, 166.022517)"><path style="stroke:none" d="M 3.6875 -10.65625 L 3.6875 -19.078125 C 3.6875 -19.472656 3.625 -19.722656 3.5 -19.828125 C 3.375 -19.941406 3.113281 -20 2.71875 -20 L 1.125 -20 L 1.125 -25.15625 L 6.875 -25.15625 C 8.082031 -25.15625 8.929688 -24.910156 9.421875 -24.421875 C 9.910156 -23.929688 10.15625 -23.085938 10.15625 -21.890625 L 10.15625 -10.65625 Z M 3.6875 -10.65625 "/></g></g><g style="fill:#396c84;fill-opacity:1;"><g transform="translate(690.695292, 166.022517)"><path style="stroke:none" d="M 23.4375 -25.15625 L 23.4375 -20 L 21.046875 -20 C 21.359375 -19.46875 21.515625 -18.460938 21.515625 -16.984375 L 21.515625 0 L 15.015625 0 L 15.015625 -18.109375 C 15.015625 -18.921875 14.953125 -19.4375 14.828125 -19.65625 C 14.703125 -19.882812 14.441406 -20 14.046875 -20 L 10.859375 -20 C 10.492188 -20 10.25 -19.882812 10.125 -19.65625 C 10 -19.4375 9.9375 -18.921875 9.9375 -18.109375 L 9.9375 0 L 3.4375 0 L 3.4375 -16.984375 C 3.4375 -18.460938 3.59375 -19.46875 3.90625 -20 L 1.515625 -20 L 1.515625 -25.15625 Z M 23.4375 -25.15625 "/></g></g><g style="fill:#396c84;fill-opacity:1;"><g transform="translate(715.652415, 166.022517)"><path style="stroke:none" d="M 0.125 0 L 0.125 -5.15625 L 3.609375 -5.15625 C 4.191406 -5.15625 4.582031 -5.253906 4.78125 -5.453125 C 4.976562 -5.648438 5.078125 -6.054688 5.078125 -6.671875 L 5.078125 -18.75 C 5.078125 -19.25 4.992188 -19.582031 4.828125 -19.75 C 4.660156 -19.914062 4.335938 -20 3.859375 -20 L 2.390625 -20 L 2.390625 -25.15625 L 7.71875 -25.15625 C 9.113281 -25.15625 10.101562 -24.84375 10.6875 -24.21875 C 11.28125 -23.59375 11.578125 -22.535156 11.578125 -21.046875 L 11.578125 -4.1875 C 11.578125 -2.65625 11.273438 -1.570312 10.671875 -0.9375 C 10.066406 -0.3125 9.050781 0 7.625 0 Z M 0.125 0 "/></g></g><g style="fill:#396c84;fill-opacity:1;"><g transform="translate(729.326384, 166.022517)"><path style="stroke:none" d="M 13.171875 0 L 13.171875 -18.75 C 13.171875 -19.25 13.078125 -19.582031 12.890625 -19.75 C 12.710938 -19.914062 12.375 -20 11.875 -20 L 2.1875 -20 L 2.1875 -25.15625 L 15.859375 -25.15625 C 17.253906 -25.15625 18.238281 -24.828125 18.8125 -24.171875 C 19.382812 -23.515625 19.671875 -22.390625 19.671875 -20.796875 L 19.671875 0 Z M 4.3125 0 C 2.894531 0 2.1875 -0.726562 2.1875 -2.1875 L 2.1875 -15.6875 L 8.6875 -15.6875 L 8.6875 -5.953125 C 8.6875 -5.421875 8.894531 -5.15625 9.3125 -5.15625 L 9.859375 -5.15625 L 9.859375 0 Z M 4.3125 0 "/></g></g><g clip-rule="nonzero" clip-path="url(#ab6a9f51e1)"><path style=" stroke:none;fill-rule:nonzero;fill:#e0f5ff;fill-opacity:1;" d="M 570.90625 24.886719 L 558.710938 101.671875 C 557.660156 108.261719 551.945312 113.085938 545.269531 113.015625 L 503.234375 112.550781 L 449.566406 111.96875 L 288.59375 110.207031 L 234.941406 109.628906 L 187.40625 109.046875 L 133.8125 108.457031 L 30.800781 113.996094 C 29.722656 114.042969 28.859375 113.105469 28.976562 112.03125 L 29.476562 107.460938 L 30.90625 94.636719 C 30.929688 94.386719 31.015625 94.148438 31.132812 93.9375 L 34.421875 88.3125 C 34.683594 87.851562 34.730469 87.296875 34.550781 86.800781 L 32.5625 81.425781 C 32.46875 81.167969 32.433594 80.894531 32.46875 80.625 L 33.152344 74.433594 L 34.621094 61.214844 L 35.355469 54.601562 L 36.089844 48 L 37.558594 34.789062 L 38.289062 28.175781 L 38.988281 21.953125 C 39.011719 21.703125 39.09375 21.457031 39.226562 21.242188 L 43.757812 13.574219 C 44.171875 12.886719 44.066406 12 43.496094 11.433594 C 43.144531 11.066406 42.988281 10.628906 42.988281 10.203125 C 42.988281 9.277344 43.710938 8.390625 44.785156 8.402344 L 47.933594 9.003906 L 212.21875 3.46875 L 255.699219 4.128906 L 319.894531 4.820312 L 376.09375 5.445312 L 436.289062 6.09375 L 496.476562 6.746094 L 558.179688 9.332031 C 566.21875 9.667969 572.167969 16.941406 570.90625 24.886719 "/></g><g clip-rule="nonzero" clip-path="url(#622094017f)"><path style=" stroke:none;fill-rule:nonzero;fill:#e0f5ff;fill-opacity:1;" d="M 818.96875 24.886719 L 806.773438 101.671875 C 805.726562 108.261719 800.007812 113.085938 793.335938 113.015625 L 751.296875 112.550781 L 697.632812 111.96875 L 536.660156 110.207031 L 483.007812 109.628906 L 435.46875 109.046875 L 381.875 108.457031 L 278.863281 113.996094 C 277.789062 114.042969 276.925781 113.105469 277.042969 112.03125 L 277.539062 107.460938 L 278.972656 94.636719 C 278.996094 94.386719 279.078125 94.148438 279.195312 93.9375 L 282.484375 88.3125 C 282.746094 87.851562 282.792969 87.296875 282.613281 86.800781 L 280.628906 81.425781 C 280.53125 81.167969 280.496094 80.894531 280.53125 80.625 L 281.21875 74.433594 L 282.6875 61.214844 L 283.421875 54.601562 L 284.152344 48 L 285.621094 34.789062 L 286.355469 28.175781 L 287.054688 21.953125 C 287.074219 21.703125 287.160156 21.457031 287.289062 21.242188 L 291.824219 13.574219 C 292.238281 12.886719 292.128906 12 291.5625 11.433594 C 291.207031 11.066406 291.054688 10.628906 291.054688 10.203125 C 291.054688 9.277344 291.777344 8.390625 292.851562 8.402344 L 296 9.003906 L 460.285156 3.46875 L 503.761719 4.128906 L 567.960938 4.820312 L 624.15625 5.445312 L 684.355469 6.09375 L 744.539062 6.746094 L 806.246094 9.332031 C 814.285156 9.667969 820.230469 16.941406 818.96875 24.886719 "/></g><g style="fill:#396c84;fill-opacity:1;"><g transform="translate(97.744103, 100.313994)"><path style="stroke:none" d="M 22.390625 0.734375 C 15.722656 0.734375 10.84375 -0.789062 7.75 -3.84375 C 4.664062 -6.90625 3.125 -11.921875 3.125 -18.890625 L 17.15625 -18.890625 C 17.15625 -15.710938 17.519531 -13.4375 18.25 -12.0625 C 18.988281 -10.6875 20.179688 -10 21.828125 -10 C 23.421875 -10 24.613281 -10.503906 25.40625 -11.515625 C 26.207031 -12.523438 26.609375 -14.160156 26.609375 -16.421875 C 26.609375 -18.066406 26.53125 -19.59375 26.375 -21 C 26.21875 -22.40625 25.679688 -23.691406 24.765625 -24.859375 C 23.847656 -26.023438 22.257812 -27.035156 20 -27.890625 L 6.609375 -32.9375 C 5.441406 -33.425781 4.597656 -34.035156 4.078125 -34.765625 C 3.554688 -35.503906 3.296875 -36.546875 3.296875 -37.890625 L 3.296875 -54.484375 C 3.296875 -57.910156 4.976562 -59.625 8.34375 -59.625 L 36.140625 -59.625 C 38.710938 -59.625 40 -58.28125 40 -55.59375 L 40 -44.578125 L 26.328125 -44.578125 L 26.328125 -46.875 C 26.328125 -47.488281 26.234375 -47.882812 26.046875 -48.0625 C 25.867188 -48.25 25.472656 -48.34375 24.859375 -48.34375 L 19.359375 -48.34375 C 18.253906 -48.34375 17.703125 -47.851562 17.703125 -46.875 L 17.703125 -43.03125 C 17.703125 -42.289062 17.789062 -41.75 17.96875 -41.40625 C 18.15625 -41.070312 18.707031 -40.722656 19.625 -40.359375 L 28.71875 -36.78125 C 33.238281 -35.070312 36.335938 -32.609375 38.015625 -29.390625 C 39.703125 -26.179688 40.546875 -21.976562 40.546875 -16.78125 C 40.546875 -10.425781 39.109375 -5.914062 36.234375 -3.25 C 33.359375 -0.59375 28.742188 0.734375 22.390625 0.734375 Z M 22.390625 0.734375 "/></g></g><g style="fill:#396c84;fill-opacity:1;"><g transform="translate(141.050165, 100.313994)"><path style="stroke:none" d=""/></g></g><g style="fill:#396c84;fill-opacity:1;"><g transform="translate(159.854961, 100.313994)"><path style="stroke:none" d="M 42.9375 -55.046875 C 45.625 -55.046875 47.425781 -54.125 48.34375 -52.28125 C 49.257812 -50.445312 49.410156 -48.1875 48.796875 -45.5 L 39.453125 0 L 25.046875 0 L 33.109375 -41.5625 C 33.296875 -42.59375 33.328125 -43.273438 33.203125 -43.609375 C 33.085938 -43.953125 32.507812 -44.125 31.46875 -44.125 L 24.21875 -44.125 C 23.476562 -44.125 22.894531 -44.03125 22.46875 -43.84375 C 22.039062 -43.664062 21.828125 -42.960938 21.828125 -41.734375 L 21.828125 2.203125 C 21.828125 2.929688 22.195312 3.296875 22.9375 3.296875 L 25.140625 3.296875 L 25.140625 14.03125 L 12.65625 14.03125 C 9.289062 14.03125 7.609375 12.347656 7.609375 8.984375 L 7.609375 -40 C 7.609375 -41.832031 7.945312 -43.082031 8.625 -43.75 L 3.296875 -43.75 L 3.296875 -55.046875 Z M 42.9375 -55.046875 "/></g></g><g style="fill:#396c84;fill-opacity:1;"><g transform="translate(211.591071, 100.313994)"><path style="stroke:none" d="M 17.515625 0 L 17.515625 -40.453125 C 17.515625 -42.648438 16.414062 -43.75 14.21875 -43.75 L 1.28125 -43.75 L 1.28125 -55.046875 L 22.46875 -55.046875 C 25.894531 -55.046875 28.296875 -54.34375 29.671875 -52.9375 C 31.046875 -51.53125 31.734375 -49.144531 31.734375 -45.78125 L 31.734375 0 Z M 17.515625 0 "/></g></g><g style="fill:#396c84;fill-opacity:1;"><g transform="translate(248.375084, 100.313994)"><path style="stroke:none" d="M 4.21875 0 L 4.21875 -11.28125 L 25.78125 -11.28125 C 27.976562 -11.28125 29.078125 -12.351562 29.078125 -14.5 L 29.078125 -41.1875 C 29.078125 -42.351562 28.96875 -43.132812 28.75 -43.53125 C 28.539062 -43.925781 27.796875 -44.125 26.515625 -44.125 L 22.203125 -44.125 C 20.972656 -44.125 20.160156 -43.925781 19.765625 -43.53125 C 19.367188 -43.132812 19.109375 -42.351562 18.984375 -41.1875 L 17.984375 -33.109375 C 17.921875 -32.253906 18.007812 -31.660156 18.25 -31.328125 C 18.5 -30.992188 19.050781 -30.828125 19.90625 -30.828125 L 23.296875 -30.828125 L 23.296875 -19.8125 L 10.359375 -19.8125 C 7.609375 -19.8125 5.664062 -20.4375 4.53125 -21.6875 C 3.40625 -22.945312 2.992188 -24.921875 3.296875 -27.609375 L 5.59375 -47.15625 C 5.894531 -49.90625 6.734375 -51.90625 8.109375 -53.15625 C 9.492188 -54.414062 11.53125 -55.046875 14.21875 -55.046875 L 34.125 -55.046875 C 37.488281 -55.046875 39.859375 -54.351562 41.234375 -52.96875 C 42.609375 -51.59375 43.296875 -49.195312 43.296875 -45.78125 L 43.296875 -9.171875 C 43.296875 -5.804688 42.609375 -3.4375 41.234375 -2.0625 C 39.859375 -0.6875 37.488281 0 34.125 0 Z M 4.21875 0 "/></g></g><g style="fill:#396c84;fill-opacity:1;"><g transform="translate(296.350236, 100.313994)"><path style="stroke:none" d=""/></g></g><g style="fill:#396c84;fill-opacity:1;"><g transform="translate(315.155031, 100.313994)"><path style="stroke:none" d="M 36.140625 -55.046875 C 39.566406 -55.046875 42 -54.328125 43.4375 -52.890625 C 44.875 -51.453125 45.59375 -48.988281 45.59375 -45.5 L 45.59375 0 L 31.375 0 L 31.375 -40.640625 C 31.375 -41.859375 31.160156 -42.742188 30.734375 -43.296875 C 30.304688 -43.847656 29.507812 -44.125 28.34375 -44.125 L 25.875 -44.125 C 23.789062 -44.125 22.347656 -43.476562 21.546875 -42.1875 C 20.753906 -40.90625 20.726562 -38.21875 21.46875 -34.125 L 24.765625 -14.859375 C 25.679688 -9.847656 25.40625 -6.117188 23.9375 -3.671875 C 22.46875 -1.222656 19.503906 0 15.046875 0 L 2.84375 0 L 2.84375 -11.28125 L 8.25 -11.28125 C 9.113281 -11.28125 9.773438 -11.523438 10.234375 -12.015625 C 10.691406 -12.503906 10.828125 -13.421875 10.640625 -14.765625 L 7.609375 -32.296875 C 7.003906 -35.710938 6.914062 -38.289062 7.34375 -40.03125 C 7.769531 -41.78125 8.316406 -43.019531 8.984375 -43.75 L 3.03125 -43.75 L 3.03125 -55.046875 Z M 36.140625 -55.046875 "/></g></g><g style="fill:#396c84;fill-opacity:1;"><g transform="translate(365.882121, 100.313994)"><path style="stroke:none" d="M 18.34375 -28.796875 C 17.550781 -28.492188 17.09375 -28.066406 16.96875 -27.515625 C 16.84375 -26.960938 16.9375 -26.078125 17.25 -24.859375 L 21.375 -11.5625 C 22.414062 -8.257812 22.628906 -5.503906 22.015625 -3.296875 C 21.398438 -1.097656 19.535156 0 16.421875 0 L 3.125 0 L 3.125 -11.28125 L 6.046875 -11.28125 C 6.847656 -11.28125 7.1875 -11.617188 7.0625 -12.296875 L 4.671875 -23.765625 C 4.066406 -26.640625 4.023438 -28.992188 4.546875 -30.828125 C 5.066406 -32.660156 5.953125 -34.1875 7.203125 -35.40625 C 8.453125 -36.632812 9.8125 -37.644531 11.28125 -38.4375 L 12.65625 -39.171875 L 3.203125 -55.046875 L 17.703125 -55.046875 L 30.546875 -31.921875 C 31.035156 -32.222656 31.367188 -32.601562 31.546875 -33.0625 C 31.734375 -33.53125 31.828125 -34.28125 31.828125 -35.3125 L 31.828125 -55.046875 L 45.40625 -55.046875 L 45.40625 -34.21875 C 45.40625 -31.40625 44.835938 -29.035156 43.703125 -27.109375 C 42.578125 -25.179688 40.609375 -23.363281 37.796875 -21.65625 L 36.515625 -20.828125 L 47.25 0 L 32.9375 0 L 18.4375 -28.796875 Z M 18.34375 -28.796875 "/></g></g><g style="fill:#396c84;fill-opacity:1;"><g transform="translate(415.049761, 100.313994)"><path style="stroke:none" d=""/></g></g><g style="fill:#396c84;fill-opacity:1;"><g transform="translate(433.854556, 100.313994)"><path style="stroke:none" d="M 14.671875 0 C 11.128906 0 8.742188 -1.113281 7.515625 -3.34375 C 6.296875 -5.582031 6.359375 -8.78125 7.703125 -12.9375 L 16.703125 -40.828125 C 17.304688 -42.773438 16.628906 -43.75 14.671875 -43.75 L 3.9375 -43.75 C 2.96875 -43.75 2.28125 -43.945312 1.875 -44.34375 C 1.476562 -44.75 1.28125 -45.472656 1.28125 -46.515625 L 1.28125 -62.375 L 14.671875 -62.375 L 14.671875 -55.046875 L 24.5 -55.046875 C 27.976562 -55.046875 30.40625 -53.894531 31.78125 -51.59375 C 33.15625 -49.300781 33.234375 -46.257812 32.015625 -42.46875 L 22.296875 -13.671875 C 22.046875 -12.992188 22 -12.425781 22.15625 -11.96875 C 22.3125 -11.507812 22.785156 -11.28125 23.578125 -11.28125 L 27.609375 -11.28125 L 27.609375 0 Z M 14.671875 0 "/></g></g><g style="fill:#396c84;fill-opacity:1;"><g transform="translate(469.262601, 100.313994)"><path style="stroke:none" d="M 8.078125 -23.296875 L 8.078125 -41.734375 C 8.078125 -42.597656 7.9375 -43.148438 7.65625 -43.390625 C 7.382812 -43.628906 6.820312 -43.75 5.96875 -43.75 L 2.484375 -43.75 L 2.484375 -55.046875 L 15.046875 -55.046875 C 17.671875 -55.046875 19.519531 -54.507812 20.59375 -53.4375 C 21.664062 -52.363281 22.203125 -50.515625 22.203125 -47.890625 L 22.203125 -23.296875 Z M 8.078125 -23.296875 "/></g></g><g style="fill:#396c84;fill-opacity:1;"><g transform="translate(495.956251, 100.313994)"><path style="stroke:none" d="M 51.28125 -55.046875 L 51.28125 -43.75 L 46.046875 -43.75 C 46.722656 -42.59375 47.0625 -40.394531 47.0625 -37.15625 L 47.0625 0 L 32.84375 0 L 32.84375 -39.625 C 32.84375 -41.40625 32.703125 -42.535156 32.421875 -43.015625 C 32.148438 -43.503906 31.585938 -43.75 30.734375 -43.75 L 23.765625 -43.75 C 22.960938 -43.75 22.421875 -43.503906 22.140625 -43.015625 C 21.867188 -42.535156 21.734375 -41.40625 21.734375 -39.625 L 21.734375 0 L 7.515625 0 L 7.515625 -37.15625 C 7.515625 -40.394531 7.851562 -42.59375 8.53125 -43.75 L 3.296875 -43.75 L 3.296875 -55.046875 Z M 51.28125 -55.046875 "/></g></g><g style="fill:#396c84;fill-opacity:1;"><g transform="translate(550.536004, 100.313994)"><path style="stroke:none" d="M 36.140625 -55.046875 C 39.566406 -55.046875 42 -54.328125 43.4375 -52.890625 C 44.875 -51.453125 45.59375 -48.988281 45.59375 -45.5 L 45.59375 0 L 31.375 0 L 31.375 -40.640625 C 31.375 -41.859375 31.160156 -42.742188 30.734375 -43.296875 C 30.304688 -43.847656 29.507812 -44.125 28.34375 -44.125 L 25.875 -44.125 C 23.789062 -44.125 22.347656 -43.476562 21.546875 -42.1875 C 20.753906 -40.90625 20.726562 -38.21875 21.46875 -34.125 L 24.765625 -14.859375 C 25.679688 -9.847656 25.40625 -6.117188 23.9375 -3.671875 C 22.46875 -1.222656 19.503906 0 15.046875 0 L 2.84375 0 L 2.84375 -11.28125 L 8.25 -11.28125 C 9.113281 -11.28125 9.773438 -11.523438 10.234375 -12.015625 C 10.691406 -12.503906 10.828125 -13.421875 10.640625 -14.765625 L 7.609375 -32.296875 C 7.003906 -35.710938 6.914062 -38.289062 7.34375 -40.03125 C 7.769531 -41.78125 8.316406 -43.019531 8.984375 -43.75 L 3.03125 -43.75 L 3.03125 -55.046875 Z M 36.140625 -55.046875 "/></g></g><g style="fill:#396c84;fill-opacity:1;"><g transform="translate(601.263058, 100.313994)"><path style="stroke:none" d="M 0.28125 0 L 0.28125 -11.28125 L 7.890625 -11.28125 C 9.171875 -11.28125 10.023438 -11.492188 10.453125 -11.921875 C 10.878906 -12.347656 11.09375 -13.234375 11.09375 -14.578125 L 11.09375 -41 C 11.09375 -42.101562 10.910156 -42.835938 10.546875 -43.203125 C 10.179688 -43.566406 9.476562 -43.75 8.4375 -43.75 L 5.234375 -43.75 L 5.234375 -55.046875 L 16.875 -55.046875 C 19.9375 -55.046875 22.109375 -54.351562 23.390625 -52.96875 C 24.671875 -51.59375 25.3125 -49.285156 25.3125 -46.046875 L 25.3125 -9.171875 C 25.3125 -5.804688 24.65625 -3.4375 23.34375 -2.0625 C 22.03125 -0.6875 19.816406 0 16.703125 0 Z M 0.28125 0 "/></g></g><g style="fill:#396c84;fill-opacity:1;"><g transform="translate(631.167297, 100.313994)"><path style="stroke:none" d=""/></g></g><g style="fill:#396c84;fill-opacity:1;"><g transform="translate(649.972069, 100.313994)"><path style="stroke:none" d="M 8.171875 0 L 8.171875 -41.734375 C 8.171875 -42.597656 8.03125 -43.148438 7.75 -43.390625 C 7.476562 -43.628906 6.910156 -43.75 6.046875 -43.75 L 2.75 -43.75 L 2.75 -55.046875 L 16.234375 -55.046875 C 18.492188 -55.046875 20.082031 -54.582031 21 -53.65625 C 21.925781 -52.738281 22.390625 -51.179688 22.390625 -48.984375 L 22.390625 0 Z M 8.171875 0 "/></g></g><g style="fill:#396c84;fill-opacity:1;"><g transform="translate(677.399544, 100.313994)"><path style="stroke:none" d="M 18.34375 -28.796875 C 17.550781 -28.492188 17.09375 -28.066406 16.96875 -27.515625 C 16.84375 -26.960938 16.9375 -26.078125 17.25 -24.859375 L 21.375 -11.5625 C 22.414062 -8.257812 22.628906 -5.503906 22.015625 -3.296875 C 21.398438 -1.097656 19.535156 0 16.421875 0 L 3.125 0 L 3.125 -11.28125 L 6.046875 -11.28125 C 6.847656 -11.28125 7.1875 -11.617188 7.0625 -12.296875 L 4.671875 -23.765625 C 4.066406 -26.640625 4.023438 -28.992188 4.546875 -30.828125 C 5.066406 -32.660156 5.953125 -34.1875 7.203125 -35.40625 C 8.453125 -36.632812 9.8125 -37.644531 11.28125 -38.4375 L 12.65625 -39.171875 L 3.203125 -55.046875 L 17.703125 -55.046875 L 30.546875 -31.921875 C 31.035156 -32.222656 31.367188 -32.601562 31.546875 -33.0625 C 31.734375 -33.53125 31.828125 -34.28125 31.828125 -35.3125 L 31.828125 -55.046875 L 45.40625 -55.046875 L 45.40625 -34.21875 C 45.40625 -31.40625 44.835938 -29.035156 43.703125 -27.109375 C 42.578125 -25.179688 40.609375 -23.363281 37.796875 -21.65625 L 36.515625 -20.828125 L 47.25 0 L 32.9375 0 L 18.4375 -28.796875 Z M 18.34375 -28.796875 "/></g></g><g style="fill:#396c84;fill-opacity:1;"><g transform="translate(726.567184, 100.313994)"><path style="stroke:none" d="M 8.171875 0 L 8.171875 -41.734375 C 8.171875 -42.597656 8.03125 -43.148438 7.75 -43.390625 C 7.476562 -43.628906 6.910156 -43.75 6.046875 -43.75 L 2.75 -43.75 L 2.75 -55.046875 L 16.234375 -55.046875 C 18.492188 -55.046875 20.082031 -54.582031 21 -53.65625 C 21.925781 -52.738281 22.390625 -51.179688 22.390625 -48.984375 L 22.390625 0 Z M 8.171875 0 "/></g></g><g style="fill:#396c84;fill-opacity:1;"><g transform="translate(753.994706, 100.313994)"><path style="stroke:none" d="M 35.140625 -11.28125 L 37.890625 -11.28125 L 37.890625 0 L 1.65625 0 L 1.65625 -11.28125 L 19.546875 -11.28125 C 19.359375 -11.644531 19.203125 -12.085938 19.078125 -12.609375 C 18.953125 -13.128906 18.890625 -13.695312 18.890625 -14.3125 L 18.890625 -41 C 18.890625 -42.101562 18.707031 -42.835938 18.34375 -43.203125 C 17.976562 -43.566406 17.242188 -43.75 16.140625 -43.75 L 2.65625 -43.75 L 2.65625 -55.046875 L 24.3125 -55.046875 C 27.550781 -55.046875 29.828125 -54.328125 31.140625 -52.890625 C 32.453125 -51.453125 33.109375 -48.988281 33.109375 -45.5 L 33.109375 -13.578125 C 33.109375 -12.046875 33.785156 -11.28125 35.140625 -11.28125 Z M 35.140625 -11.28125 "/></g></g></g></svg>